<svg xmlns="http://www.w3.org/2000/svg" xmlns:xlink="http://www.w3.org/1999/xlink" fill="none" version="1.1" width="36" height="36" viewBox="0 0 36 36"><defs><clipPath id="master_svg0_197_601"><rect x="0" y="0" width="36" height="36" rx="0"/></clipPath></defs><g clip-path="url(#master_svg0_197_601)"><g><rect x="0" y="0" width="36" height="36" rx="0" fill="#FFFFFF" fill-opacity="0.009999999776482582"/></g><g><path d="M4.349151611328125,17L31.349151611328125,17Q31.447651611328126,17,31.544251611328125,17.019215Q31.640851611328124,17.038429999999998,31.731851611328125,17.076121Q31.822851611328126,17.113812,31.904751611328123,17.16853Q31.986651611328124,17.223249,32.05625161132812,17.292893Q32.12585161132813,17.362537,32.18065161132812,17.44443Q32.23535161132813,17.526322,32.27305161132813,17.617317Q32.31075161132813,17.708311,32.32995161132813,17.80491Q32.349151611328125,17.9015086,32.349151611328125,18Q32.349151611328125,18.0984914,32.32995161132813,18.19509Q32.31075161132813,18.291689,32.27305161132813,18.382683Q32.23535161132813,18.473678,32.18065161132812,18.55557Q32.12585161132813,18.637463,32.05625161132812,18.707107Q31.986651611328124,18.776751,31.904751611328123,18.83147Q31.822851611328126,18.886188,31.731851611328125,18.923879Q31.640851611328124,18.961570000000002,31.544251611328125,18.980785Q31.447651611328126,19,31.349151611328125,19L4.349151611328125,19Q4.250660211328125,19,4.154061611328125,18.980785Q4.057462611328125,18.961570000000002,3.966468611328125,18.923879Q3.875473611328125,18.886188,3.793581611328125,18.83147Q3.711688611328125,18.776751,3.642044611328125,18.707107Q3.572400611328125,18.637463,3.517681611328125,18.55557Q3.4629636113281252,18.473678,3.425272611328125,18.382683Q3.387581611328125,18.291689,3.368366611328125,18.19509Q3.349151611328125,18.0984914,3.349151611328125,18Q3.349151611328125,17.9015086,3.368366611328125,17.80491Q3.387581611328125,17.708311,3.425272611328125,17.617317Q3.4629636113281252,17.526322,3.517681611328125,17.44443Q3.572400611328125,17.362537,3.642044611328125,17.292893Q3.711688611328125,17.223249,3.793581611328125,17.16853Q3.875473611328125,17.113812,3.966468611328125,17.076121Q4.057462611328125,17.038429999999998,4.154061611328125,17.019215Q4.250660211328125,17,4.349151611328125,17Z" fill-rule="evenodd" fill="#000000" fill-opacity="0.8500000238418579"/></g><g><path d="M14.05620109375,9.707106Q14.19686109375,9.566454,14.27298109375,9.382683Q14.34910109375,9.198912,14.34910109375,9Q14.34910109375,8.9015086,14.32988109375,8.80491Q14.31067109375,8.708311,14.27298109375,8.617317Q14.23528109375,8.526322,14.18057109375,8.44443Q14.12585109375,8.362537,14.05620109375,8.292893Q13.98656109375,8.223249,13.90467109375,8.16853Q13.82277109375,8.113812,13.73178109375,8.076121Q13.64079109375,8.03843,13.54419109375,8.019214999999999Q13.44759109375,8,13.34910109375,8Q13.15018109375,8,12.96641109375,8.076121Q12.78264109375,8.152241,12.64199109375,8.292894L12.64168109375,8.293208L3.64201309375,17.29289Q3.57237009375,17.36254,3.51765109375,17.44443Q3.46293209375,17.52632,3.42524109375,17.61732Q3.38755009375,17.70831,3.36833609375,17.80491Q3.34912109375,17.901510000000002,3.34912109375,18Q3.34912109375,18.098489999999998,3.36833609375,18.19509Q3.38755009375,18.29169,3.42524109375,18.38268Q3.46293209375,18.47368,3.51765109375,18.55557Q3.57237009375,18.63746,3.64201309375,18.70711L12.64147109375,27.7066L12.64199109375,27.7071Q12.78264109375,27.8478,12.96641109375,27.9239Q13.15018109375,28,13.34910109375,28Q13.44759109375,28,13.54419109375,27.9808Q13.64079109375,27.9616,13.73178109375,27.9239Q13.82277109375,27.8862,13.90467109375,27.8315Q13.98656109375,27.7767,14.05620109375,27.7071Q14.12585109375,27.6375,14.18057109375,27.5556Q14.23528109375,27.4737,14.27298109375,27.3827Q14.31067109375,27.2917,14.32988109375,27.1951Q14.34910109375,27.0985,14.34910109375,27Q14.34910109375,26.8011,14.27298109375,26.6173Q14.19686109375,26.4335,14.05620109375,26.2929L14.05569109375,26.2924L5.76333109375,18L14.05589109375,9.70742L14.05620109375,9.707106L14.05620109375,9.707106Z" fill-rule="evenodd" fill="#000000" fill-opacity="0.8500000238418579"/></g></g></svg>