<svg xmlns="http://www.w3.org/2000/svg" xmlns:xlink="http://www.w3.org/1999/xlink" fill="none" version="1.1" width="24" height="24" viewBox="0 0 24 24"><defs><clipPath id="master_svg0_197_812"><rect x="0" y="0" width="24" height="24" rx="0"/></clipPath></defs><g clip-path="url(#master_svg0_197_812)"><g><rect x="0" y="0" width="24" height="24" rx="0" fill="#FFFFFF" fill-opacity="0.009999999776482582"/></g><g><path d="M7.707226,6.293012L17.7071,16.29289Q17.8478,16.43355,17.9239,16.61732Q18,16.801090000000002,18,17Q18,17.0985,17.980800000000002,17.1951Q17.9616,17.2917,17.9239,17.3827Q17.886200000000002,17.4737,17.8315,17.5556Q17.776699999999998,17.6375,17.7071,17.7071Q17.6375,17.776699999999998,17.5556,17.8315Q17.4737,17.886200000000002,17.3827,17.9239Q17.2917,17.9616,17.1951,17.980800000000002Q17.0985,18,17,18Q16.801090000000002,18,16.61732,17.9239Q16.43355,17.8478,16.29289,17.7071L6.292893,7.707107Q6.152241,7.566455,6.0761199999999995,7.382683Q6,7.198912,6,7Q6,6.9015086,6.019215,6.80491Q6.03843,6.708311,6.076121,6.617317Q6.113812,6.526322,6.16853,6.44443Q6.223249,6.362537,6.292893,6.292893Q6.362537,6.223249,6.44443,6.16853Q6.526322,6.113812,6.617317,6.076121Q6.708311,6.03843,6.80491,6.019215Q6.9015086,6,7,6Q7.198912,6,7.382683,6.0761199999999995Q7.566455,6.152241,7.707107,6.292893L7.707226,6.293012Z" fill-rule="evenodd" fill="#000000" fill-opacity="0.8500000238418579"/></g><g><path d="M17.7071,7.707107Q17.8478,7.566455,17.9239,7.382683Q18,7.198912,18,7Q18,6.9015086,17.980800000000002,6.80491Q17.9616,6.708311,17.9239,6.617317Q17.886200000000002,6.526322,17.8315,6.44443Q17.776699999999998,6.362537,17.7071,6.292893Q17.6375,6.223249,17.5556,6.16853Q17.4737,6.113812,17.3827,6.076121Q17.2917,6.03843,17.1951,6.019215Q17.0985,6,17,6Q16.801090000000002,6,16.61732,6.0761199999999995Q16.43355,6.152241,16.29289,6.292893L16.29252,6.293268L6.293268,16.29252L6.292893,16.29289Q6.152241,16.43355,6.076121,16.61732Q6,16.801090000000002,6,17Q6,17.0985,6.019215,17.1951Q6.03843,17.2917,6.076121,17.3827Q6.113812,17.4737,6.16853,17.5556Q6.223249,17.6375,6.292893,17.7071Q6.362537,17.776699999999998,6.44443,17.8315Q6.526322,17.886200000000002,6.617317,17.9239Q6.708311,17.9616,6.80491,17.980800000000002Q6.9015086,18,7,18Q7.198912,18,7.382683,17.9239Q7.566455,17.8478,7.707107,17.7071L17.706699999999998,7.707482L17.7071,7.707107L17.7071,7.707107Z" fill-rule="evenodd" fill="#000000" fill-opacity="0.8500000238418579"/></g></g></svg>