<svg xmlns="http://www.w3.org/2000/svg" xmlns:xlink="http://www.w3.org/1999/xlink" fill="none" version="1.1" width="50" height="50" viewBox="0 0 50 50"><defs><clipPath id="master_svg0_1223_00329"><rect x="0" y="0" width="50" height="50" rx="0"/></clipPath></defs><g clip-path="url(#master_svg0_1223_00329)"><g><rect x="0" y="0" width="50" height="50" rx="0" fill="#FFFFFF" fill-opacity="0.009999999776482582"/></g><g><path d="M11.960565,11.84791L26,23.5474L40.0387,11.848510000000001L40.039699999999996,11.84767Q40.2419,11.67919,40.4894,11.58959Q40.7368,11.5,41,11.5Q41.0737,11.5,41.147,11.50722Q41.2204,11.51445,41.2926,11.52882Q41.3649,11.5432,41.4354,11.564589999999999Q41.5059,11.58598,41.574,11.61418Q41.6421,11.64238,41.7071,11.67712Q41.772099999999995,11.71186,41.8334,11.7528Q41.8946,11.79374,41.9516,11.84048Q42.0086,11.88723,42.0607,11.93934Q42.1128,11.99145,42.1595,12.04841Q42.2063,12.105373,42.2472,12.166645Q42.2881,12.227916,42.322900000000004,12.292905Q42.357600000000005,12.357894,42.3858,12.425975Q42.414,12.494056,42.4354,12.564573Q42.4568,12.63509,42.471199999999996,12.707365Q42.485600000000005,12.779639,42.4928,12.852974Q42.5,12.9263097,42.5,13Q42.5,13.164921,42.464200000000005,13.325902Q42.4283,13.486883,42.3584,13.636233Q42.288399999999996,13.785584,42.1877,13.916168Q42.087,14.04675,41.960300000000004,14.15233L41.9593,14.15318L26.9603,26.6523Q26.86,26.7359,26.7467,26.8009Q26.6334,26.866,26.5106,26.9104Q26.3878,26.954900000000002,26.2592,26.9774Q26.1306,27,26,27Q25.8694,27,25.7408,26.9774Q25.6122,26.954900000000002,25.4894,26.9104Q25.3666,26.866,25.2533,26.8009Q25.14,26.7359,25.0397,26.6523L10.040012,14.15257L10.039724,14.15233Q9.91303,14.04675,9.8123,13.916168Q9.71157,13.785584,9.64162,13.636233Q9.57166,13.486883,9.53583,13.325902Q9.5,13.164921,9.5,13Q9.5,12.9263097,9.50722,12.852974Q9.51445,12.779639,9.52882,12.707365Q9.5432,12.63509,9.564589999999999,12.564573Q9.58598,12.494056,9.61418,12.425975Q9.64238,12.357894,9.67712,12.292905Q9.71186,12.227916,9.7528,12.166645Q9.79374,12.105373,9.84048,12.04841Q9.88723,11.99145,9.93934,11.93934Q9.99145,11.88723,10.04841,11.84048Q10.105373,11.79374,10.166645,11.7528Q10.227916,11.71186,10.292905,11.67712Q10.357894,11.64238,10.425975,11.61418Q10.494056,11.58598,10.564573,11.564589999999999Q10.63509,11.5432,10.707365,11.52882Q10.779639,11.51445,10.852974,11.50722Q10.9263097,11.5,11,11.5Q11.263179,11.5,11.510638,11.58959Q11.758097,11.67919,11.960277,11.84767L11.960565,11.84791Z" fill-rule="evenodd" fill="#000000" fill-opacity="0.6000000238418579"/></g><g><path d="M11.960565,24.34791L26,36.047399999999996L40.0387,24.34851L40.039699999999996,24.34767Q40.2419,24.17919,40.4894,24.08959Q40.7368,24,41,24Q41.0737,24,41.147,24.00722Q41.2204,24.01445,41.2926,24.02882Q41.3649,24.0432,41.4354,24.06459Q41.5059,24.08598,41.574,24.11418Q41.6421,24.14238,41.7071,24.17712Q41.772099999999995,24.21186,41.8334,24.2528Q41.8946,24.29374,41.9516,24.34048Q42.0086,24.38723,42.0607,24.43934Q42.1128,24.49145,42.1595,24.54841Q42.2063,24.605373,42.2472,24.666645Q42.2881,24.727916,42.322900000000004,24.792905Q42.357600000000005,24.857894,42.3858,24.925975Q42.414,24.994056,42.4354,25.064573Q42.4568,25.13509,42.471199999999996,25.207365Q42.485600000000005,25.279639,42.4928,25.352974Q42.5,25.4263097,42.5,25.5Q42.5,25.664921,42.464200000000005,25.825902Q42.4283,25.986883,42.3584,26.136233Q42.288399999999996,26.285584,42.1877,26.416168Q42.087,26.54675,41.960300000000004,26.65233L41.9593,26.65318L26.9603,39.1523Q26.86,39.2359,26.7467,39.3009Q26.6334,39.366,26.5106,39.410399999999996Q26.3878,39.4549,26.2592,39.4774Q26.1306,39.5,26,39.5Q25.8694,39.5,25.7408,39.4774Q25.6122,39.4549,25.4894,39.410399999999996Q25.3666,39.366,25.2533,39.3009Q25.14,39.2359,25.0397,39.1523L10.040012,26.65257L10.039724,26.65233Q9.91303,26.54675,9.8123,26.416168Q9.71157,26.285584,9.64162,26.136233Q9.57166,25.986883,9.53583,25.825902Q9.5,25.664921,9.5,25.5Q9.5,25.4263097,9.50722,25.352974Q9.51445,25.279639,9.52882,25.207365Q9.5432,25.13509,9.564589999999999,25.064573Q9.58598,24.994056,9.61418,24.925975Q9.64238,24.857894,9.67712,24.792905Q9.71186,24.727916,9.7528,24.666645Q9.79374,24.605373,9.84048,24.54841Q9.88723,24.49145,9.93934,24.43934Q9.99145,24.38723,10.04841,24.34048Q10.105373,24.29374,10.166645,24.2528Q10.227916,24.21186,10.292905,24.17712Q10.357894,24.14238,10.425975,24.11418Q10.494056,24.08598,10.564573,24.06459Q10.63509,24.0432,10.707365,24.02882Q10.779639,24.01445,10.852974,24.00722Q10.9263097,24,11,24Q11.263179,24,11.510638,24.08959Q11.758097,24.17919,11.960277,24.34767L11.960565,24.34791Z" fill-rule="evenodd" fill="#000000" fill-opacity="0.6000000238418579"/></g></g></svg>