<svg xmlns="http://www.w3.org/2000/svg" xmlns:xlink="http://www.w3.org/1999/xlink" fill="none" version="1.1" width="56" height="119" viewBox="0 0 56 119"><g transform="matrix(0,1,-1,0,56,-56)"><path d="M56.54,43L62.876,43L68.276,33.64L68.492,33.64L73.604,43L80.12,43L72.416,30.076L79.868,18.016L73.568,18.016L68.564,26.944L68.348,26.944L63.452,18.016L57.08,18.016L64.388,30.292L56.54,43Z" fill="#EF5B5B" fill-opacity="1"/><path d="M91.208,29.464L108.56,29.464L108.56,26.404L91.208,26.404L91.208,29.464ZM91.208,37.96L108.56,37.96L108.56,34.9L91.208,34.9L91.208,37.96ZM128.39600000000002,40.624C126.02,40.624,125.588,39.904,125.588,36.88L125.588,26.152L130.412,26.152L130.412,23.56L125.588,23.56L125.588,18.952L122.492,18.952L122.492,23.56L119.612,23.56L119.612,26.152L122.492,26.152L122.492,37.06C122.492,42.172,124.04,43.216,128.324,43.216C129.152,43.216,129.764,43.144,130.51999999999998,43.036L130.51999999999998,40.408C129.836,40.552,129.26,40.624,128.39600000000002,40.624ZM149.924,31.336C149.924,27.556,148.772,23.2,142.148,23.2C136.60399999999998,23.2,133.328,25.54,133.328,33.28C133.328,41.02,136.60399999999998,43.36,142.328,43.36C145.1,43.36,147.764,42.784,148.88,42.208L148.88,39.364C147.404,40.084,144.92000000000002,40.624,142.796,40.624C138.07999999999998,40.624,136.60399999999998,38.68,136.56799999999998,34.432L149.744,33.604C149.852,32.704,149.924,31.876,149.924,31.336ZM136.56799999999998,32.128C136.676,28.168,137.684,25.756,142.148,25.756C146.36,25.756,146.864,28.384,146.864,31.372L136.56799999999998,32.128ZM164.612,23.2C162.236,23.2,159.572,23.848,158.38400000000001,26.332L158.38400000000001,23.56L155.288,23.56L155.288,43L158.38400000000001,43L158.38400000000001,29.86C159.464,26.44,161.84,25.972,164.288,25.972C167.38400000000001,25.972,167.99599999999998,27.7,167.99599999999998,30.688L167.99599999999998,43L171.128,43L171.128,29.536C171.128,25.828,169.688,23.2,164.612,23.2Z" fill="#000000" fill-opacity="0.30000001192092896"/></g></svg>