<svg xmlns="http://www.w3.org/2000/svg" xmlns:xlink="http://www.w3.org/1999/xlink" fill="none" version="1.1" width="56" height="196" viewBox="0 0 56 196"><g transform="matrix(0,1,-1,0,56,-56)"><path d="M56.54,43L62.876,43L68.276,33.64L68.492,33.64L73.604,43L80.12,43L72.416,30.076L79.868,18.016L73.568,18.016L68.564,26.944L68.348,26.944L63.452,18.016L57.08,18.016L64.388,30.292L56.54,43ZM91.208,29.464L108.56,29.464L108.56,26.404L91.208,26.404L91.208,29.464ZM91.208,37.96L108.56,37.96L108.56,34.9L91.208,34.9L91.208,37.96ZM137.792,31.336C137.792,27.556,136.64,23.2,130.01600000000002,23.2C124.472,23.2,121.196,25.54,121.196,33.28C121.196,41.02,124.472,43.36,130.196,43.36C132.96800000000002,43.36,135.632,42.784,136.748,42.208L136.748,39.364C135.272,40.084,132.788,40.624,130.664,40.624C125.948,40.624,124.472,38.68,124.436,34.432L137.612,33.604C137.72,32.704,137.792,31.876,137.792,31.336ZM124.436,32.128C124.544,28.168,125.552,25.756,130.01600000000002,25.756C134.228,25.756,134.732,28.384,134.732,31.372L124.436,32.128ZM140.204,43L146.36,43L150.464,36.304L150.68,36.304L154.712,43L160.904,43L154.244,33.028L160.54399999999998,23.56L154.49599999999998,23.56L150.716,29.896L150.5,29.896L146.72,23.56L140.6,23.56L146.936,33.064L140.204,43ZM173.9,23.2C170.192,23.2,168.392,24.748,167.6,27.052L167.6,23.56L164.50400000000002,23.56L164.50400000000002,50.2L167.6,50.2L167.6,39.616C168.392,41.884,170.12,43.36,173.9,43.36C180.416,43.36,181.928,38.644,181.928,33.28C181.928,27.34,180.416,23.2,173.9,23.2ZM173.50400000000002,40.732C168.824,40.732,167.45600000000002,37.744,167.45600000000002,33.28C167.45600000000002,28.636,168.824,25.792,173.50400000000002,25.792C178.00400000000002,25.792,178.688,29.176,178.688,33.28C178.688,37.06,178.112,40.732,173.50400000000002,40.732ZM191.684,43.216C192.548,43.216,193.16,43.144,193.736,43L193.736,40.444C193.232,40.588,192.692,40.624,192.26,40.624C191,40.624,190.46,40.228,190.46,38.284L190.46,15.64L187.364,15.64L187.364,39.076C187.364,41.992,188.804,43.216,191.684,43.216ZM205.508,43.36C211.268,43.36,214.472,41.02,214.472,33.28C214.472,25.54,211.268,23.2,205.508,23.2C199.784,23.2,196.508,25.54,196.508,33.28C196.508,41.02,199.784,43.36,205.508,43.36ZM205.508,40.732C201.296,40.732,199.82,38.968,199.82,33.28C199.82,27.592,201.152,25.792,205.508,25.792C209.756,25.792,211.196,27.592,211.196,33.28C211.196,38.968,209.9,40.732,205.508,40.732ZM229.196,23.2C226.856,23.2,224.228,23.848,223.004,27.088L223.004,23.56L219.908,23.56L219.908,43L223.004,43L223.004,30.292C224.084,26.836,226.532,26.008,229.016,26.008L229.448,26.008L229.556,23.2L229.196,23.2ZM248.312,31.336C248.312,27.556,247.16,23.2,240.536,23.2C234.992,23.2,231.716,25.54,231.716,33.28C231.716,41.02,234.992,43.36,240.716,43.36C243.488,43.36,246.152,42.784,247.268,42.208L247.268,39.364C245.792,40.084,243.308,40.624,241.184,40.624C236.468,40.624,234.992,38.68,234.956,34.432L248.132,33.604C248.24,32.704,248.312,31.876,248.312,31.336ZM234.956,32.128C235.064,28.168,236.072,25.756,240.536,25.756C244.748,25.756,245.252,28.384,245.252,31.372L234.956,32.128Z" fill="#FFFFFF" fill-opacity="1"/></g></svg>