<svg xmlns="http://www.w3.org/2000/svg" xmlns:xlink="http://www.w3.org/1999/xlink" fill="none" version="1.1" width="56" height="266" viewBox="0 0 56 266"><g transform="matrix(0,1,-1,0,56,-56)"><path d="M56.54,43L62.876,43L68.276,33.64L68.492,33.64L73.604,43L80.12,43L72.416,30.076L79.868,18.016L73.568,18.016L68.564,26.944L68.348,26.944L63.452,18.016L57.08,18.016L64.388,30.292L56.54,43ZM91.208,29.464L108.56,29.464L108.56,26.404L91.208,26.404L91.208,29.464ZM91.208,37.96L108.56,37.96L108.56,34.9L91.208,34.9L91.208,37.96ZM137.792,31.336C137.792,27.556,136.64,23.2,130.01600000000002,23.2C124.472,23.2,121.196,25.54,121.196,33.28C121.196,41.02,124.472,43.36,130.196,43.36C132.96800000000002,43.36,135.632,42.784,136.748,42.208L136.748,39.364C135.272,40.084,132.788,40.624,130.664,40.624C125.948,40.624,124.472,38.68,124.436,34.432L137.612,33.604C137.72,32.704,137.792,31.876,137.792,31.336ZM124.436,32.128C124.544,28.168,125.552,25.756,130.01600000000002,25.756C134.228,25.756,134.732,28.384,134.732,31.372L124.436,32.128ZM140.204,43L146.36,43L150.464,36.304L150.68,36.304L154.712,43L160.904,43L154.244,33.028L160.54399999999998,23.56L154.49599999999998,23.56L150.716,29.896L150.5,29.896L146.72,23.56L140.6,23.56L146.936,33.064L140.204,43ZM176.924,23.56L176.924,36.772C175.808,40.12,173.648,40.624,171.2,40.624C168.10399999999998,40.624,167.45600000000002,38.824,167.45600000000002,35.872L167.45600000000002,23.56L164.36,23.56L164.36,37.024C164.36,40.768,165.8,43.36,170.876,43.36C173.252,43.36,175.808,42.748,176.99599999999998,40.192L177.392,43L180.01999999999998,43L180.01999999999998,23.56L176.924,23.56ZM195.968,23.2C192.26,23.2,190.46,24.748,189.668,27.052L189.668,15.64L186.572,15.64L186.572,43L189.272,43L189.668,39.616C190.46,41.884,192.188,43.36,195.968,43.36C202.484,43.36,203.996,38.644,203.996,33.28C203.996,27.34,202.484,23.2,195.968,23.2ZM195.572,40.732C190.892,40.732,189.524,37.744,189.524,33.28C189.524,28.636,190.892,25.792,195.572,25.792C200.072,25.792,200.756,29.212,200.756,33.28C200.756,37.06,200.18,40.732,195.572,40.732ZM224.876,31.336C224.876,27.556,223.724,23.2,217.1,23.2C211.556,23.2,208.28,25.54,208.28,33.28C208.28,41.02,211.556,43.36,217.28,43.36C220.052,43.36,222.716,42.784,223.832,42.208L223.832,39.364C222.356,40.084,219.872,40.624,217.748,40.624C213.032,40.624,211.556,38.68,211.52,34.432L224.696,33.604C224.804,32.704,224.876,31.876,224.876,31.336ZM211.52,32.128C211.628,28.168,212.636,25.756,217.1,25.756C221.312,25.756,221.816,28.384,221.816,31.372L211.52,32.128ZM239.528,23.2C237.188,23.2,234.56,23.848,233.336,27.088L233.336,23.56L230.24,23.56L230.24,43L233.336,43L233.336,30.292C234.416,26.836,236.864,26.008,239.348,26.008L239.78,26.008L239.888,23.2L239.528,23.2ZM249.824,23.2C248.42,23.2,246.836,23.308,245.396,23.488L245.396,26.224C246.8,25.936,248.384,25.792,249.68,25.792C253.64,25.792,254.468,27.412,254.468,29.752L254.468,31.372L248.528,31.372C243.884,31.372,240.824,32.956,240.824,37.564C240.824,41.236,242.876,43.36,247.52,43.36C250.436,43.36,253.352,42.172,254.468,40.048L254.936,43L257.56399999999996,43L257.56399999999996,29.212C257.56399999999996,25.72,255.944,23.2,249.824,23.2ZM247.808,40.768C245.072,40.768,244.028,39.652,244.028,37.528C244.028,34.504,245.54,33.856,248.744,33.856L254.468,33.856L254.468,37.06C253.46,39.364,251.048,40.768,247.808,40.768ZM273.476,23.2C271.1,23.2,268.43600000000004,23.848,267.248,26.332L267.248,23.56L264.152,23.56L264.152,43L267.248,43L267.248,29.86C268.328,26.44,270.704,25.972,273.152,25.972C276.248,25.972,276.86,27.7,276.86,30.688L276.86,43L279.99199999999996,43L279.99199999999996,29.536C279.99199999999996,25.828,278.552,23.2,273.476,23.2ZM294.248,43.36C296.084,43.36,298.31600000000003,43.036,299.39599999999996,42.64L299.39599999999996,39.796C297.99199999999996,40.372,296.156,40.624,294.32,40.624C290,40.624,288.56,38.968,288.56,33.316C288.56,27.592,290,25.9,294.284,25.9C296.264,25.9,297.884,26.224,299.324,26.764L299.324,23.92C298.244,23.56,296.408,23.2,294.248,23.2C288.524,23.2,285.248,25.54,285.248,33.28C285.248,41.02,288.524,43.36,294.248,43.36ZM319.736,31.336C319.736,27.556,318.584,23.2,311.96000000000004,23.2C306.416,23.2,303.14,25.54,303.14,33.28C303.14,41.02,306.416,43.36,312.14,43.36C314.912,43.36,317.576,42.784,318.692,42.208L318.692,39.364C317.216,40.084,314.732,40.624,312.608,40.624C307.892,40.624,306.416,38.68,306.38,34.432L319.556,33.604C319.664,32.704,319.736,31.876,319.736,31.336ZM306.38,32.128C306.488,28.168,307.496,25.756,311.96000000000004,25.756C316.172,25.756,316.676,28.384,316.676,31.372L306.38,32.128Z" fill="#FFFFFF" fill-opacity="1"/></g></svg>