<svg xmlns="http://www.w3.org/2000/svg" xmlns:xlink="http://www.w3.org/1999/xlink" fill="none" version="1.1" width="56" height="211" viewBox="0 0 56 211"><g transform="matrix(0,1,-1,0,56,-56)"><path d="M56.54,43L62.876,43L68.276,33.64L68.492,33.64L73.604,43L80.12,43L72.416,30.076L79.868,18.016L73.568,18.016L68.564,26.944L68.348,26.944L63.452,18.016L57.08,18.016L64.388,30.292L56.54,43ZM91.208,29.464L108.56,29.464L108.56,26.404L91.208,26.404L91.208,29.464ZM91.208,37.96L108.56,37.96L108.56,34.9L91.208,34.9L91.208,37.96ZM137.792,31.336C137.792,27.556,136.64,23.2,130.01600000000002,23.2C124.472,23.2,121.196,25.54,121.196,33.28C121.196,41.02,124.472,43.36,130.196,43.36C132.96800000000002,43.36,135.632,42.784,136.748,42.208L136.748,39.364C135.272,40.084,132.788,40.624,130.664,40.624C125.948,40.624,124.472,38.68,124.436,34.432L137.612,33.604C137.72,32.704,137.792,31.876,137.792,31.336ZM124.436,32.128C124.544,28.168,125.552,25.756,130.01600000000002,25.756C134.228,25.756,134.732,28.384,134.732,31.372L124.436,32.128ZM140.204,43L146.36,43L150.464,36.304L150.68,36.304L154.712,43L160.904,43L154.244,33.028L160.54399999999998,23.56L154.49599999999998,23.56L150.716,29.896L150.5,29.896L146.72,23.56L140.6,23.56L146.936,33.064L140.204,43ZM173.9,23.2C170.192,23.2,168.392,24.748,167.6,27.052L167.6,23.56L164.50400000000002,23.56L164.50400000000002,50.2L167.6,50.2L167.6,39.616C168.392,41.884,170.12,43.36,173.9,43.36C180.416,43.36,181.928,38.644,181.928,33.28C181.928,27.34,180.416,23.2,173.9,23.2ZM173.50400000000002,40.732C168.824,40.732,167.45600000000002,37.744,167.45600000000002,33.28C167.45600000000002,28.636,168.824,25.792,173.50400000000002,25.792C178.00400000000002,25.792,178.688,29.176,178.688,33.28C178.688,37.06,178.112,40.732,173.50400000000002,40.732ZM195.068,23.2C193.664,23.2,192.08,23.308,190.64,23.488L190.64,26.224C192.044,25.936,193.628,25.792,194.924,25.792C198.884,25.792,199.712,27.412,199.712,29.752L199.712,31.372L193.772,31.372C189.128,31.372,186.068,32.956,186.068,37.564C186.068,41.236,188.12,43.36,192.764,43.36C195.68,43.36,198.596,42.172,199.712,40.048L200.18,43L202.808,43L202.808,29.212C202.808,25.72,201.188,23.2,195.068,23.2ZM193.052,40.768C190.316,40.768,189.272,39.652,189.272,37.528C189.272,34.504,190.784,33.856,193.988,33.856L199.712,33.856L199.712,37.06C198.704,39.364,196.292,40.768,193.052,40.768ZM218.72,23.2C216.344,23.2,213.68,23.848,212.492,26.332L212.492,23.56L209.396,23.56L209.396,43L212.492,43L212.492,29.86C213.572,26.44,215.948,25.972,218.396,25.972C221.492,25.972,222.104,27.7,222.104,30.688L222.104,43L225.236,43L225.236,29.536C225.236,25.828,223.796,23.2,218.72,23.2ZM236.144,43.216C240.896,43.216,243.524,41.452,243.524,37.6C243.524,33.856,241.904,32.632,237.44,31.624C234.416,30.94,233.732,30.508,233.732,28.528C233.732,26.332,235.1,25.72,237.836,25.72C239.636,25.72,241.364,26.044,242.48,26.476L242.696,23.848C241.76,23.488,239.672,23.2,237.8,23.2C233.192,23.2,230.816,25.324,230.816,28.456C230.816,31.732,231.968,33.1,236.252,34.072C239.96,34.936,240.608,35.404,240.608,37.708C240.608,39.976,239.06,40.696,236.108,40.696C234.344,40.696,231.86,40.336,230.492,39.94L230.492,42.604C231.572,42.928,234.272,43.216,236.144,43.216ZM264.332,31.336C264.332,27.556,263.18,23.2,256.55600000000004,23.2C251.012,23.2,247.736,25.54,247.736,33.28C247.736,41.02,251.012,43.36,256.736,43.36C259.50800000000004,43.36,262.172,42.784,263.288,42.208L263.288,39.364C261.812,40.084,259.328,40.624,257.204,40.624C252.488,40.624,251.012,38.68,250.976,34.432L264.152,33.604C264.26,32.704,264.332,31.876,264.332,31.336ZM250.976,32.128C251.084,28.168,252.092,25.756,256.55600000000004,25.756C260.76800000000003,25.756,261.272,28.384,261.272,31.372L250.976,32.128Z" fill="#FFFFFF" fill-opacity="1"/></g></svg>