<svg xmlns="http://www.w3.org/2000/svg" xmlns:xlink="http://www.w3.org/1999/xlink" fill="none" version="1.1" width="56" height="145" viewBox="0 0 56 145"><g transform="matrix(0,1,-1,0,56,-56)"><path d="M56.54,43L62.876,43L68.276,33.64L68.492,33.64L73.604,43L80.12,43L72.416,30.076L79.868,18.016L73.568,18.016L68.564,26.944L68.348,26.944L63.452,18.016L57.08,18.016L64.388,30.292L56.54,43ZM140.204,43L146.36,43L150.464,36.304L150.68,36.304L154.712,43L160.904,43L154.244,33.028L160.54399999999998,23.56L154.49599999999998,23.56L150.716,29.896L150.5,29.896L146.72,23.56L140.6,23.56L146.936,33.064L140.204,43Z" fill="#4F90CA" fill-opacity="1"/><path d="M91.208,29.464L108.56,29.464L108.56,26.404L91.208,26.404L91.208,29.464ZM91.208,37.96L108.56,37.96L108.56,34.9L91.208,34.9L91.208,37.96ZM137.792,31.336C137.792,27.556,136.64,23.2,130.01600000000002,23.2C124.472,23.2,121.196,25.54,121.196,33.28C121.196,41.02,124.472,43.36,130.196,43.36C132.96800000000002,43.36,135.632,42.784,136.748,42.208L136.748,39.364C135.272,40.084,132.788,40.624,130.664,40.624C125.948,40.624,124.472,38.68,124.436,34.432L137.612,33.604C137.72,32.704,137.792,31.876,137.792,31.336ZM124.436,32.128C124.544,28.168,125.552,25.756,130.01600000000002,25.756C134.228,25.756,134.732,28.384,134.732,31.372L124.436,32.128ZM166.088,19.996C167.38400000000001,19.996,167.924,19.744,167.924,18.16C167.924,16.54,167.38400000000001,16.324,166.088,16.324C164.72,16.324,164.216,16.54,164.216,18.16C164.216,19.744,164.72,19.996,166.088,19.996ZM164.50400000000002,43L167.6,43L167.6,23.56L164.50400000000002,23.56L164.50400000000002,43ZM178.652,43.216C183.404,43.216,186.032,41.452,186.032,37.6C186.032,33.856,184.412,32.632,179.94799999999998,31.624C176.924,30.94,176.24,30.508,176.24,28.528C176.24,26.332,177.608,25.72,180.344,25.72C182.144,25.72,183.872,26.044,184.988,26.476L185.204,23.848C184.268,23.488,182.18,23.2,180.308,23.2C175.7,23.2,173.324,25.324,173.324,28.456C173.324,31.732,174.476,33.1,178.76,34.072C182.46800000000002,34.936,183.11599999999999,35.404,183.11599999999999,37.708C183.11599999999999,39.976,181.56799999999998,40.696,178.61599999999999,40.696C176.852,40.696,174.368,40.336,173,39.94L173,42.604C174.07999999999998,42.928,176.78,43.216,178.652,43.216ZM197.444,40.624C195.068,40.624,194.636,39.904,194.636,36.88L194.636,26.152L199.46,26.152L199.46,23.56L194.636,23.56L194.636,18.952L191.54,18.952L191.54,23.56L188.66,23.56L188.66,26.152L191.54,26.152L191.54,37.06C191.54,42.172,193.088,43.216,197.372,43.216C198.2,43.216,198.812,43.144,199.568,43.036L199.568,40.408C198.884,40.552,198.308,40.624,197.444,40.624Z" fill="#000000" fill-opacity="0.30000001192092896"/></g></svg>