<svg xmlns="http://www.w3.org/2000/svg" xmlns:xlink="http://www.w3.org/1999/xlink" fill="none" version="1.1" width="56" height="268" viewBox="0 0 56 268"><g transform="matrix(0,1,-1,0,56,-56)"><path d="M56.54,43L62.876,43L68.276,33.64L68.492,33.64L73.604,43L80.12,43L72.416,30.076L79.868,18.016L73.568,18.016L68.564,26.944L68.348,26.944L63.452,18.016L57.08,18.016L64.388,30.292L56.54,43ZM91.208,29.464L108.56,29.464L108.56,26.404L91.208,26.404L91.208,29.464ZM91.208,37.96L108.56,37.96L108.56,34.9L91.208,34.9L91.208,37.96ZM137.792,31.336C137.792,27.556,136.64,23.2,130.01600000000002,23.2C124.472,23.2,121.196,25.54,121.196,33.28C121.196,41.02,124.472,43.36,130.196,43.36C132.96800000000002,43.36,135.632,42.784,136.748,42.208L136.748,39.364C135.272,40.084,132.788,40.624,130.664,40.624C125.948,40.624,124.472,38.68,124.436,34.432L137.612,33.604C137.72,32.704,137.792,31.876,137.792,31.336ZM124.436,32.128C124.544,28.168,125.552,25.756,130.01600000000002,25.756C134.228,25.756,134.732,28.384,134.732,31.372L124.436,32.128ZM140.204,43L146.36,43L150.464,36.304L150.68,36.304L154.712,43L160.904,43L154.244,33.028L160.54399999999998,23.56L154.49599999999998,23.56L150.716,29.896L150.5,29.896L146.72,23.56L140.6,23.56L146.936,33.064L140.204,43ZM173.9,23.2C170.192,23.2,168.392,24.748,167.6,27.052L167.6,23.56L164.50400000000002,23.56L164.50400000000002,50.2L167.6,50.2L167.6,39.616C168.392,41.884,170.12,43.36,173.9,43.36C180.416,43.36,181.928,38.644,181.928,33.28C181.928,27.34,180.416,23.2,173.9,23.2ZM173.50400000000002,40.732C168.824,40.732,167.45600000000002,37.744,167.45600000000002,33.28C167.45600000000002,28.636,168.824,25.792,173.50400000000002,25.792C178.00400000000002,25.792,178.688,29.176,178.688,33.28C178.688,37.06,178.112,40.732,173.50400000000002,40.732ZM202.808,31.336C202.808,27.556,201.656,23.2,195.032,23.2C189.488,23.2,186.212,25.54,186.212,33.28C186.212,41.02,189.488,43.36,195.212,43.36C197.984,43.36,200.648,42.784,201.764,42.208L201.764,39.364C200.288,40.084,197.804,40.624,195.68,40.624C190.964,40.624,189.488,38.68,189.452,34.432L202.628,33.604C202.736,32.704,202.808,31.876,202.808,31.336ZM189.452,32.128C189.56,28.168,190.568,25.756,195.032,25.756C199.244,25.756,199.748,28.384,199.748,31.372L189.452,32.128ZM216.02,43.36C217.856,43.36,220.088,43.036,221.168,42.64L221.168,39.796C219.764,40.372,217.928,40.624,216.092,40.624C211.772,40.624,210.332,38.968,210.332,33.316C210.332,27.592,211.772,25.9,216.056,25.9C218.036,25.9,219.656,26.224,221.096,26.764L221.096,23.92C220.016,23.56,218.18,23.2,216.02,23.2C210.296,23.2,207.02,25.54,207.02,33.28C207.02,41.02,210.296,43.36,216.02,43.36ZM232.112,40.624C229.736,40.624,229.304,39.904,229.304,36.88L229.304,26.152L234.128,26.152L234.128,23.56L229.304,23.56L229.304,18.952L226.208,18.952L226.208,23.56L223.328,23.56L223.328,26.152L226.208,26.152L226.208,37.06C226.208,42.172,227.756,43.216,232.04,43.216C232.868,43.216,233.48,43.144,234.236,43.036L234.236,40.408C233.552,40.552,232.976,40.624,232.112,40.624ZM245.9,23.2C244.496,23.2,242.912,23.308,241.472,23.488L241.472,26.224C242.876,25.936,244.46,25.792,245.756,25.792C249.716,25.792,250.544,27.412,250.544,29.752L250.544,31.372L244.604,31.372C239.96,31.372,236.9,32.956,236.9,37.564C236.9,41.236,238.952,43.36,243.596,43.36C246.512,43.36,249.428,42.172,250.544,40.048L251.012,43L253.64,43L253.64,29.212C253.64,25.72,252.02,23.2,245.9,23.2ZM243.884,40.768C241.148,40.768,240.104,39.652,240.104,37.528C240.104,34.504,241.616,33.856,244.82,33.856L250.544,33.856L250.544,37.06C249.536,39.364,247.124,40.768,243.884,40.768ZM266.276,40.624C263.9,40.624,263.46799999999996,39.904,263.46799999999996,36.88L263.46799999999996,26.152L268.29200000000003,26.152L268.29200000000003,23.56L263.46799999999996,23.56L263.46799999999996,18.952L260.372,18.952L260.372,23.56L257.49199999999996,23.56L257.49199999999996,26.152L260.372,26.152L260.372,37.06C260.372,42.172,261.91999999999996,43.216,266.204,43.216C267.03200000000004,43.216,267.644,43.144,268.4,43.036L268.4,40.408C267.716,40.552,267.14,40.624,266.276,40.624ZM273.94399999999996,19.996C275.24,19.996,275.78,19.744,275.78,18.16C275.78,16.54,275.24,16.324,273.94399999999996,16.324C272.576,16.324,272.072,16.54,272.072,18.16C272.072,19.744,272.576,19.996,273.94399999999996,19.996ZM272.36,43L275.456,43L275.456,23.56L272.36,23.56L272.36,43ZM289.856,43.36C295.616,43.36,298.82,41.02,298.82,33.28C298.82,25.54,295.616,23.2,289.856,23.2C284.132,23.2,280.856,25.54,280.856,33.28C280.856,41.02,284.132,43.36,289.856,43.36ZM289.856,40.732C285.644,40.732,284.168,38.968,284.168,33.28C284.168,27.592,285.5,25.792,289.856,25.792C294.10400000000004,25.792,295.544,27.592,295.544,33.28C295.544,38.968,294.248,40.732,289.856,40.732ZM313.58,23.2C311.204,23.2,308.53999999999996,23.848,307.352,26.332L307.352,23.56L304.256,23.56L304.256,43L307.352,43L307.352,29.86C308.432,26.44,310.808,25.972,313.256,25.972C316.352,25.972,316.964,27.7,316.964,30.688L316.964,43L320.096,43L320.096,29.536C320.096,25.828,318.656,23.2,313.58,23.2Z" fill="#FFFFFF" fill-opacity="1"/></g></svg>