<svg xmlns="http://www.w3.org/2000/svg" xmlns:xlink="http://www.w3.org/1999/xlink" fill="none" version="1.1" width="56" height="181" viewBox="0 0 56 181"><g transform="matrix(0,1,-1,0,56,-56)"><path d="M56.54,43L62.876,43L68.276,33.64L68.492,33.64L73.604,43L80.12,43L72.416,30.076L79.868,18.016L73.568,18.016L68.564,26.944L68.348,26.944L63.452,18.016L57.08,18.016L64.388,30.292L56.54,43ZM140.204,43L146.36,43L150.464,36.304L150.68,36.304L154.712,43L160.904,43L154.244,33.028L160.54399999999998,23.56L154.49599999999998,23.56L150.716,29.896L150.5,29.896L146.72,23.56L140.6,23.56L146.936,33.064L140.204,43Z" fill="#F7874A" fill-opacity="1"/><path d="M91.208,29.464L108.56,29.464L108.56,26.404L91.208,26.404L91.208,29.464ZM91.208,37.96L108.56,37.96L108.56,34.9L91.208,34.9L91.208,37.96ZM137.792,31.336C137.792,27.556,136.64,23.2,130.01600000000002,23.2C124.472,23.2,121.196,25.54,121.196,33.28C121.196,41.02,124.472,43.36,130.196,43.36C132.96800000000002,43.36,135.632,42.784,136.748,42.208L136.748,39.364C135.272,40.084,132.788,40.624,130.664,40.624C125.948,40.624,124.472,38.68,124.436,34.432L137.612,33.604C137.72,32.704,137.792,31.876,137.792,31.336ZM124.436,32.128C124.544,28.168,125.552,25.756,130.01600000000002,25.756C134.228,25.756,134.732,28.384,134.732,31.372L124.436,32.128ZM173.828,23.2C171.452,23.2,168.788,23.848,167.6,26.332L167.6,15.64L164.50400000000002,15.64L164.50400000000002,43L167.6,43L167.6,29.86C168.68,26.44,171.05599999999998,25.972,173.50400000000002,25.972C176.6,25.972,177.248,27.7,177.248,30.688L177.248,43L180.344,43L180.344,29.536C180.344,25.828,178.904,23.2,173.828,23.2ZM194.456,23.2C193.052,23.2,191.468,23.308,190.028,23.488L190.028,26.224C191.432,25.936,193.016,25.792,194.312,25.792C198.272,25.792,199.1,27.412,199.1,29.752L199.1,31.372L193.16,31.372C188.516,31.372,185.456,32.956,185.456,37.564C185.456,41.236,187.508,43.36,192.152,43.36C195.068,43.36,197.984,42.172,199.1,40.048L199.568,43L202.196,43L202.196,29.212C202.196,25.72,200.576,23.2,194.456,23.2ZM192.44,40.768C189.704,40.768,188.66,39.652,188.66,37.528C188.66,34.504,190.172,33.856,193.376,33.856L199.1,33.856L199.1,37.06C198.092,39.364,195.68,40.768,192.44,40.768ZM213.104,43.216C213.968,43.216,214.58,43.144,215.156,43L215.156,40.444C214.652,40.588,214.112,40.624,213.68,40.624C212.42,40.624,211.88,40.228,211.88,38.284L211.88,15.64L208.784,15.64L208.784,39.076C208.784,41.992,210.224,43.216,213.104,43.216ZM234.524,31.336C234.524,27.556,233.372,23.2,226.748,23.2C221.204,23.2,217.928,25.54,217.928,33.28C217.928,41.02,221.204,43.36,226.928,43.36C229.7,43.36,232.364,42.784,233.48,42.208L233.48,39.364C232.004,40.084,229.52,40.624,227.396,40.624C222.68,40.624,221.204,38.68,221.168,34.432L234.344,33.604C234.452,32.704,234.524,31.876,234.524,31.336ZM221.168,32.128C221.276,28.168,222.284,25.756,226.748,25.756C230.96,25.756,231.464,28.384,231.464,31.372L221.168,32.128Z" fill="#000000" fill-opacity="0.8500000238418579"/></g></svg>