<svg xmlns="http://www.w3.org/2000/svg" xmlns:xlink="http://www.w3.org/1999/xlink" fill="none" version="1.1" width="52" height="52" viewBox="0 0 52 52"><g><g><g><rect x="35.33330726623535" y="8.500002145767212" width="4.333332061767578" height="25.55000114440918" rx="0" fill="#8F57A0" fill-opacity="1"/></g><g transform="matrix(0,-1,1,0,0.45000410079956055,19.550004482269287)"><rect x="10.000004291534424" y="9.550000190734863" width="4.550000190734863" height="29.666658401489258" rx="0" fill="#8F57A0" fill-opacity="1"/></g><g transform="matrix(0,-1,1,0,-6.866665601730347,25.53333020210266)"><rect x="9.333332300186157" y="16.199997901916504" width="4.550000190734863" height="24.333328247070312" rx="0" fill="#8F57A0" fill-opacity="1"/></g><g transform="matrix(-1,2.2348338291067193e-8,-2.2348338291067193e-8,-1,20.666666987392652,85.59999824318828)"><rect x="10.333333015441895" y="42.79999923706055" width="4.333332061767578" height="31.150001525878906" rx="0" fill="#8F57A0" fill-opacity="1"/></g><g transform="matrix(-1,-5.2146120310681e-8,5.2146120310681e-8,-1,33.33338701387073,86.99998561031441)"><rect x="16.66669464111328" y="43.49999237060547" width="4.333332061767578" height="25.55000114440918" rx="0" fill="#8F57A0" fill-opacity="1"/></g><g transform="matrix(0,1,-1,0,84.44998931884766,0.45001220703125)"><rect x="41.9999885559082" y="42.45000076293945" width="4.550000190734863" height="29.666658401489258" rx="0" fill="#8F57A0" fill-opacity="1"/></g><g transform="matrix(0,1,-1,0,78.46666526794434,-6.866662979125977)"><rect x="42.666664123535156" y="35.80000114440918" width="4.550000190734863" height="24.333328247070312" rx="0" fill="#8F57A0" fill-opacity="1"/></g><g transform="matrix(1,2.9797782019613805e-8,-2.9797782019613805e-8,1,2.7413960168587437e-7,-0.0000012415742887128545)"><rect x="41.66666793823242" y="9.200000286102295" width="4.333332061767578" height="31.150001525878906" rx="0" fill="#8F57A0" fill-opacity="1"/></g><g><path d="M33.33320390625,18.300000190734863L18.66650390625,18.300000190734863L18.66650390625,33.70000019073486L33.33320390625,33.70000019073486L33.33320390625,18.300000190734863ZM29.999903906249997,21.800000190734863L21.99987390625,21.800000190734863L21.99987390625,30.200000190734862L29.999903906249997,30.200000190734862L29.999903906249997,21.800000190734863Z" fill-rule="evenodd" fill="#8F57A0" fill-opacity="1"/></g></g></g></svg>