<svg xmlns="http://www.w3.org/2000/svg" xmlns:xlink="http://www.w3.org/1999/xlink" fill="none" version="1.1" width="56.00000762939453" height="56" viewBox="0 0 56.00000762939453 56"><defs><clipPath id="master_svg0_407_15792"><rect x="0" y="0" width="56.00000762939453" height="56" rx="0"/></clipPath></defs><g clip-path="url(#master_svg0_407_15792)"><g transform="matrix(0.7071068286895752,0.7071067690849304,-0.7071067690849304,0.7071068286895752,7.491420857526464,-20.085831595199124)"><g transform="matrix(0.7155741453170776,-0.69853675365448,0.7155741453170776,0.69853675365448,-5.992384933667566,25.431384469584703)"><path d="M57.33830567744356,19.500253675266602L27.991227747443556,19.500253677266603L27.991227725443558,48.8473163482666L57.33830567744356,48.8473163482666L57.33830567744356,19.500253675266602ZM52.39920567744356,24.4388563482666L32.92970567744356,24.4388563482666L32.92970567744356,43.9084163482666L52.39920567744356,43.9084163482666L52.39920567744356,24.4388563482666Z" fill-rule="evenodd" fill="#93C984" fill-opacity="1"/></g><g><g transform="matrix(0.715574324131012,0.6985366344451904,-0.7155742049217224,0.6985368132591248,21.294612233959313,-27.87733026782854)"><rect x="45.02715182304382" y="11.861431121826172" width="16.314939498901367" height="5.535424709320068" rx="0" fill="#93C984" fill-opacity="1"/></g></g><g><g><path d="M48.8850774597168,23.15543459625244L44.924067459716795,19.28876459625244L48.8021674597168,15.502994596252442L52.7631774597168,19.36969459625244L48.8850774597168,23.15543459625244ZM53.805377459716794,18.35226459625244L56.7016774597168,15.524934596252441L52.74067745971679,11.658241271972441L49.844417459716794,14.485564596252441L53.805377459716794,18.35226459625244ZM40.8576774597168,23.25833459625244L43.8818174597168,20.30619459625244L47.842827459716794,24.17293459625244L44.8186874597168,27.12503459625244L40.8576774597168,23.25833459625244Z" fill-rule="evenodd" fill="#93C984" fill-opacity="1"/></g></g></g></g></svg>