<svg xmlns="http://www.w3.org/2000/svg" xmlns:xlink="http://www.w3.org/1999/xlink" fill="none" version="1.1" width="24" height="24" viewBox="0 0 24 24"><defs><clipPath id="master_svg0_483_03719"><rect x="0" y="0" width="24" height="24" rx="0"/></clipPath></defs><g clip-path="url(#master_svg0_483_03719)"><g><rect x="0" y="0" width="24" height="24" rx="0" fill="#FFFFFF" fill-opacity="0.009999999776482582"/></g><g><path d="M1.746971,6.80187Q1,8.5679,1,10.5Q1,12.4321,1.746971,14.1981Q2.468138,15.9032,3.78249,17.2175Q5.09685,18.5319,6.80187,19.253Q8.5679,20,10.5,20Q12.4321,20,14.1981,19.253Q15.9032,18.5319,17.2175,17.2175Q18.5319,15.9031,19.253,14.1981Q20,12.4321,20,10.5Q20,8.5679,19.253,6.80187Q18.5319,5.09685,17.2175,3.78249Q15.9032,2.468138,14.1981,1.746971Q12.4321,1,10.5,1Q8.5679,1,6.80187,1.746971Q5.09685,2.468139,3.78249,3.78249Q2.468138,5.09685,1.746971,6.80187ZM5.1967099999999995,15.8033Q3,13.6066,3,10.5Q3,7.39341,5.1967099999999995,5.1967099999999995Q7.39341,3,10.5,3Q13.6066,3,15.8033,5.1967099999999995Q18,7.39341,18,10.5Q18,13.6066,15.8033,15.8033Q13.6066,18,10.5,18Q7.39341,18,5.1967099999999995,15.8033Z" fill-rule="evenodd" fill="#000000" fill-opacity="0.8500000238418579"/></g><g><path d="M17.3181879140625,15.903912878906251L21.5607219140625,20.14644087890625Q21.7013719140625,20.28709087890625,21.7774919140625,20.47087087890625Q21.8536119140625,20.65464087890625,21.8536119140625,20.85355087890625Q21.8536119140625,20.95204087890625,21.8343919140625,21.048640878906248Q21.8151819140625,21.14524087890625,21.7774919140625,21.236230878906248Q21.7398019140625,21.32723087890625,21.6850819140625,21.40912087890625Q21.6303619140625,21.491010878906252,21.5607219140625,21.56066087890625Q21.491071914062502,21.63030087890625,21.4091819140625,21.68502087890625Q21.3272919140625,21.73974087890625,21.236291914062498,21.77743087890625Q21.1453019140625,21.81512087890625,21.048701914062498,21.83433087890625Q20.9521019140625,21.85355087890625,20.8536119140625,21.85355087890625Q20.6547019140625,21.85355087890625,20.4709319140625,21.77743087890625Q20.2871519140625,21.70131087890625,20.1465019140625,21.56066087890625L15.9038549140625,17.31800787890625Q15.7632029140625,17.17735587890625,15.6870819140625,16.99358387890625Q15.6109619140625,16.80981287890625,15.6109619140625,16.61090087890625Q15.6109619140625,16.51240947890625,15.630176914062499,16.41581087890625Q15.6493919140625,16.31921187890625,15.6870829140625,16.22821787890625Q15.7247739140625,16.13722287890625,15.7794919140625,16.05533087890625Q15.8342109140625,15.97343787890625,15.9038549140625,15.90379387890625Q15.9734989140625,15.83414987890625,16.0553919140625,15.77943087890625Q16.1372839140625,15.72471287890625,16.2282789140625,15.68702187890625Q16.3192729140625,15.64933087890625,16.4158719140625,15.630115878906249Q16.5124705140625,15.61090087890625,16.6109619140625,15.61090087890625Q16.8098739140625,15.61090087890625,16.9936449140625,15.68702087890625Q17.1774169140625,15.76314187890625,17.3180689140625,15.90379387890625L17.3181879140625,15.903912878906251Z" fill-rule="evenodd" fill="#000000" fill-opacity="0.8500000238418579"/></g></g></svg>