<svg xmlns="http://www.w3.org/2000/svg" xmlns:xlink="http://www.w3.org/1999/xlink" fill="none" version="1.1" width="267" height="223" viewBox="0 0 267 223"><g><path d="M8.064,101.592L26.928,101.592C27.072,89.928,31.104,72.504,34.992,61.56L20.448,61.56C14.832,71.784,8.064,90.792,8.064,101.592ZM41.472,101.592L60.336,101.592C60.624,89.928,64.512,72.504,68.544,61.56L53.856,61.56C48.24,71.784,41.472,90.792,41.472,101.592ZM85.968,171L111.312,171L132.912,133.56L133.776,133.56L154.224,171L180.288,171L149.472,119.304L179.28,71.064L154.08,71.064L134.064,106.776L133.2,106.776L113.616,71.064L88.128,71.064L117.36,120.168L85.968,171ZM197.856,101.592L212.4,101.592C218.16,91.368,224.784,72.36,224.784,61.56L205.92,61.56C205.776,73.368,201.888,90.792,197.856,101.592ZM231.264,101.592L245.952,101.592C251.568,91.368,258.336,72.36,258.336,61.56L239.328,61.56C239.184,73.368,235.296,90.792,231.264,101.592Z" fill="#333333" fill-opacity="1"/></g></svg>