<svg xmlns="http://www.w3.org/2000/svg" xmlns:xlink="http://www.w3.org/1999/xlink" fill="none" version="1.1" width="698" height="130" viewBox="0 0 698 130"><g><path d="M22.7659,20.852L1.42989,20.852L1.42989,25.682L9.32589,25.682L9.32589,50L14.8279,50L14.8279,25.682L22.7659,25.682L22.7659,20.852ZM39.1879,26.9C36.0799,26.9,33.3079,27.866,32.0479,30.26L32.0479,18.08L26.7979,18.08L26.7979,50L32.0479,50L32.0479,35.006C32.8879,32.066,34.9459,31.268,37.5919,31.268C40.7419,31.268,41.4979,32.738,41.4979,35.93L41.4979,50L46.7479,50L46.7479,34.46C46.7479,29.672,44.9419,26.9,39.1879,26.9ZM72.4099,36.686C72.4099,31.352,70.7719,26.9,62.9179,26.9C56.0299,26.9,52.0399,29.504,52.0399,38.66C52.0399,47.816,56.0299,50.42,62.9179,50.42C66.6139,50.42,69.8899,49.664,71.2339,48.908L71.2339,44.624C69.6799,45.422,66.5719,46.178,63.8419,46.178C59.3059,46.178,57.4579,44.414,57.3319,40.634L72.1999,39.668C72.3259,38.912,72.4099,37.778,72.4099,36.686ZM57.3319,36.896C57.4999,32.948,58.6759,30.932,62.9179,30.932C66.9499,30.932,67.5379,33.326,67.5379,36.14L57.3319,36.896ZM96.4759,50L101.852,50L101.852,20.852L97.9879,20.852L89.2939,22.616L89.2939,27.068L96.4759,25.682L96.4759,50ZM122.054,50.42C128.312,50.42,132.386,47.438,132.386,35.426C132.386,23.456,128.312,20.432,122.054,20.432C115.838,20.432,111.722,23.456,111.722,35.426C111.722,47.438,115.838,50.42,122.054,50.42ZM122.054,45.884C118.526,45.884,117.056,43.826,117.056,35.426C117.056,27.068,118.526,24.968,122.054,24.968C125.624,24.968,127.094,27.068,127.094,35.426C127.094,43.826,125.624,45.884,122.054,45.884ZM148.304,31.52L148.304,27.32L143.306,27.32L143.306,21.944L138.056,21.944L138.056,27.32L134.906,27.32L134.906,31.52L138.056,31.52L138.056,42.86C138.056,48.824,139.946,50.252,145.364,50.252C146.33,50.252,147.296,50.168,148.178,50.042L148.178,45.884C147.548,46.052,146.918,46.094,146.12,46.094C143.81,46.094,143.306,45.38,143.306,42.44L143.306,31.52L148.304,31.52ZM164.81,26.9C161.702,26.9,158.93,27.866,157.67,30.26L157.67,18.08L152.42,18.08L152.42,50L157.67,50L157.67,35.006C158.51,32.066,160.568,31.268,163.214,31.268C166.364,31.268,167.12,32.738,167.12,35.93L167.12,50L172.37,50L172.37,34.46C172.37,29.672,170.564,26.9,164.81,26.9ZM209.918,50L215.756,50L204.92,20.852L197.528,20.852L186.608,50L192.278,50L195.05,42.272L207.23,42.272L209.918,50ZM196.688,37.652L200.93,25.766L201.434,25.766L205.592,37.652L196.688,37.652ZM231.674,26.9C228.566,26.9,225.836,27.824,224.534,30.176L224.534,27.32L219.284,27.32L219.284,50L224.534,50L224.534,34.88C225.458,32.024,227.39,31.268,230.078,31.268C233.27,31.268,233.984,32.738,233.984,35.93L233.984,50L239.234,50L239.234,34.46C239.234,29.672,237.428,26.9,231.674,26.9ZM258.134,26.9C255.026,26.9,252.296,27.824,250.994,30.176L250.994,27.32L245.744,27.32L245.744,50L250.994,50L250.994,34.88C251.918,32.024,253.85,31.268,256.538,31.268C259.73,31.268,260.444,32.738,260.444,35.93L260.444,50L265.694,50L265.694,34.46C265.694,29.672,263.888,26.9,258.134,26.9ZM286.568,27.32L286.568,42.44C285.686,45.338,283.754,46.052,281.234,46.052C278,46.052,277.286,44.54,277.286,41.39L277.286,27.32L272.036,27.32L272.036,42.902C272.036,47.648,273.926,50.42,279.638,50.42C282.788,50.42,285.35,49.538,286.652,47.102L287.114,50L291.818,50L291.818,27.32L286.568,27.32ZM307.778,26.9C306.14,26.9,304.082,27.026,302.36,27.278L302.36,31.772C303.956,31.478,305.636,31.31,307.232,31.31C311.432,31.31,312.356,32.612,312.356,35.342L312.356,36.35L306.266,36.35C300.386,36.35,297.068,38.24,297.068,43.574C297.068,48.068,299.672,50.42,304.838,50.42C308.45,50.42,311.306,49.034,312.398,47.102L312.944,50L317.606,50L317.606,34.166C317.606,29.63,315.212,26.9,307.778,26.9ZM305.972,46.304C303.368,46.304,302.276,45.38,302.276,43.406C302.276,40.718,303.704,40.088,306.98,40.088L312.356,40.088L312.356,43.07C311.432,45.044,309.122,46.304,305.972,46.304ZM330.374,50.252C331.34,50.252,332.138,50.168,332.894,50L332.894,45.884C332.39,46.01,331.928,46.052,331.508,46.052C330.08,46.052,329.534,45.548,329.534,43.448L329.534,18.08L324.284,18.08L324.284,44.708C324.284,48.572,325.922,50.252,330.374,50.252ZM357.212,20.852L347.762,20.852L347.762,50L357.212,50C365.696,50,371.366,46.682,371.366,35.426C371.366,23.288,365.696,20.852,357.212,20.852ZM356.96,45.254L353.264,45.254L353.264,25.514L356.96,25.514C362.42,25.514,365.696,27.32,365.696,35.426C365.696,43.112,362.588,45.254,356.96,45.254ZM396.524,36.686C396.524,31.352,394.886,26.9,387.032,26.9C380.144,26.9,376.154,29.504,376.154,38.66C376.154,47.816,380.144,50.42,387.032,50.42C390.728,50.42,394.004,49.664,395.348,48.908L395.348,44.624C393.794,45.422,390.686,46.178,387.956,46.178C383.42,46.178,381.572,44.414,381.446,40.634L396.314,39.668C396.44,38.912,396.524,37.778,396.524,36.686ZM381.446,36.896C381.614,32.948,382.79,30.932,387.032,30.932C391.064,30.932,391.652,33.326,391.652,36.14L381.446,36.896ZM407.78,50.252C413.492,50.252,416.768,48.362,416.768,43.28C416.768,39.038,415.256,37.568,410.216,36.35C406.688,35.468,405.974,35.174,405.974,33.41C405.974,31.52,407.066,30.932,409.964,30.932C412.022,30.932,414.374,31.352,415.592,31.772L415.844,27.656C414.71,27.236,412.19,26.9,409.796,26.9C403.622,26.9,401.06,29.378,401.06,33.452C401.06,37.274,402.278,38.744,407.192,39.92C411.056,40.844,411.812,41.306,411.812,43.448C411.812,45.548,410.426,46.136,407.528,46.136C405.47,46.136,402.74,45.716,400.766,45.128L400.766,49.538C402.53,50,405.26,50.252,407.78,50.252ZM424.832,23.834C427.184,23.834,427.814,23.498,427.814,20.978C427.814,18.416,427.184,18.164,424.832,18.164C422.48,18.164,421.85,18.416,421.85,20.978C421.85,23.498,422.48,23.834,424.832,23.834ZM422.186,50L427.436,50L427.436,27.32L422.186,27.32L422.186,50ZM449.108,27.32L449.108,30.638C448.226,28.37,446.378,26.9,442.094,26.9C434.66,26.9,432.812,32.192,432.812,38.45C432.812,45.38,434.66,50,442.094,50C446.252,50,448.184,48.656,449.108,46.43L449.108,48.026C449.108,52.604,446.924,54.242,441.968,54.242C440.036,54.242,437.852,54.032,436.13,53.612L436.13,57.854C437.81,58.148,440.246,58.4,442.262,58.4C451.082,58.4,454.316,54.536,454.316,48.278L454.316,27.32L449.108,27.32ZM443.438,46.052C438.902,46.052,438.272,42.65,438.272,38.45C438.272,34.544,438.776,30.932,443.438,30.932C448.31,30.932,449.318,33.83,449.318,38.45C449.318,43.238,448.31,46.052,443.438,46.052ZM473.342,26.9C470.234,26.9,467.504,27.824,466.202,30.176L466.202,27.32L460.952,27.32L460.952,50L466.202,50L466.202,34.88C467.126,32.024,469.058,31.268,471.746,31.268C474.938,31.268,475.652,32.738,475.652,35.93L475.652,50L480.902,50L480.902,34.46C480.902,29.672,479.096,26.9,473.342,26.9ZM503.834,45.17L503.834,37.274L514.754,37.274L514.754,32.696L503.834,32.696L503.834,25.64L515.594,25.64L515.594,20.852L498.332,20.852L498.332,50L516.35,50L516.35,45.17L503.834,45.17ZM518.828,50L524.96,50L530.21,41.642L530.462,41.642L535.586,50L541.76,50L533.99,38.366L541.34,27.32L535.334,27.32L530.504,35.258L530.252,35.258L525.422,27.32L519.332,27.32L526.682,38.408L518.828,50ZM557.93,26.9C554.822,26.9,552.05,27.866,550.79,30.26L550.79,18.08L545.54,18.08L545.54,50L550.79,50L550.79,35.006C551.63,32.066,553.688,31.268,556.334,31.268C559.484,31.268,560.24,32.738,560.24,35.93L560.24,50L565.49,50L565.49,34.46C565.49,29.672,563.684,26.9,557.93,26.9ZM574.562,23.834C576.914,23.834,577.544,23.498,577.544,20.978C577.544,18.416,576.914,18.164,574.562,18.164C572.21,18.164,571.58,18.416,571.58,20.978C571.58,23.498,572.21,23.834,574.562,23.834ZM571.916,50L577.166,50L577.166,27.32L571.916,27.32L571.916,50ZM596.024,26.9C591.908,26.9,589.934,28.496,589.01,30.512L589.01,18.08L583.76,18.08L583.76,50L588.506,50L588.926,46.556C589.808,48.908,591.698,50.42,596.024,50.42C603.458,50.42,605.18,45.086,605.18,38.66C605.18,31.562,603.458,26.9,596.024,26.9ZM594.596,46.346C589.976,46.346,588.716,43.322,588.716,38.66C588.716,33.788,589.976,30.932,594.596,30.932C599.09,30.932,599.762,34.292,599.762,38.66C599.762,42.734,599.216,46.346,594.596,46.346ZM613.16,23.834C615.512,23.834,616.142,23.498,616.142,20.978C616.142,18.416,615.512,18.164,613.16,18.164C610.808,18.164,610.178,18.416,610.178,20.978C610.178,23.498,610.808,23.834,613.16,23.834ZM610.514,50L615.764,50L615.764,27.32L610.514,27.32L610.514,50ZM632.984,31.52L632.984,27.32L627.986,27.32L627.986,21.944L622.736,21.944L622.736,27.32L619.586,27.32L619.586,31.52L622.736,31.52L622.736,42.86C622.736,48.824,624.626,50.252,630.044,50.252C631.01,50.252,631.976,50.168,632.858,50.042L632.858,45.884C632.228,46.052,631.598,46.094,630.8,46.094C628.49,46.094,627.986,45.38,627.986,42.44L627.986,31.52L632.984,31.52ZM639.662,23.834C642.014,23.834,642.644,23.498,642.644,20.978C642.644,18.416,642.014,18.164,639.662,18.164C637.31,18.164,636.68,18.416,636.68,20.978C636.68,23.498,637.31,23.834,639.662,23.834ZM637.016,50L642.266,50L642.266,27.32L637.016,27.32L637.016,50ZM658.52,50.42C665.45,50.42,669.44,47.816,669.44,38.66C669.44,29.504,665.45,26.9,658.52,26.9C651.632,26.9,647.642,29.504,647.642,38.66C647.642,47.816,651.632,50.42,658.52,50.42ZM658.52,46.346C654.446,46.346,653.06,44.54,653.06,38.66C653.06,32.78,654.362,30.932,658.52,30.932C662.636,30.932,664.022,32.78,664.022,38.66C664.022,44.54,662.762,46.346,658.52,46.346ZM687.248,26.9C684.14,26.9,681.41,27.824,680.108,30.176L680.108,27.32L674.858,27.32L674.858,50L680.108,50L680.108,34.88C681.032,32.024,682.964,31.268,685.652,31.268C688.844,31.268,689.558,32.738,689.558,35.93L689.558,50L694.808,50L694.808,34.46C694.808,29.672,693.002,26.9,687.248,26.9ZM309.29,115.42C316.22,115.42,320.21,112.816,320.21,103.66C320.21,94.504,316.22,91.9,309.29,91.9C302.402,91.9,298.412,94.504,298.412,103.66C298.412,112.816,302.402,115.42,309.29,115.42ZM309.29,111.346C305.216,111.346,303.83,109.54,303.83,103.66C303.83,97.78,305.132,95.932,309.29,95.932C313.406,95.932,314.792,97.78,314.792,103.66C314.792,109.54,313.532,111.346,309.29,111.346ZM335.582,86.818C336.296,86.818,337.052,86.902,337.64,86.986L337.64,83.122C336.8,82.996,335.918,82.912,335.036,82.912C329.87,82.912,326.552,84.256,326.552,92.11L326.552,92.32L322.94,92.32L322.94,96.478L326.552,96.478L326.552,115L331.802,115L331.802,96.478L336.548,96.478L336.548,92.32L331.802,92.32C331.802,87.952,332.474,86.818,335.582,86.818ZM370.106,85.852L348.77,85.852L348.77,90.682L356.666,90.682L356.666,115L362.168,115L362.168,90.682L370.106,90.682L370.106,85.852ZM375.86,88.834C378.212,88.834,378.842,88.498,378.842,85.978C378.842,83.416,378.212,83.164,375.86,83.164C373.508,83.164,372.878,83.416,372.878,85.978C372.878,88.498,373.508,88.834,375.86,88.834ZM373.214,115L378.464,115L378.464,92.32L373.214,92.32L373.214,115ZM394.382,91.9C392.744,91.9,390.686,92.026,388.964,92.278L388.964,96.772C390.56,96.478,392.24,96.31,393.836,96.31C398.036,96.31,398.96,97.612,398.96,100.342L398.96,101.35L392.87,101.35C386.99,101.35,383.672,103.24,383.672,108.574C383.672,113.068,386.276,115.42,391.442,115.42C395.054,115.42,397.91,114.034,399.002,112.102L399.548,115L404.21,115L404.21,99.166C404.21,94.63,401.816,91.9,394.382,91.9ZM392.576,111.304C389.972,111.304,388.88,110.38,388.88,108.406C388.88,105.718,390.308,105.088,393.584,105.088L398.96,105.088L398.96,108.07C398.036,110.044,395.726,111.304,392.576,111.304ZM423.32,91.9C420.212,91.9,417.482,92.824,416.18,95.176L416.18,92.32L410.93,92.32L410.93,115L416.18,115L416.18,99.88C417.104,97.024,419.036,96.268,421.724,96.268C424.916,96.268,425.63,97.738,425.63,100.93L425.63,115L430.88,115L430.88,99.46C430.88,94.672,429.074,91.9,423.32,91.9ZM439.952,88.834C442.304,88.834,442.934,88.498,442.934,85.978C442.934,83.416,442.304,83.164,439.952,83.164C437.6,83.164,436.97,83.416,436.97,85.978C436.97,88.498,437.6,88.834,439.952,88.834ZM434.282,123.4C439.616,123.4,442.556,122.014,442.556,114.874L442.556,92.32L437.306,92.32L437.306,114.538C437.306,118.192,436.802,119.368,433.904,119.368C433.148,119.368,432.224,119.284,431.594,119.2L431.594,123.19C432.434,123.316,433.316,123.4,434.282,123.4ZM451.712,88.834C454.064,88.834,454.694,88.498,454.694,85.978C454.694,83.416,454.064,83.164,451.712,83.164C449.36,83.164,448.73,83.416,448.73,85.978C448.73,88.498,449.36,88.834,451.712,88.834ZM449.066,115L454.316,115L454.316,92.32L449.066,92.32L449.066,115ZM473.3,91.9C470.192,91.9,467.462,92.824,466.16,95.176L466.16,92.32L460.91,92.32L460.91,115L466.16,115L466.16,99.88C467.084,97.024,469.016,96.268,471.704,96.268C474.896,96.268,475.61,97.738,475.61,100.93L475.61,115L480.86,115L480.86,99.46C480.86,94.672,479.054,91.9,473.3,91.9ZM509.924,115.42C517.61,115.42,521.768,112.522,521.768,105.424L521.768,85.852L516.308,85.852L516.308,104.668C516.308,108.742,515.048,110.674,509.966,110.674C505.094,110.674,503.666,108.868,503.666,104.668L503.666,85.852L498.164,85.852L498.164,105.424C498.164,112.9,502.322,115.42,509.924,115.42ZM540.794,91.9C537.686,91.9,534.956,92.824,533.654,95.176L533.654,92.32L528.404,92.32L528.404,115L533.654,115L533.654,99.88C534.578,97.024,536.51,96.268,539.198,96.268C542.39,96.268,543.104,97.738,543.104,100.93L543.104,115L548.354,115L548.354,99.46C548.354,94.672,546.548,91.9,540.794,91.9ZM557.426,88.834C559.778,88.834,560.408,88.498,560.408,85.978C560.408,83.416,559.778,83.164,557.426,83.164C555.074,83.164,554.444,83.416,554.444,85.978C554.444,88.498,555.074,88.834,557.426,88.834ZM554.78,115L560.03,115L560.03,92.32L554.78,92.32L554.78,115ZM571.874,115L578.258,115L586.616,92.32L580.988,92.32L575.234,109.582L574.982,109.582L569.27,92.32L563.558,92.32L571.874,115ZM608.918,101.686C608.918,96.352,607.28,91.9,599.426,91.9C592.538,91.9,588.548,94.504,588.548,103.66C588.548,112.816,592.538,115.42,599.426,115.42C603.122,115.42,606.398,114.664,607.742,113.908L607.742,109.624C606.188,110.422,603.08,111.178,600.35,111.178C595.814,111.178,593.966,109.414,593.84,105.634L608.708,104.668C608.834,103.912,608.918,102.778,608.918,101.686ZM593.84,101.896C594.008,97.948,595.184,95.932,599.426,95.932C603.458,95.932,604.046,98.326,604.046,101.14L593.84,101.896ZM626.306,91.9C623.618,91.9,620.888,92.656,619.502,96.394L619.502,92.32L614.252,92.32L614.252,115L619.502,115L619.502,101.518C620.342,97.612,623.156,96.604,626.054,96.604L626.6,96.604L626.768,91.9L626.306,91.9ZM636.722,115.252C642.434,115.252,645.71,113.362,645.71,108.28C645.71,104.038,644.198,102.568,639.158,101.35C635.63,100.468,634.916,100.174,634.916,98.41C634.916,96.52,636.008,95.932,638.906,95.932C640.964,95.932,643.316,96.352,644.534,96.772L644.786,92.656C643.652,92.236,641.132,91.9,638.738,91.9C632.564,91.9,630.002,94.378,630.002,98.452C630.002,102.274,631.22,103.744,636.134,104.92C639.998,105.844,640.754,106.306,640.754,108.448C640.754,110.548,639.368,111.136,636.47,111.136C634.412,111.136,631.682,110.716,629.708,110.128L629.708,114.538C631.472,115,634.202,115.252,636.722,115.252ZM653.774,88.834C656.126,88.834,656.756,88.498,656.756,85.978C656.756,83.416,656.126,83.164,653.774,83.164C651.422,83.164,650.792,83.416,650.792,85.978C650.792,88.498,651.422,88.834,653.774,88.834ZM651.128,115L656.378,115L656.378,92.32L651.128,92.32L651.128,115ZM673.598,96.52L673.598,92.32L668.6,92.32L668.6,86.944L663.35,86.944L663.35,92.32L660.2,92.32L660.2,96.52L663.35,96.52L663.35,107.86C663.35,113.824,665.24,115.252,670.658,115.252C671.624,115.252,672.59,115.168,673.472,115.042L673.472,110.884C672.842,111.052,672.212,111.094,671.414,111.094C669.104,111.094,668.6,110.38,668.6,107.44L668.6,96.52L673.598,96.52ZM677.42,123.4C684.896,123.4,687.248,120.628,689.936,113.362L697.706,92.32L692.162,92.32L686.618,109.372L686.366,109.372L680.444,92.32L674.648,92.32L683.594,114.874C682.754,117.562,681.284,118.864,677.42,118.864L677.42,123.4Z" fill="#000000" fill-opacity="0.8500000238418579"/></g></svg>