<svg xmlns="http://www.w3.org/2000/svg" xmlns:xlink="http://www.w3.org/1999/xlink" fill="none" version="1.1" width="173.812255859375" height="173.557373046875" viewBox="0 0 173.812255859375 173.557373046875"><g><g transform="matrix(-0.9941379427909851,0.10811901837587357,-0.10811901837587357,-0.9941379427909851,177.59898998940525,34.11304967809184)"><path d="M95.04271771240235,25.83109375L96.17871771240235,25.83109375L96.17871771240235,27.38309375L102.38671771240234,27.38309375L102.38671771240234,28.47109375L96.17871771240235,28.47109375L96.17871771240235,30.503093749999998L101.28271771240235,30.503093749999998L101.28271771240235,35.63909375L90.69071771240235,35.63909375L90.69071771240235,30.503093749999998L95.04271771240235,30.503093749999998L95.04271771240235,25.83109375ZM100.13071771240234,34.56709375L100.13071771240234,31.59109375L91.84271771240235,31.59109375L91.84271771240235,34.56709375L100.13071771240234,34.56709375ZM91.63471771240235,36.80709375Q90.70671771240234,38.91909375,89.53871771240235,40.42309375L88.59471771240234,39.735093750000004Q89.79471771240235,38.32709375,90.65871771240235,36.34309375L91.63471771240235,36.80709375ZM94.14671771240235,36.80709375Q94.62671771240234,38.375093750000005,95.01071771240234,40.247093750000005L93.85871771240234,40.503093750000005Q93.52271771240234,38.48709375,93.07471771240235,37.03109375L94.14671771240235,36.80709375ZM97.49071771240234,36.647093749999996Q98.19471771240234,38.247093750000005,98.73871771240235,40.21509375L97.60271771240234,40.47109375Q97.12271771240235,38.42309375,96.40271771240235,36.87109375L97.49071771240234,36.647093749999996ZM100.77071771240234,36.32709375Q102.24271771240234,38.263093749999996,103.10671771240234,39.83109375L102.14671771240235,40.503093750000005Q101.33071771240235,38.91909375,99.84271771240235,36.91909375L100.77071771240234,36.32709375Z" fill="#3D3D3D" fill-opacity="1"/></g><g transform="matrix(-0.9476531744003296,0.3193015158176422,-0.3193015158176422,-0.9476531744003296,151.25740979977763,21.571748084513956)"><path d="M76.03645074462891,29.4805703125L81.26845074462891,29.4805703125L81.26845074462891,27.2245703125L82.4524507446289,27.2245703125L82.4524507446289,29.4805703125L87.62045074462891,29.4805703125L87.62045074462891,30.5845703125L82.4524507446289,30.5845703125L82.4524507446289,33.2405703125L88.93245074462891,33.2405703125L88.93245074462891,34.3605703125L82.4524507446289,34.3605703125L82.4524507446289,40.0085703125L86.2284507446289,40.0085703125L86.2284507446289,35.7525703125L87.3324507446289,35.7525703125L87.3324507446289,41.816570312500005L86.2284507446289,41.816570312500005L86.2284507446289,41.0805703125L77.5084507446289,41.0805703125L77.5084507446289,41.816570312500005L76.4044507446289,41.816570312500005L76.4044507446289,35.7525703125L77.5084507446289,35.7525703125L77.5084507446289,40.0085703125L81.26845074462891,40.0085703125L81.26845074462891,34.3605703125L74.80445074462891,34.3605703125L74.80445074462891,33.2405703125L81.26845074462891,33.2405703125L81.26845074462891,30.5845703125L76.03645074462891,30.5845703125L76.03645074462891,29.4805703125Z" fill="#3D3D3D" fill-opacity="1"/></g><g transform="matrix(-0.856857180595398,0.5155538320541382,-0.5155538320541382,-0.856857180595398,126.4259093262217,19.857981523823582)"><path d="M62.24818438720703,32.36798046875L74.71218438720703,32.36798046875L74.71218438720703,33.48798046875L72.04018438720703,33.48798046875L72.04018438720703,37.72798046875L75.54418438720703,37.72798046875L75.54418438720703,38.831980468750004L72.04018438720703,38.831980468750004L72.04018438720703,45.91998046875L70.87218438720703,45.91998046875L70.87218438720703,38.831980468750004L66.24818438720703,38.831980468750004Q66.02418438720703,41.31198046875,65.32018438720704,42.92798046875Q64.40818438720703,44.94398046875,62.296184387207035,46.04798046875L61.67218438720703,45.05598046875Q63.62418438720703,43.95198046875,64.39218438720704,42.127980468749996Q64.88818438720703,40.76798046875,65.08018438720703,38.831980468750004L61.38418438720703,38.831980468750004L61.38418438720703,37.72798046875L65.14418438720703,37.72798046875L65.16018438720702,37.16798046875L65.16018438720702,33.48798046875L62.24818438720703,33.48798046875L62.24818438720703,32.36798046875ZM66.34418438720704,33.48798046875L66.34418438720704,37.45598046875L66.32818438720703,37.72798046875L70.87218438720703,37.72798046875L70.87218438720703,33.48798046875L66.34418438720704,33.48798046875Z" fill="#3D3D3D" fill-opacity="1"/></g><g transform="matrix(-0.7259954810142517,0.6876994371414185,-0.6876994371414185,-0.7259954810142517,107.11055677031663,26.436290853424907)"><path d="M52.04868865966797,38.5165185546875Q51.84068865966797,40.1485185546875,51.61668865966797,41.5405185546875L53.98468865966797,41.5405185546875L53.98468865966797,42.2125185546875Q53.79268865966797,46.0845185546875,52.64068865966797,48.9165185546875Q53.84068865966797,50.164518554687504,54.49668865966797,51.0445185546875L53.72868865966797,51.9405185546875Q52.99268865966797,50.9645185546875,52.12868865966797,50.036518554687504Q51.152688659667966,51.8925185546875,49.74468865966797,53.204518554687496L49.024688659667966,52.292518554687504Q50.448688659667965,50.9965185546875,51.344688659667966,49.1885185546875Q50.49668865966797,48.3245185546875,49.280688659667966,47.1565185546875Q49.85668865966797,45.0605185546875,50.28868865966797,42.6445185546875L49.00868865966797,42.6445185546875L49.00868865966797,41.5405185546875L50.48068865966797,41.5405185546875Q50.72068865966797,40.0205185546875,50.91268865966797,38.4205185546875L52.04868865966797,38.5165185546875ZM51.82468865966797,48.0845185546875Q52.72068865966797,45.7005185546875,52.896688659667966,42.6445185546875L51.44068865966797,42.6445185546875Q50.97668865966797,45.2365185546875,50.51268865966797,46.820518554687496Q51.216688659667966,47.460518554687496,51.82468865966797,48.0845185546875ZM62.43268865966797,46.3565185546875L62.43268865966797,53.1725185546875L61.32868865966797,53.1725185546875L61.32868865966797,52.2125185546875L56.43268865966797,52.2125185546875L56.43268865966797,53.1725185546875L55.32868865966797,53.1725185546875L55.32868865966797,46.3565185546875L62.43268865966797,46.3565185546875ZM56.43268865966797,51.1245185546875L61.32868865966797,51.1245185546875L61.32868865966797,47.4125185546875L56.43268865966797,47.4125185546875L56.43268865966797,51.1245185546875ZM54.52868865966797,43.8765185546875Q55.936688659667965,43.1565185546875,57.98468865966797,38.4685185546875L59.07268865966797,38.8365185546875Q57.64868865966797,41.908518554687504,56.192688659667965,43.8125185546875Q58.92868865966797,43.6205185546875,61.32868865966797,43.2365185546875Q60.60868865966797,41.8125185546875,59.96868865966797,40.8045185546875L60.960688659667966,40.3245185546875Q62.320688659667965,42.5005185546875,63.44068865966797,44.948518554687496L62.36868865966797,45.460518554687496Q61.88868865966797,44.3565185546875,61.808688659667965,44.2125185546875Q58.51268865966797,44.6765185546875,54.704688659667966,44.9165185546875L54.52868865966797,43.8765185546875Z" fill="#3D3D3D" fill-opacity="1"/></g><g transform="matrix(-0.5611870884895325,0.827688992023468,-0.827688992023468,-0.5611870884895325,95.69818946485111,37.43053647228362)"><path d="M39.07888751220703,50.955251953125L45.44688751220703,50.955251953125L45.44688751220703,47.963251953125L46.63088751220703,47.963251953125L46.63088751220703,50.955251953125L50.24688751220703,50.955251953125Q49.39888751220703,49.963251953125,47.91088751220703,48.779251953125L48.662887512207035,48.075251953125Q50.05488751220703,49.099251953125,51.06288751220703,50.203251953125L50.31088751220703,50.955251953125L52.742887512207034,50.955251953125L52.742887512207034,52.059251953125L46.63088751220703,52.059251953125L46.63088751220703,52.987251953124996Q47.28688751220703,54.475251953124996,48.21488751220703,55.755251953125Q49.92688751220703,54.459251953125,51.14288751220703,52.827251953125L51.99088751220703,53.579251953125Q50.678887512207034,55.275251953125,48.82288751220703,56.555251953125Q50.63088751220703,58.795251953125,53.27088751220703,60.475251953124996L52.47088751220703,61.419251953125Q48.59888751220703,58.747251953125,46.63088751220703,54.875251953125L46.63088751220703,61.099251953125Q46.63088751220703,62.587251953125005,45.190887512207034,62.587251953125005L43.03088751220703,62.587251953125005L42.79088751220703,61.483251953125Q43.95888751220703,61.563251953125004,44.79088751220703,61.563251953125004Q45.44688751220703,61.563251953125004,45.44688751220703,60.811251953125L45.44688751220703,56.443251953125Q42.90288751220703,59.547251953125,39.54288751220703,61.595251953125L38.91888751220703,60.555251953125Q42.63088751220703,58.523251953125,45.44688751220703,55.051251953125L45.44688751220703,52.059251953125L39.07888751220703,52.059251953125L39.07888751220703,50.955251953125ZM40.63088751220703,53.163251953125Q42.23088751220703,54.571251953125,43.36688751220703,56.059251953125L42.56688751220703,56.843251953125Q41.59088751220703,55.467251953125,39.83088751220703,53.915251953125L40.63088751220703,53.163251953125Z" fill="#3D3D3D" fill-opacity="1"/></g><g transform="matrix(-0.37013816833496094,0.9289767146110535,-0.9289767146110535,-0.37013816833496094,92.57058845771098,48.464832657689385)"><path d="M39.35930853271484,68.1346240234375Q38.91130853271484,68.9986240234375,38.367308532714844,69.5906240234375L37.69530853271485,68.7746240234375Q38.751308532714845,67.6226240234375,39.10330853271484,65.7186240234375L40.06330853271484,65.8946240234375Q39.919308532714844,66.5346240234375,39.775308532714845,67.0946240234375L41.24730853271484,67.0946240234375L41.24730853271484,65.6066240234375L42.367308532714844,65.6066240234375L42.367308532714844,67.0946240234375L44.751308532714845,67.0946240234375L44.751308532714845,68.1346240234375L42.367308532714844,68.1346240234375L42.367308532714844,70.0866240234375L45.08730853271484,70.0866240234375L45.08730853271484,71.1266240234375L42.367308532714844,71.1266240234375L42.367308532714844,74.2626240234375L41.24730853271484,74.2626240234375L41.24730853271484,71.1266240234375L37.75930853271484,71.1266240234375L37.75930853271484,70.0866240234375L41.24730853271484,70.0866240234375L41.24730853271484,68.1346240234375L39.35930853271484,68.1346240234375ZM37.88730853271484,61.5266240234375L37.88730853271484,60.5026240234375L44.559308532714844,60.5026240234375Q44.559308532714844,63.750624023437496,44.12730853271484,64.4066240234375Q43.67930853271484,65.0466240234375,42.671308532714846,65.0466240234375Q42.351308532714846,65.0466240234375,41.327308532714845,64.9826240234375L41.05530853271485,64.0226240234375L42.431308532714844,64.1026240234375Q43.08730853271484,64.0866240234375,43.263308532714845,63.6706240234375Q43.40730853271484,63.2706240234375,43.455308532714845,61.5266240234375L41.10330853271484,61.5266240234375Q40.86330853271484,62.6146240234375,40.39930853271484,63.4786240234375Q39.75930853271484,64.5026240234375,38.543308532714846,65.31862402343751L37.87130853271484,64.4386240234375Q38.943308532714845,63.8146240234375,39.48730853271484,62.9346240234375Q39.855308532714844,62.3106240234375,40.01530853271484,61.5266240234375L37.88730853271484,61.5266240234375ZM32.46330853271484,67.3026240234375L32.46330853271484,69.2066240234375L32.44730853271484,69.3986240234375L33.919308532714844,69.3986240234375L33.919308532714844,67.3026240234375L32.46330853271484,67.3026240234375ZM32.39930853271484,70.3746240234375Q32.19130853271484,72.7426240234375,31.311308532714843,74.34262402343751L30.527308532714844,73.6226240234375Q31.439308532714843,71.83062402343751,31.471308532714843,69.0946240234375L31.471308532714843,64.1826240234375Q31.359308532714845,64.2946240234375,31.311308532714843,64.3586240234375L30.607308532714843,63.5106240234375Q32.031308532714846,61.9906240234375,32.97530853271484,59.4786240234375L34.01530853271484,59.7186240234375L33.61530853271484,60.7426240234375L36.46330853271484,60.7426240234375L36.46330853271484,61.5426240234375Q35.967308532714846,62.5506240234375,35.391308532714845,63.3506240234375L37.31130853271485,63.3506240234375L37.31130853271485,72.9506240234375Q37.31130853271485,74.08662402343751,36.14330853271484,74.08662402343751L35.23130853271484,74.08662402343751L34.95930853271484,73.1266240234375Q35.56730853271485,73.1906240234375,35.80730853271484,73.1906240234375Q36.33530853271485,73.1906240234375,36.33530853271485,72.59862402343751L36.33530853271485,70.3746240234375L34.84730853271484,70.3746240234375L34.84730853271484,73.9906240234375L33.919308532714844,73.9906240234375L33.919308532714844,70.3746240234375L32.39930853271484,70.3746240234375ZM34.223308532714846,63.3506240234375Q34.65530853271484,62.7266240234375,35.24730853271485,61.6866240234375L33.16730853271484,61.6866240234375Q32.78330853271484,62.4386240234375,32.14330853271484,63.3506240234375L34.223308532714846,63.3506240234375ZM36.33530853271485,69.3986240234375L36.33530853271485,67.3026240234375L34.84730853271484,67.3026240234375L34.84730853271484,69.3986240234375L36.33530853271485,69.3986240234375ZM36.33530853271485,66.3426240234375L36.33530853271485,64.3426240234375L34.84730853271484,64.3426240234375L34.84730853271484,66.3426240234375L36.33530853271485,66.3426240234375ZM33.919308532714844,64.3426240234375L32.46330853271484,64.3426240234375L32.46330853271484,66.3426240234375L33.919308532714844,66.3426240234375L33.919308532714844,64.3426240234375Z" fill="#3D3D3D" fill-opacity="1"/></g><g transform="matrix(-0.16178199648857117,0.9868265390396118,-0.9868265390396118,-0.16178199648857117,96.1149937289299,55.58257768897511)"><path d="" fill="#3D3D3D" fill-opacity="1"/></g><g transform="matrix(0.0541389100253582,0.9985334277153015,-0.9985334277153015,0.0541389100253582,103.12403561989274,56.06638543699455)"><path d="M28.047735290527342,87.818552734375Q29.951735290527346,87.818552734375,31.247735290527345,88.826552734375Q32.543735290527344,89.834552734375,32.783735290527346,91.546552734375L31.519735290527343,91.546552734375Q31.27973529052734,90.314552734375,30.303735290527342,89.626552734375Q29.375735290527345,88.986552734375,28.031735290527344,88.986552734375Q26.047735290527342,88.986552734375,24.959735290527345,90.378552734375Q23.951735290527346,91.674552734375,23.951735290527346,93.802552734375Q23.951735290527346,95.962552734375,24.943735290527343,97.194552734375Q25.999735290527344,98.522552734375,27.999735290527344,98.522552734375Q29.359735290527343,98.522552734375,30.319735290527344,97.802552734375Q31.34373529052734,97.01855273437499,31.679735290527343,95.546552734375L32.94373529052734,95.546552734375Q32.55973529052734,97.562552734375,31.15173529052734,98.650552734375Q29.823735290527345,99.690552734375,27.999735290527344,99.690552734375Q25.343735290527345,99.690552734375,23.919735290527342,97.930552734375Q22.639735290527344,96.362552734375,22.639735290527344,93.802552734375Q22.639735290527344,91.242552734375,23.951735290527346,89.626552734375Q25.375735290527345,87.818552734375,28.047735290527342,87.818552734375Z" fill="#3D3D3D" fill-opacity="1"/></g><g transform="matrix(0.26752832531929016,0.9635499715805054,-0.9635499715805054,0.26752832531929016,109.50846282863563,49.006824340341154)"><path d="M23.768545959472657,101.8833720703125L25.032545959472657,101.8833720703125L25.032545959472657,113.5313720703125L23.768545959472657,113.5313720703125L23.768545959472657,101.8833720703125Z" fill="#3D3D3D" fill-opacity="1"/></g><g transform="matrix(0.4684084355831146,0.883512020111084,-0.883512020111084,0.4684084355831146,111.183482420671,35.508486702983646)"><path d="M28.131961486816408,115.7564375Q28.547961486816405,115.7564375,28.819961486816407,116.0284375Q29.107961486816407,116.2684375,29.107961486816407,116.70043749999999Q29.107961486816407,117.1004375,28.819961486816407,117.3884375Q28.515961486816405,117.6604375,28.131961486816408,117.6604375Q27.747961486816408,117.6604375,27.443961486816406,117.3884375Q27.171961486816407,117.1164375,27.171961486816407,116.70043749999999Q27.171961486816407,116.2524375,27.443961486816406,116.0284375Q27.715961486816408,115.7564375,28.131961486816408,115.7564375ZM27.491961486816408,118.8764375L28.771961486816405,118.8764375L28.771961486816405,127.1484375L27.491961486816408,127.1484375L27.491961486816408,118.8764375Z" fill="#3D3D3D" fill-opacity="1"/></g><g transform="matrix(0.6473863124847412,0.7621620297431946,-0.7621620297431946,0.6473863124847412,104.95990055330367,18.495430431082696)"><path d="M37.05134063720703,131.1852744140625Q38.587340637207035,131.1852744140625,39.51534063720703,131.9052744140625Q40.459340637207035,132.6412744140625,40.68334063720703,134.1612744140625L39.41934063720703,134.1612744140625Q39.25934063720703,133.2012744140625,38.65134063720703,132.7212744140625Q38.04334063720703,132.2572744140625,37.05134063720703,132.2572744140625Q35.85134063720703,132.2572744140625,35.14734063720703,133.1692744140625Q34.47534063720703,134.0492744140625,34.47534063720703,135.5692744140625Q34.47534063720703,137.1052744140625,35.13134063720703,137.9532744140625Q35.78734063720703,138.8332744140625,37.03534063720703,138.8332744140625Q39.16334063720703,138.8332744140625,39.45134063720703,136.6892744140625L40.73134063720703,136.6892744140625Q40.44334063720703,138.3052744140625,39.499340637207034,139.1052744140625Q38.55534063720703,139.9052744140625,37.03534063720703,139.9052744140625Q35.179340637207034,139.9052744140625,34.139340637207034,138.6572744140625Q33.16334063720703,137.4892744140625,33.16334063720703,135.5852744140625Q33.16334063720703,133.6812744140625,34.139340637207034,132.4972744140625Q35.19534063720703,131.1852744140625,37.05134063720703,131.1852744140625Z" fill="#3D3D3D" fill-opacity="1"/></g><g transform="matrix(0.7960930466651917,0.6051742434501648,-0.6051742434501648,0.7960930466651917,89.26767225887352,2.150163060957766)"><path d="M42.435107604980466,138.8955791015625L43.71510760498047,138.8955791015625L43.71510760498047,146.1115791015625L47.859107604980466,142.2715791015625L49.55510760498047,142.2715791015625L45.90710760498047,145.5995791015625L49.90710760498047,150.5435791015625L48.25910760498047,150.5435791015625L45.02710760498047,146.4315791015625L43.71510760498047,147.6155791015625L43.71510760498047,150.5435791015625L42.435107604980466,150.5435791015625L42.435107604980466,138.8955791015625Z" fill="#3D3D3D" fill-opacity="1"/></g><g transform="matrix(0.9075754284858704,0.41988909244537354,-0.41988909244537354,0.9075754284858704,64.57404379197351,-8.907524995994208)"><path d="" fill="#3D3D3D" fill-opacity="1"/></g><g transform="matrix(0.9766205549240112,0.2149704396724701,-0.2149704396724701,0.9766205549240112,33.410459752299175,-10.549563331275976)"><path d="M68.40604705810547,154.3832705078125L68.40604705810547,157.0552705078125L70.45404705810547,157.0552705078125L70.45404705810547,158.1272705078125L68.40604705810547,158.1272705078125L68.40604705810547,163.3912705078125Q68.40604705810547,163.8712705078125,68.58204705810547,164.0472705078125Q68.75804705810548,164.2552705078125,69.19004705810546,164.2552705078125L70.24604705810548,164.2552705078125L70.24604705810548,165.3272705078125L68.99804705810547,165.3272705078125Q67.97404705810547,165.3272705078125,67.54204705810547,164.7992705078125Q67.14204705810548,164.3352705078125,67.14204705810548,163.3912705078125L67.14204705810548,158.1272705078125L65.47804705810547,158.1272705078125L65.47804705810547,157.0552705078125L67.14204705810548,157.0552705078125L67.14204705810548,154.9112705078125L68.40604705810547,154.3832705078125Z" fill="#3D3D3D" fill-opacity="1"/></g><g><path d="M83.59410504150391,160.061373046875Q85.46610504150391,160.061373046875,86.5541050415039,161.341373046875Q87.61010504150391,162.557373046875,87.61010504150391,164.429373046875Q87.61010504150391,166.269373046875,86.57010504150391,167.485373046875Q85.4501050415039,168.781373046875,83.59410504150391,168.781373046875Q81.7381050415039,168.781373046875,80.6341050415039,167.485373046875Q79.5781050415039,166.285373046875,79.5781050415039,164.429373046875Q79.5781050415039,162.557373046875,80.6341050415039,161.341373046875Q81.72210504150391,160.061373046875,83.59410504150391,160.061373046875ZM83.59410504150391,161.133373046875Q82.2661050415039,161.133373046875,81.5461050415039,162.141373046875Q80.8901050415039,163.037373046875,80.8901050415039,164.429373046875Q80.8901050415039,165.805373046875,81.5461050415039,166.701373046875Q82.2661050415039,167.709373046875,83.59410504150391,167.709373046875Q84.8901050415039,167.709373046875,85.6581050415039,166.701373046875Q86.31410504150391,165.773373046875,86.31410504150391,164.429373046875Q86.31410504150391,163.069373046875,85.6581050415039,162.141373046875Q84.8901050415039,161.133373046875,83.59410504150391,161.133373046875Z" fill="#3D3D3D" fill-opacity="1"/></g><g transform="matrix(0.9766205549240112,-0.2149704396724701,0.2149704396724701,0.9766205549240112,-30.451559315725717,23.536226038688937)"><path d="" fill="#3D3D3D" fill-opacity="1"/></g><g transform="matrix(0.9075754284858704,-0.41988909244537354,0.41988909244537354,0.9075754284858704,-52.67256615296583,58.597961043165014)"><path d="M110.69033233642578,157.4499228515625Q113.74633233642578,157.4499228515625,114.08233233642578,160.0259228515625L112.83433233642577,160.0259228515625Q112.65833233642579,159.2259228515625,112.19433233642579,158.9059228515625Q111.66633233642578,158.5219228515625,110.67433233642578,158.5219228515625Q109.79433233642578,158.5219228515625,109.33033233642578,158.84192285156252Q108.80233233642578,159.1459228515625,108.80233233642578,159.7059228515625Q108.80233233642578,160.2499228515625,109.50633233642579,160.6019228515625Q109.90633233642578,160.7939228515625,111.21833233642579,161.1459228515625Q112.69033233642578,161.4979228515625,113.34633233642577,161.9139228515625Q114.33833233642578,162.5379228515625,114.33833233642578,163.6099228515625Q114.33833233642578,166.1699228515625,110.83433233642577,166.1699228515625Q107.57033233642578,166.1699228515625,107.28233233642578,163.3059228515625L108.53033233642579,163.3059228515625Q108.67433233642578,164.2659228515625,109.21833233642577,164.7139228515625Q109.74633233642578,165.0979228515625,110.80233233642578,165.0979228515625Q113.02633233642578,165.0979228515625,113.02633233642578,163.6899228515625Q113.02633233642578,163.0019228515625,112.24233233642578,162.6179228515625Q111.84233233642578,162.4259228515625,110.48233233642578,162.0899228515625Q108.99433233642579,161.7219228515625,108.43433233642578,161.3539228515625Q107.49033233642578,160.7939228515625,107.49033233642578,159.7379228515625Q107.49033233642578,158.6979228515625,108.41833233642578,158.0739228515625Q109.28233233642578,157.4499228515625,110.69033233642578,157.4499228515625Z" fill="#3D3D3D" fill-opacity="1"/></g><g transform="matrix(0.7960930466651917,-0.6051742434501648,0.6051742434501648,0.7960930466651917,-62.28323465614221,101.60283901475896)"><path d="M122.8316146850586,149.2824404296875L122.8316146850586,151.9544404296875L124.8796146850586,151.9544404296875L124.8796146850586,153.0264404296875L122.8316146850586,153.0264404296875L122.8316146850586,158.2904404296875Q122.8316146850586,158.7704404296875,123.0076146850586,158.9464404296875Q123.1836146850586,159.1544404296875,123.61561468505859,159.1544404296875L124.6716146850586,159.1544404296875L124.6716146850586,160.2264404296875L123.4236146850586,160.2264404296875Q122.3996146850586,160.2264404296875,121.96761468505859,159.6984404296875Q121.5676146850586,159.2344404296875,121.5676146850586,158.2904404296875L121.5676146850586,153.0264404296875L119.9036146850586,153.0264404296875L119.9036146850586,151.9544404296875L121.5676146850586,151.9544404296875L121.5676146850586,149.8104404296875L122.8316146850586,149.2824404296875Z" fill="#3D3D3D" fill-opacity="1"/></g><g transform="matrix(0.6473863124847412,-0.7621620297431946,0.7621620297431946,0.6473863124847412,-56.618022558584926,147.3738521336727)"><path d="M135.55467700195314,143.3798544921875Q137.31467700195313,143.3798544921875,138.17867700195313,144.3078544921875Q138.91467700195312,145.1398544921875,138.91467700195312,146.5638544921875L138.91467700195312,151.8758544921875L137.71467700195313,151.8758544921875L137.71467700195313,150.4838544921875Q137.21867700195313,151.1718544921875,136.43467700195313,151.6038544921875Q135.49067700195312,152.0998544921875,134.38667700195313,152.0998544921875Q133.1386770019531,152.0998544921875,132.40267700195312,151.4598544921875Q131.63467700195312,150.8038544921875,131.63467700195312,149.7158544921875Q131.63467700195312,148.1318544921875,132.89867700195313,147.4118544921875Q133.92267700195313,146.8038544921875,135.6506770019531,146.8038544921875L137.63467700195312,146.8038544921875L137.63467700195312,146.5300544921875Q137.63467700195312,144.4358544921875,135.47467700195313,144.4358544921875Q134.46667700195312,144.4358544921875,133.9066770019531,144.8518544921875Q133.28267700195312,145.2838544921875,133.1386770019531,146.1318544921875L131.87467700195313,146.1318544921875Q132.06667700195314,144.7078544921875,133.0906770019531,144.0198544921875Q133.98667700195313,143.3798544921875,135.55467700195314,143.3798544921875ZM137.63467700195312,147.8118544921875L135.73067700195313,147.8118544921875Q132.94667700195313,147.8118544921875,132.94667700195313,149.6998544921875Q132.94667700195313,150.3078544921875,133.3946770019531,150.6918544921875Q133.8586770019531,151.0598544921875,134.65867700195312,151.0598544921875Q135.9066770019531,151.0598544921875,136.78667700195314,150.2956544921875Q137.63467700195312,149.5313544921875,137.63467700195312,148.5283544921875L137.63467700195312,147.8118544921875Z" fill="#3D3D3D" fill-opacity="1"/></g><g transform="matrix(0.4684084355831146,-0.883512020111084,0.883512020111084,0.4684084355831146,-35.259944178147634,189.9668438455701)"><path d="M144.85770361328125,132.78866796875Q145.54570361328126,132.78866796875,145.99370361328124,132.98066796875L145.99370361328124,134.26066796875Q145.41770361328125,134.08466796875,144.76170361328124,134.08466796875Q143.78570361328124,134.08466796875,143.14570361328126,134.93266796875Q142.48970361328125,135.73266796875,142.48970361328125,136.90066796874999L142.48970361328125,141.28466796875L141.22570361328124,141.28466796875L141.22570361328124,133.01266796875L142.48970361328125,133.01266796875L142.48970361328125,134.45266796875Q142.82570361328126,133.71666796875,143.35370361328125,133.31666796875Q144.00970361328126,132.78866796875,144.85770361328125,132.78866796875Z" fill="#3D3D3D" fill-opacity="1"/></g><g transform="matrix(0.26752832531929016,-0.9635499715805054,0.9635499715805054,0.26752832531929016,-0.18606813235146547,223.65146455456124)"><path d="M150.21119995117186,118.0041201171875L150.21119995117186,120.6761201171875L152.25919995117187,120.6761201171875L152.25919995117187,121.7481201171875L150.21119995117186,121.7481201171875L150.21119995117186,127.0121201171875Q150.21119995117186,127.4921201171875,150.38719995117188,127.6681201171875Q150.56319995117187,127.8761201171875,150.99519995117188,127.8761201171875L152.05119995117187,127.8761201171875L152.05119995117187,128.9481201171875L150.80319995117188,128.9481201171875Q149.77919995117188,128.9481201171875,149.3471999511719,128.4201201171875Q148.94719995117188,127.9561201171875,148.94719995117188,127.0121201171875L148.94719995117188,121.7481201171875L147.28319995117187,121.7481201171875L147.28319995117187,120.6761201171875L148.94719995117188,120.6761201171875L148.94719995117188,118.5321201171875L150.21119995117186,118.0041201171875Z" fill="#3D3D3D" fill-opacity="1"/></g><g transform="matrix(0.0541389100253582,-0.9985334277153015,0.9985334277153015,0.0541389100253582,44.505824164643286,243.8702172775288)"><path d="" fill="#3D3D3D" fill-opacity="1"/></g><g transform="matrix(-0.16178199648857117,-0.9868265390396118,0.9868265390396118,-0.16178199648857117,93.24298132038894,248.00306371215265)"><path d="M155.8693408203125,92.90487890625Q158.9253408203125,92.90487890625,159.2613408203125,95.48087890625L158.0133408203125,95.48087890625Q157.8373408203125,94.68087890625,157.3733408203125,94.36087890625001Q156.8453408203125,93.97687890625,155.8533408203125,93.97687890625Q154.9733408203125,93.97687890625,154.5093408203125,94.29687890625Q153.9813408203125,94.60087890625,153.9813408203125,95.16087890625Q153.9813408203125,95.70487890625,154.6853408203125,96.05687890625Q155.0853408203125,96.24887890625,156.3973408203125,96.60087890625Q157.8693408203125,96.95287890624999,158.5253408203125,97.36887890625Q159.5173408203125,97.99287890625,159.5173408203125,99.06487890625Q159.5173408203125,101.62487890625,156.0133408203125,101.62487890625Q152.7493408203125,101.62487890625,152.4613408203125,98.76087890625L153.7093408203125,98.76087890625Q153.8533408203125,99.72087890625,154.3973408203125,100.16887890625Q154.9253408203125,100.55287890625,155.9813408203125,100.55287890625Q158.2053408203125,100.55287890625,158.2053408203125,99.14487890625Q158.2053408203125,98.45687890625,157.4213408203125,98.07287890625Q157.0213408203125,97.88087890625,155.6613408203125,97.54487890625Q154.1733408203125,97.17687890625,153.6133408203125,96.80887890625Q152.6693408203125,96.24887890625,152.6693408203125,95.19287890625Q152.6693408203125,94.15287890625,153.5973408203125,93.52887890625Q154.4613408203125,92.90487890625,155.8693408203125,92.90487890625Z" fill="#3D3D3D" fill-opacity="1"/></g><g transform="matrix(-0.37013816833496094,-0.9289767146110535,0.9289767146110535,-0.37013816833496094,139.8823878661933,235.79915381735555)"><path d="M154.56708935546874,78.982271484375Q156.43908935546875,78.982271484375,157.52708935546875,80.262271484375Q158.58308935546876,81.478271484375,158.58308935546876,83.350271484375Q158.58308935546876,85.190271484375,157.54308935546874,86.406271484375Q156.42308935546876,87.702271484375,154.56708935546874,87.702271484375Q152.71108935546874,87.702271484375,151.60708935546876,86.406271484375Q150.55108935546875,85.206271484375,150.55108935546875,83.350271484375Q150.55108935546875,81.478271484375,151.60708935546876,80.262271484375Q152.69508935546875,78.982271484375,154.56708935546874,78.982271484375ZM154.56708935546874,80.054271484375Q153.23908935546876,80.054271484375,152.51908935546874,81.062271484375Q151.86308935546876,81.958271484375,151.86308935546876,83.350271484375Q151.86308935546876,84.726271484375,152.51908935546874,85.622271484375Q153.23908935546876,86.630271484375,154.56708935546874,86.630271484375Q155.86308935546876,86.630271484375,156.63108935546876,85.622271484375Q157.28708935546874,84.694271484375,157.28708935546874,83.350271484375Q157.28708935546874,81.990271484375,156.63108935546876,81.062271484375Q155.86308935546876,80.054271484375,154.56708935546874,80.054271484375Z" fill="#3D3D3D" fill-opacity="1"/></g><g transform="matrix(-0.5611870884895325,-0.827688992023468,0.827688992023468,-0.5611870884895325,178.71201510836,209.39945615190118)"><path d="M146.11228833007812,62.678171875000004L147.37628833007813,62.678171875000004L147.37628833007813,74.326171875L146.11228833007812,74.326171875L146.11228833007812,62.678171875000004Z" fill="#3D3D3D" fill-opacity="1"/></g><g transform="matrix(-0.7259954810142517,-0.6876994371414185,0.6876994371414185,-0.7259954810142517,205.3706699505983,172.94653530092546)"><path d="M137.21943481445314,54.2876923828125L138.62743481445312,54.2876923828125L140.99543481445312,60.9596923828125L143.36343481445311,54.2876923828125L144.77143481445313,54.2876923828125L141.63543481445313,62.5596923828125L140.3394348144531,62.5596923828125L137.21943481445314,54.2876923828125Z" fill="#3D3D3D" fill-opacity="1"/></g><g transform="matrix(-0.856857180595398,-0.5155538320541382,0.5155538320541382,-0.856857180595398,217.52277440968373,131.85266125660837)"><path d="M129.11374249267578,41.3368818359375Q129.52974249267578,41.3368818359375,129.80174249267577,41.6088818359375Q130.08974249267578,41.8488818359375,130.08974249267578,42.2808818359375Q130.08974249267578,42.6808818359375,129.80174249267577,42.9688818359375Q129.49774249267577,43.2408818359375,129.11374249267578,43.2408818359375Q128.72974249267577,43.2408818359375,128.4257424926758,42.9688818359375Q128.15374249267578,42.6968818359375,128.15374249267578,42.2808818359375Q128.15374249267578,41.8328818359375,128.4257424926758,41.6088818359375Q128.6977424926758,41.3368818359375,129.11374249267578,41.3368818359375ZM128.47374249267577,44.4568818359375L129.75374249267577,44.4568818359375L129.75374249267577,52.7288818359375L128.47374249267577,52.7288818359375L128.47374249267577,44.4568818359375Z" fill="#3D3D3D" fill-opacity="1"/></g><g transform="matrix(-0.9476531744003296,-0.3193015158176422,0.3193015158176422,-0.9476531744003296,215.16840191355277,91.86198136088683)"><path d="M119.97820440673829,36.79745703125Q123.06620440673828,36.79745703125,123.06620440673828,40.20545703125L123.06620440673828,45.29345703125L121.78620440673828,45.29345703125L121.78620440673828,40.301457031249996Q121.78620440673828,37.88545703125,119.61020440673828,37.88545703125Q118.74620440673829,37.88545703125,118.12220440673828,38.50945703125Q117.46620440673829,39.16545703125,117.38620440673829,40.301457031249996L117.38620440673829,45.29345703125L116.10620440673829,45.29345703125L116.10620440673829,37.02145703125L117.38620440673829,37.02145703125L117.38620440673829,38.23745703125Q117.81820440673827,37.53345703125,118.49020440673829,37.18145703125Q119.16220440673828,36.79745703125,119.97820440673829,36.79745703125Z" fill="#3D3D3D" fill-opacity="1"/></g><g transform="matrix(-0.9941379427909851,-0.10811901837587357,0.10811901837587357,-0.9941379427909851,200.5386546355162,58.07503809377482)"><path d="M106.24369659423829,32.10507421875Q108.11569659423829,32.10507421875,109.02769659423828,33.75307421875L109.02769659423828,32.32907421875L110.30769659423828,32.32907421875L110.30769659423828,40.02507421875Q110.30769659423828,43.993074218749996,106.53169659423828,43.993074218749996Q104.83569659423829,43.993074218749996,103.97169659423828,43.32107421875Q103.09169659423829,42.64907421875,102.86769659423828,41.30507421875L104.14769659423828,41.30507421875Q104.29169659423827,42.15307421875,104.85169659423828,42.53707421875Q105.41169659423828,42.953074218750004,106.53169659423828,42.953074218750004Q109.02769659423828,42.953074218750004,109.02769659423828,40.20107421875L109.02769659423828,38.74507421875Q108.11569659423829,40.40907421875,106.24369659423829,40.40907421875Q104.51569659423828,40.40907421875,103.50769659423828,39.22507421875Q102.51569659423828,38.08907421875,102.51569659423828,36.28107421875Q102.51569659423828,34.45707421875,103.50769659423828,33.32107421875Q104.51569659423828,32.10507421875,106.24369659423829,32.10507421875ZM106.43569659423828,33.16107421875Q105.18769659423828,33.16107421875,104.49969659423829,34.05707421875Q103.82769659423828,34.87307421875,103.82769659423828,36.28107421875Q103.82769659423828,37.609074218749996,104.41969659423827,38.40907421875Q105.10769659423828,39.337074218750004,106.41969659423827,39.337074218750004Q107.65169659423827,39.337074218750004,108.37169659423829,38.47307421875Q109.04369659423828,37.62507421875,109.04369659423828,36.28107421875Q109.04369659423828,34.87307421875,108.37169659423829,34.05707421875Q107.66769659423828,33.16107421875,106.43569659423828,33.16107421875Z" fill="#3D3D3D" fill-opacity="1"/></g></g></svg>