<svg xmlns="http://www.w3.org/2000/svg" xmlns:xlink="http://www.w3.org/1999/xlink" fill="none" version="1.1" width="552" height="78" viewBox="0 0 552 78"><g><path d="M4.256,32.456L24.136,32.456Q25.088,26.912,25.424,20.864L5.712,20.864L5.712,15.768L50.288,15.768L50.288,20.864L30.8,20.864Q30.408,26.968,29.512,32.456L51.912,32.456L51.912,37.552L32.032,37.552Q37.912,52.616,53.76,60.736L50.456,65.048Q34.104,56.144,27.888,39.904Q26.488,44.776,24.752,47.8Q19.152,57.768,5.656,65.104L2.296,60.736Q14.616,54.352,19.768,45.672Q21.672,42.48,23.016,37.552L4.256,37.552L4.256,32.456ZM113.904,39.848L101.36,39.848L101.36,43.712L115.248,43.712L115.248,48.64L101.36,48.64L101.36,52.672L118.496,52.672L118.496,57.712L101.36,57.712L101.36,64.88L96.152,64.88L96.152,57.712L81.2,57.712L81.2,52.672L96.152,52.672L96.152,48.64L83.944,48.64L83.944,43.712L96.152,43.712L96.152,39.848L84.952,39.848L84.952,35.2L96.152,35.2L96.152,30.832L82.096,30.832L82.096,25.96L96.152,25.96L96.152,21.704L85.232,21.704L85.232,17L96.152,17L96.152,12.912L101.36,12.912L101.36,17L113.904,17L113.904,25.96L117.936,25.96L117.936,30.832L113.904,30.832L113.904,39.848ZM101.36,21.704L101.36,25.96L108.696,25.96L108.696,21.704L101.36,21.704ZM101.36,30.832L101.36,35.2L108.696,35.2L108.696,30.832L101.36,30.832ZM72.8,13.584Q77.84,17.168,81.368,20.808L77.616,24.616Q74.48,21.144,68.936,17.28L72.8,13.584ZM71.456,26.968Q76.608,31,80.192,35.144L76.44,38.952Q73.248,35.088,67.648,30.664L71.456,26.968ZM80.808,43.936Q77.616,54.576,73.752,64.096L68.432,61.744Q72.856,52,75.992,42.032L80.808,43.936ZM133.168,27.36L154.616,27.36Q155.176,22.6,155.232,18.008L155.232,13.136L160.608,13.136L160.608,16.776Q160.608,22.32,159.936,27.36L182.672,27.36L182.672,32.512L161.28,32.512Q167.16,50.432,183.848,60.288L180.544,64.6Q164.36,54.632,157.976,36.88Q152.432,56.088,135.352,65.104L131.936,60.624Q149.24,52.224,153.72,32.512L133.168,32.512L133.168,27.36ZM247.128,24.056L247.128,37.608L241.808,37.608L241.808,29.152L203.896,29.152L203.896,37.608L198.632,37.608L198.632,24.056L208.712,24.056Q206.024,19.52,203.168,15.992L207.984,13.64Q210.952,17.672,213.584,22.264L210,24.056L231,24.056Q234.36,18.96,236.936,12.8L242.424,14.816Q239.568,20.416,236.824,24.056L247.128,24.056ZM207.76,32.68L238.056,32.68L238.056,37.384Q232.848,40.744,226.24,43.992L226.24,45.952L247.128,45.952L247.128,50.992L226.24,50.992L226.24,59.56Q226.24,64.544,220.92,64.544L213.808,64.544L212.52,59.728Q216.552,59.84,219.128,59.84Q220.92,59.84,220.92,57.712L220.92,50.992L198.8,50.992L198.8,45.952L220.92,45.952L220.92,41.696Q226.8,39.176,230.384,37.384L207.76,37.384L207.76,32.68ZM221.368,12.52Q224.28,16.832,226.688,21.592L221.928,24Q219.464,18.96,216.552,14.872L221.368,12.52ZM277.229,18.232Q283.065,18.232,286.712,21.536Q290.36,24.896,290.36,30.16Q290.36,35.256,286.44,39.624Q284.088,42.032,278.152,46.064Q271.712,50.32,270.424,53.624L290.416,53.624L290.416,59L262.864,59Q262.864,53.008,266.84,48.528Q268.912,46.064,275.856,41.248Q279.944,38.336,281.568,36.656Q284.312,33.576,284.312,30.104Q284.312,26.744,282.45,25.064Q280.588,23.384,276.978,23.384Q273.141,23.384,271.223,25.96Q269.248,28.424,269.248,33.296L263.144,33.296Q263.144,26.576,266.904,22.544Q270.72,18.232,277.229,18.232ZM319.2,18.232Q326.256,18.232,330.12,24.168Q333.648,29.712,333.648,39.008Q333.648,48.304,330.12,53.848Q326.2,59.784,319.2,59.784Q312.2,59.784,308.28,53.848Q304.752,48.304,304.752,39.008Q304.752,29.6,308.28,24.168Q312.144,18.232,319.2,18.232ZM319.2,23.384Q314.272,23.384,312.256,28.816Q310.8,32.4,310.8,39.008Q310.8,45.56,312.256,49.2Q314.272,54.632,319.2,54.632Q324.128,54.632,326.144,49.2Q327.6,45.336,327.6,39.008Q327.6,32.568,326.144,28.816Q324.128,23.384,319.2,23.384ZM362.349,18.232Q368.185,18.232,371.832,21.536Q375.48,24.896,375.48,30.16Q375.48,35.256,371.56,39.624Q369.208,42.032,363.272,46.064Q356.832,50.32,355.544,53.624L375.536,53.624L375.536,59L347.984,59Q347.984,53.008,351.96,48.528Q354.032,46.064,360.976,41.248Q365.064,38.336,366.688,36.656Q369.432,33.576,369.432,30.104Q369.432,26.744,367.57,25.064Q365.708,23.384,362.098,23.384Q358.261,23.384,356.343,25.96Q354.368,28.424,354.368,33.296L348.264,33.296Q348.264,26.576,352.024,22.544Q355.84,18.232,362.349,18.232ZM408.352,19.016L413.952,19.016L413.952,45.448L420,45.448L420,50.32L413.952,50.32L413.952,59L408.128,59L408.128,50.32L388.64,50.32L388.64,44.552L408.352,19.016ZM407.96,26.744L393.624,45.448L408.128,45.448L408.128,26.744L407.96,26.744ZM444.528,24.056Q441.056,29.88,435.736,33.912L432.152,29.432Q440.552,23.104,443.408,12.576L448.896,13.584Q447.944,16.776,447.104,18.904L481.152,18.904L481.152,24.056L463.96,24.056L463.96,31.784L479.192,31.784L479.192,36.768L463.96,36.768L463.96,47.632L482.888,47.632L482.888,52.84L463.96,52.84L463.96,64.936L458.64,64.936L458.64,52.84L433.216,52.84L433.216,47.632L442.008,47.632L442.008,31.784L458.64,31.784L458.64,24.056L444.528,24.056ZM447.384,47.632L458.64,47.632L458.64,36.768L447.384,36.768L447.384,47.632ZM509.488,43.824L542.64,43.824L542.64,47.744Q538.44,52.896,532.336,56.592Q539.672,59.336,548.744,60.512L546.448,65.104Q535.472,63.312,527.296,59.336Q519.008,63.2,507.752,65.104L505.456,60.456Q514.92,59.112,522.032,56.368Q516.712,52.84,513.24,48.36L509.488,48.36L509.488,43.824ZM518.952,48.36Q522.2,51.608,526.904,54.184Q531.72,51.72,535.472,48.36L518.952,48.36ZM507.024,32.12L507.024,35.256Q506.688,53.624,501.032,64.6L497,61.016Q501.592,51.664,501.76,35.256L501.76,17L522.984,17Q522.032,15.096,521.024,13.584L526.68,12.688Q527.688,14.76,528.472,17L547.288,17L547.288,22.04L507.024,22.04L507.024,27.192L515.424,27.192L515.424,23.44L520.576,23.44L520.576,27.192L533.736,27.192L533.736,23.384L538.888,23.384L538.888,27.192L547.288,27.192L547.288,32.12L538.888,32.12L538.888,40.744L515.424,40.744L515.424,32.12L507.024,32.12ZM520.576,32.12L520.576,36.32L533.736,36.32L533.736,32.12L520.576,32.12Z" fill="#000000" fill-opacity="0.8500000238418579"/></g></svg>