<svg xmlns="http://www.w3.org/2000/svg" xmlns:xlink="http://www.w3.org/1999/xlink" fill="none" version="1.1" width="198.56396484375" height="79.9639892578125" viewBox="0 0 198.56396484375 79.9639892578125"><g><g><g><path d="M1.0099942628145218,5.488L2.0039942628145218,5.488L2.0039942628145218,12.978L1.0099942628145218,12.978L1.0099942628145218,5.488ZM9.087994262814522,12.922L8.849994262814521,12.012L10.165994262814522,12.04Q10.697994262814522,12.04,10.697994262814522,11.424L10.697994262814522,4.9L5.265994262814522,4.9L5.265994262814522,3.976L11.691994262814521,3.976L11.691994262814521,11.704Q11.691994262814521,12.922,10.375994262814523,12.922L9.087994262814522,12.922ZM3.809994262814522,6.146L8.863994262814522,6.146L8.863994262814522,11.424L3.809994262814522,11.424L3.809994262814522,6.146ZM7.9259942628145215,10.57L7.9259942628145215,9.17L4.775994262814522,9.17L4.775994262814522,10.57L7.9259942628145215,10.57ZM4.775994262814522,8.358L7.9259942628145215,8.358L7.9259942628145215,6.986L4.775994262814522,6.986L4.775994262814522,8.358ZM2.4239942628145217,3.402Q3.571994262814522,4.41,4.131994262814522,5.096L3.389994262814522,5.614Q2.759994262814522,4.83,1.6819942628145217,3.864L2.4239942628145217,3.402ZM2.1019942628145216,2.016Q1.5139942628145218,3.01,0.8979942628145218,3.724L0.04399426281452179,3.178Q1.3039942628145218,1.778,1.8919942628145219,0.084L2.8719942628145216,0.294L2.535994262814522,1.134L6.2319942628145215,1.134L6.2319942628145215,2.016L4.131994262814522,2.016Q4.677994262814522,2.772,4.9579942628145215,3.402L4.061994262814522,3.738Q3.655994262814522,2.87,3.067994262814522,2.016L2.1019942628145216,2.016ZM8.051994262814521,2.016Q7.617994262814522,2.842,7.113994262814522,3.486L6.259994262814522,2.94Q7.309994262814522,1.624,7.7719942628145215,0.098L8.737994262814523,0.308Q8.597994262814522,0.756,8.443994262814522,1.134L12.531994262814521,1.134L12.531994262814521,2.016L10.207994262814521,2.016Q10.655994262814522,2.646,11.005994262814522,3.29L10.109994262814523,3.626Q9.689994262814523,2.772,9.129994262814522,2.016L8.051994262814521,2.016ZM22.13599426281452,4.844L23.143994262814523,4.844L23.143994262814523,12.852L22.13599426281452,12.852L22.13599426281452,4.844ZM17.41799426281452,4.886L18.425994262814523,4.886L18.425994262814523,7.42Q18.369994262814522,11.228,15.919994262814521,12.992L15.177994262814522,12.334Q17.375994262814523,10.808,17.41799426281452,7.42L17.41799426281452,4.886ZM20.67999426281452,0.196Q23.26999426281452,3.262,26.657994262814523,5.026L26.16799426281452,5.922Q22.75199426281452,4.102,20.31599426281452,1.148Q18.10399426281452,3.962,14.491994262814522,6.048L14.001994262814522,5.152Q17.585994262814523,3.15,19.951994262814523,0.196L20.67999426281452,0.196ZM30.81599426281452,3.066Q31.19399426281452,3.066,31.431994262814523,3.304Q31.669994262814523,3.542,31.669994262814523,3.892Q31.669994262814523,4.256,31.431994262814523,4.494Q31.16599426281452,4.732,30.81599426281452,4.732Q30.47999426281452,4.732,30.213994262814523,4.494Q29.97599426281452,4.256,29.97599426281452,3.892Q29.97599426281452,3.528,30.213994262814523,3.304Q30.451994262814523,3.066,30.81599426281452,3.066ZM30.81599426281452,8.19Q31.19399426281452,8.19,31.431994262814523,8.428Q31.669994262814523,8.666,31.669994262814523,9.016Q31.669994262814523,9.38,31.431994262814523,9.618Q31.16599426281452,9.856,30.81599426281452,9.856Q30.47999426281452,9.856,30.213994262814523,9.618Q29.97599426281452,9.38,29.97599426281452,9.016Q29.97599426281452,8.652,30.213994262814523,8.428Q30.451994262814523,8.19,30.81599426281452,8.19ZM43.51399426281452,0.336Q44.89999426281452,1.414,45.85199426281452,2.464L45.16599426281452,3.164Q44.283994262814524,2.114,42.813994262814525,0.994L43.51399426281452,0.336ZM41.94599426281452,4.438L44.871994262814525,4.438L44.871994262814525,10.654Q45.73999426281452,9.926,46.49599426281452,9.212L46.77599426281452,10.276Q45.487994262814524,11.48,43.975994262814524,12.474L43.58399426281452,11.578Q43.89199426281452,11.27,43.89199426281452,10.948L43.89199426281452,5.404L41.94599426281452,5.404L41.94599426281452,4.438ZM46.91599426281452,6.076L53.57999426281452,6.076L53.57999426281452,7Q52.90799426281452,8.988,51.38199426281452,10.402Q52.78199426281452,11.368,54.86799426281452,12.138L54.32199426281452,13.006Q52.06799426281452,12.096,50.65399426281452,11.004Q49.01599426281452,12.236,46.50999426281452,13.006L45.94999426281452,12.152Q48.28799426281452,11.452,49.85599426281452,10.346Q48.27399426281452,8.89,47.685994262814525,7.056L46.91599426281452,7.056L46.91599426281452,6.076ZM48.63799426281452,7.056Q49.18399426281452,8.582,50.569994262814525,9.772Q51.92799426281452,8.582,52.58599426281452,7.056L48.63799426281452,7.056ZM47.993994262814525,0.672L52.697994262814525,0.672L52.697994262814525,3.696Q52.697994262814525,4.228,53.243994262814525,4.228L54.53199426281452,4.228L54.53199426281452,5.152L52.99199426281452,5.152Q51.70399426281452,5.152,51.70399426281452,3.906L51.70399426281452,1.624L48.987994262814524,1.624L48.987994262814524,2.114Q48.987994262814524,4.326,46.83199426281452,5.558L46.15999426281452,4.788Q47.993994262814525,3.878,47.993994262814525,2.226L47.993994262814525,0.672ZM60.32799426281452,4.326L64.12199426281452,4.326L64.12199426281452,0.112L65.15799426281453,0.112L65.15799426281453,4.326L68.75599426281453,4.326L68.75599426281453,5.334L65.15799426281453,5.334L65.15799426281453,12.992L64.12199426281452,12.992L64.12199426281452,5.334L60.32799426281452,5.334L60.32799426281452,4.326ZM57.58399426281452,0.266Q59.02599426281452,1.344,59.97799426281452,2.422L59.29199426281452,3.122Q58.423994262814524,2.1,56.883994262814525,0.952L57.58399426281452,0.266ZM55.94599426281452,4.41L58.969994262814524,4.41L58.969994262814524,10.64Q59.94999426281452,9.814,60.621994262814525,9.184L60.87399426281452,10.22Q59.61399426281452,11.438,58.07399426281452,12.46L57.68199426281452,11.55Q58.00399426281452,11.298,58.00399426281452,10.962L58.00399426281452,5.376L55.94599426281452,5.376L55.94599426281452,4.41ZM74.97199426281452,2.548L74.97199426281452,12.096L73.99199426281452,12.096L73.99199426281452,11.298L71.44399426281453,11.298L71.44399426281453,12.502L70.46399426281452,12.502L70.46399426281452,2.548L71.76599426281452,2.548Q72.17199426281452,1.4,72.36799426281452,0.112L73.37599426281452,0.252Q73.10999426281452,1.582,72.71799426281453,2.548L74.97199426281452,2.548ZM71.44399426281453,10.36L73.99199426281452,10.36L73.99199426281452,7.294L71.44399426281453,7.294L71.44399426281453,10.36ZM71.44399426281453,6.384L73.99199426281452,6.384L73.99199426281452,3.5L71.44399426281453,3.5L71.44399426281453,6.384ZM77.40799426281453,5.796Q78.86399426281451,7.462,79.70399426281452,8.848L78.90599426281452,9.408Q78.05199426281452,8.022,76.59599426281453,6.3L77.40799426281453,5.796ZM82.20999426281452,2.562Q82.20999426281452,9.548,81.99999426281452,11.186Q81.78999426281452,12.796,80.03999426281452,12.796L78.61199426281452,12.74L78.37399426281452,11.816Q79.25599426281453,11.858,79.89999426281452,11.858Q80.87999426281452,11.858,81.04799426281453,10.78Q81.17399426281452,9.604,81.21599426281452,3.542L77.36599426281452,3.542Q76.76399426281452,4.886,75.96599426281452,5.936L75.36399426281451,5.138Q76.81999426281452,3.108,77.36599426281452,0.098L78.35999426281452,0.224Q78.07999426281452,1.582,77.74399426281452,2.562L82.20999426281452,2.562ZM85.98999426281452,7.154Q85.26199426281453,7.924,84.21199426281453,8.834L83.90399426281452,7.784Q86.73199426281452,5.362,87.66999426281453,3.066L84.22599426281452,3.066L84.22599426281452,2.1L86.40999426281452,2.1Q86.05999426281453,1.176,85.56999426281452,0.28L86.53599426281453,0Q87.02599426281452,1.022,87.33399426281453,1.946L86.92799426281452,2.1L88.67799426281452,2.1L88.67799426281452,2.954Q88.13199426281452,4.48,86.99799426281452,5.978Q88.14599426281453,6.692,89.08399426281453,7.602L88.50999426281452,8.47Q87.78199426281452,7.672,86.98399426281452,7.042L86.98399426281452,12.964L85.98999426281452,12.964L85.98999426281452,7.154ZM95.66399426281453,0.686L95.66399426281453,8.428L94.64199426281452,8.428L94.64199426281452,1.652L90.70799426281452,1.652L90.70799426281452,8.428L89.71399426281452,8.428L89.71399426281452,0.686L95.66399426281453,0.686ZM94.02599426281452,12.74Q92.87799426281452,12.74,92.87799426281452,11.522L92.87799426281452,8.4L93.85799426281451,8.4L93.85799426281451,11.312Q93.85799426281451,11.816,94.31999426281452,11.816L95.18799426281453,11.816Q95.48199426281452,11.816,95.62199426281452,11.592Q95.80399426281453,11.312,95.85999426281452,10.01L96.79799426281453,10.304Q96.67199426281452,12.04,96.33599426281452,12.418Q96.01399426281452,12.74,95.36999426281452,12.74L94.02599426281452,12.74ZM92.16399426281453,2.646L93.14399426281452,2.646L93.14399426281452,5.32Q93.05999426281453,8.456,92.05199426281452,10.332Q91.02999426281453,12.096,88.78999426281452,13.048L88.24399426281452,12.166Q90.45599426281453,11.2,91.30999426281453,9.618Q92.12199426281452,7.952,92.16399426281453,5.32L92.16399426281453,2.646ZM108.09599426281453,5.222L108.09599426281453,10.206L107.12999426281452,10.206L107.12999426281452,6.16L101.50199426281452,6.16L101.50199426281452,10.206L100.53599426281453,10.206L100.53599426281453,5.222L108.09599426281453,5.222ZM110.18199426281453,2.786L110.18199426281453,5.6L109.15999426281452,5.6L109.15999426281452,3.766L99.48599426281451,3.766L99.48599426281451,5.586L98.46399426281452,5.586L98.46399426281452,2.786L100.63399426281453,2.786Q100.07399426281452,1.736,99.45799426281452,0.882L100.35399426281452,0.448Q101.01199426281453,1.358,101.61399426281451,2.492L101.03999426281452,2.786L106.40199426281453,2.786Q107.26999426281452,1.568,107.87199426281452,0.182L108.86599426281452,0.546Q108.19399426281453,1.876,107.50799426281452,2.786L110.18199426281453,2.786ZM103.86799426281452,0.098Q104.38599426281452,0.938,104.98799426281452,2.156L104.10599426281452,2.618Q103.58799426281452,1.498,102.97199426281452,0.532L103.86799426281452,0.098ZM103.60199426281453,7.098L104.59599426281453,7.098L104.59599426281453,8.61Q104.51199426281453,10.402,103.19599426281452,11.508Q101.90799426281453,12.502,98.95399426281452,13.076L98.37999426281452,12.18Q101.31999426281452,11.676,102.45399426281452,10.85Q103.51799426281453,9.996,103.60199426281453,8.61L103.60199426281453,7.098ZM106.02399426281453,12.726Q104.70799426281452,12.726,104.70799426281452,11.326L104.70799426281452,8.778L105.67399426281452,8.778L105.67399426281452,11.13Q105.67399426281452,11.774,106.33199426281452,11.774L108.64199426281452,11.774Q109.03399426281452,11.774,109.22999426281453,11.55Q109.43999426281452,11.256,109.52399426281453,9.912L110.44799426281452,10.206Q110.32199426281453,11.984,109.91599426281452,12.39Q109.57999426281452,12.726,108.82399426281452,12.726L106.02399426281453,12.726ZM121.82999426281452,0.112Q122.24999426281452,0.686,122.62799426281452,1.512L123.63599426281452,1.512L123.63599426281452,2.45L119.96799426281453,2.45Q120.07999426281452,3.29,120.30399426281453,3.962Q120.49999426281452,4.48,120.72399426281453,4.928Q121.61999426281452,4.088,122.26399426281452,3.15L122.87999426281452,3.808Q122.09599426281453,4.9,121.19999426281453,5.712Q121.28399426281452,5.838,121.47999426281453,6.062Q122.17999426281452,6.762,122.79599426281452,6.79Q123.17399426281452,6.748,123.57999426281452,5.082L124.40599426281452,5.614Q124.12599426281452,6.412,123.77599426281452,7.028Q123.35599426281452,7.728,122.85199426281453,7.728Q121.95599426281453,7.728,121.03199426281452,6.916Q120.73799426281452,6.664,120.48599426281451,6.328Q119.53399426281452,7.098,118.39999426281452,7.714L117.86799426281452,6.916Q119.07199426281453,6.272,119.96799426281453,5.558Q119.65999426281452,5.026,119.47799426281452,4.536Q119.14199426281452,3.682,118.97399426281453,2.45L114.39599426281453,2.45L114.39599426281453,3.752L117.75599426281453,3.752Q117.75599426281453,6.216,117.39199426281452,6.776Q117.01399426281452,7.294,116.08999426281453,7.336L114.98399426281452,7.336L114.71799426281453,6.468L115.83799426281452,6.468Q116.46799426281453,6.426,116.63599426281452,6.132Q116.77599426281452,5.754,116.81799426281452,4.648L114.32599426281452,4.648Q114.07399426281452,6.916,112.82799426281453,8.344L112.05799426281452,7.658Q113.37399426281452,6.216,113.42999426281452,3.71L113.42999426281452,1.512L118.87599426281452,1.512Q118.81999426281452,0.588,118.81999426281452,0.056L119.81399426281452,0.056Q119.81399426281452,0.896,119.86999426281452,1.512L121.71799426281453,1.512Q121.45199426281452,0.966,120.98999426281452,0.42L121.82999426281452,0.112ZM123.07599426281452,8.344L123.07599426281452,11.592L124.62999426281452,11.592L124.62999426281452,12.502L111.95999426281452,12.502L111.95999426281452,11.592L113.52799426281452,11.592L113.52799426281452,8.344L123.07599426281452,8.344ZM114.49399426281452,11.592L116.36999426281452,11.592L116.36999426281452,9.268L114.49399426281452,9.268L114.49399426281452,11.592ZM117.33599426281452,11.592L119.23999426281452,11.592L119.23999426281452,9.268L117.33599426281452,9.268L117.33599426281452,11.592ZM120.20599426281453,11.592L122.10999426281452,11.592L122.10999426281452,9.268L120.20599426281453,9.268L120.20599426281453,11.592ZM128.52199426281453,3.066L136.10999426281452,3.066L136.10999426281452,7.14L128.52199426281453,7.14L128.52199426281453,3.066ZM135.18599426281452,6.342L135.18599426281452,5.488L129.4459942628145,5.488L129.4459942628145,6.342L135.18599426281452,6.342ZM129.4459942628145,4.746L135.18599426281452,4.746L135.18599426281452,3.864L129.4459942628145,3.864L129.4459942628145,4.746ZM126.39399426281452,8.316L130.41199426281452,8.316Q130.74799426281453,7.938,131.36399426281451,7.21L132.32999426281452,7.504L131.61599426281452,8.316L138.2379942628145,8.316L138.2379942628145,9.212L135.6899942628145,9.212Q134.94799426281452,10.276,134.05199426281453,10.962Q136.10999426281452,11.466,138.36399426281451,12.208L137.7619942628145,13.006Q135.1719942628145,12.138,132.9879942628145,11.606Q130.62199426281452,12.824,126.64599426281453,12.908L126.11399426281451,12.054Q129.40399426281454,12.054,131.64399426281452,11.284Q130.03399426281453,10.892,128.19999426281453,10.556Q128.99799426281453,9.814,129.5719942628145,9.212L126.39399426281452,9.212L126.39399426281452,8.316ZM132.93199426281453,10.682Q133.96799426281453,10.038,134.62599426281452,9.212L130.77599426281452,9.212Q130.17399426281452,9.814,129.89399426281452,10.066Q131.54599426281453,10.346,132.93199426281453,10.682ZM138.0419942628145,1.302L138.0419942628145,4.13L137.06199426281452,4.13L137.06199426281452,2.198L127.56999426281452,2.198L127.56999426281452,4.13L126.58999426281453,4.13L126.58999426281453,1.302L131.86799426281453,1.302Q131.69999426281453,0.812,131.39199426281453,0.21L132.44199426281452,0.042Q132.69399426281453,0.644,132.88999426281453,1.302L138.0419942628145,1.302ZM141.86399426281451,9.912Q142.87199426281452,9.912,142.87199426281452,11.27Q142.87199426281452,13.076,141.28999426281453,13.944L140.91199426281452,13.342Q142.00399426281453,12.628,142.08799426281453,11.536Q141.9759942628145,11.564,141.86399426281451,11.564Q141.51399426281452,11.564,141.24799426281453,11.34Q141.00999426281453,11.116,141.00999426281453,10.752Q141.00999426281453,10.332,141.24799426281453,10.136Q141.48599426281453,9.912,141.86399426281451,9.912ZM170.56399426281453,1.386L170.56399426281453,12.348L169.5839942628145,12.348L169.5839942628145,11.494L166.7139942628145,11.494L166.7139942628145,12.348L165.73399426281452,12.348L165.73399426281452,1.386L170.56399426281453,1.386ZM166.7139942628145,10.514L169.5839942628145,10.514L169.5839942628145,2.366L166.7139942628145,2.366L166.7139942628145,10.514ZM162.07999426281452,0.168Q161.84199426281452,1.568,161.61799426281453,2.674L164.5299942628145,2.674L164.5299942628145,3.262Q164.31999426281453,6.706,162.91999426281453,9.198Q164.22199426281452,10.192,165.0059942628145,10.92L164.31999426281453,11.732Q163.52199426281453,10.948,162.38799426281452,10.052Q161.23999426281452,11.704,159.48999426281452,12.908L158.81799426281452,12.082Q160.5119942628145,10.99,161.61799426281453,9.436Q160.28799426281452,8.414,159.22399426281453,7.658Q159.85399426281452,5.852,160.37199426281452,3.654L158.73399426281452,3.654L158.73399426281452,2.674L160.58199426281453,2.674Q160.88999426281453,1.106,161.05799426281453,0.084L162.07999426281452,0.168ZM162.13599426281453,8.61Q163.3399942628145,6.468,163.5779942628145,3.654L161.40799426281453,3.654Q160.91799426281452,5.824,160.34399426281453,7.364Q161.2679942628145,7.98,162.13599426281453,8.61ZM180.7979942628145,0.098L181.8339942628145,0.098L181.8339942628145,1.61L184.85799426281451,1.61L184.85799426281451,2.548L181.8339942628145,2.548L181.8339942628145,4.242L185.30599426281452,4.242L185.30599426281452,5.222L177.18599426281452,5.222L177.18599426281452,4.242L180.7979942628145,4.242L180.7979942628145,2.548L177.7739942628145,2.548L177.7739942628145,1.61L180.7979942628145,1.61L180.7979942628145,0.098ZM177.0179942628145,6.902L182.5059942628145,6.902L182.5059942628145,5.768L183.5419942628145,5.768L183.5419942628145,6.902L185.4459942628145,6.902L185.4459942628145,7.868L183.5419942628145,7.868L183.5419942628145,11.648Q183.5419942628145,12.95,182.2259942628145,12.95L180.64399426281452,12.95L180.4339942628145,11.956Q181.2739942628145,12.026,181.87599426281452,12.026Q182.5059942628145,12.026,182.5059942628145,11.382L182.5059942628145,7.868L177.0179942628145,7.868L177.0179942628145,6.902ZM179.11799426281453,8.358Q180.1959942628145,9.576,180.7979942628145,10.528L179.9999942628145,11.088Q179.35599426281453,10.024,178.34799426281452,8.834L179.11799426281453,8.358ZM174.24599426281452,0.266Q175.7019942628145,1.386,176.61199426281453,2.422L175.92599426281453,3.122Q175.00199426281452,2.044,173.54599426281453,0.952L174.24599426281452,0.266ZM172.5659942628145,4.41L175.5899942628145,4.41L175.5899942628145,10.668Q176.27599426281452,10.094,177.15799426281453,9.24L177.42399426281452,10.304Q176.1779942628145,11.508,174.72199426281452,12.474L174.34399426281453,11.564Q174.62399426281453,11.312,174.62399426281453,10.976L174.62399426281453,5.376L172.5659942628145,5.376L172.5659942628145,4.41ZM198.56399426281453,1.386L198.56399426281453,12.348L197.5839942628145,12.348L197.5839942628145,11.494L194.7139942628145,11.494L194.7139942628145,12.348L193.73399426281452,12.348L193.73399426281452,1.386L198.56399426281453,1.386ZM194.7139942628145,10.514L197.5839942628145,10.514L197.5839942628145,2.366L194.7139942628145,2.366L194.7139942628145,10.514ZM190.07999426281452,0.168Q189.84199426281452,1.568,189.61799426281453,2.674L192.5299942628145,2.674L192.5299942628145,3.262Q192.31999426281453,6.706,190.91999426281453,9.198Q192.22199426281452,10.192,193.0059942628145,10.92L192.31999426281453,11.732Q191.52199426281453,10.948,190.38799426281452,10.052Q189.23999426281452,11.704,187.48999426281452,12.908L186.81799426281452,12.082Q188.5119942628145,10.99,189.61799426281453,9.436Q188.28799426281452,8.414,187.22399426281453,7.658Q187.85399426281452,5.852,188.37199426281452,3.654L186.73399426281452,3.654L186.73399426281452,2.674L188.58199426281453,2.674Q188.88999426281453,1.106,189.05799426281453,0.084L190.07999426281452,0.168ZM190.13599426281453,8.61Q191.3399942628145,6.468,191.5779942628145,3.654L189.40799426281453,3.654Q188.91799426281452,5.824,188.34399426281453,7.364Q189.2679942628145,7.98,190.13599426281453,8.61ZM3.9919942628145217,26.944L3.9919942628145217,28.834L5.895994262814522,28.834L5.895994262814522,26.944L3.9919942628145217,26.944ZM6.777994262814522,28.834L8.695994262814521,28.834L8.695994262814521,26.944L6.777994262814522,26.944L6.777994262814522,28.834ZM8.695994262814521,26.104L8.695994262814521,24.242L6.777994262814522,24.242L6.777994262814522,26.104L8.695994262814521,26.104ZM5.895994262814522,24.242L3.9919942628145217,24.242L3.9919942628145217,26.104L5.895994262814522,26.104L5.895994262814522,24.242ZM0.09999426281452178,20.91L12.531994262814521,20.91L12.531994262814521,21.89L0.09999426281452178,21.89L0.09999426281452178,20.91ZM11.005994262814522,24.34L11.985994262814522,24.34L11.985994262814522,32.936L11.005994262814522,32.936L11.005994262814522,32.18L1.6539942628145219,32.18L1.6539942628145219,32.936L0.6739942628145218,32.936L0.6739942628145218,24.382L1.6539942628145219,24.382L1.6539942628145219,31.228L11.005994262814522,31.228L11.005994262814522,24.34ZM3.0119942628145218,23.318L9.661994262814522,23.318L9.661994262814522,29.758L3.0119942628145218,29.758L3.0119942628145218,23.318ZM15.863994262814522,29.912Q16.87199426281452,29.912,16.87199426281452,31.27Q16.87199426281452,33.076,15.289994262814522,33.944L14.911994262814522,33.342Q16.003994262814523,32.628,16.087994262814522,31.536Q15.975994262814522,31.564,15.863994262814522,31.564Q15.513994262814522,31.564,15.247994262814522,31.34Q15.009994262814521,31.116,15.009994262814521,30.752Q15.009994262814521,30.332,15.247994262814522,30.136Q15.485994262814522,29.912,15.863994262814522,29.912ZM28.51999426281452,20.686L32.84599426281452,20.686L32.84599426281452,25.124L31.459994262814522,25.124L31.459994262814522,27.308L33.01399426281452,27.308L33.01399426281452,28.26L31.459994262814522,28.26L31.459994262814522,30.808Q32.29999426281452,30.556,33.05599426281452,30.304L33.05599426281452,31.298Q31.02599426281452,32.012,28.05799426281452,32.67L27.76399426281452,31.704Q28.30999426281452,31.578,28.50599426281452,31.55L28.50599426281452,26.524L29.401994262814522,26.524L29.401994262814522,31.354L30.50799426281452,31.074L30.50799426281452,25.124L28.51999426281452,25.124L28.51999426281452,20.686ZM31.87999426281452,24.186L31.87999426281452,21.61L29.49999426281452,21.61L29.49999426281452,24.186L31.87999426281452,24.186ZM40.12599426281452,21.106Q38.90799426281452,21.61,37.31199426281452,21.862Q37.31199426281452,23.304,37.26999426281452,25.236L40.475994262814524,25.236L40.475994262814524,26.23L37.39599426281452,26.23Q38.23599426281452,30.08,40.783994262814524,32.208L40.097994262814524,32.964Q37.633994262814525,30.78,36.877994262814525,27.35Q35.92599426281452,30.71,33.48999426281452,33.006L32.81799426281452,32.25Q35.54799426281452,29.646,36.13599426281452,26.23L33.41999426281452,26.23L33.41999426281452,25.236L36.261994262814525,25.236L36.261994262814525,25.18Q36.33199426281452,23.206,36.34599426281452,21.988Q35.127994262814525,22.114,33.72799426281452,22.114L33.41999426281452,21.19Q37.10199426281452,21.19,39.621994262814525,20.252L40.12599426281452,21.106ZM52.75399426281452,20.294Q53.67799426281452,21.302,54.18199426281452,22.1L53.39799426281452,22.646Q52.89399426281452,21.778,52.011994262814525,20.756L52.75399426281452,20.294ZM50.429994262814525,20.154L51.423994262814524,20.154L51.423994262814524,21.764Q51.40999426281452,22.478,51.33999426281452,23.108L54.33599426281452,23.108L54.33599426281452,24.088L51.61999426281452,24.088Q52.249994262814525,26.678,54.783994262814524,28.176L54.237994262814524,29.044Q51.85799426281452,27.504,51.01799426281452,24.998Q50.77999426281452,25.838,50.45799426281452,26.482Q49.54799426281452,28.148,47.50399426281452,29.058L46.95799426281452,28.19Q48.90399426281452,27.28,49.673994262814524,25.796Q50.02399426281452,24.998,50.20599426281452,24.088L48.39999426281452,24.088L48.39999426281452,23.108L50.34599426281452,23.108Q50.41599426281452,22.45,50.429994262814525,21.764L50.429994262814525,20.154ZM44.71799426281452,29.576Q44.21399426281452,31.564,43.41599426281452,33.048L42.42199426281452,32.698Q43.24799426281452,31.326,43.82199426281452,29.324L44.71799426281452,29.576ZM47.12599426281452,29.534Q47.405994262814524,31.186,47.615994262814525,32.726L46.621994262814525,32.964Q46.46799426281452,31.27,46.18799426281452,29.73L47.12599426281452,29.534ZM50.03799426281452,29.38Q50.55599426281452,30.906,50.96199426281452,32.754L49.95399426281452,32.992Q49.603994262814524,31.06,49.07199426281452,29.59L50.03799426281452,29.38ZM52.725994262814524,29.1Q53.761994262814525,30.696,54.615994262814525,32.488L53.719994262814524,32.95Q52.87999426281452,31.06,51.88599426281452,29.506L52.725994262814524,29.1ZM44.52199426281452,23.584Q44.185994262814525,24.102,43.70999426281452,24.676Q44.871994262814525,25.152,45.78199426281452,25.712Q46.243994262814525,25.124,46.621994262814525,24.494Q45.54399426281452,23.906,44.52199426281452,23.584ZM47.01399426281452,23.71Q47.34999426281452,22.954,47.62999426281452,21.918L45.417994262814524,21.918Q45.19399426281452,22.436,44.95599426281452,22.87Q46.005994262814525,23.206,47.01399426281452,23.71ZM45.75399426281452,21.022L48.65199426281452,21.022L48.65199426281452,21.848Q47.405994262814524,26.986,42.743994262814525,29.17L42.26799426281452,28.288Q43.947994262814525,27.588,45.179994262814525,26.384Q44.255994262814525,25.768,43.14999426281452,25.306Q42.77199426281452,25.698,42.47799426281452,25.964L41.86199426281452,25.166Q44.19999426281452,23.094,45.02599426281452,20.084L46.005994262814525,20.21L45.75399426281452,21.022ZM62.72199426281452,26.622L62.72199426281452,31.466Q63.89799426281452,31.144,65.00399426281452,30.654L65.22799426281452,31.536Q63.78599426281452,32.152,61.64399426281452,32.712L61.43399426281452,31.914Q61.74199426281452,31.788,61.74199426281452,31.508L61.74199426281452,20.686L67.60799426281451,20.686L67.60799426281451,26.622L65.14399426281452,26.622Q65.38199426281452,27.938,65.95599426281453,28.988Q66.93599426281452,28.442,67.80399426281453,27.336L68.41999426281453,27.952Q67.53799426281452,29.1,66.40399426281452,29.716Q67.32799426281453,31.032,68.76999426281452,31.942L68.20999426281452,32.824Q64.90599426281452,30.57,64.23399426281452,26.622L62.72199426281452,26.622ZM60.481994262814524,20.882L60.481994262814524,32.012L59.50199426281452,32.012L59.50199426281452,30.948L57.38799426281452,30.948L57.38799426281452,32.334L56.42199426281452,32.334L56.42199426281452,20.882L60.481994262814524,20.882ZM57.38799426281452,29.996L59.50199426281452,29.996L59.50199426281452,27.882L57.38799426281452,27.882L57.38799426281452,29.996ZM57.38799426281452,26.972L59.50199426281452,26.972L59.50199426281452,24.858L57.38799426281452,24.858L57.38799426281452,26.972ZM57.38799426281452,23.934L59.50199426281452,23.934L59.50199426281452,21.834L57.38799426281452,21.834L57.38799426281452,23.934ZM62.72199426281452,24.144L62.72199426281452,25.726L66.62799426281452,25.726L66.62799426281452,24.144L62.72199426281452,24.144ZM66.62799426281452,23.248L66.62799426281452,21.61L62.72199426281452,21.61L62.72199426281452,23.248L66.62799426281452,23.248ZM79.74599426281452,20.364Q79.32599426281452,21.176,78.79399426281452,21.876L82.57399426281452,21.876L82.57399426281452,22.856L70.04399426281452,22.856L70.04399426281452,21.876L73.87999426281452,21.876Q73.44599426281452,20.98,72.96999426281452,20.294L74.03399426281452,20.112Q74.49599426281452,20.882,74.95799426281452,21.876L77.68799426281453,21.876Q78.31799426281452,20.966,78.76599426281452,20.028L79.74599426281452,20.364ZM73.79599426281452,32.88L73.52999426281453,31.886L74.57999426281452,31.928Q75.12599426281452,31.928,75.12599426281452,31.228L75.12599426281452,29.926L72.00399426281452,29.926L72.00399426281452,32.992L71.02399426281453,32.992L71.02399426281453,23.99L76.10599426281452,23.99L76.10599426281452,31.452Q76.10599426281452,32.88,74.90199426281453,32.88L73.79599426281452,32.88ZM72.00399426281452,29.03L75.12599426281452,29.03L75.12599426281452,27.434L72.00399426281452,27.434L72.00399426281452,29.03ZM72.00399426281452,26.538L75.12599426281452,26.538L75.12599426281452,24.928L72.00399426281452,24.928L72.00399426281452,26.538ZM78.48599426281451,32.838L78.27599426281452,31.872Q79.25599426281453,31.942,79.99799426281452,31.942Q80.58599426281452,31.942,80.58599426281452,31.298L80.58599426281452,23.598L81.59399426281452,23.598L81.59399426281452,31.55Q81.59399426281452,32.838,80.34799426281452,32.838L78.48599426281451,32.838ZM77.67399426281452,24.648L78.65399426281452,24.648L78.65399426281452,30.682L77.67399426281452,30.682L77.67399426281452,24.648ZM86.81599426281453,29.576Q87.55799426281452,29.576,88.10399426281452,30.08Q88.63599426281452,30.584,88.63599426281452,31.34Q88.63599426281452,32.082,88.10399426281452,32.586Q87.55799426281452,33.09,86.81599426281453,33.09Q86.05999426281453,33.09,85.52799426281452,32.6Q84.99599426281452,32.11,84.99599426281452,31.34Q84.99599426281452,30.57,85.52799426281452,30.08Q86.05999426281453,29.576,86.81599426281453,29.576ZM86.81599426281453,30.304Q86.36799426281452,30.304,86.07399426281452,30.612Q85.75199426281452,30.892,85.75199426281452,31.34Q85.75199426281452,31.774,86.07399426281452,32.054Q86.38199426281452,32.362,86.81599426281453,32.362Q87.22199426281452,32.362,87.55799426281452,32.054Q87.87999426281452,31.76,87.87999426281452,31.34Q87.87999426281452,30.906,87.55799426281452,30.612Q87.24999426281452,30.304,86.81599426281453,30.304Z" fill="#FFFFFF" fill-opacity="1"/></g></g><g><g><path d="M2.472,58.68396557617187C4.392,58.68396557617187,5.424,57.93996557617187,5.424,56.319965576171874C5.424,54.68796557617188,4.752,54.19596557617187,2.892,53.76396557617188C1.392,53.41596557617187,1.188,53.139965576171875,1.188,52.359965576171874C1.188,51.279965576171875,1.74,51.051965576171874,2.904,51.051965576171874C3.66,51.051965576171874,4.5,51.20796557617187,4.98,51.38796557617187L4.98,50.40396557617188C4.584,50.24796257617187,3.696,50.10396557617187,2.892,50.10396557617187C1.008,50.10396557617187,0.12,50.84796557617187,0.12,52.359965576171874C0.12,53.83596557617187,0.744,54.255965576171874,2.448,54.663965576171876C4.008,55.035965576171876,4.368,55.31196557617187,4.368,56.331965576171875C4.368,57.36396557617188,3.72,57.73596557617188,2.472,57.73596557617188C1.488,57.73596557617188,0.492,57.54396557617187,0,57.36396557617188L0,58.359965576171874C0.408,58.50396557617188,1.44,58.68396557617187,2.472,58.68396557617187ZM12.348,54.675965576171876C12.348,53.41596557617187,11.964,51.96396557617187,9.756,51.96396557617187C7.908,51.96396557617187,6.816,52.743965576171874,6.816,55.32396557617187C6.816,57.90396557617187,7.908,58.68396557617187,9.816,58.68396557617187C10.74,58.68396557617187,11.628,58.49196557617188,12,58.29996557617187L12,57.35196557617188C11.508,57.59196557617187,10.68,57.77196557617187,9.972,57.77196557617187C8.4,57.77196557617187,7.908,57.12396557617188,7.896,55.70796557617187L12.288,55.431965576171876C12.324,55.13196557617187,12.348,54.855965576171876,12.348,54.675965576171876ZM7.896,54.93996557617187C7.932,53.61996557617188,8.268,52.81596557617188,9.756,52.81596557617188C11.16,52.81596557617188,11.328,53.691965576171874,11.328,54.68796557617188L7.896,54.93996557617187ZM17.232,51.96396557617187C16.452,51.96396557617187,15.576,52.179965576171874,15.168,53.25996557617187L15.168,52.08396557617188L14.136,52.08396557617188L14.136,58.563965576171874L15.168,58.563965576171874L15.168,54.32796557617188C15.528,53.175965576171876,16.344,52.89996557617187,17.172,52.89996557617187L17.316,52.89996557617187L17.352,51.96396557617187L17.232,51.96396557617187ZM20.136,58.563965576171874L21.36,58.563965576171874L23.784,52.08396557617188L22.692,52.08396557617188L20.796,57.53196557617187L20.724,57.53196557617187L18.756,52.08396557617188L17.712,52.08396557617188L20.136,58.563965576171874ZM25.524,50.895965576171875C25.956,50.895965576171875,26.136,50.81196557617187,26.136,50.28396557617187C26.136,49.743965576171874,25.956,49.671966576171876,25.524,49.671966576171876C25.068,49.671966576171876,24.9,49.743965576171874,24.9,50.28396557617187C24.9,50.81196557617187,25.068,50.895965576171875,25.524,50.895965576171875ZM24.996,58.563965576171874L26.028,58.563965576171874L26.028,52.08396557617188L24.996,52.08396557617188L24.996,58.563965576171874ZM31.32,51.96396557617187C30.528,51.96396557617187,29.64,52.179965576171874,29.244,53.00796557617188L29.244,52.08396557617188L28.212,52.08396557617188L28.212,58.563965576171874L29.244,58.563965576171874L29.244,54.18396557617187C29.604,53.04396557617188,30.396,52.88796557617187,31.212,52.88796557617187C32.244,52.88796557617187,32.448,53.46396557617187,32.448,54.459965576171875L32.448,58.563965576171874L33.492,58.563965576171874L33.492,54.075965576171875C33.492,52.83996557617188,33.012,51.96396557617187,31.32,51.96396557617187ZM40.044,52.08396557617188L40.044,53.295965576171874C39.792,52.52796557617187,39.252,51.96396557617187,37.944,51.96396557617187C35.784,51.96396557617187,35.256,53.47596557617187,35.256,55.26396557617188C35.256,57.243965576171874,35.784,58.563965576171874,37.944,58.563965576171874C39.192,58.563965576171874,39.78,58.10796557617188,40.044,57.35196557617188L40.044,57.999965576171874C40.044,59.487965576171874,39.36,60.075965576171875,37.92,60.075965576171875C37.368,60.075965576171875,36.828,60.02796557617187,36.336,59.931965576171876L36.336,60.807965576171874C36.744,60.89196557617188,37.356,60.96396557617187,37.908,60.96396557617187C40.104,60.96396557617187,41.076,59.895965576171875,41.076,58.10796557617188L41.076,52.08396557617188L40.044,52.08396557617188ZM38.088,57.69996557617188C36.564,57.69996557617188,36.36,56.61996557617188,36.36,55.26396557617188C36.36,54.00396557617187,36.528,52.82796557617188,38.088,52.82796557617188C39.648,52.82796557617188,40.08,53.77596557617188,40.08,55.26396557617188C40.08,56.81196557617187,39.648,57.69996557617188,38.088,57.69996557617188ZM48.912,51.96396557617187C48.444,51.96396557617187,47.916,51.999965576171874,47.436,52.05996557617188L47.436,52.971965576171876C47.904,52.87596557617187,48.432,52.82796557617188,48.864,52.82796557617188C50.184,52.82796557617188,50.46,53.367965576171876,50.46,54.14796557617188L50.46,54.68796557617188L48.48,54.68796557617188C46.932,54.68796557617188,45.912,55.215965576171875,45.912,56.75196557617188C45.912,57.97596557617187,46.596,58.68396557617187,48.144,58.68396557617187C49.116,58.68396557617187,50.088,58.28796557617187,50.46,57.57996557617187L50.616,58.563965576171874L51.492,58.563965576171874L51.492,53.96796557617188C51.492,52.803965576171876,50.952,51.96396557617187,48.912,51.96396557617187ZM48.24,57.819965576171874C47.328,57.819965576171874,46.98,57.447965576171875,46.98,56.739965576171876C46.98,55.73196557617187,47.484,55.51596557617187,48.552,55.51596557617187L50.46,55.51596557617187L50.46,56.58396557617188C50.124,57.35196557617188,49.32,57.819965576171874,48.24,57.819965576171874ZM59.16,50.22396457617187C59.436,50.22396457617187,59.7,50.24796257617187,59.88,50.28396557617187L59.88,49.45596317617188C59.652,49.41996387617188,59.4,49.395965576171875,59.16,49.395965576171875C57.84,49.395965576171875,56.976,49.77996457617188,56.976,52.023965576171875L56.976,52.08396557617188L55.896,52.08396557617188L55.896,52.935965576171874L56.976,52.935965576171874L56.976,58.563965576171874L58.008,58.563965576171874L58.008,52.935965576171874L59.532,52.935965576171874L59.532,52.08396557617188L58.008,52.08396557617188C58.02,50.60796557617188,58.272,50.22396457617187,59.16,50.22396457617187ZM65.88,54.675965576171876C65.88,53.41596557617187,65.496,51.96396557617187,63.288,51.96396557617187C61.44,51.96396557617187,60.348,52.743965576171874,60.348,55.32396557617187C60.348,57.90396557617187,61.44,58.68396557617187,63.348,58.68396557617187C64.272,58.68396557617187,65.16,58.49196557617188,65.532,58.29996557617187L65.532,57.35196557617188C65.04,57.59196557617187,64.212,57.77196557617187,63.504,57.77196557617187C61.932,57.77196557617187,61.44,57.12396557617188,61.428,55.70796557617187L65.82,55.431965576171876C65.856,55.13196557617187,65.88,54.855965576171876,65.88,54.675965576171876ZM61.428,54.93996557617187C61.464,53.61996557617188,61.8,52.81596557617188,63.288,52.81596557617188C64.692,52.81596557617188,64.86,53.691965576171874,64.86,54.68796557617188L61.428,54.93996557617187ZM70.236,51.96396557617187C69.768,51.96396557617187,69.24,51.999965576171874,68.76,52.05996557617188L68.76,52.971965576171876C69.228,52.87596557617187,69.756,52.82796557617188,70.188,52.82796557617188C71.508,52.82796557617188,71.784,53.367965576171876,71.784,54.14796557617188L71.784,54.68796557617188L69.804,54.68796557617188C68.256,54.68796557617188,67.236,55.215965576171875,67.236,56.75196557617188C67.236,57.97596557617187,67.92,58.68396557617187,69.468,58.68396557617187C70.44,58.68396557617187,71.412,58.28796557617187,71.784,57.57996557617187L71.94,58.563965576171874L72.816,58.563965576171874L72.816,53.96796557617188C72.816,52.803965576171876,72.276,51.96396557617187,70.236,51.96396557617187ZM69.564,57.819965576171874C68.652,57.819965576171874,68.304,57.447965576171875,68.304,56.739965576171876C68.304,55.73196557617187,68.808,55.51596557617187,69.876,55.51596557617187L71.784,55.51596557617187L71.784,56.58396557617188C71.448,57.35196557617188,70.644,57.819965576171874,69.564,57.819965576171874ZM76.512,58.63596557617188C78.096,58.63596557617188,78.972,58.047965576171876,78.972,56.76396557617188C78.972,55.51596557617187,78.432,55.10796557617188,76.944,54.77196557617187C75.936,54.54396557617187,75.708,54.39996557617187,75.708,53.739965576171876C75.708,53.00796557617188,76.164,52.803965576171876,77.076,52.803965576171876C77.676,52.803965576171876,78.252,52.91196557617187,78.624,53.05596557617187L78.696,52.179965576171874C78.384,52.05996557617188,77.688,51.96396557617187,77.064,51.96396557617187C75.528,51.96396557617187,74.736,52.67196557617187,74.736,53.715965576171875C74.736,54.807965576171874,75.12,55.26396557617188,76.548,55.587965576171875C77.784,55.87596557617188,78,56.03196557617188,78,56.79996557617187C78,57.55596557617187,77.484,57.795965576171874,76.5,57.795965576171874C75.912,57.795965576171874,75.084,57.675965576171876,74.628,57.54396557617187L74.628,58.431965576171876C74.988,58.53996557617187,75.888,58.63596557617188,76.512,58.63596557617188ZM82.776,57.77196557617187C81.984,57.77196557617187,81.84,57.53196557617187,81.84,56.523965576171875L81.84,52.947965576171875L83.448,52.947965576171875L83.448,52.08396557617188L81.84,52.08396557617188L81.84,50.547965576171876L80.808,50.547965576171876L80.808,52.08396557617188L79.848,52.08396557617188L79.848,52.947965576171875L80.808,52.947965576171875L80.808,56.58396557617188C80.808,58.28796557617187,81.324,58.63596557617188,82.752,58.63596557617188C83.028,58.63596557617188,83.232,58.611965576171876,83.484,58.575965576171875L83.484,57.69996557617188C83.256,57.74796557617188,83.064,57.77196557617187,82.776,57.77196557617187ZM90.276,50.22396457617187C90.552,50.22396457617187,90.816,50.24796257617187,90.996,50.28396557617187L90.996,49.45596317617188C90.768,49.41996387617188,90.516,49.395965576171875,90.276,49.395965576171875C88.956,49.395965576171875,88.092,49.77996457617188,88.092,52.023965576171875L88.092,52.08396557617188L87.012,52.08396557617188L87.012,52.935965576171874L88.092,52.935965576171874L88.092,58.563965576171874L89.124,58.563965576171874L89.124,52.935965576171874L90.648,52.935965576171874L90.648,52.08396557617188L89.124,52.08396557617188C89.136,50.60796557617188,89.388,50.22396457617187,90.276,50.22396457617187ZM94.464,58.68396557617187C96.384,58.68396557617187,97.452,57.90396557617187,97.452,55.32396557617187C97.452,52.743965576171874,96.384,51.96396557617187,94.464,51.96396557617187C92.556,51.96396557617187,91.464,52.743965576171874,91.464,55.32396557617187C91.464,57.90396557617187,92.556,58.68396557617187,94.464,58.68396557617187ZM94.464,57.807965576171874C93.06,57.807965576171874,92.568,57.21996557617187,92.568,55.32396557617187C92.568,53.42796557617187,93.012,52.82796557617188,94.464,52.82796557617188C95.88,52.82796557617188,96.36,53.42796557617187,96.36,55.32396557617187C96.36,57.21996557617187,95.928,57.807965576171874,94.464,57.807965576171874ZM102.36,51.96396557617187C101.58,51.96396557617187,100.704,52.179965576171874,100.296,53.25996557617187L100.296,52.08396557617188L99.264,52.08396557617188L99.264,58.563965576171874L100.296,58.563965576171874L100.296,54.32796557617188C100.656,53.175965576171876,101.472,52.89996557617187,102.3,52.89996557617187L102.444,52.89996557617187L102.48,51.96396557617187L102.36,51.96396557617187ZM108.912,57.77196557617187C108.12,57.77196557617187,107.976,57.53196557617187,107.976,56.523965576171875L107.976,52.947965576171875L109.584,52.947965576171875L109.584,52.08396557617188L107.976,52.08396557617188L107.976,50.547965576171876L106.944,50.547965576171876L106.944,52.08396557617188L105.984,52.08396557617188L105.984,52.947965576171875L106.944,52.947965576171875L106.944,56.58396557617188C106.944,58.28796557617187,107.46,58.63596557617188,108.888,58.63596557617188C109.164,58.63596557617188,109.368,58.611965576171876,109.62,58.575965576171875L109.62,57.69996557617188C109.392,57.74796557617188,109.2,57.77196557617187,108.912,57.77196557617187ZM114.048,51.96396557617187C113.256,51.96396557617187,112.368,52.179965576171874,111.972,53.00796557617188L111.972,49.44396587617187L110.94,49.44396587617187L110.94,58.563965576171874L111.972,58.563965576171874L111.972,54.18396557617187C112.332,53.04396557617188,113.124,52.88796557617187,113.94,52.88796557617187C114.972,52.88796557617187,115.188,53.46396557617187,115.188,54.459965576171875L115.188,58.563965576171874L116.22,58.563965576171874L116.22,54.075965576171875C116.22,52.83996557617188,115.74,51.96396557617187,114.048,51.96396557617187ZM123.504,54.675965576171876C123.504,53.41596557617187,123.12,51.96396557617187,120.912,51.96396557617187C119.064,51.96396557617187,117.972,52.743965576171874,117.972,55.32396557617187C117.972,57.90396557617187,119.064,58.68396557617187,120.972,58.68396557617187C121.896,58.68396557617187,122.784,58.49196557617188,123.156,58.29996557617187L123.156,57.35196557617188C122.664,57.59196557617187,121.836,57.77196557617187,121.128,57.77196557617187C119.556,57.77196557617187,119.064,57.12396557617188,119.052,55.70796557617187L123.444,55.431965576171876C123.48,55.13196557617187,123.504,54.855965576171876,123.504,54.675965576171876ZM119.052,54.93996557617187C119.088,53.61996557617188,119.424,52.81596557617188,120.912,52.81596557617188C122.316,52.81596557617188,122.484,53.691965576171874,122.484,54.68796557617188L119.052,54.93996557617187ZM133.524,54.675965576171876C133.524,53.41596557617187,133.14,51.96396557617187,130.932,51.96396557617187C129.084,51.96396557617187,127.992,52.743965576171874,127.992,55.32396557617187C127.992,57.90396557617187,129.084,58.68396557617187,130.992,58.68396557617187C131.916,58.68396557617187,132.804,58.49196557617188,133.176,58.29996557617187L133.176,57.35196557617188C132.684,57.59196557617187,131.856,57.77196557617187,131.148,57.77196557617187C129.576,57.77196557617187,129.084,57.12396557617188,129.072,55.70796557617187L133.464,55.431965576171876C133.5,55.13196557617187,133.524,54.855965576171876,133.524,54.675965576171876ZM129.072,54.93996557617187C129.108,53.61996557617188,129.444,52.81596557617188,130.932,52.81596557617188C132.336,52.81596557617188,132.504,53.691965576171874,132.504,54.68796557617188L129.072,54.93996557617187ZM135.024,60.96396557617187C136.932,60.96396557617187,137.484,59.96796557617188,138.096,58.34796557617187L140.424,52.08396557617188L139.38,52.08396557617188L137.508,57.459965576171875L137.436,57.459965576171875L135.456,52.08396557617188L134.34,52.08396557617188L136.932,58.551965576171874C136.608,59.59596557617188,136.152,60.075965576171875,135.024,60.075965576171875L135.024,60.96396557617187ZM146.664,54.675965576171876C146.664,53.41596557617187,146.28,51.96396557617187,144.072,51.96396557617187C142.224,51.96396557617187,141.132,52.743965576171874,141.132,55.32396557617187C141.132,57.90396557617187,142.224,58.68396557617187,144.132,58.68396557617187C145.056,58.68396557617187,145.944,58.49196557617188,146.316,58.29996557617187L146.316,57.35196557617188C145.824,57.59196557617187,144.996,57.77196557617187,144.288,57.77196557617187C142.716,57.77196557617187,142.224,57.12396557617188,142.212,55.70796557617187L146.604,55.431965576171876C146.64,55.13196557617187,146.664,54.855965576171876,146.664,54.675965576171876ZM142.212,54.93996557617187C142.248,53.61996557617188,142.584,52.81596557617188,144.072,52.81596557617188C145.476,52.81596557617188,145.644,53.691965576171874,145.644,54.68796557617188L142.212,54.93996557617187ZM149.952,58.63596557617188C151.536,58.63596557617188,152.412,58.047965576171876,152.412,56.76396557617188C152.412,55.51596557617187,151.872,55.10796557617188,150.384,54.77196557617187C149.376,54.54396557617187,149.148,54.39996557617187,149.148,53.739965576171876C149.148,53.00796557617188,149.604,52.803965576171876,150.516,52.803965576171876C151.116,52.803965576171876,151.692,52.91196557617187,152.064,53.05596557617187L152.136,52.179965576171874C151.824,52.05996557617188,151.128,51.96396557617187,150.504,51.96396557617187C148.968,51.96396557617187,148.176,52.67196557617187,148.176,53.715965576171875C148.176,54.807965576171874,148.56,55.26396557617188,149.988,55.587965576171875C151.224,55.87596557617188,151.44,56.03196557617188,151.44,56.79996557617187C151.44,57.55596557617187,150.924,57.795965576171874,149.94,57.795965576171874C149.352,57.795965576171874,148.524,57.675965576171876,148.068,57.54396557617187L148.068,58.431965576171876C148.428,58.53996557617187,149.328,58.63596557617188,149.952,58.63596557617188ZM153.564,60.19596557617187L154.416,60.19596557617187C154.992,59.42796557617187,155.688,58.07196557617188,155.688,57.03996557617187L154.692,57.03996557617187C154.692,57.93996557617187,154.212,59.19996557617188,153.564,60.19596557617187ZM5.556,73.67596557617188C5.556,72.41596557617187,5.172,70.96396557617187,2.964,70.96396557617187C1.116,70.96396557617187,0.024,71.74396557617187,0.024,74.32396557617187C0.024,76.90396557617187,1.116,77.68396557617187,3.024,77.68396557617187C3.948,77.68396557617187,4.836,77.49196557617188,5.208,77.29996557617187L5.208,76.35196557617188C4.716,76.59196557617187,3.888,76.77196557617188,3.18,76.77196557617188C1.608,76.77196557617188,1.116,76.12396557617188,1.104,74.70796557617187L5.496,74.43196557617188C5.532,74.13196557617188,5.556,73.85596557617188,5.556,73.67596557617188ZM1.104,73.93996557617187C1.14,72.61996557617188,1.476,71.81596557617188,2.964,71.81596557617188C4.368,71.81596557617188,4.536,72.69196557617187,4.536,73.68796557617188L1.104,73.93996557617187ZM6.42,77.56396557617188L7.572,77.56396557617188L9.324,74.88796557617188L9.396,74.88796557617188L11.1,77.56396557617188L12.276,77.56396557617188L10.068,74.23996557617187L12.156,71.08396557617188L11.016,71.08396557617188L9.408,73.63996557617187L9.336,73.63996557617187L7.704,71.08396557617188L6.552,71.08396557617188L8.652,74.26396557617187L6.42,77.56396557617188ZM16.644,70.96396557617187C15.852,70.96396557617187,14.964,71.17996557617187,14.568,72.00796557617187L14.568,68.44396557617188L13.536,68.44396557617188L13.536,77.56396557617188L14.568,77.56396557617188L14.568,73.18396557617187C14.928,72.04396557617187,15.72,71.88796557617188,16.536,71.88796557617188C17.568,71.88796557617188,17.784,72.46396557617187,17.784,73.45996557617187L17.784,77.56396557617188L18.816,77.56396557617188L18.816,73.07596557617188C18.816,71.83996557617188,18.336,70.96396557617187,16.644,70.96396557617187ZM23.52,70.96396557617187C23.052,70.96396557617187,22.524,70.99996557617187,22.044,71.05996557617188L22.044,71.97196557617187C22.512,71.87596557617188,23.04,71.82796557617188,23.472,71.82796557617188C24.792,71.82796557617188,25.068,72.36796557617188,25.068,73.14796557617187L25.068,73.68796557617188L23.088,73.68796557617188C21.54,73.68796557617188,20.52,74.21596557617187,20.52,75.75196557617187C20.52,76.97596557617187,21.204,77.68396557617187,22.752,77.68396557617187C23.724,77.68396557617187,24.696,77.28796557617187,25.068,76.57996557617187L25.224,77.56396557617188L26.1,77.56396557617188L26.1,72.96796557617188C26.1,71.80396557617188,25.56,70.96396557617187,23.52,70.96396557617187ZM22.848,76.81996557617188C21.936,76.81996557617188,21.588,76.44796557617187,21.588,75.73996557617187C21.588,74.73196557617187,22.092,74.51596557617188,23.16,74.51596557617188L25.068,74.51596557617188L25.068,75.58396557617188C24.732,76.35196557617188,23.928,76.81996557617188,22.848,76.81996557617188ZM29.736,77.63596557617187C30.024,77.63596557617187,30.228,77.61196557617188,30.42,77.56396557617188L30.42,76.71196557617188C30.252,76.75996557617188,30.072,76.77196557617188,29.928,76.77196557617188C29.508,76.77196557617188,29.328,76.63996557617187,29.328,75.99196557617188L29.328,68.44396557617188L28.296,68.44396557617188L28.296,76.25596557617187C28.296,77.22796557617187,28.776,77.63596557617187,29.736,77.63596557617187ZM32.256,69.89596557617188C32.688,69.89596557617188,32.868,69.81196557617187,32.868,69.28396557617188C32.868,68.74396557617187,32.688,68.67196557617187,32.256,68.67196557617187C31.8,68.67196557617187,31.632,68.74396557617187,31.632,69.28396557617188C31.632,69.81196557617187,31.8,69.89596557617188,32.256,69.89596557617188ZM31.728,77.56396557617188L32.76,77.56396557617188L32.76,71.08396557617188L31.728,71.08396557617188L31.728,77.56396557617188ZM38.052,70.96396557617187C37.26,70.96396557617187,36.372,71.17996557617187,35.976,72.00796557617187L35.976,71.08396557617188L34.944,71.08396557617188L34.944,77.56396557617188L35.976,77.56396557617188L35.976,73.18396557617187C36.336,72.04396557617187,37.128,71.88796557617188,37.944,71.88796557617188C38.976,71.88796557617188,39.18,72.46396557617187,39.18,73.45996557617187L39.18,77.56396557617188L40.224,77.56396557617188L40.224,73.07596557617188C40.224,71.83996557617188,39.744,70.96396557617187,38.052,70.96396557617187ZM46.776,71.08396557617188L46.776,72.29596557617188C46.524,71.52796557617188,45.984,70.96396557617187,44.676,70.96396557617187C42.516,70.96396557617187,41.988,72.47596557617187,41.988,74.26396557617187C41.988,76.24396557617187,42.516,77.56396557617188,44.676,77.56396557617188C45.924,77.56396557617188,46.512,77.10796557617188,46.776,76.35196557617188L46.776,76.99996557617187C46.776,78.48796557617187,46.092,79.07596557617188,44.652,79.07596557617188C44.1,79.07596557617188,43.56,79.02796557617188,43.068,78.93196557617188L43.068,79.80796557617188C43.476,79.89196557617187,44.088,79.96396557617187,44.64,79.96396557617187C46.836,79.96396557617187,47.808,78.89596557617188,47.808,77.10796557617188L47.808,71.08396557617188L46.776,71.08396557617188ZM44.82,76.69996557617188C43.296,76.69996557617188,43.092,75.61996557617188,43.092,74.26396557617187C43.092,73.00396557617188,43.26,71.82796557617188,44.82,71.82796557617188C46.38,71.82796557617188,46.812,72.77596557617187,46.812,74.26396557617187C46.812,75.81196557617187,46.38,76.69996557617188,44.82,76.69996557617188ZM55.644,70.96396557617187C55.176,70.96396557617187,54.648,70.99996557617187,54.168,71.05996557617188L54.168,71.97196557617187C54.636,71.87596557617188,55.164,71.82796557617188,55.596,71.82796557617188C56.916,71.82796557617188,57.192,72.36796557617188,57.192,73.14796557617187L57.192,73.68796557617188L55.212,73.68796557617188C53.664,73.68796557617188,52.644,74.21596557617187,52.644,75.75196557617187C52.644,76.97596557617187,53.328,77.68396557617187,54.876,77.68396557617187C55.848,77.68396557617187,56.82,77.28796557617187,57.192,76.57996557617187L57.348,77.56396557617188L58.224,77.56396557617188L58.224,72.96796557617188C58.224,71.80396557617188,57.684,70.96396557617187,55.644,70.96396557617187ZM54.972,76.81996557617188C54.06,76.81996557617188,53.712,76.44796557617187,53.712,75.73996557617187C53.712,74.73196557617187,54.216,74.51596557617188,55.284,74.51596557617188L57.192,74.51596557617188L57.192,75.58396557617188C56.856,76.35196557617188,56.052,76.81996557617188,54.972,76.81996557617188ZM66.636,70.96396557617187C65.4,70.96396557617187,64.8,71.47996557617188,64.536,72.24796557617188L64.536,71.08396557617188L63.504,71.08396557617188L63.504,79.96396557617187L64.536,79.96396557617187L64.536,76.43596557617187C64.8,77.19196557617187,65.376,77.68396557617187,66.636,77.68396557617187C68.808,77.68396557617187,69.312,76.11196557617188,69.312,74.32396557617187C69.312,72.34396557617188,68.808,70.96396557617187,66.636,70.96396557617187ZM66.504,76.80796557617188C64.944,76.80796557617188,64.488,75.81196557617187,64.488,74.32396557617187C64.488,72.77596557617187,64.944,71.82796557617188,66.504,71.82796557617188C68.004,71.82796557617188,68.232,72.95596557617188,68.232,74.32396557617187C68.232,75.58396557617188,68.04,76.80796557617188,66.504,76.80796557617188ZM71.652,69.89596557617188C72.084,69.89596557617188,72.264,69.81196557617187,72.264,69.28396557617188C72.264,68.74396557617187,72.084,68.67196557617187,71.652,68.67196557617187C71.196,68.67196557617187,71.028,68.74396557617187,71.028,69.28396557617188C71.028,69.81196557617187,71.196,69.89596557617188,71.652,69.89596557617188ZM71.124,77.56396557617188L72.156,77.56396557617188L72.156,71.08396557617188L71.124,71.08396557617188L71.124,77.56396557617188ZM76.956,77.68396557617187C77.568,77.68396557617187,78.312,77.57596557617188,78.672,77.44396557617188L78.672,76.49596557617187C78.204,76.68796557617188,77.592,76.77196557617188,76.98,76.77196557617188C75.54,76.77196557617188,75.06,76.21996557617187,75.06,74.33596557617187C75.06,72.42796557617187,75.54,71.86396557617188,76.968,71.86396557617188C77.628,71.86396557617188,78.168,71.97196557617187,78.648,72.15196557617188L78.648,71.20396557617187C78.288,71.08396557617188,77.676,70.96396557617187,76.956,70.96396557617187C75.048,70.96396557617187,73.956,71.74396557617187,73.956,74.32396557617187C73.956,76.90396557617187,75.048,77.68396557617187,76.956,77.68396557617187ZM82.32,76.77196557617188C81.528,76.77196557617188,81.384,76.53196557617187,81.384,75.52396557617188L81.384,71.94796557617187L82.992,71.94796557617187L82.992,71.08396557617188L81.384,71.08396557617188L81.384,69.54796557617188L80.352,69.54796557617188L80.352,71.08396557617188L79.392,71.08396557617188L79.392,71.94796557617187L80.352,71.94796557617187L80.352,75.58396557617188C80.352,77.28796557617187,80.868,77.63596557617187,82.296,77.63596557617187C82.572,77.63596557617187,82.776,77.61196557617188,83.028,77.57596557617188L83.028,76.69996557617188C82.8,76.74796557617188,82.608,76.77196557617188,82.32,76.77196557617188ZM88.488,71.08396557617188L88.488,75.48796557617187C88.116,76.60396557617187,87.396,76.77196557617188,86.58,76.77196557617188C85.548,76.77196557617188,85.332,76.17196557617187,85.332,75.18796557617188L85.332,71.08396557617188L84.3,71.08396557617188L84.3,75.57196557617188C84.3,76.81996557617188,84.78,77.68396557617187,86.472,77.68396557617187C87.264,77.68396557617187,88.116,77.47996557617188,88.512,76.62796557617187L88.644,77.56396557617188L89.52,77.56396557617188L89.52,71.08396557617188L88.488,71.08396557617188ZM94.8,70.96396557617187C94.02,70.96396557617187,93.144,71.17996557617187,92.736,72.25996557617188L92.736,71.08396557617188L91.704,71.08396557617188L91.704,77.56396557617188L92.736,77.56396557617188L92.736,73.32796557617188C93.096,72.17596557617188,93.912,71.89996557617188,94.74,71.89996557617188L94.884,71.89996557617188L94.92,70.96396557617187L94.8,70.96396557617187ZM101.172,73.67596557617188C101.172,72.41596557617187,100.788,70.96396557617187,98.58,70.96396557617187C96.732,70.96396557617187,95.64,71.74396557617187,95.64,74.32396557617187C95.64,76.90396557617187,96.732,77.68396557617187,98.64,77.68396557617187C99.564,77.68396557617187,100.452,77.49196557617188,100.824,77.29996557617187L100.824,76.35196557617188C100.332,76.59196557617187,99.504,76.77196557617188,98.796,76.77196557617188C97.224,76.77196557617188,96.732,76.12396557617188,96.72,74.70796557617187L101.112,74.43196557617188C101.148,74.13196557617188,101.172,73.85596557617188,101.172,73.67596557617188ZM96.72,73.93996557617187C96.756,72.61996557617188,97.092,71.81596557617188,98.58,71.81596557617188C99.984,71.81596557617188,100.152,72.69196557617187,100.152,73.68796557617188L96.72,73.93996557617187ZM104.46,77.63596557617187C106.044,77.63596557617187,106.92,77.04796557617188,106.92,75.76396557617187C106.92,74.51596557617188,106.38,74.10796557617188,104.892,73.77196557617188C103.884,73.54396557617187,103.656,73.39996557617188,103.656,72.73996557617187C103.656,72.00796557617187,104.112,71.80396557617188,105.024,71.80396557617188C105.624,71.80396557617188,106.2,71.91196557617187,106.572,72.05596557617187L106.644,71.17996557617187C106.332,71.05996557617188,105.636,70.96396557617187,105.012,70.96396557617187C103.476,70.96396557617187,102.684,71.67196557617187,102.684,72.71596557617187C102.684,73.80796557617188,103.068,74.26396557617187,104.496,74.58796557617188C105.732,74.87596557617188,105.948,75.03196557617187,105.948,75.79996557617187C105.948,76.55596557617187,105.432,76.79596557617188,104.448,76.79596557617188C103.86,76.79596557617188,103.032,76.67596557617188,102.576,76.54396557617187L102.576,77.43196557617188C102.936,77.53996557617188,103.836,77.63596557617187,104.46,77.63596557617187ZM113.136,71.08396557617188L113.136,72.24796557617188C112.872,71.46796557617188,112.308,70.96396557617187,111.012,70.96396557617187C108.864,70.96396557617187,108.336,72.54796557617188,108.336,74.32396557617187C108.336,76.30396557617188,108.864,77.68396557617187,111.012,77.68396557617187C112.296,77.68396557617187,112.884,77.14396557617188,113.136,76.33996557617188L113.136,79.96396557617187L114.168,79.96396557617187L114.168,71.08396557617188L113.136,71.08396557617188ZM111.168,76.80796557617188C109.644,76.80796557617188,109.44,75.67996557617187,109.44,74.32396557617187C109.44,73.06396557617188,109.608,71.82796557617188,111.168,71.82796557617188C112.728,71.82796557617188,113.16,72.83596557617187,113.16,74.32396557617187C113.16,75.87196557617187,112.728,76.80796557617188,111.168,76.80796557617188ZM120.48,71.08396557617188L120.48,75.48796557617187C120.108,76.60396557617187,119.388,76.77196557617188,118.572,76.77196557617188C117.54,76.77196557617188,117.324,76.17196557617187,117.324,75.18796557617188L117.324,71.08396557617188L116.292,71.08396557617188L116.292,75.57196557617188C116.292,76.81996557617188,116.772,77.68396557617187,118.464,77.68396557617187C119.256,77.68396557617187,120.108,77.47996557617188,120.504,76.62796557617187L120.636,77.56396557617188L121.512,77.56396557617188L121.512,71.08396557617188L120.48,71.08396557617188ZM128.844,73.67596557617188C128.844,72.41596557617187,128.46,70.96396557617187,126.252,70.96396557617187C124.404,70.96396557617187,123.312,71.74396557617187,123.312,74.32396557617187C123.312,76.90396557617187,124.404,77.68396557617187,126.312,77.68396557617187C127.236,77.68396557617187,128.124,77.49196557617188,128.496,77.29996557617187L128.496,76.35196557617188C128.004,76.59196557617187,127.176,76.77196557617188,126.468,76.77196557617188C124.896,76.77196557617188,124.404,76.12396557617188,124.392,74.70796557617187L128.784,74.43196557617188C128.82,74.13196557617188,128.844,73.85596557617188,128.844,73.67596557617188ZM124.392,73.93996557617187C124.428,72.61996557617188,124.764,71.81596557617188,126.252,71.81596557617188C127.656,71.81596557617188,127.824,72.69196557617187,127.824,73.68796557617188L124.392,73.93996557617187ZM138.132,68.44396557617188L138.132,72.21196557617188C137.868,71.45596557617188,137.292,70.96396557617187,136.02,70.96396557617187C133.872,70.96396557617187,133.344,72.54796557617188,133.344,74.32396557617187C133.344,76.30396557617188,133.872,77.68396557617187,136.02,77.68396557617187C137.196,77.68396557617187,137.88,77.17996557617187,138.132,76.49596557617187L138.288,77.56396557617188L139.164,77.56396557617188L139.164,68.44396557617188L138.132,68.44396557617188ZM136.176,76.80796557617188C134.652,76.80796557617188,134.448,75.67996557617187,134.448,74.32396557617187C134.448,73.06396557617188,134.616,71.82796557617188,136.176,71.82796557617188C137.736,71.82796557617188,138.168,72.83596557617187,138.168,74.32396557617187C138.168,75.87196557617187,137.736,76.80796557617188,136.176,76.80796557617188ZM146.484,73.67596557617188C146.484,72.41596557617187,146.1,70.96396557617187,143.892,70.96396557617187C142.044,70.96396557617187,140.952,71.74396557617187,140.952,74.32396557617187C140.952,76.90396557617187,142.044,77.68396557617187,143.952,77.68396557617187C144.876,77.68396557617187,145.764,77.49196557617188,146.136,77.29996557617187L146.136,76.35196557617188C145.644,76.59196557617187,144.816,76.77196557617188,144.108,76.77196557617188C142.536,76.77196557617188,142.044,76.12396557617188,142.032,74.70796557617187L146.424,74.43196557617188C146.46,74.13196557617188,146.484,73.85596557617188,146.484,73.67596557617188ZM142.032,73.93996557617187C142.068,72.61996557617188,142.404,71.81596557617188,143.892,71.81596557617188C145.296,71.81596557617188,145.464,72.69196557617187,145.464,73.68796557617188L142.032,73.93996557617187ZM149.772,77.63596557617187C151.356,77.63596557617187,152.232,77.04796557617188,152.232,75.76396557617187C152.232,74.51596557617188,151.692,74.10796557617188,150.204,73.77196557617188C149.196,73.54396557617187,148.968,73.39996557617188,148.968,72.73996557617187C148.968,72.00796557617187,149.424,71.80396557617188,150.336,71.80396557617188C150.936,71.80396557617188,151.512,71.91196557617187,151.884,72.05596557617187L151.956,71.17996557617187C151.644,71.05996557617188,150.948,70.96396557617187,150.324,70.96396557617187C148.788,70.96396557617187,147.996,71.67196557617187,147.996,72.71596557617187C147.996,73.80796557617188,148.38,74.26396557617187,149.808,74.58796557617188C151.044,74.87596557617188,151.26,75.03196557617187,151.26,75.79996557617187C151.26,76.55596557617187,150.744,76.79596557617188,149.76,76.79596557617188C149.172,76.79596557617188,148.344,76.67596557617188,147.888,76.54396557617187L147.888,77.43196557617188C148.248,77.53996557617188,149.148,77.63596557617187,149.772,77.63596557617187ZM154.548,69.89596557617188C154.98,69.89596557617188,155.16,69.81196557617187,155.16,69.28396557617188C155.16,68.74396557617187,154.98,68.67196557617187,154.548,68.67196557617187C154.092,68.67196557617187,153.924,68.74396557617187,153.924,69.28396557617188C153.924,69.81196557617187,154.092,69.89596557617188,154.548,69.89596557617188ZM154.02,77.56396557617188L155.052,77.56396557617188L155.052,71.08396557617188L154.02,71.08396557617188L154.02,77.56396557617188ZM161.652,71.08396557617188L161.652,72.29596557617188C161.4,71.52796557617188,160.86,70.96396557617187,159.552,70.96396557617187C157.392,70.96396557617187,156.864,72.47596557617187,156.864,74.26396557617187C156.864,76.24396557617187,157.392,77.56396557617188,159.552,77.56396557617188C160.8,77.56396557617188,161.388,77.10796557617188,161.652,76.35196557617188L161.652,76.99996557617187C161.652,78.48796557617187,160.968,79.07596557617188,159.528,79.07596557617188C158.976,79.07596557617188,158.436,79.02796557617188,157.944,78.93196557617188L157.944,79.80796557617188C158.352,79.89196557617187,158.964,79.96396557617187,159.516,79.96396557617187C161.712,79.96396557617187,162.684,78.89596557617188,162.684,77.10796557617188L162.684,71.08396557617188L161.652,71.08396557617188ZM159.696,76.69996557617188C158.172,76.69996557617188,157.968,75.61996557617188,157.968,74.26396557617187C157.968,73.00396557617188,158.136,71.82796557617188,159.696,71.82796557617188C161.256,71.82796557617188,161.688,72.77596557617187,161.688,74.26396557617187C161.688,75.81196557617187,161.256,76.69996557617188,159.696,76.69996557617188ZM167.976,70.96396557617187C167.184,70.96396557617187,166.296,71.17996557617187,165.9,72.00796557617187L165.9,71.08396557617188L164.868,71.08396557617188L164.868,77.56396557617188L165.9,77.56396557617188L165.9,73.18396557617187C166.26,72.04396557617187,167.052,71.88796557617188,167.868,71.88796557617188C168.9,71.88796557617188,169.104,72.46396557617187,169.104,73.45996557617187L169.104,77.56396557617188L170.148,77.56396557617188L170.148,73.07596557617188C170.148,71.83996557617188,169.668,70.96396557617187,167.976,70.96396557617187ZM173.004,77.63596557617187C173.556,77.63596557617187,173.772,77.53996557617188,173.772,76.86796557617188C173.772,76.21996557617187,173.556,76.12396557617188,173.004,76.12396557617188C172.44,76.12396557617188,172.236,76.21996557617187,172.236,76.86796557617188C172.236,77.53996557617188,172.44,77.63596557617187,173.004,77.63596557617187Z" fill="#FFFFFF" fill-opacity="1"/></g></g></g></svg>