<svg xmlns="http://www.w3.org/2000/svg" xmlns:xlink="http://www.w3.org/1999/xlink" fill="none" version="1.1" width="213.02392578125" height="79.8941650390625" viewBox="0 0 213.02392578125 79.8941650390625"><g><g><g><path d="M1.162,5.41814L2.156,5.41814L2.156,12.9081L1.162,12.9081L1.162,5.41814ZM9.24,12.8521L9.002,11.9421L10.318,11.9701Q10.85,11.9701,10.85,11.3541L10.85,4.83014L5.418,4.83014L5.418,3.90614L11.844,3.90614L11.844,11.6341Q11.844,12.8521,10.528,12.8521L9.24,12.8521ZM3.962,6.07614L9.016,6.07614L9.016,11.3541L3.962,11.3541L3.962,6.07614ZM8.078,10.5001L8.078,9.10014L4.928,9.10014L4.928,10.5001L8.078,10.5001ZM4.928,8.28814L8.078,8.28814L8.078,6.91614L4.928,6.91614L4.928,8.28814ZM2.576,3.33214Q3.724,4.34014,4.284,5.02614L3.542,5.54414Q2.912,4.76014,1.834,3.79414L2.576,3.33214ZM2.254,1.94614Q1.666,2.94014,1.05,3.65414L0.196002,3.10814Q1.456,1.70814,2.044,0.0141406L3.024,0.224141L2.688,1.06414L6.384,1.06414L6.384,1.94614L4.284,1.94614Q4.83,2.70214,5.11,3.33214L4.214,3.66814Q3.808,2.80014,3.22,1.94614L2.254,1.94614ZM8.204,1.94614Q7.77,2.77214,7.266,3.41614L6.412,2.87014Q7.462,1.55414,7.924,0.0281406L8.89,0.238141Q8.75,0.686141,8.596,1.06414L12.684,1.06414L12.684,1.94614L10.36,1.94614Q10.808,2.57614,11.158,3.22014L10.262,3.55614Q9.842,2.70214,9.282,1.94614L8.204,1.94614ZM22.288,4.77414L23.296,4.77414L23.296,12.7821L22.288,12.7821L22.288,4.77414ZM17.57,4.81614L18.578,4.81614L18.578,7.35014Q18.522,11.1581,16.072,12.9221L15.33,12.2641Q17.528,10.7381,17.57,7.35014L17.57,4.81614ZM20.832,0.126141Q23.422,3.19214,26.81,4.95614L26.32,5.85214Q22.904,4.03214,20.468,1.07814Q18.256,3.89214,14.644,5.97814L14.154,5.08214Q17.738,3.08014,20.104,0.126141L20.832,0.126141ZM30.968,2.99614Q31.346,2.99614,31.584,3.23414Q31.822,3.47214,31.822,3.82214Q31.822,4.18614,31.584,4.42414Q31.318,4.66214,30.968,4.66214Q30.632,4.66214,30.366,4.42414Q30.128,4.18614,30.128,3.82214Q30.128,3.45814,30.366,3.23414Q30.604,2.99614,30.968,2.99614ZM30.968,8.12014Q31.346,8.12014,31.584,8.35814Q31.822,8.59614,31.822,8.94614Q31.822,9.31014,31.584,9.54814Q31.318,9.78614,30.968,9.78614Q30.632,9.78614,30.366,9.54814Q30.128,9.31014,30.128,8.94614Q30.128,8.58214,30.366,8.35814Q30.604,8.12014,30.968,8.12014ZM43.666,0.266141Q45.052,1.34414,46.004,2.39414L45.318,3.09414Q44.436,2.04414,42.966,0.924141L43.666,0.266141ZM42.098,4.36814L45.024,4.36814L45.024,10.5841Q45.892,9.85614,46.648,9.14214L46.928,10.2061Q45.64,11.4101,44.128,12.4041L43.736,11.5081Q44.044,11.2001,44.044,10.8781L44.044,5.33414L42.098,5.33414L42.098,4.36814ZM47.068,6.00614L53.732,6.00614L53.732,6.93014Q53.06,8.91814,51.534,10.3321Q52.934,11.2981,55.02,12.0681L54.474,12.9361Q52.22,12.0261,50.806,10.9341Q49.168,12.1661,46.662,12.9361L46.102,12.0821Q48.44,11.3821,50.008,10.2761Q48.426,8.82014,47.838,6.98614L47.068,6.98614L47.068,6.00614ZM48.79,6.98614Q49.336,8.51214,50.722,9.70214Q52.08,8.51214,52.738,6.98614L48.79,6.98614ZM48.146,0.602141L52.85,0.602141L52.85,3.62614Q52.85,4.15814,53.396,4.15814L54.684,4.15814L54.684,5.08214L53.144,5.08214Q51.856,5.08214,51.856,3.83614L51.856,1.55414L49.14,1.55414L49.14,2.04414Q49.14,4.25614,46.984,5.48814L46.312,4.71814Q48.146,3.80814,48.146,2.15614L48.146,0.602141ZM60.48,4.25614L64.274,4.25614L64.274,0.0421406L65.31,0.0421406L65.31,4.25614L68.908,4.25614L68.908,5.26414L65.31,5.26414L65.31,12.9221L64.274,12.9221L64.274,5.26414L60.48,5.26414L60.48,4.25614ZM57.736,0.196141Q59.178,1.27414,60.13,2.35214L59.444,3.05214Q58.576,2.03014,57.036,0.882141L57.736,0.196141ZM56.098,4.34014L59.122,4.34014L59.122,10.5701Q60.102,9.74414,60.774,9.11414L61.026,10.1501Q59.766,11.3681,58.226,12.3901L57.834,11.4801Q58.156,11.2281,58.156,10.8921L58.156,5.30614L56.098,5.30614L56.098,4.34014ZM76.146,2.77214L80.206,2.77214L80.206,0.0281406L81.214,0.0281406L81.214,2.77214L82.768,2.77214L82.768,3.73814L81.214,3.73814L81.214,11.4381Q81.214,12.8521,79.772,12.8521L77.574,12.8521L77.364,11.8581Q78.582,11.9281,79.422,11.9281Q80.206,11.9281,80.206,11.1861L80.206,3.73814L76.146,3.73814L76.146,2.77214ZM71.134,3.68214Q72.324,4.97014,73.584,6.55214Q74.368,4.66214,74.508,2.43614L70.672,2.43614L70.672,1.45614L75.418,1.45614L75.418,2.19814Q75.306,5.08214,74.228,7.39214Q75.096,8.55414,75.852,9.75814L75.124,10.4861Q74.522,9.47814,73.738,8.37214Q72.59,10.3741,70.644,11.9841L70.056,11.1021Q72.03,9.59014,73.122,7.53214Q71.988,6.00614,70.462,4.31214L71.134,3.68214ZM76.902,5.39014Q78.33,7.14014,79.072,8.45614L78.274,9.01614Q77.434,7.56014,76.132,5.95014L76.902,5.39014ZM91.448,0.294141Q91.21,1.45614,90.93,2.31014L96.362,2.31014Q96.362,9.32414,96.152,10.9621Q95.928,12.8101,93.884,12.8101Q93.59,12.8101,92.834,12.7681L92.596,11.8581Q93.492,11.9141,93.744,11.9141Q95.032,11.9141,95.214,10.5701Q95.354,9.45014,95.396,3.29014L94.444,3.29014Q93.982,6.81814,93.17,8.83414Q92.19,11.0461,90.3,12.7681L89.684,11.9701Q91.42,10.4021,92.316,8.44214Q93.128,6.49614,93.534,3.29014L92.442,3.29014Q91.602,7.85414,89.25,9.94014L88.592,9.18414Q90.748,7.35014,91.546,3.29014L90.58,3.29014Q90.02,4.62014,89.306,5.50214L88.564,4.87214Q89.908,3.19214,90.496,0.0421406L91.448,0.294141ZM85.428,3.96214Q85.176,5.09614,84.868,6.00614L83.986,5.75414Q84.77,3.55614,84.882,1.07814L85.764,1.14814Q85.722,2.08614,85.596,2.98214L86.576,2.98214L86.576,0.0701406L87.556,0.0701406L87.556,2.98214L88.732,2.98214L88.732,3.96214L87.556,3.96214L87.556,7.32214Q88.13,7.05614,88.676,6.76214L88.676,7.71414Q88.312,7.91014,87.556,8.27414L87.556,12.8941L86.576,12.8941L86.576,8.69414Q85.386,9.15614,84.378,9.47814L84.14,8.49814Q85.4,8.20414,86.576,7.74214L86.576,3.96214L85.428,3.96214ZM100.506,4.14414L100.506,5.37614Q100.394,10.0101,98.686,12.7681L97.986,12.0261Q99.414,9.63214,99.54,5.37614L99.54,0.994141Q105.014,0.952141,109.522,0.140141L110.026,1.05014Q105.784,1.76414,100.506,1.84814L100.506,3.22014L105.182,3.22014Q105.28,2.60414,105.35,1.94614L106.358,2.07214Q106.302,2.56214,106.204,3.22014L110.642,3.22014L110.642,4.14414L106.05,4.14414Q105.938,4.81614,105.756,5.47414L109.354,5.47414L109.354,10.2341L108.388,10.2341L108.388,6.39814L102.858,6.39814L102.858,10.2901L101.892,10.2901L101.892,5.47414L104.734,5.47414Q104.916,4.76014,105.028,4.14414L100.506,4.14414ZM106.428,9.91214Q108.78,10.8081,110.67,12.0261L110.11,12.8801Q108.052,11.4801,105.924,10.6681L106.428,9.91214ZM106.372,7.02814Q106.12,9.52014,104.86,10.8221Q103.544,12.1381,100.884,12.8941L100.338,11.9701Q102.83,11.3401,103.992,10.2201Q105.154,9.10014,105.392,6.95814L106.372,7.02814ZM112.154,3.38814L113.946,3.38814L113.946,0.224141L114.968,0.224141L114.968,3.38814L117.824,3.38814L117.824,0.0981406L118.818,0.0981406L118.818,3.38814L121.66,3.38814L121.66,0.0981406L122.654,0.0981406L122.654,3.38814L124.768,3.38814L124.768,4.35414L122.654,4.35414L122.654,8.76414L117.824,8.76414L117.824,4.35414L114.968,4.35414L114.968,11.3261L124.292,11.3261L124.292,12.3481L113.946,12.3481L113.946,4.35414L112.154,4.35414L112.154,3.38814ZM118.818,4.35414L118.818,7.78414L121.66,7.78414L121.66,4.35414L118.818,4.35414ZM127.666,0.602141L137.326,0.602141L137.326,6.16014L134.638,6.16014Q136.024,7.77014,138.95,8.72214L138.516,9.60414Q136.486,8.84814,135.17,7.81214L135.17,12.9221L134.162,12.9221L134.162,7.65814L134.988,7.65814Q134.134,6.95814,133.588,6.16014L131.334,6.16014Q129.878,8.16214,126.504,9.49214L125.972,8.61014Q128.912,7.64414,130.284,6.16014L127.666,6.16014L127.666,0.602141ZM136.36,5.26414L136.36,3.78014L132.958,3.78014L132.958,5.26414L136.36,5.26414ZM131.978,5.26414L131.978,3.78014L128.632,3.78014L128.632,5.26414L131.978,5.26414ZM128.632,2.94014L131.978,2.94014L131.978,1.49814L128.632,1.49814L128.632,2.94014ZM132.958,1.49814L132.958,2.94014L136.36,2.94014L136.36,1.49814L132.958,1.49814ZM130.998,7.64414Q130.998,9.28214,130.508,10.4581Q129.878,11.9561,127.638,12.9361L126.966,12.1241Q128.884,11.3401,129.5,10.1781Q129.976,9.15614,129.99,7.64414L130.998,7.64414ZM145.124,2.47814L145.124,12.0261L144.144,12.0261L144.144,11.2281L141.596,11.2281L141.596,12.4321L140.616,12.4321L140.616,2.47814L141.918,2.47814Q142.324,1.33014,142.52,0.0421406L143.528,0.182141Q143.262,1.51214,142.87,2.47814L145.124,2.47814ZM141.596,10.2901L144.144,10.2901L144.144,7.22414L141.596,7.22414L141.596,10.2901ZM141.596,6.31414L144.144,6.31414L144.144,3.43014L141.596,3.43014L141.596,6.31414ZM147.56,5.72614Q149.016,7.39214,149.856,8.77814L149.058,9.33814Q148.204,7.95214,146.748,6.23014L147.56,5.72614ZM152.362,2.49214Q152.362,9.47814,152.152,11.1161Q151.942,12.7261,150.192,12.7261L148.764,12.6701L148.526,11.7461Q149.408,11.7881,150.052,11.7881Q151.032,11.7881,151.2,10.7101Q151.326,9.53414,151.368,3.47214L147.518,3.47214Q146.916,4.81614,146.118,5.86614L145.516,5.06814Q146.972,3.03814,147.518,0.0281406L148.512,0.154141Q148.232,1.51214,147.896,2.49214L152.362,2.49214ZM154.224,5.02614L156.226,5.02614L156.226,0.0841406L157.192,0.0841406L157.192,5.02614L158.872,5.02614L158.872,5.93614L157.192,5.93614L157.192,6.38414Q158.13,7.36414,159.278,8.80614L158.704,9.66014Q157.85,8.21814,157.192,7.25214L157.192,12.8941L156.226,12.8941L156.226,7.50414Q155.512,9.39414,154.364,10.8781L153.93,9.78614Q155.498,8.06414,156.17,5.93614L154.224,5.93614L154.224,5.02614ZM159.096,1.09214Q158.97,2.81414,158.452,4.24214L157.766,4.01814Q158.214,2.68814,158.34,0.994141L159.096,1.09214ZM155.008,1.23214Q155.33,2.50614,155.596,4.17214L154.896,4.34014Q154.644,2.87014,154.266,1.47014L155.008,1.23214ZM162.638,0.0421406L163.604,0.0421406L163.604,0.938141L166.516,0.938141L166.516,1.77814L163.604,1.77814L163.604,2.70214L166.124,2.70214L166.124,3.51414L163.604,3.51414L163.604,4.46614L166.88,4.46614L166.88,5.30614L159.32,5.30614L159.32,4.46614L162.638,4.46614L162.638,3.51414L160.034,3.51414L160.034,2.70214L162.638,2.70214L162.638,1.77814L159.642,1.77814L159.642,0.938141L162.638,0.938141L162.638,0.0421406ZM161.042,8.86214L161.042,9.85614L165.116,9.85614L165.116,8.86214L161.042,8.86214ZM165.116,8.07814L165.116,7.04214L161.042,7.04214L161.042,8.07814L165.116,8.07814ZM161.042,10.6261L161.042,12.8661L160.09,12.8661L160.09,6.21614L166.096,6.21614L166.096,11.6901Q166.096,12.8101,164.948,12.8101L163.968,12.8101L163.716,11.9141L164.668,11.9561Q165.116,11.9561,165.116,11.4801L165.116,10.6261L161.042,10.6261ZM170.996,0.0981406Q170.702,2.11414,170.604,2.73014L172.816,2.73014L172.816,3.30414Q172.648,6.62214,171.542,9.08614Q172.438,9.91214,172.97,10.5281L172.298,11.2981Q171.822,10.7241,171.094,9.99614Q170.128,11.7181,168.658,12.9361L168.014,12.1381Q169.498,10.9481,170.394,9.32414Q169.554,8.52614,168.546,7.64414Q169.092,5.67014,169.442,3.69614L168.21,3.69614L168.21,2.73014L169.61,2.73014Q169.862,1.24614,170.016,0.000140625L170.996,0.0981406ZM170.828,8.44214Q171.71,6.35614,171.878,3.69614L170.422,3.69614Q170.002,5.88014,169.54,7.35014Q170.31,7.98014,170.828,8.44214ZM176.316,0.0841406L177.324,0.0841406L177.324,7.99414L176.316,7.99414L176.316,0.0841406ZM175.336,2.31014Q174.79,5.15214,173.81,7.18214L172.956,6.63614Q173.95,4.57814,174.412,2.11414L175.336,2.31014ZM179.074,1.76414Q180.124,3.59814,180.88,5.61414L179.998,6.02014Q179.158,3.75214,178.178,2.05814L179.074,1.76414ZM180.222,6.76214Q178.276,11.5641,172.648,12.9501L172.13,12.0681Q177.576,10.7661,179.368,6.24414L180.222,6.76214ZM184.156,3.19214L185.094,3.19214L185.094,2.10014L185.934,2.10014L185.934,3.19214L186.97,3.19214L186.97,4.03214L185.934,4.03214L185.934,5.32014L187.068,5.32014L187.068,6.16014L184.086,6.16014L184.086,5.32014L185.094,5.32014L185.094,4.03214L184.156,4.03214L184.156,3.19214ZM184.38,7.04214L186.76,7.04214L186.76,10.7801L184.38,10.7801L184.38,7.04214ZM186.06,10.0381L186.06,7.77014L185.066,7.77014L185.066,10.0381L186.06,10.0381ZM188.44,0.630141L188.44,5.54414Q189.462,2.99614,189.896,0.112141L190.75,0.280141Q190.526,1.45614,190.246,2.47814L192.15,2.47814Q191.744,1.28814,191.282,0.322141L192.192,0.0701406Q192.71,1.31614,192.99,2.28214L192.444,2.47814L194.46,2.47814L194.46,3.37414L192.892,3.37414L192.892,5.34814L194.18,5.34814L194.18,6.23014L192.892,6.23014L192.892,8.19014L194.222,8.19014L194.222,9.07214L192.892,9.07214L192.892,11.2141L194.67,11.2141L194.67,12.1101L190.4,12.1101L190.4,12.8521L189.49,12.8521L189.49,4.73214Q189.056,5.79614,188.482,6.90214L188.44,6.76214L188.44,11.6481Q188.44,12.7681,187.334,12.7681L186.172,12.7681L185.934,11.8721Q186.746,11.9281,187.054,11.9281Q187.53,11.9281,187.53,11.3261L187.53,1.52614L183.652,1.52614L183.652,7.88214Q183.624,11.0041,182.854,12.9361L182.112,12.2501Q182.714,10.5281,182.728,7.93814L182.728,0.630141L188.44,0.630141ZM190.4,6.23014L190.4,8.19014L191.982,8.19014L191.982,6.23014L190.4,6.23014ZM190.4,9.07214L190.4,11.2141L191.982,11.2141L191.982,9.07214L190.4,9.07214ZM191.982,3.37414L190.4,3.37414L190.4,5.34814L191.982,5.34814L191.982,3.37414ZM196.266,5.23614L197.61,5.23614L197.61,1.93214L196.07,1.93214L196.07,0.966141L200.298,0.966141L200.298,1.93214L198.632,1.93214L198.632,5.23614L199.976,5.23614L199.976,6.21614L198.632,6.21614L198.632,9.50614Q199.43,9.28214,200.354,8.93214L200.354,9.91214Q198.464,10.6261,196.28,11.0881L196.028,10.1221Q196.854,9.96814,197.61,9.78614L197.61,6.21614L196.266,6.21614L196.266,5.23614ZM200.816,0.784141L208.698,0.784141L208.698,1.76414L204.778,1.76414Q204.358,2.47814,203.812,3.10814Q204.68,4.15814,205.17,5.25014Q206.822,4.25614,207.928,2.77214L208.558,3.50014Q207.83,4.36814,207.004,5.04014Q207.564,8.58214,209.006,10.6961L208.334,11.4661Q206.892,9.17014,206.262,5.58614L205.464,6.07614Q205.912,7.63014,205.954,10.2201Q205.94,12.0261,205.52,12.3761Q205.058,12.7401,203.854,12.7541L203.154,12.7541L202.86,11.8441L204.008,11.8441Q204.54,11.8441,204.722,11.6761Q204.918,11.4661,204.96,10.2201Q204.96,9.40814,204.918,8.76414Q203.014,10.8781,200.508,12.0681L199.948,11.2561Q202.776,9.98214,204.792,7.58814Q204.666,6.76214,204.456,6.16014L204.344,5.88014Q203.742,6.52414,203.07,7.07014Q203.406,7.65814,203.658,8.16214L202.93,8.66614Q202.748,8.30214,202.356,7.60214Q201.572,8.12014,200.788,8.52614L200.256,7.71414Q201.138,7.29414,201.894,6.83214Q201.628,6.37014,201.264,5.85214L201.964,5.33414L202.622,6.32814Q203.35,5.76814,203.98,5.08214Q203.602,4.38214,203.126,3.80814Q202.034,4.77414,200.564,5.53014L200.046,4.70414Q202.552,3.55614,203.714,1.76414L200.816,1.76414L200.816,0.784141ZM212.016,9.84214Q213.024,9.84214,213.024,11.2001Q213.024,13.0061,211.442,13.8741L211.064,13.2721Q212.156,12.5581,212.24,11.4661Q212.128,11.4941,212.016,11.4941Q211.666,11.4941,211.4,11.2701Q211.162,11.0461,211.162,10.6821Q211.162,10.2621,211.4,10.0661Q211.638,9.84214,212.016,9.84214ZM4.858,26.8461L10.178,26.8461L10.178,25.4321L11.186,25.4321L11.186,26.8461L12.88,26.8461L12.88,27.8121L11.186,27.8121L11.186,31.5921Q11.186,32.8521,9.842,32.8521L7.98,32.8521L7.77,31.8861Q8.778,31.9561,9.492,31.9561Q10.178,31.9561,10.178,31.3401L10.178,27.8121L4.858,27.8121L4.858,26.8461ZM3.01,20.0561L4.032,20.0561L4.032,32.8801L3.01,32.8801L3.01,28.2461Q1.652,29.5201,0.448002,30.3181L0.00000231934,29.3521Q1.162,28.6521,3.01,27.0281L3.01,20.0561ZM6.636,28.3861Q7.784,29.6321,8.428,30.6261L7.644,31.1861Q7,30.1361,5.894,28.8481L6.636,28.3861ZM7.616,22.0161Q6.65,23.1221,5.208,23.8781L4.564,23.0941Q6.846,21.9601,7.644,20.0421L8.68,20.2381Q8.498,20.6441,8.26,21.0921L12.348,21.0921L12.348,21.9601Q11.144,25.0261,5.726,26.2721L5.222,25.3761Q6.832,25.0261,8.134,24.5081Q7.546,23.9621,6.804,23.4301L7.518,22.8841Q8.302,23.4441,8.988,24.1021Q10.556,23.2481,11.256,22.0161L7.616,22.0161ZM0.882002,21.6941Q1.848,23.0801,2.576,24.7461L1.694,25.1101Q0.938002,23.3461,0.0140023,22.0441L0.882002,21.6941ZM15.33,20.8121L25.382,20.8121L25.382,21.7921L20.37,21.7921L20.37,22.7301Q20.328,24.1161,20.188,25.1801L26.516,25.1801L26.516,26.1461L22.176,26.1461L22.176,31.0321Q22.176,31.7181,22.848,31.7181L24.626,31.7181Q25.13,31.7181,25.368,31.4381Q25.662,31.1161,25.76,29.4781L26.712,29.7861Q26.544,31.8301,26.082,32.2921Q25.69,32.6701,24.808,32.6701L22.54,32.6701Q21.168,32.6701,21.168,31.2421L21.168,26.1461L20.034,26.1461Q19.698,27.9661,18.984,29.3101Q17.668,31.6061,14.77,32.8521L14.21,31.9561Q17.094,30.6541,18.228,28.5261Q18.718,27.5041,18.998,26.1461L14.392,26.1461L14.392,25.1801L19.166,25.1801Q19.32,24.1021,19.348,22.7301L19.348,21.7921L15.33,21.7921L15.33,20.8121ZM28.336,20.6021L35.322,20.6021L35.322,21.5541L33.922,21.5541L33.922,25.6001L35.532,25.6001L35.532,26.5661L33.922,26.5661L33.922,32.7961L32.9,32.7961L32.9,26.5661L30.8,26.5661Q30.632,30.8221,28.84,32.8521L28.084,32.1941Q29.624,30.3881,29.764,26.5661L28.084,26.5661L28.084,25.6001L29.778,25.6001L29.778,21.5541L28.336,21.5541L28.336,20.6021ZM30.814,21.5541L30.814,25.6001L32.9,25.6001L32.9,21.5541L30.814,21.5541ZM40.068,20.8541Q38.36,22.6181,35.812,23.7941L35.378,22.8701Q37.814,21.8201,39.41,20.0981L40.068,20.8541ZM40.67,24.6481Q38.934,26.5521,36.4,27.7981L35.966,26.8881Q38.388,25.7681,40.012,23.8921L40.67,24.6481ZM41.034,28.5261Q38.906,31.1161,35.7,32.8241L35.266,31.8861Q38.346,30.3321,40.362,27.7701L41.034,28.5261ZM47.124,22.4781L47.124,32.0261L46.144,32.0261L46.144,31.2281L43.596,31.2281L43.596,32.4321L42.616,32.4321L42.616,22.4781L43.918,22.4781Q44.324,21.3301,44.52,20.0421L45.528,20.1821Q45.262,21.5121,44.87,22.4781L47.124,22.4781ZM43.596,30.2901L46.144,30.2901L46.144,27.2241L43.596,27.2241L43.596,30.2901ZM43.596,26.3141L46.144,26.3141L46.144,23.4301L43.596,23.4301L43.596,26.3141ZM49.56,25.7261Q51.016,27.3921,51.856,28.7781L51.058,29.3381Q50.204,27.9521,48.748,26.2301L49.56,25.7261ZM54.362,22.4921Q54.362,29.4781,54.152,31.1161Q53.942,32.7261,52.192,32.7261L50.764,32.6701L50.526,31.7461Q51.408,31.7881,52.052,31.7881Q53.032,31.7881,53.2,30.7101Q53.326,29.5341,53.368,23.4721L49.518,23.4721Q48.916,24.8161,48.118,25.8661L47.516,25.0681Q48.972,23.0381,49.518,20.0281L50.512,20.1541Q50.232,21.5121,49.896,22.4921L54.362,22.4921ZM61.474,25.4461L58.492,25.4461L58.492,31.2281Q58.492,31.7181,59.024,31.7181L61.698,31.7181Q62.426,31.7181,62.594,31.3681Q62.79,30.9481,62.874,29.8141L63.826,30.1221Q63.686,31.8861,63.294,32.3201Q62.958,32.6561,61.964,32.6561L58.632,32.6561Q57.47,32.6561,57.47,31.5781L57.47,24.5501L62.454,24.5501L62.454,28.2741Q62.44,29.4081,61.278,29.4501Q60.48,29.4501,59.738,29.4081L59.486,28.4561Q60.284,28.5401,60.914,28.5401Q61.474,28.5401,61.474,27.9661L61.474,25.4461ZM60.438,20.1821Q62.3,22.1561,63.952,24.2561L63.294,24.9561Q61.488,22.5621,60.144,21.1341Q58.562,23.4861,56.546,25.3761L55.958,24.5641Q58.03,22.6881,59.696,20.1821L60.438,20.1821ZM64.778,21.2881L65.758,21.2881L65.758,30.0101L64.778,30.0101L64.778,21.2881ZM64.946,32.7681L64.722,31.8021Q65.94,31.8721,66.822,31.8721Q67.298,31.8721,67.298,31.2981L67.298,20.0981L68.306,20.0981L68.306,31.5501Q68.306,32.7681,67.172,32.7681L64.946,32.7681ZM73.304,21.7781L71.05,21.7781L71.05,20.9101L75.866,20.9101Q75.656,20.4481,75.446,20.0701L76.524,19.9021Q76.804,20.4761,76.958,20.9101L81.886,20.9101L81.886,21.7781L79.604,21.7781L79.058,22.8841L82.544,22.8841L82.544,23.7661L70.392,23.7661L70.392,22.8841L73.752,22.8841L73.304,21.7781ZM74.802,22.8841L78.008,22.8841L78.554,21.7781L74.354,21.7781L74.802,22.8841ZM71.988,24.5921L80.948,24.5921L80.948,28.7361L71.988,28.7361L71.988,24.5921ZM79.968,27.9521L79.968,27.0281L72.968,27.0281L72.968,27.9521L79.968,27.9521ZM72.968,26.2861L79.968,26.2861L79.968,25.3901L72.968,25.3901L72.968,26.2861ZM72.408,29.5901Q71.89,31.2981,71.036,32.4881L70.168,31.9421Q71.022,30.7941,71.428,29.3941L72.408,29.5901ZM74.97,32.6701Q73.556,32.6701,73.556,31.3681L73.556,29.5201L74.592,29.5201L74.592,31.1581Q74.592,31.7601,75.264,31.7601L78.204,31.7601Q78.666,31.7601,78.834,31.5921Q79.086,31.3821,79.17,30.3181L80.122,30.6261Q79.982,32.0681,79.548,32.4041Q79.156,32.6701,78.386,32.6701L74.97,32.6701ZM76.622,29.0021Q77.532,29.9121,77.98,30.5841L77.14,31.1721Q76.608,30.3741,75.768,29.5341L76.622,29.0021ZM81.018,29.2681Q82.264,30.7521,82.838,31.7181L81.998,32.3061Q81.312,31.1161,80.206,29.7721L81.018,29.2681ZM90.132,26.9021L90.972,26.2581Q91.56,25.8101,91.966,25.4881L87.43,25.4881L87.43,24.5501L93.366,24.5501L93.366,25.3061Q92.344,26.2721,91.126,27.2381L91.126,28.0501L96.488,28.0501L96.488,29.0161L91.126,29.0161L91.126,31.5221Q91.126,32.7541,89.894,32.7541L87.85,32.7541L87.57,31.7741Q89.194,31.8301,89.488,31.8301Q90.132,31.8301,90.132,31.2141L90.132,29.0161L84.434,29.0161L84.434,28.0501L90.132,28.0501L90.132,26.9021ZM85.176,21.5961L85.176,20.6161L93.408,20.6161L93.408,21.1061L92.862,22.3521L96.026,22.3521L96.026,22.8141Q95.858,25.6561,95.34,26.2721Q95.046,26.6501,94.458,26.7341Q94.066,26.7901,93.296,26.8181L93.03,25.9081Q93.534,25.9501,93.898,25.9501Q94.276,25.9501,94.5,25.7541Q94.864,25.4041,95.032,23.2761L91.574,23.2761L92.26,21.5961L88.662,21.5961Q88.228,23.3181,87.556,24.2981Q86.688,25.4601,84.924,26.4121L84.308,25.6281Q85.876,24.8301,86.646,23.8641Q87.304,22.9681,87.64,21.5961L85.176,21.5961ZM98.196,21.3021L104.006,21.3021Q103.74,20.7141,103.418,20.1961L104.58,20.0141Q104.832,20.5041,105.14,21.3021L110.768,21.3021L110.768,22.2541L107.478,22.2541Q109.382,23.7661,110.418,24.9281L109.578,25.5161Q109.088,24.9281,108.528,24.3961Q105.336,24.6621,99.484,24.8861L99.26,24.0041Q99.512,23.9621,99.75,23.8641Q100.702,23.2761,101.906,22.2541L98.196,22.2541L98.196,21.3021ZM103.166,22.2541Q101.934,23.4021,100.926,24.0181Q104.79,23.8921,107.744,23.6541Q107.198,23.1361,106.652,22.7021L107.352,22.2541L103.166,22.2541ZM101.304,28.5961L101.304,29.7021L107.674,29.7021L107.674,28.5961L101.304,28.5961ZM107.674,27.7281L107.674,26.5381L101.304,26.5381L101.304,27.7281L107.674,27.7281ZM101.304,30.5701L101.304,32.8941L100.296,32.8941L100.296,25.6701L108.696,25.6701L108.696,31.5641Q108.696,32.8661,107.352,32.8661L105.924,32.8661L105.658,31.8861L107.016,31.9281Q107.674,31.9281,107.674,31.3541L107.674,30.5701L101.304,30.5701ZM121.884,20.0141Q122.878,20.7561,123.606,21.5541L122.962,22.1981L124.67,22.1981L124.67,23.1641L120.358,23.1641Q120.498,25.7261,120.89,27.2801Q120.988,27.6861,121.17,28.2601Q122.206,26.6081,122.864,24.3261L123.774,24.7181Q122.92,27.5181,121.59,29.3941Q121.898,30.0801,122.22,30.5561Q122.92,31.5641,123.34,31.5641Q123.732,31.5361,124.04,29.3801L124.95,29.8841Q124.446,32.6841,123.508,32.6841Q122.626,32.6841,121.618,31.4241Q121.226,30.9061,120.918,30.2621Q119.462,31.9561,117.474,32.8521L116.914,32.0121Q119.028,31.0601,120.47,29.2401Q120.148,28.4001,119.938,27.5601Q119.49,25.8661,119.322,23.1641L114.52,23.1641L114.52,25.4881L117.95,25.4881Q117.908,29.0161,117.628,30.0661Q117.362,30.9621,116.312,31.0041Q116.018,31.0041,115.122,30.9481L114.814,30.0381Q115.64,30.0801,116.2,30.0801Q116.662,30.0661,116.788,29.4641Q116.9,28.8341,116.942,26.4401L114.52,26.4401L114.52,26.8601Q114.436,30.6121,112.868,32.8941L112.098,32.2081Q113.428,30.2901,113.498,26.8601L113.498,22.1981L119.28,22.1981Q119.238,21.1481,119.238,20.0281L120.274,20.0281Q120.274,21.1901,120.316,22.1981L122.934,22.1981Q122.304,21.4421,121.24,20.6301L121.884,20.0141ZM130.368,25.0961L130.368,26.6221L135.926,26.6221L135.926,25.0961L130.368,25.0961ZM135.926,27.5041L130.368,27.5041L130.368,28.9881L135.926,28.9881L135.926,27.5041ZM135.926,29.8701L130.368,29.8701L130.368,32.8661L129.416,32.8661L129.416,25.5441Q128.24,27.0281,126.714,28.2461L126.056,27.3921Q128.702,25.2921,130.144,22.5901L126.434,22.5901L126.434,21.6101L130.606,21.6101Q130.984,20.7421,131.222,19.9721L132.244,20.0981Q131.936,21.0641,131.712,21.6101L138.67,21.6101L138.67,22.5901L131.292,22.5901Q130.816,23.5561,130.382,24.2141L136.878,24.2141L136.878,31.7741Q136.878,32.7961,135.702,32.8381L134.134,32.8381L133.882,31.9141Q134.946,31.9701,135.38,31.9701Q135.926,31.9701,135.926,31.4661L135.926,29.8701ZM140.336,20.6021L147.322,20.6021L147.322,21.5541L145.922,21.5541L145.922,25.6001L147.532,25.6001L147.532,26.5661L145.922,26.5661L145.922,32.7961L144.9,32.7961L144.9,26.5661L142.8,26.5661Q142.632,30.8221,140.84,32.8521L140.084,32.1941Q141.624,30.3881,141.764,26.5661L140.084,26.5661L140.084,25.6001L141.778,25.6001L141.778,21.5541L140.336,21.5541L140.336,20.6021ZM142.814,21.5541L142.814,25.6001L144.9,25.6001L144.9,21.5541L142.814,21.5541ZM152.068,20.8541Q150.36,22.6181,147.812,23.7941L147.378,22.8701Q149.814,21.8201,151.41,20.0981L152.068,20.8541ZM152.67,24.6481Q150.934,26.5521,148.4,27.7981L147.966,26.8881Q150.388,25.7681,152.012,23.8921L152.67,24.6481ZM153.034,28.5261Q150.906,31.1161,147.7,32.8241L147.266,31.8861Q150.346,30.3321,152.362,27.7701L153.034,28.5261ZM159.124,22.4781L159.124,32.0261L158.144,32.0261L158.144,31.2281L155.596,31.2281L155.596,32.4321L154.616,32.4321L154.616,22.4781L155.918,22.4781Q156.324,21.3301,156.52,20.0421L157.528,20.1821Q157.262,21.5121,156.87,22.4781L159.124,22.4781ZM155.596,30.2901L158.144,30.2901L158.144,27.2241L155.596,27.2241L155.596,30.2901ZM155.596,26.3141L158.144,26.3141L158.144,23.4301L155.596,23.4301L155.596,26.3141ZM161.56,25.7261Q163.016,27.3921,163.856,28.7781L163.058,29.3381Q162.204,27.9521,160.748,26.2301L161.56,25.7261ZM166.362,22.4921Q166.362,29.4781,166.152,31.1161Q165.942,32.7261,164.192,32.7261L162.764,32.6701L162.526,31.7461Q163.408,31.7881,164.052,31.7881Q165.032,31.7881,165.2,30.7101Q165.326,29.5341,165.368,23.4721L161.518,23.4721Q160.916,24.8161,160.118,25.8661L159.516,25.0681Q160.972,23.0381,161.518,20.0281L162.512,20.1541Q162.232,21.5121,161.896,22.4921L166.362,22.4921ZM169.764,20.6161L179.102,20.6161L179.102,26.0341L174.986,26.0341L174.986,27.3081L180.558,27.3081L180.558,28.2601L175.882,28.2601Q177.38,30.1641,180.866,31.6341L180.18,32.5161Q176.526,30.5981,175.056,28.2601L174.986,28.2601L174.986,32.8801L173.95,32.8801L173.95,28.2601L173.894,28.2601Q172.298,30.8501,168.658,32.5021L168.084,31.5781Q171.514,30.2761,173.04,28.2601L168.378,28.2601L168.378,27.3081L173.95,27.3081L173.95,26.0341L169.764,26.0341L169.764,20.6161ZM178.108,25.1521L178.108,23.7941L174.986,23.7941L174.986,25.1521L178.108,25.1521ZM173.95,25.1521L173.95,23.7941L170.772,23.7941L170.772,25.1521L173.95,25.1521ZM170.772,22.9121L173.95,22.9121L173.95,21.5121L170.772,21.5121L170.772,22.9121ZM174.986,21.5121L174.986,22.9121L178.108,22.9121L178.108,21.5121L174.986,21.5121ZM194.18,21.5121L194.18,24.3121L193.158,24.3121L193.158,22.4501L183.778,22.4501L183.778,24.3821L182.756,24.3821L182.756,21.5121L188.076,21.5121Q187.782,20.6861,187.474,20.0841L188.538,19.9161Q188.79,20.5181,189.07,21.5121L194.18,21.5121ZM184.478,25.1381Q186.088,25.7681,187.348,26.6221L186.83,27.4201Q185.43,26.4121,183.974,25.8801L184.478,25.1381ZM185.318,23.0101Q186.788,23.5701,188.118,24.4521L187.614,25.2501Q186.2,24.2421,184.828,23.7241L185.318,23.0101ZM189.56,23.1641L190.582,23.1641L190.582,24.7181Q190.512,26.5521,189.98,27.9381L194.544,27.9381L194.544,28.8761L189.546,28.8761Q189.378,29.1841,189.098,29.5621Q191.982,30.5981,194.474,32.1101L193.914,32.9781Q191.24,31.2841,188.496,30.2621Q186.802,31.9141,183.19,32.8941L182.644,32.0401Q186.522,31.0041,188.034,29.3241L188.356,28.8761L182.35,28.8761L182.35,27.9381L188.874,27.9381Q189.49,26.5661,189.56,24.7181L189.56,23.1641ZM198.968,29.5061Q199.71,29.5061,200.256,30.0101Q200.788,30.5141,200.788,31.2701Q200.788,32.0121,200.256,32.5161Q199.71,33.0201,198.968,33.0201Q198.212,33.0201,197.68,32.5301Q197.148,32.0401,197.148,31.2701Q197.148,30.5001,197.68,30.0101Q198.212,29.5061,198.968,29.5061ZM198.968,30.2341Q198.52,30.2341,198.226,30.5421Q197.904,30.8221,197.904,31.2701Q197.904,31.7041,198.226,31.9841Q198.534,32.2921,198.968,32.2921Q199.374,32.2921,199.71,31.9841Q200.032,31.6901,200.032,31.2701Q200.032,30.8361,199.71,30.5421Q199.402,30.2341,198.968,30.2341Z" fill="#FFFFFF" fill-opacity="1"/></g></g><g><g><path d="M2.6240023196935653,58.614141693115236C4.544002319693566,58.614141693115236,5.576002319693566,57.87014169311524,5.576002319693566,56.25014169311523C5.576002319693566,54.618141693115234,4.904002319693565,54.12614169311524,3.0440023196935653,53.694141693115235C1.5440023196935653,53.346141693115236,1.3400023196935653,53.07014169311523,1.3400023196935653,52.29014169311523C1.3400023196935653,51.21014169311523,1.8920023196935654,50.98214169311523,3.0560023196935653,50.98214169311523C3.8120023196935655,50.98214169311523,4.652002319693565,51.13814169311524,5.132002319693566,51.31814169311524L5.132002319693566,50.33414069311524C4.736002319693565,50.17813869311524,3.8480023196935655,50.03414169311523,3.0440023196935653,50.03414169311523C1.1600023196935654,50.03414169311523,0.27200231969356536,50.77814169311523,0.27200231969356536,52.29014169311523C0.27200231969356536,53.76614169311524,0.8960023196935654,54.18614169311523,2.6000023196935653,54.59414169311523C4.160002319693565,54.96614169311523,4.520002319693566,55.24214169311524,4.520002319693566,56.26214169311523C4.520002319693566,57.294141693115236,3.8720023196935656,57.666141693115236,2.6240023196935653,57.666141693115236C1.6400023196935654,57.666141693115236,0.6440023196935654,57.474141693115236,0.15200231969356537,57.294141693115236L0.15200231969356537,58.29014169311523C0.5600023196935653,58.43414169311524,1.5920023196935653,58.614141693115236,2.6240023196935653,58.614141693115236ZM10.460002319693565,51.89414169311524C9.668002319693565,51.89414169311524,8.780002319693565,52.11014169311523,8.384002319693565,52.938141693115234L8.384002319693565,49.374141693115234L7.3520023196935655,49.374141693115234L7.3520023196935655,58.49414169311523L8.384002319693565,58.49414169311523L8.384002319693565,54.114141693115236C8.744002319693566,52.974141693115236,9.536002319693566,52.81814169311524,10.352002319693565,52.81814169311524C11.384002319693565,52.81814169311524,11.600002319693566,53.39414169311523,11.600002319693566,54.39014169311523L11.600002319693566,58.49414169311523L12.632002319693566,58.49414169311523L12.632002319693566,54.00614169311523C12.632002319693566,52.770141693115235,12.152002319693565,51.89414169311524,10.460002319693565,51.89414169311524ZM17.336002319693566,51.89414169311524C16.868002319693566,51.89414169311524,16.340002319693564,51.93014169311523,15.860002319693566,51.990141693115234L15.860002319693566,52.90214169311523C16.328002319693564,52.80614169311524,16.856002319693566,52.758141693115235,17.288002319693565,52.758141693115235C18.608002319693565,52.758141693115235,18.884002319693565,53.298141693115234,18.884002319693565,54.078141693115235L18.884002319693565,54.618141693115234L16.904002319693564,54.618141693115234C15.356002319693566,54.618141693115234,14.336002319693565,55.14614169311523,14.336002319693565,56.682141693115234C14.336002319693565,57.90614169311523,15.020002319693566,58.614141693115236,16.568002319693566,58.614141693115236C17.540002319693567,58.614141693115236,18.512002319693565,58.218141693115236,18.884002319693565,57.51014169311523L19.040002319693567,58.49414169311523L19.916002319693565,58.49414169311523L19.916002319693565,53.898141693115235C19.916002319693565,52.734141693115234,19.376002319693566,51.89414169311524,17.336002319693566,51.89414169311524ZM16.664002319693566,57.75014169311523C15.752002319693565,57.75014169311523,15.404002319693566,57.37814169311523,15.404002319693566,56.670141693115234C15.404002319693566,55.66214169311523,15.908002319693566,55.44614169311524,16.976002319693567,55.44614169311524L18.884002319693565,55.44614169311524L18.884002319693565,56.514141693115235C18.548002319693566,57.282141693115236,17.744002319693564,57.75014169311523,16.664002319693566,57.75014169311523ZM25.244002319693564,51.89414169311524C24.008002319693567,51.89414169311524,23.408002319693566,52.410141693115236,23.144002319693566,53.178141693115236L23.144002319693566,52.014141693115235L22.112002319693566,52.014141693115235L22.112002319693566,60.89414169311523L23.144002319693566,60.89414169311523L23.144002319693566,57.36614169311523C23.408002319693566,58.12214169311523,23.984002319693566,58.614141693115236,25.244002319693564,58.614141693115236C27.416002319693565,58.614141693115236,27.920002319693566,57.042141693115234,27.920002319693566,55.25414169311524C27.920002319693566,53.27414169311523,27.416002319693565,51.89414169311524,25.244002319693564,51.89414169311524ZM25.112002319693566,57.73814169311524C23.552002319693564,57.73814169311524,23.096002319693564,56.74214169311524,23.096002319693564,55.25414169311524C23.096002319693564,53.706141693115235,23.552002319693564,52.758141693115235,25.112002319693566,52.758141693115235C26.612002319693566,52.758141693115235,26.840002319693564,53.886141693115235,26.840002319693564,55.25414169311524C26.840002319693564,56.514141693115235,26.648002319693564,57.73814169311524,25.112002319693566,57.73814169311524ZM30.260002319693566,50.82614169311523C30.692002319693565,50.82614169311523,30.872002319693564,50.74214169311524,30.872002319693564,50.21414169311524C30.872002319693564,49.674140693115234,30.692002319693565,49.60214269311523,30.260002319693566,49.60214269311523C29.804002319693566,49.60214269311523,29.636002319693567,49.674140693115234,29.636002319693567,50.21414169311524C29.636002319693567,50.74214169311524,29.804002319693566,50.82614169311523,30.260002319693566,50.82614169311523ZM29.732002319693564,58.49414169311523L30.764002319693564,58.49414169311523L30.764002319693564,52.014141693115235L29.732002319693564,52.014141693115235L29.732002319693564,58.49414169311523ZM36.05600231969357,51.89414169311524C35.26400231969357,51.89414169311524,34.37600231969356,52.11014169311523,33.98000231969357,52.938141693115234L33.98000231969357,52.014141693115235L32.948002319693565,52.014141693115235L32.948002319693565,58.49414169311523L33.98000231969357,58.49414169311523L33.98000231969357,54.114141693115236C34.34000231969357,52.974141693115236,35.13200231969356,52.81814169311524,35.948002319693565,52.81814169311524C36.98000231969357,52.81814169311524,37.18400231969356,53.39414169311523,37.18400231969356,54.39014169311523L37.18400231969356,58.49414169311523L38.228002319693566,58.49414169311523L38.228002319693566,54.00614169311523C38.228002319693566,52.770141693115235,37.74800231969356,51.89414169311524,36.05600231969357,51.89414169311524ZM44.780002319693565,52.014141693115235L44.780002319693565,53.22614169311523C44.52800231969356,52.45814169311524,43.988002319693564,51.89414169311524,42.680002319693564,51.89414169311524C40.52000231969357,51.89414169311524,39.99200231969357,53.40614169311523,39.99200231969357,55.194141693115235C39.99200231969357,57.17414169311523,40.52000231969357,58.49414169311523,42.680002319693564,58.49414169311523C43.92800231969357,58.49414169311523,44.51600231969356,58.038141693115236,44.780002319693565,57.282141693115236L44.780002319693565,57.93014169311523C44.780002319693565,59.41814169311523,44.09600231969357,60.00614169311523,42.65600231969356,60.00614169311523C42.10400231969356,60.00614169311523,41.564002319693564,59.95814169311524,41.07200231969357,59.862141693115234L41.07200231969357,60.73814169311524C41.48000231969357,60.822141693115235,42.09200231969356,60.89414169311523,42.64400231969356,60.89414169311523C44.84000231969357,60.89414169311523,45.81200231969356,59.82614169311523,45.81200231969356,58.038141693115236L45.81200231969356,52.014141693115235L44.780002319693565,52.014141693115235ZM42.82400231969356,57.630141693115235C41.30000231969357,57.630141693115235,41.09600231969357,56.550141693115236,41.09600231969357,55.194141693115235C41.09600231969357,53.93414169311524,41.26400231969357,52.758141693115235,42.82400231969356,52.758141693115235C44.384002319693565,52.758141693115235,44.81600231969357,53.706141693115235,44.81600231969357,55.194141693115235C44.81600231969357,56.74214169311524,44.384002319693565,57.630141693115235,42.82400231969356,57.630141693115235ZM57.884002319693565,51.89414169311524C57.09200231969356,51.89414169311524,56.25200231969357,52.11014169311523,55.86800231969357,52.950141693115235C55.59200231969356,52.30214169311523,55.00400231969356,51.89414169311524,53.984002319693566,51.89414169311524C53.204002319693565,51.89414169311524,52.50800231969357,52.09814169311524,52.112002319693566,52.86614169311523L52.112002319693566,52.014141693115235L51.08000231969356,52.014141693115235L51.08000231969356,58.49414169311523L52.112002319693566,58.49414169311523L52.112002319693566,53.99414169311523C52.436002319693564,52.99814169311524,53.024002319693565,52.81814169311524,53.82800231969357,52.81814169311524C54.77600231969357,52.81814169311524,55.01600231969356,53.39414169311523,55.01600231969356,54.39014169311523L55.01600231969356,58.49414169311523L56.048002319693566,58.49414169311523L56.048002319693566,54.00614169311523L56.048002319693566,53.95814169311524C56.32400231969356,53.03414169311523,56.972002319693566,52.81814169311524,57.728002319693566,52.81814169311524C58.70000231969357,52.81814169311524,58.97600231969356,53.39414169311523,58.97600231969356,54.39014169311523L58.97600231969356,58.49414169311523L60.00800231969357,58.49414169311523L60.00800231969357,54.01814169311523C60.00800231969357,52.770141693115235,59.396002319693565,51.89414169311524,57.884002319693565,51.89414169311524ZM64.70000231969357,51.89414169311524C64.23200231969356,51.89414169311524,63.704002319693565,51.93014169311523,63.22400231969357,51.990141693115234L63.22400231969357,52.90214169311523C63.692002319693565,52.80614169311524,64.22000231969356,52.758141693115235,64.65200231969357,52.758141693115235C65.97200231969356,52.758141693115235,66.24800231969357,53.298141693115234,66.24800231969357,54.078141693115235L66.24800231969357,54.618141693115234L64.26800231969357,54.618141693115234C62.72000231969356,54.618141693115234,61.70000231969357,55.14614169311523,61.70000231969357,56.682141693115234C61.70000231969357,57.90614169311523,62.384002319693565,58.614141693115236,63.93200231969357,58.614141693115236C64.90400231969356,58.614141693115236,65.87600231969357,58.218141693115236,66.24800231969357,57.51014169311523L66.40400231969356,58.49414169311523L67.28000231969357,58.49414169311523L67.28000231969357,53.898141693115235C67.28000231969357,52.734141693115234,66.74000231969356,51.89414169311524,64.70000231969357,51.89414169311524ZM64.02800231969357,57.75014169311523C63.116002319693564,57.75014169311523,62.768002319693565,57.37814169311523,62.768002319693565,56.670141693115234C62.768002319693565,55.66214169311523,63.27200231969356,55.44614169311524,64.34000231969357,55.44614169311524L66.24800231969357,55.44614169311524L66.24800231969357,56.514141693115235C65.91200231969357,57.282141693115236,65.10800231969357,57.75014169311523,64.02800231969357,57.75014169311523ZM71.49200231969357,57.70214169311524C70.70000231969357,57.70214169311524,70.55600231969356,57.462141693115235,70.55600231969356,56.45414169311523L70.55600231969356,52.87814169311523L72.16400231969357,52.87814169311523L72.16400231969357,52.014141693115235L70.55600231969356,52.014141693115235L70.55600231969356,50.478141693115234L69.52400231969357,50.478141693115234L69.52400231969357,52.014141693115235L68.56400231969357,52.014141693115235L68.56400231969357,52.87814169311523L69.52400231969357,52.87814169311523L69.52400231969357,56.514141693115235C69.52400231969357,58.218141693115236,70.04000231969357,58.566141693115235,71.46800231969357,58.566141693115235C71.74400231969356,58.566141693115235,71.94800231969357,58.542141693115234,72.20000231969357,58.50614169311523L72.20000231969357,57.630141693115235C71.97200231969356,57.678141693115236,71.78000231969357,57.70214169311524,71.49200231969357,57.70214169311524ZM78.66800231969357,54.606141693115234C78.66800231969357,53.346141693115236,78.28400231969357,51.89414169311524,76.07600231969357,51.89414169311524C74.22800231969356,51.89414169311524,73.13600231969356,52.67414169311523,73.13600231969356,55.25414169311524C73.13600231969356,57.834141693115235,74.22800231969356,58.614141693115236,76.13600231969356,58.614141693115236C77.06000231969357,58.614141693115236,77.94800231969357,58.422141693115236,78.32000231969357,58.230141693115236L78.32000231969357,57.282141693115236C77.82800231969357,57.52214169311523,77.00000231969356,57.70214169311524,76.29200231969357,57.70214169311524C74.72000231969356,57.70214169311524,74.22800231969356,57.054141693115234,74.21600231969356,55.63814169311524L78.60800231969357,55.362141693115234C78.64400231969357,55.06214169311524,78.66800231969357,54.78614169311523,78.66800231969357,54.606141693115234ZM74.21600231969356,54.87014169311524C74.25200231969356,53.550141693115236,74.58800231969357,52.746141693115234,76.07600231969357,52.746141693115234C77.48000231969357,52.746141693115234,77.64800231969356,53.62214169311523,77.64800231969356,54.618141693115234L74.21600231969356,54.87014169311524ZM83.55200231969357,51.89414169311524C82.77200231969357,51.89414169311524,81.89600231969357,52.11014169311523,81.48800231969356,53.19014169311524L81.48800231969356,52.014141693115235L80.45600231969357,52.014141693115235L80.45600231969357,58.49414169311523L81.48800231969356,58.49414169311523L81.48800231969356,54.258141693115235C81.84800231969356,53.106141693115234,82.66400231969357,52.83014169311524,83.49200231969357,52.83014169311524L83.63600231969356,52.83014169311524L83.67200231969356,51.89414169311524L83.55200231969357,51.89414169311524ZM85.53200231969356,50.82614169311523C85.96400231969356,50.82614169311523,86.14400231969357,50.74214169311524,86.14400231969357,50.21414169311524C86.14400231969357,49.674140693115234,85.96400231969356,49.60214269311523,85.53200231969356,49.60214269311523C85.07600231969357,49.60214269311523,84.90800231969357,49.674140693115234,84.90800231969357,50.21414169311524C84.90800231969357,50.74214169311524,85.07600231969357,50.82614169311523,85.53200231969356,50.82614169311523ZM85.00400231969357,58.49414169311523L86.03600231969357,58.49414169311523L86.03600231969357,52.014141693115235L85.00400231969357,52.014141693115235L85.00400231969357,58.49414169311523ZM90.78800231969356,51.89414169311524C90.32000231969357,51.89414169311524,89.79200231969357,51.93014169311523,89.31200231969356,51.990141693115234L89.31200231969356,52.90214169311523C89.78000231969357,52.80614169311524,90.30800231969357,52.758141693115235,90.74000231969356,52.758141693115235C92.06000231969357,52.758141693115235,92.33600231969356,53.298141693115234,92.33600231969356,54.078141693115235L92.33600231969356,54.618141693115234L90.35600231969356,54.618141693115234C88.80800231969357,54.618141693115234,87.78800231969356,55.14614169311523,87.78800231969356,56.682141693115234C87.78800231969356,57.90614169311523,88.47200231969356,58.614141693115236,90.02000231969356,58.614141693115236C90.99200231969357,58.614141693115236,91.96400231969356,58.218141693115236,92.33600231969356,57.51014169311523L92.49200231969357,58.49414169311523L93.36800231969356,58.49414169311523L93.36800231969356,53.898141693115235C93.36800231969356,52.734141693115234,92.82800231969357,51.89414169311524,90.78800231969356,51.89414169311524ZM90.11600231969356,57.75014169311523C89.20400231969357,57.75014169311523,88.85600231969356,57.37814169311523,88.85600231969356,56.670141693115234C88.85600231969356,55.66214169311523,89.36000231969356,55.44614169311524,90.42800231969356,55.44614169311524L92.33600231969356,55.44614169311524L92.33600231969356,56.514141693115235C92.00000231969356,57.282141693115236,91.19600231969356,57.75014169311523,90.11600231969356,57.75014169311523ZM97.00400231969357,58.566141693115235C97.29200231969357,58.566141693115235,97.49600231969356,58.542141693115234,97.68800231969357,58.49414169311523L97.68800231969357,57.642141693115235C97.52000231969356,57.69014169311524,97.34000231969357,57.70214169311524,97.19600231969356,57.70214169311524C96.77600231969356,57.70214169311524,96.59600231969357,57.57014169311523,96.59600231969357,56.922141693115236L96.59600231969357,49.374141693115234L95.56400231969357,49.374141693115234L95.56400231969357,57.18614169311523C95.56400231969357,58.15814169311523,96.04400231969356,58.566141693115235,97.00400231969357,58.566141693115235ZM100.49600231969356,58.566141693115235C102.08000231969356,58.566141693115235,102.95600231969357,57.978141693115234,102.95600231969357,56.694141693115235C102.95600231969357,55.44614169311524,102.41600231969356,55.038141693115236,100.92800231969356,54.70214169311524C99.92000231969357,54.474141693115236,99.69200231969357,54.33014169311524,99.69200231969357,53.670141693115234C99.69200231969357,52.938141693115234,100.14800231969356,52.734141693115234,101.06000231969357,52.734141693115234C101.66000231969356,52.734141693115234,102.23600231969357,52.84214169311524,102.60800231969357,52.986141693115236L102.68000231969357,52.11014169311523C102.36800231969356,51.990141693115234,101.67200231969356,51.89414169311524,101.04800231969357,51.89414169311524C99.51200231969356,51.89414169311524,98.72000231969356,52.602141693115236,98.72000231969356,53.64614169311523C98.72000231969356,54.73814169311523,99.10400231969356,55.194141693115235,100.53200231969356,55.51814169311523C101.76800231969357,55.80614169311524,101.98400231969356,55.962141693115235,101.98400231969356,56.730141693115236C101.98400231969356,57.486141693115236,101.46800231969357,57.72614169311524,100.48400231969356,57.72614169311524C99.89600231969357,57.72614169311524,99.06800231969356,57.606141693115234,98.61200231969356,57.474141693115236L98.61200231969356,58.362141693115234C98.97200231969356,58.47014169311524,99.87200231969356,58.566141693115235,100.49600231969356,58.566141693115235ZM104.10800231969357,60.12614169311524L104.96000231969357,60.12614169311524C105.53600231969357,59.358141693115236,106.23200231969356,58.002141693115234,106.23200231969356,56.97014169311524L105.23600231969357,56.97014169311524C105.23600231969357,57.87014169311524,104.75600231969356,59.130141693115235,104.10800231969357,60.12614169311524ZM114.56000231969357,51.89414169311524C113.76800231969357,51.89414169311524,112.88000231969356,52.11014169311523,112.48400231969356,52.938141693115234L112.48400231969356,52.014141693115235L111.45200231969356,52.014141693115235L111.45200231969356,58.49414169311523L112.48400231969356,58.49414169311523L112.48400231969356,54.114141693115236C112.84400231969356,52.974141693115236,113.63600231969356,52.81814169311524,114.45200231969356,52.81814169311524C115.48400231969356,52.81814169311524,115.68800231969357,53.39414169311523,115.68800231969357,54.39014169311523L115.68800231969357,58.49414169311523L116.73200231969356,58.49414169311523L116.73200231969356,54.00614169311523C116.73200231969356,52.770141693115235,116.25200231969356,51.89414169311524,114.56000231969357,51.89414169311524ZM123.00800231969356,52.014141693115235L123.00800231969356,56.41814169311523C122.63600231969356,57.53414169311523,121.91600231969356,57.70214169311524,121.10000231969356,57.70214169311524C120.06800231969356,57.70214169311524,119.85200231969357,57.102141693115236,119.85200231969357,56.118141693115234L119.85200231969357,52.014141693115235L118.82000231969357,52.014141693115235L118.82000231969357,56.502141693115234C118.82000231969357,57.75014169311523,119.30000231969356,58.614141693115236,120.99200231969357,58.614141693115236C121.78400231969357,58.614141693115236,122.63600231969356,58.410141693115236,123.03200231969356,57.55814169311523L123.16400231969357,58.49414169311523L124.04000231969357,58.49414169311523L124.04000231969357,52.014141693115235L123.00800231969356,52.014141693115235ZM129.32000231969357,51.89414169311524C128.54000231969357,51.89414169311524,127.66400231969357,52.11014169311523,127.25600231969356,53.19014169311524L127.25600231969356,52.014141693115235L126.22400231969357,52.014141693115235L126.22400231969357,58.49414169311523L127.25600231969356,58.49414169311523L127.25600231969356,54.258141693115235C127.61600231969356,53.106141693115234,128.43200231969357,52.83014169311524,129.26000231969357,52.83014169311524L129.40400231969357,52.83014169311524L129.44000231969358,51.89414169311524L129.32000231969357,51.89414169311524ZM133.02800231969357,57.70214169311524C132.23600231969357,57.70214169311524,132.09200231969356,57.462141693115235,132.09200231969356,56.45414169311523L132.09200231969356,52.87814169311523L133.70000231969357,52.87814169311523L133.70000231969357,52.014141693115235L132.09200231969356,52.014141693115235L132.09200231969356,50.478141693115234L131.06000231969355,50.478141693115234L131.06000231969355,52.014141693115235L130.10000231969357,52.014141693115235L130.10000231969357,52.87814169311523L131.06000231969355,52.87814169311523L131.06000231969355,56.514141693115235C131.06000231969355,58.218141693115236,131.57600231969357,58.566141693115235,133.00400231969357,58.566141693115235C133.28000231969355,58.566141693115235,133.48400231969356,58.542141693115234,133.73600231969357,58.50614169311523L133.73600231969357,57.630141693115235C133.50800231969356,57.678141693115236,133.31600231969355,57.70214169311524,133.02800231969357,57.70214169311524ZM139.19600231969358,52.014141693115235L139.19600231969358,56.41814169311523C138.82400231969356,57.53414169311523,138.10400231969356,57.70214169311524,137.28800231969356,57.70214169311524C136.25600231969358,57.70214169311524,136.04000231969357,57.102141693115236,136.04000231969357,56.118141693115234L136.04000231969357,52.014141693115235L135.00800231969356,52.014141693115235L135.00800231969356,56.502141693115234C135.00800231969356,57.75014169311523,135.48800231969358,58.614141693115236,137.18000231969356,58.614141693115236C137.97200231969356,58.614141693115236,138.82400231969356,58.410141693115236,139.22000231969358,57.55814169311523L139.35200231969355,58.49414169311523L140.22800231969356,58.49414169311523L140.22800231969356,52.014141693115235L139.19600231969358,52.014141693115235ZM145.50800231969356,51.89414169311524C144.72800231969356,51.89414169311524,143.85200231969355,52.11014169311523,143.44400231969357,53.19014169311524L143.44400231969357,52.014141693115235L142.41200231969356,52.014141693115235L142.41200231969356,58.49414169311523L143.44400231969357,58.49414169311523L143.44400231969357,54.258141693115235C143.80400231969355,53.106141693115234,144.62000231969355,52.83014169311524,145.44800231969356,52.83014169311524L145.59200231969356,52.83014169311524L145.62800231969356,51.89414169311524L145.50800231969356,51.89414169311524ZM147.48800231969358,50.82614169311523C147.92000231969357,50.82614169311523,148.10000231969357,50.74214169311524,148.10000231969357,50.21414169311524C148.10000231969357,49.674140693115234,147.92000231969357,49.60214269311523,147.48800231969358,49.60214269311523C147.03200231969356,49.60214269311523,146.86400231969355,49.674140693115234,146.86400231969355,50.21414169311524C146.86400231969355,50.74214169311524,147.03200231969356,50.82614169311523,147.48800231969358,50.82614169311523ZM146.96000231969356,58.49414169311523L147.99200231969357,58.49414169311523L147.99200231969357,52.014141693115235L146.96000231969356,52.014141693115235L146.96000231969356,58.49414169311523ZM153.28400231969357,51.89414169311524C152.49200231969357,51.89414169311524,151.60400231969356,52.11014169311523,151.20800231969358,52.938141693115234L151.20800231969358,52.014141693115235L150.17600231969357,52.014141693115235L150.17600231969357,58.49414169311523L151.20800231969358,58.49414169311523L151.20800231969358,54.114141693115236C151.56800231969356,52.974141693115236,152.36000231969356,52.81814169311524,153.17600231969357,52.81814169311524C154.20800231969358,52.81814169311524,154.41200231969356,53.39414169311523,154.41200231969356,54.39014169311523L154.41200231969356,58.49414169311523L155.45600231969357,58.49414169311523L155.45600231969357,54.00614169311523C155.45600231969357,52.770141693115235,154.97600231969358,51.89414169311524,153.28400231969357,51.89414169311524ZM162.00800231969356,52.014141693115235L162.00800231969356,53.22614169311523C161.75600231969358,52.45814169311524,161.21600231969356,51.89414169311524,159.90800231969357,51.89414169311524C157.74800231969357,51.89414169311524,157.22000231969358,53.40614169311523,157.22000231969358,55.194141693115235C157.22000231969358,57.17414169311523,157.74800231969357,58.49414169311523,159.90800231969357,58.49414169311523C161.15600231969356,58.49414169311523,161.74400231969358,58.038141693115236,162.00800231969356,57.282141693115236L162.00800231969356,57.93014169311523C162.00800231969356,59.41814169311523,161.32400231969356,60.00614169311523,159.88400231969356,60.00614169311523C159.33200231969357,60.00614169311523,158.79200231969355,59.95814169311524,158.30000231969356,59.862141693115234L158.30000231969356,60.73814169311524C158.70800231969358,60.822141693115235,159.32000231969357,60.89414169311523,159.87200231969356,60.89414169311523C162.06800231969356,60.89414169311523,163.04000231969357,59.82614169311523,163.04000231969357,58.038141693115236L163.04000231969357,52.014141693115235L162.00800231969356,52.014141693115235ZM160.05200231969357,57.630141693115235C158.52800231969357,57.630141693115235,158.32400231969356,56.550141693115236,158.32400231969356,55.194141693115235C158.32400231969356,53.93414169311524,158.49200231969357,52.758141693115235,160.05200231969357,52.758141693115235C161.61200231969357,52.758141693115235,162.04400231969356,53.706141693115235,162.04400231969356,55.194141693115235C162.04400231969356,56.74214169311524,161.61200231969357,57.630141693115235,160.05200231969357,57.630141693115235ZM1.0880023196935653,69.82614169311523C1.5200023196935655,69.82614169311523,1.7000023196935654,69.74214169311523,1.7000023196935654,69.21414169311524C1.7000023196935654,68.67414169311523,1.5200023196935655,68.60214169311524,1.0880023196935653,68.60214169311524C0.6320023196935654,68.60214169311524,0.46400231969356537,68.67414169311523,0.46400231969356537,69.21414169311524C0.46400231969356537,69.74214169311523,0.6320023196935654,69.82614169311523,1.0880023196935653,69.82614169311523ZM0.5600023196935653,77.49414169311524L1.5920023196935653,77.49414169311524L1.5920023196935653,71.01414169311523L0.5600023196935653,71.01414169311523L0.5600023196935653,77.49414169311524ZM8.192002319693565,68.37414169311523L8.192002319693565,72.14214169311524C7.928002319693565,71.38614169311523,7.3520023196935655,70.89414169311523,6.080002319693565,70.89414169311523C3.932002319693565,70.89414169311523,3.404002319693565,72.47814169311523,3.404002319693565,74.25414169311523C3.404002319693565,76.23414169311523,3.932002319693565,77.61414169311523,6.080002319693565,77.61414169311523C7.2560023196935655,77.61414169311523,7.940002319693566,77.11014169311524,8.192002319693565,76.42614169311523L8.348002319693565,77.49414169311524L9.224002319693565,77.49414169311524L9.224002319693565,68.37414169311523L8.192002319693565,68.37414169311523ZM6.236002319693565,76.73814169311524C4.712002319693565,76.73814169311524,4.508002319693565,75.61014169311524,4.508002319693565,74.25414169311523C4.508002319693565,72.99414169311524,4.676002319693565,71.75814169311523,6.236002319693565,71.75814169311523C7.7960023196935655,71.75814169311523,8.228002319693566,72.76614169311523,8.228002319693566,74.25414169311523C8.228002319693566,75.80214169311523,7.7960023196935655,76.73814169311524,6.236002319693565,76.73814169311524ZM16.544002319693565,73.60614169311523C16.544002319693565,72.34614169311524,16.160002319693564,70.89414169311523,13.952002319693566,70.89414169311523C12.104002319693565,70.89414169311523,11.012002319693565,71.67414169311523,11.012002319693565,74.25414169311523C11.012002319693565,76.83414169311524,12.104002319693565,77.61414169311523,14.012002319693565,77.61414169311523C14.936002319693566,77.61414169311523,15.824002319693566,77.42214169311524,16.196002319693566,77.23014169311523L16.196002319693566,76.28214169311524C15.704002319693565,76.52214169311523,14.876002319693566,76.70214169311524,14.168002319693565,76.70214169311524C12.596002319693566,76.70214169311524,12.104002319693565,76.05414169311524,12.092002319693565,74.63814169311523L16.484002319693566,74.36214169311523C16.520002319693564,74.06214169311524,16.544002319693565,73.78614169311524,16.544002319693565,73.60614169311523ZM12.092002319693565,73.87014169311523C12.128002319693566,72.55014169311524,12.464002319693565,71.74614169311523,13.952002319693566,71.74614169311523C15.356002319693566,71.74614169311523,15.524002319693565,72.62214169311524,15.524002319693565,73.61814169311523L12.092002319693565,73.87014169311523ZM20.900002319693566,70.89414169311523C20.432002319693567,70.89414169311523,19.904002319693564,70.93014169311523,19.424002319693564,70.99014169311523L19.424002319693564,71.90214169311523C19.892002319693564,71.80614169311524,20.420002319693566,71.75814169311523,20.852002319693565,71.75814169311523C22.172002319693565,71.75814169311523,22.448002319693565,72.29814169311524,22.448002319693565,73.07814169311524L22.448002319693565,73.61814169311523L20.468002319693564,73.61814169311523C18.920002319693566,73.61814169311523,17.900002319693566,74.14614169311523,17.900002319693566,75.68214169311523C17.900002319693566,76.90614169311523,18.584002319693564,77.61414169311523,20.132002319693566,77.61414169311523C21.104002319693567,77.61414169311523,22.076002319693565,77.21814169311523,22.448002319693565,76.51014169311523L22.604002319693567,77.49414169311524L23.480002319693565,77.49414169311524L23.480002319693565,72.89814169311524C23.480002319693565,71.73414169311523,22.940002319693566,70.89414169311523,20.900002319693566,70.89414169311523ZM20.228002319693566,76.75014169311524C19.316002319693567,76.75014169311524,18.968002319693564,76.37814169311524,18.968002319693564,75.67014169311523C18.968002319693564,74.66214169311523,19.472002319693566,74.44614169311524,20.540002319693567,74.44614169311524L22.448002319693565,74.44614169311524L22.448002319693565,75.51414169311523C22.112002319693566,76.28214169311524,21.308002319693564,76.75014169311524,20.228002319693566,76.75014169311524ZM27.176002319693566,77.56614169311524C28.760002319693566,77.56614169311524,29.636002319693567,76.97814169311523,29.636002319693567,75.69414169311523C29.636002319693567,74.44614169311524,29.096002319693564,74.03814169311524,27.608002319693565,73.70214169311524C26.600002319693566,73.47414169311523,26.372002319693564,73.33014169311524,26.372002319693564,72.67014169311523C26.372002319693564,71.93814169311523,26.828002319693564,71.73414169311523,27.740002319693566,71.73414169311523C28.340002319693564,71.73414169311523,28.916002319693565,71.84214169311524,29.288002319693565,71.98614169311523L29.360002319693564,71.11014169311524C29.048002319693566,70.99014169311523,28.352002319693565,70.89414169311523,27.728002319693566,70.89414169311523C26.192002319693565,70.89414169311523,25.400002319693566,71.60214169311524,25.400002319693566,72.64614169311523C25.400002319693566,73.73814169311524,25.784002319693567,74.19414169311523,27.212002319693564,74.51814169311524C28.448002319693565,74.80614169311524,28.664002319693566,74.96214169311523,28.664002319693566,75.73014169311523C28.664002319693566,76.48614169311523,28.148002319693564,76.72614169311524,27.164002319693566,76.72614169311524C26.576002319693565,76.72614169311524,25.748002319693565,76.60614169311523,25.292002319693566,76.47414169311523L25.292002319693566,77.36214169311523C25.652002319693565,77.47014169311524,26.552002319693564,77.56614169311524,27.176002319693566,77.56614169311524ZM30.788002319693565,79.12614169311523L31.640002319693565,79.12614169311523C32.216002319693565,78.35814169311524,32.91200231969356,77.00214169311523,32.91200231969356,75.97014169311524L31.916002319693565,75.97014169311524C31.916002319693565,76.87014169311523,31.436002319693564,78.13014169311523,30.788002319693565,79.12614169311523ZM41.240002319693566,70.89414169311523C40.448002319693565,70.89414169311523,39.56000231969357,71.11014169311524,39.164002319693566,71.93814169311523L39.164002319693566,68.37414169311523L38.13200231969356,68.37414169311523L38.13200231969356,77.49414169311524L39.164002319693566,77.49414169311524L39.164002319693566,73.11414169311523C39.524002319693565,71.97414169311523,40.31600231969357,71.81814169311524,41.13200231969356,71.81814169311524C42.164002319693566,71.81814169311524,42.38000231969357,72.39414169311523,42.38000231969357,73.39014169311523L42.38000231969357,77.49414169311524L43.41200231969356,77.49414169311524L43.41200231969356,73.00614169311524C43.41200231969356,71.77014169311524,42.93200231969357,70.89414169311523,41.240002319693566,70.89414169311523ZM48.116002319693564,70.89414169311523C47.64800231969357,70.89414169311523,47.12000231969357,70.93014169311523,46.640002319693565,70.99014169311523L46.640002319693565,71.90214169311523C47.10800231969357,71.80614169311524,47.63600231969357,71.75814169311523,48.06800231969356,71.75814169311523C49.38800231969356,71.75814169311523,49.664002319693566,72.29814169311524,49.664002319693566,73.07814169311524L49.664002319693566,73.61814169311523L47.68400231969356,73.61814169311523C46.13600231969357,73.61814169311523,45.116002319693564,74.14614169311523,45.116002319693564,75.68214169311523C45.116002319693564,76.90614169311523,45.80000231969357,77.61414169311523,47.34800231969356,77.61414169311523C48.320002319693565,77.61414169311523,49.292002319693566,77.21814169311523,49.664002319693566,76.51014169311523L49.820002319693565,77.49414169311524L50.69600231969356,77.49414169311524L50.69600231969356,72.89814169311524C50.69600231969356,71.73414169311523,50.15600231969356,70.89414169311523,48.116002319693564,70.89414169311523ZM47.44400231969357,76.75014169311524C46.53200231969357,76.75014169311524,46.18400231969356,76.37814169311524,46.18400231969356,75.67014169311523C46.18400231969356,74.66214169311523,46.68800231969357,74.44614169311524,47.756002319693565,74.44614169311524L49.664002319693566,74.44614169311524L49.664002319693566,75.51414169311523C49.32800231969357,76.28214169311524,48.524002319693565,76.75014169311524,47.44400231969357,76.75014169311524ZM55.988002319693564,70.89414169311523C55.20800231969356,70.89414169311523,54.332002319693565,71.11014169311524,53.924002319693564,72.19014169311524L53.924002319693564,71.01414169311523L52.89200231969357,71.01414169311523L52.89200231969357,77.49414169311524L53.924002319693564,77.49414169311524L53.924002319693564,73.25814169311523C54.28400231969356,72.10614169311523,55.100002319693566,71.83014169311524,55.92800231969357,71.83014169311524L56.07200231969357,71.83014169311524L56.10800231969357,70.89414169311523L55.988002319693564,70.89414169311523ZM58.89200231969357,77.49414169311524L60.116002319693564,77.49414169311524L62.54000231969356,71.01414169311523L61.448002319693565,71.01414169311523L59.552002319693564,76.46214169311523L59.48000231969357,76.46214169311523L57.512002319693565,71.01414169311523L56.46800231969357,71.01414169311523L58.89200231969357,77.49414169311524ZM68.78000231969357,73.60614169311523C68.78000231969357,72.34614169311524,68.39600231969357,70.89414169311523,66.18800231969357,70.89414169311523C64.34000231969357,70.89414169311523,63.24800231969356,71.67414169311523,63.24800231969356,74.25414169311523C63.24800231969356,76.83414169311524,64.34000231969357,77.61414169311523,66.24800231969357,77.61414169311523C67.17200231969356,77.61414169311523,68.06000231969357,77.42214169311524,68.43200231969357,77.23014169311523L68.43200231969357,76.28214169311524C67.94000231969356,76.52214169311523,67.11200231969356,76.70214169311524,66.40400231969356,76.70214169311524C64.83200231969357,76.70214169311524,64.34000231969357,76.05414169311524,64.32800231969357,74.63814169311523L68.72000231969356,74.36214169311523C68.75600231969356,74.06214169311524,68.78000231969357,73.78614169311524,68.78000231969357,73.60614169311523ZM64.32800231969357,73.87014169311523C64.36400231969357,72.55014169311524,64.70000231969357,71.74614169311523,66.18800231969357,71.74614169311523C67.59200231969356,71.74614169311523,67.76000231969357,72.62214169311524,67.76000231969357,73.61814169311523L64.32800231969357,73.87014169311523ZM72.06800231969356,77.56614169311524C73.65200231969357,77.56614169311524,74.52800231969357,76.97814169311523,74.52800231969357,75.69414169311523C74.52800231969357,74.44614169311524,73.98800231969356,74.03814169311524,72.50000231969356,73.70214169311524C71.49200231969357,73.47414169311523,71.26400231969356,73.33014169311524,71.26400231969356,72.67014169311523C71.26400231969356,71.93814169311523,71.72000231969356,71.73414169311523,72.63200231969357,71.73414169311523C73.23200231969356,71.73414169311523,73.80800231969357,71.84214169311524,74.18000231969357,71.98614169311523L74.25200231969356,71.11014169311524C73.94000231969356,70.99014169311523,73.24400231969356,70.89414169311523,72.62000231969357,70.89414169311523C71.08400231969357,70.89414169311523,70.29200231969357,71.60214169311524,70.29200231969357,72.64614169311523C70.29200231969357,73.73814169311524,70.67600231969357,74.19414169311523,72.10400231969356,74.51814169311524C73.34000231969357,74.80614169311524,73.55600231969356,74.96214169311523,73.55600231969356,75.73014169311523C73.55600231969356,76.48614169311523,73.04000231969357,76.72614169311524,72.05600231969356,76.72614169311524C71.46800231969357,76.72614169311524,70.64000231969356,76.60614169311523,70.18400231969356,76.47414169311523L70.18400231969356,77.36214169311523C70.54400231969356,77.47014169311524,71.44400231969357,77.56614169311524,72.06800231969356,77.56614169311524ZM78.33200231969357,76.70214169311524C77.54000231969357,76.70214169311524,77.39600231969357,76.46214169311523,77.39600231969357,75.45414169311523L77.39600231969357,71.87814169311524L79.00400231969357,71.87814169311524L79.00400231969357,71.01414169311523L77.39600231969357,71.01414169311523L77.39600231969357,69.47814169311523L76.36400231969357,69.47814169311523L76.36400231969357,71.01414169311523L75.40400231969356,71.01414169311523L75.40400231969356,71.87814169311524L76.36400231969357,71.87814169311524L76.36400231969357,75.51414169311523C76.36400231969357,77.21814169311523,76.88000231969356,77.56614169311524,78.30800231969357,77.56614169311524C78.58400231969357,77.56614169311524,78.78800231969356,77.54214169311524,79.04000231969357,77.50614169311524L79.04000231969357,76.63014169311523C78.81200231969356,76.67814169311524,78.62000231969357,76.70214169311524,78.33200231969357,76.70214169311524ZM80.88800231969357,69.82614169311523C81.32000231969357,69.82614169311523,81.50000231969356,69.74214169311523,81.50000231969356,69.21414169311524C81.50000231969356,68.67414169311523,81.32000231969357,68.60214169311524,80.88800231969357,68.60214169311524C80.43200231969357,68.60214169311524,80.26400231969356,68.67414169311523,80.26400231969356,69.21414169311524C80.26400231969356,69.74214169311523,80.43200231969357,69.82614169311523,80.88800231969357,69.82614169311523ZM80.36000231969356,77.49414169311524L81.39200231969356,77.49414169311524L81.39200231969356,71.01414169311523L80.36000231969356,71.01414169311523L80.36000231969356,77.49414169311524ZM86.68400231969356,70.89414169311523C85.89200231969356,70.89414169311523,85.00400231969357,71.11014169311524,84.60800231969357,71.93814169311523L84.60800231969357,71.01414169311523L83.57600231969357,71.01414169311523L83.57600231969357,77.49414169311524L84.60800231969357,77.49414169311524L84.60800231969357,73.11414169311523C84.96800231969357,71.97414169311523,85.76000231969357,71.81814169311524,86.57600231969357,71.81814169311524C87.60800231969357,71.81814169311524,87.81200231969356,72.39414169311523,87.81200231969356,73.39014169311523L87.81200231969356,77.49414169311524L88.85600231969356,77.49414169311524L88.85600231969356,73.00614169311524C88.85600231969356,71.77014169311524,88.37600231969357,70.89414169311523,86.68400231969356,70.89414169311523ZM95.40800231969357,71.01414169311523L95.40800231969357,72.22614169311524C95.15600231969357,71.45814169311524,94.61600231969356,70.89414169311523,93.30800231969357,70.89414169311523C91.14800231969356,70.89414169311523,90.62000231969357,72.40614169311523,90.62000231969357,74.19414169311523C90.62000231969357,76.17414169311523,91.14800231969356,77.49414169311524,93.30800231969357,77.49414169311524C94.55600231969356,77.49414169311524,95.14400231969357,77.03814169311524,95.40800231969357,76.28214169311524L95.40800231969357,76.93014169311523C95.40800231969357,78.41814169311523,94.72400231969357,79.00614169311524,93.28400231969357,79.00614169311524C92.73200231969356,79.00614169311524,92.19200231969357,78.95814169311524,91.70000231969357,78.86214169311523L91.70000231969357,79.73814169311524C92.10800231969357,79.82214169311524,92.72000231969356,79.89414169311523,93.27200231969357,79.89414169311523C95.46800231969357,79.89414169311523,96.44000231969356,78.82614169311523,96.44000231969356,77.03814169311524L96.44000231969356,71.01414169311523L95.40800231969357,71.01414169311523ZM93.45200231969356,76.63014169311523C91.92800231969356,76.63014169311523,91.72400231969357,75.55014169311524,91.72400231969357,74.19414169311523C91.72400231969357,72.93414169311524,91.89200231969356,71.75814169311523,93.45200231969356,71.75814169311523C95.01200231969356,71.75814169311523,95.44400231969357,72.70614169311523,95.44400231969357,74.19414169311523C95.44400231969357,75.74214169311523,95.01200231969356,76.63014169311523,93.45200231969356,76.63014169311523ZM106.12400231969356,68.37414169311523L106.12400231969356,72.14214169311524C105.86000231969356,71.38614169311523,105.28400231969357,70.89414169311523,104.01200231969356,70.89414169311523C101.86400231969357,70.89414169311523,101.33600231969356,72.47814169311523,101.33600231969356,74.25414169311523C101.33600231969356,76.23414169311523,101.86400231969357,77.61414169311523,104.01200231969356,77.61414169311523C105.18800231969357,77.61414169311523,105.87200231969356,77.11014169311524,106.12400231969356,76.42614169311523L106.28000231969357,77.49414169311524L107.15600231969357,77.49414169311524L107.15600231969357,68.37414169311523L106.12400231969356,68.37414169311523ZM104.16800231969357,76.73814169311524C102.64400231969357,76.73814169311524,102.44000231969356,75.61014169311524,102.44000231969356,74.25414169311523C102.44000231969356,72.99414169311524,102.60800231969357,71.75814169311523,104.16800231969357,71.75814169311523C105.72800231969356,71.75814169311523,106.16000231969356,72.76614169311523,106.16000231969356,74.25414169311523C106.16000231969356,75.80214169311523,105.72800231969356,76.73814169311524,104.16800231969357,76.73814169311524ZM114.47600231969356,73.60614169311523C114.47600231969356,72.34614169311524,114.09200231969356,70.89414169311523,111.88400231969356,70.89414169311523C110.03600231969357,70.89414169311523,108.94400231969357,71.67414169311523,108.94400231969357,74.25414169311523C108.94400231969357,76.83414169311524,110.03600231969357,77.61414169311523,111.94400231969357,77.61414169311523C112.86800231969356,77.61414169311523,113.75600231969356,77.42214169311524,114.12800231969356,77.23014169311523L114.12800231969356,76.28214169311524C113.63600231969356,76.52214169311523,112.80800231969357,76.70214169311524,112.10000231969356,76.70214169311524C110.52800231969357,76.70214169311524,110.03600231969357,76.05414169311524,110.02400231969357,74.63814169311523L114.41600231969356,74.36214169311523C114.45200231969356,74.06214169311524,114.47600231969356,73.78614169311524,114.47600231969356,73.60614169311523ZM110.02400231969357,73.87014169311523C110.06000231969357,72.55014169311524,110.39600231969357,71.74614169311523,111.88400231969356,71.74614169311523C113.28800231969356,71.74614169311523,113.45600231969357,72.62214169311524,113.45600231969357,73.61814169311523L110.02400231969357,73.87014169311523ZM117.76400231969356,77.56614169311524C119.34800231969356,77.56614169311524,120.22400231969357,76.97814169311523,120.22400231969357,75.69414169311523C120.22400231969357,74.44614169311524,119.68400231969356,74.03814169311524,118.19600231969356,73.70214169311524C117.18800231969357,73.47414169311523,116.96000231969357,73.33014169311524,116.96000231969357,72.67014169311523C116.96000231969357,71.93814169311523,117.41600231969356,71.73414169311523,118.32800231969357,71.73414169311523C118.92800231969356,71.73414169311523,119.50400231969357,71.84214169311524,119.87600231969357,71.98614169311523L119.94800231969357,71.11014169311524C119.63600231969356,70.99014169311523,118.94000231969356,70.89414169311523,118.31600231969357,70.89414169311523C116.78000231969357,70.89414169311523,115.98800231969356,71.60214169311524,115.98800231969356,72.64614169311523C115.98800231969356,73.73814169311524,116.37200231969356,74.19414169311523,117.80000231969356,74.51814169311524C119.03600231969357,74.80614169311524,119.25200231969356,74.96214169311523,119.25200231969356,75.73014169311523C119.25200231969356,76.48614169311523,118.73600231969357,76.72614169311524,117.75200231969356,76.72614169311524C117.16400231969357,76.72614169311524,116.33600231969356,76.60614169311523,115.88000231969356,76.47414169311523L115.88000231969356,77.36214169311523C116.24000231969356,77.47014169311524,117.14000231969356,77.56614169311524,117.76400231969356,77.56614169311524ZM122.54000231969357,69.82614169311523C122.97200231969356,69.82614169311523,123.15200231969357,69.74214169311523,123.15200231969357,69.21414169311524C123.15200231969357,68.67414169311523,122.97200231969356,68.60214169311524,122.54000231969357,68.60214169311524C122.08400231969357,68.60214169311524,121.91600231969356,68.67414169311523,121.91600231969356,69.21414169311524C121.91600231969356,69.74214169311523,122.08400231969357,69.82614169311523,122.54000231969357,69.82614169311523ZM122.01200231969356,77.49414169311524L123.04400231969356,77.49414169311524L123.04400231969356,71.01414169311523L122.01200231969356,71.01414169311523L122.01200231969356,77.49414169311524ZM129.64400231969356,71.01414169311523L129.64400231969356,72.22614169311524C129.39200231969357,71.45814169311524,128.85200231969355,70.89414169311523,127.54400231969356,70.89414169311523C125.38400231969356,70.89414169311523,124.85600231969356,72.40614169311523,124.85600231969356,74.19414169311523C124.85600231969356,76.17414169311523,125.38400231969356,77.49414169311524,127.54400231969356,77.49414169311524C128.79200231969355,77.49414169311524,129.38000231969357,77.03814169311524,129.64400231969356,76.28214169311524L129.64400231969356,76.93014169311523C129.64400231969356,78.41814169311523,128.96000231969356,79.00614169311524,127.52000231969356,79.00614169311524C126.96800231969357,79.00614169311524,126.42800231969356,78.95814169311524,125.93600231969357,78.86214169311523L125.93600231969357,79.73814169311524C126.34400231969356,79.82214169311524,126.95600231969357,79.89414169311523,127.50800231969356,79.89414169311523C129.70400231969356,79.89414169311523,130.67600231969357,78.82614169311523,130.67600231969357,77.03814169311524L130.67600231969357,71.01414169311523L129.64400231969356,71.01414169311523ZM127.68800231969357,76.63014169311523C126.16400231969357,76.63014169311523,125.96000231969357,75.55014169311524,125.96000231969357,74.19414169311523C125.96000231969357,72.93414169311524,126.12800231969356,71.75814169311523,127.68800231969357,71.75814169311523C129.24800231969357,71.75814169311523,129.68000231969356,72.70614169311523,129.68000231969356,74.19414169311523C129.68000231969356,75.74214169311523,129.24800231969357,76.63014169311523,127.68800231969357,76.63014169311523ZM135.96800231969357,70.89414169311523C135.17600231969357,70.89414169311523,134.28800231969356,71.11014169311524,133.89200231969357,71.93814169311523L133.89200231969357,71.01414169311523L132.86000231969356,71.01414169311523L132.86000231969356,77.49414169311524L133.89200231969357,77.49414169311524L133.89200231969357,73.11414169311523C134.25200231969356,71.97414169311523,135.04400231969356,71.81814169311524,135.86000231969356,71.81814169311524C136.89200231969357,71.81814169311524,137.09600231969355,72.39414169311523,137.09600231969355,73.39014169311523L137.09600231969355,77.49414169311524L138.14000231969356,77.49414169311524L138.14000231969356,73.00614169311524C138.14000231969356,71.77014169311524,137.66000231969358,70.89414169311523,135.96800231969357,70.89414169311523ZM141.77600231969356,77.56614169311524C143.36000231969356,77.56614169311524,144.23600231969357,76.97814169311523,144.23600231969357,75.69414169311523C144.23600231969357,74.44614169311524,143.69600231969358,74.03814169311524,142.20800231969358,73.70214169311524C141.20000231969357,73.47414169311523,140.97200231969356,73.33014169311524,140.97200231969356,72.67014169311523C140.97200231969356,71.93814169311523,141.42800231969358,71.73414169311523,142.34000231969355,71.73414169311523C142.94000231969358,71.73414169311523,143.51600231969357,71.84214169311524,143.88800231969356,71.98614169311523L143.96000231969356,71.11014169311524C143.64800231969357,70.99014169311523,142.95200231969358,70.89414169311523,142.32800231969355,70.89414169311523C140.79200231969355,70.89414169311523,140.00000231969358,71.60214169311524,140.00000231969358,72.64614169311523C140.00000231969358,73.73814169311524,140.38400231969356,74.19414169311523,141.81200231969356,74.51814169311524C143.04800231969355,74.80614169311524,143.26400231969356,74.96214169311523,143.26400231969356,75.73014169311523C143.26400231969356,76.48614169311523,142.74800231969357,76.72614169311524,141.76400231969356,76.72614169311524C141.17600231969357,76.72614169311524,140.34800231969356,76.60614169311523,139.89200231969357,76.47414169311523L139.89200231969357,77.36214169311523C140.25200231969356,77.47014169311524,141.15200231969357,77.56614169311524,141.77600231969356,77.56614169311524ZM146.74400231969358,77.56614169311524C147.29600231969357,77.56614169311524,147.51200231969358,77.47014169311524,147.51200231969358,76.79814169311524C147.51200231969358,76.15014169311523,147.29600231969357,76.05414169311524,146.74400231969358,76.05414169311524C146.18000231969356,76.05414169311524,145.97600231969358,76.15014169311523,145.97600231969358,76.79814169311524C145.97600231969358,77.47014169311524,146.18000231969356,77.56614169311524,146.74400231969358,77.56614169311524Z" fill="#FFFFFF" fill-opacity="1"/></g></g></g></svg>