<svg xmlns="http://www.w3.org/2000/svg" xmlns:xlink="http://www.w3.org/1999/xlink" fill="none" version="1.1" width="195.1279296875" height="60.93603515625" viewBox="0 0 195.1279296875 60.93603515625"><g><g><g><path d="M1.3820035424232482,5.460010742194718L2.3760035424232484,5.460010742194718L2.3760035424232484,12.950010742194717L1.3820035424232482,12.950010742194717L1.3820035424232482,5.460010742194718ZM9.460003542423248,12.894010742194718L9.222003542423248,11.984010742194718L10.538003542423247,12.012010742194718Q11.070003542423247,12.012010742194718,11.070003542423247,11.396010742194719L11.070003542423247,4.872010742194718L5.638003542423248,4.872010742194718L5.638003542423248,3.9480107421947177L12.064003542423249,3.9480107421947177L12.064003542423249,11.676010742194718Q12.064003542423249,12.894010742194718,10.748003542423248,12.894010742194718L9.460003542423248,12.894010742194718ZM4.1820035424232485,6.118010742194718L9.236003542423248,6.118010742194718L9.236003542423248,11.396010742194719L4.1820035424232485,11.396010742194719L4.1820035424232485,6.118010742194718ZM8.298003542423249,10.542010742194718L8.298003542423249,9.142010742194717L5.148003542423249,9.142010742194717L5.148003542423249,10.542010742194718L8.298003542423249,10.542010742194718ZM5.148003542423249,8.330010742194718L8.298003542423249,8.330010742194718L8.298003542423249,6.958010742194718L5.148003542423249,6.958010742194718L5.148003542423249,8.330010742194718ZM2.7960035424232483,3.374010742194718Q3.9440035424232485,4.382010742194717,4.5040035424232485,5.068010742194717L3.762003542423248,5.586010742194718Q3.132003542423248,4.802010742194717,2.0540035424232483,3.8360107421947176L2.7960035424232483,3.374010742194718ZM2.4740035424232483,1.9880107421947177Q1.8860035424232482,2.982010742194718,1.2700035424232483,3.696010742194718L0.41600354242324833,3.1500107421947177Q1.6760035424232482,1.7500107421947177,2.2640035424232483,0.05601074219471775L3.2440035424232483,0.26601074219471776L2.9080035424232484,1.1060107421947178L6.604003542423248,1.1060107421947178L6.604003542423248,1.9880107421947177L4.5040035424232485,1.9880107421947177Q5.050003542423248,2.744010742194718,5.330003542423248,3.374010742194718L4.434003542423248,3.7100107421947177Q4.028003542423248,2.842010742194718,3.4400035424232485,1.9880107421947177L2.4740035424232483,1.9880107421947177ZM8.424003542423248,1.9880107421947177Q7.990003542423248,2.814010742194718,7.486003542423249,3.458010742194718L6.632003542423249,2.9120107421947177Q7.6820035424232485,1.5960107421947178,8.144003542423249,0.07001074219471776L9.110003542423248,0.2800107421947178Q8.970003542423248,0.7280107421947177,8.816003542423248,1.1060107421947178L12.904003542423249,1.1060107421947178L12.904003542423249,1.9880107421947177L10.580003542423249,1.9880107421947177Q11.028003542423248,2.6180107421947176,11.378003542423249,3.2620107421947178L10.482003542423248,3.5980107421947176Q10.062003542423248,2.744010742194718,9.502003542423248,1.9880107421947177L8.424003542423248,1.9880107421947177ZM22.50800354242325,4.816010742194718L23.51600354242325,4.816010742194718L23.51600354242325,12.824010742194718L22.50800354242325,12.824010742194718L22.50800354242325,4.816010742194718ZM17.79000354242325,4.858010742194717L18.79800354242325,4.858010742194717L18.79800354242325,7.392010742194718Q18.742003542423248,11.200010742194717,16.29200354242325,12.964010742194718L15.550003542423248,12.306010742194717Q17.74800354242325,10.780010742194717,17.79000354242325,7.392010742194718L17.79000354242325,4.858010742194717ZM21.052003542423247,0.16801074219471776Q23.642003542423247,3.2340107421947177,27.03000354242325,4.998010742194718L26.54000354242325,5.894010742194718Q23.12400354242325,4.074010742194718,20.68800354242325,1.1200107421947179Q18.47600354242325,3.934010742194718,14.864003542423248,6.020010742194717L14.374003542423248,5.124010742194717Q17.95800354242325,3.1220107421947176,20.32400354242325,0.16801074219471776L21.052003542423247,0.16801074219471776ZM31.18800354242325,3.0380107421947176Q31.56600354242325,3.0380107421947176,31.80400354242325,3.2760107421947176Q32.042003542423245,3.5140107421947175,32.042003542423245,3.8640107421947176Q32.042003542423245,4.2280107421947175,31.80400354242325,4.466010742194718Q31.538003542423247,4.7040107421947175,31.18800354242325,4.7040107421947175Q30.852003542423247,4.7040107421947175,30.58600354242325,4.466010742194718Q30.34800354242325,4.2280107421947175,30.34800354242325,3.8640107421947176Q30.34800354242325,3.5000107421947177,30.58600354242325,3.2760107421947176Q30.82400354242325,3.0380107421947176,31.18800354242325,3.0380107421947176ZM31.18800354242325,8.162010742194719Q31.56600354242325,8.162010742194719,31.80400354242325,8.400010742194718Q32.042003542423245,8.638010742194718,32.042003542423245,8.988010742194717Q32.042003542423245,9.352010742194718,31.80400354242325,9.590010742194718Q31.538003542423247,9.828010742194717,31.18800354242325,9.828010742194717Q30.852003542423247,9.828010742194717,30.58600354242325,9.590010742194718Q30.34800354242325,9.352010742194718,30.34800354242325,8.988010742194717Q30.34800354242325,8.624010742194718,30.58600354242325,8.400010742194718Q30.82400354242325,8.162010742194719,31.18800354242325,8.162010742194719ZM43.886003542423246,0.30801074219471775Q45.27200354242325,1.3860107421947176,46.22400354242325,2.4360107421947177L45.53800354242325,3.136010742194718Q44.65600354242325,2.0860107421947176,43.18600354242325,0.9660107421947177L43.886003542423246,0.30801074219471775ZM42.31800354242325,4.410010742194718L45.24400354242325,4.410010742194718L45.24400354242325,10.626010742194717Q46.112003542423246,9.898010742194717,46.868003542423246,9.184010742194717L47.14800354242325,10.248010742194717Q45.86000354242325,11.452010742194718,44.34800354242325,12.446010742194717L43.95600354242325,11.550010742194718Q44.26400354242325,11.242010742194719,44.26400354242325,10.920010742194718L44.26400354242325,5.376010742194718L42.31800354242325,5.376010742194718L42.31800354242325,4.410010742194718ZM47.28800354242325,6.048010742194718L53.95200354242325,6.048010742194718L53.95200354242325,6.972010742194718Q53.280003542423245,8.960010742194719,51.75400354242325,10.374010742194718Q53.15400354242325,11.340010742194718,55.240003542423246,12.110010742194717L54.694003542423246,12.978010742194718Q52.44000354242325,12.068010742194717,51.02600354242325,10.976010742194719Q49.38800354242325,12.208010742194718,46.88200354242325,12.978010742194718L46.322003542423246,12.124010742194718Q48.66000354242325,11.424010742194717,50.228003542423245,10.318010742194717Q48.64600354242325,8.862010742194718,48.05800354242325,7.028010742194717L47.28800354242325,7.028010742194717L47.28800354242325,6.048010742194718ZM49.01000354242325,7.028010742194717Q49.55600354242325,8.554010742194718,50.94200354242325,9.744010742194718Q52.30000354242325,8.554010742194718,52.95800354242325,7.028010742194717L49.01000354242325,7.028010742194717ZM48.36600354242325,0.6440107421947178L53.07000354242325,0.6440107421947178L53.07000354242325,3.668010742194718Q53.07000354242325,4.200010742194718,53.61600354242325,4.200010742194718L54.90400354242325,4.200010742194718L54.90400354242325,5.124010742194717L53.36400354242325,5.124010742194717Q52.07600354242325,5.124010742194717,52.07600354242325,3.878010742194718L52.07600354242325,1.5960107421947178L49.36000354242325,1.5960107421947178L49.36000354242325,2.0860107421947176Q49.36000354242325,4.298010742194718,47.20400354242325,5.530010742194718L46.53200354242325,4.7600107421947175Q48.36600354242325,3.850010742194718,48.36600354242325,2.1980107421947177L48.36600354242325,0.6440107421947178ZM60.70000354242325,4.298010742194718L64.49400354242324,4.298010742194718L64.49400354242324,0.08401074219471776L65.53000354242324,0.08401074219471776L65.53000354242324,4.298010742194718L69.12800354242324,4.298010742194718L69.12800354242324,5.306010742194718L65.53000354242324,5.306010742194718L65.53000354242324,12.964010742194718L64.49400354242324,12.964010742194718L64.49400354242324,5.306010742194718L60.70000354242325,5.306010742194718L60.70000354242325,4.298010742194718ZM57.95600354242325,0.23801074219471774Q59.39800354242325,1.3160107421947178,60.350003542423245,2.394010742194718L59.664003542423245,3.0940107421947176Q58.79600354242325,2.072010742194718,57.25600354242325,0.9240107421947178L57.95600354242325,0.23801074219471774ZM56.31800354242325,4.382010742194717L59.34200354242325,4.382010742194717L59.34200354242325,10.612010742194718Q60.322003542423246,9.786010742194717,60.99400354242325,9.156010742194718L61.246003542423246,10.192010742194718Q59.98600354242325,11.410010742194718,58.44600354242325,12.432010742194718L58.054003542423246,11.522010742194718Q58.37600354242325,11.270010742194717,58.37600354242325,10.934010742194717L58.37600354242325,5.348010742194718L56.31800354242325,5.348010742194718L56.31800354242325,4.382010742194717ZM75.20400354242325,0.6720107421947178L83.05800354242325,0.6720107421947178L83.05800354242325,1.6520107421947177L79.62800354242324,1.6520107421947177L79.62800354242324,3.374010742194718L82.51200354242324,3.374010742194718L82.51200354242324,10.234010742194718Q82.51200354242324,11.396010742194719,81.44800354242325,11.396010742194719L80.49600354242325,11.396010742194719L80.23000354242325,10.416010742194718L81.12600354242325,10.472010742194717Q81.54600354242325,10.472010742194717,81.54600354242325,10.024010742194717L81.54600354242325,4.312010742194718L79.62800354242324,4.312010742194718L79.62800354242324,12.880010742194719L78.64800354242325,12.880010742194719L78.64800354242325,4.312010742194718L76.73000354242325,4.312010742194718L76.73000354242325,11.494010742194718L75.76400354242325,11.494010742194718L75.76400354242325,3.374010742194718L78.64800354242325,3.374010742194718L78.64800354242325,1.6520107421947177L75.20400354242325,1.6520107421947177L75.20400354242325,0.6720107421947178ZM70.90600354242325,2.0020107421947175L71.88600354242325,2.0020107421947175L71.88600354242325,9.366010742194717L70.90600354242325,9.366010742194717L70.90600354242325,2.0020107421947175ZM73.37000354242325,0.16801074219471776L74.35000354242325,0.16801074219471776L74.35000354242325,6.832010742194718Q74.29400354242325,11.004010742194717,71.49400354242324,12.936010742194718L70.73800354242324,12.278010742194718Q73.32800354242325,10.570010742194718,73.37000354242325,6.832010742194718L73.37000354242325,0.16801074219471776ZM89.35800354242325,12.474010742194718Q87.90200354242324,12.474010742194718,87.90200354242324,11.060010742194718L87.90200354242324,3.0240107421947178L88.91000354242325,3.0240107421947178L88.91000354242325,10.850010742194717Q88.91000354242325,11.480010742194718,89.66600354242325,11.480010742194718L92.29800354242325,11.480010742194718Q92.80200354242325,11.480010742194718,93.01200354242324,11.074010742194718Q93.27800354242325,10.556010742194717,93.37600354242325,8.120010742194717L94.32800354242325,8.442010742194718Q94.16000354242325,11.326010742194718,93.72600354242324,11.942010742194718Q93.32000354242325,12.474010742194718,92.48000354242325,12.474010742194718L89.35800354242325,12.474010742194718ZM86.79600354242325,4.718010742194718Q86.20800354242324,8.330010742194718,85.11600354242324,10.934010742194717L84.24800354242325,10.388010742194718Q85.31200354242324,7.784010742194718,85.83000354242324,4.522010742194718L86.79600354242325,4.718010742194718ZM94.84600354242325,4.088010742194718Q96.16200354242325,6.748010742194718,97.18400354242326,9.898010742194717L96.26000354242325,10.318010742194717Q95.16800354242325,6.958010742194718,93.86600354242324,4.410010742194718L94.84600354242325,4.088010742194718ZM89.80600354242326,0.15401074219471775Q91.76600354242325,2.212010742194718,92.77400354242324,3.724010742194718L91.93400354242326,4.298010742194718Q90.78600354242324,2.5620107421947176,88.96600354242325,0.6720107421947178L89.80600354242326,0.15401074219471775ZM103.72200354242325,2.1420107421947177Q103.30200354242325,2.814010742194718,102.93800354242325,3.290010742194718L110.05000354242325,3.290010742194718L109.93800354242325,6.566010742194718L111.12800354242324,6.566010742194718L111.12800354242324,7.504010742194717L109.89600354242324,7.504010742194717Q109.78400354242325,9.660010742194718,109.75600354242324,9.996010742194718L110.90400354242325,9.996010742194718L110.90400354242325,10.864010742194719L109.68600354242325,10.864010742194719Q109.63000354242325,11.382010742194717,109.57400354242324,11.606010742194718Q109.36400354242325,12.278010742194718,108.77600354242325,12.614010742194719Q108.18800354242325,12.908010742194717,107.06800354242324,12.908010742194717L105.85000354242325,12.922010742194718L105.55600354242326,11.998010742194717Q106.56400354242325,12.054010742194718,106.94200354242325,12.054010742194718Q107.47400354242325,12.054010742194718,107.96400354242324,11.942010742194718Q108.42600354242325,11.788010742194718,108.63600354242325,11.312010742194717Q108.67800354242326,11.214010742194718,108.72000354242324,10.864010742194719L102.05600354242326,10.864010742194719Q102.43400354242326,9.002010742194718,102.61600354242324,7.504010742194717L101.21600354242325,7.504010742194717L101.21600354242325,6.566010742194718L102.71400354242324,6.566010742194718Q102.88200354242325,4.956010742194718,102.92400354242325,3.3040107421947176Q102.49000354242325,3.8640107421947176,102.00000354242324,4.354010742194718L101.35600354242325,3.584010742194718Q102.78400354242325,2.2260107421947177,103.68000354242325,0.000010742194717749953L104.68800354242325,0.21001074219471774Q104.49200354242325,0.7000107421947177,104.24000354242325,1.2040107421947177L110.70800354242324,1.2040107421947177L110.70800354242324,2.1420107421947177L103.72200354242325,2.1420107421947177ZM103.56800354242324,7.504010742194717Q103.38600354242325,8.974010742194718,103.17600354242325,9.996010742194718L108.80400354242325,9.996010742194718L108.94400354242325,7.504010742194717L103.56800354242324,7.504010742194717ZM108.98600354242325,6.566010742194718L109.07000354242325,4.186010742194718L103.83400354242325,4.186010742194718Q103.76400354242325,5.460010742194718,103.66600354242325,6.566010742194718L108.98600354242325,6.566010742194718ZM105.71000354242325,4.424010742194718Q106.73200354242324,5.082010742194718,107.47400354242325,5.796010742194718L106.83000354242324,6.440010742194718Q106.22800354242325,5.796010742194718,105.08000354242324,5.040010742194718L105.71000354242325,4.424010742194718ZM105.58400354242325,7.6720107421947175Q106.59200354242324,8.400010742194718,107.33400354242325,9.184010742194717L106.67600354242325,9.828010742194717Q106.03200354242325,9.100010742194717,104.95400354242325,8.288010742194718L105.58400354242325,7.6720107421947175ZM99.29800354242325,0.33601074219471777Q100.55800354242325,1.1620107421947177,101.45400354242325,2.0580107421947176L100.74000354242325,2.786010742194718Q99.92800354242326,1.9320107421947177,98.58400354242325,1.0220107421947178L99.29800354242325,0.33601074219471777ZM99.08800354242325,3.7380107421947177Q100.30600354242326,4.592010742194717,101.23000354242325,5.516010742194718L100.51600354242325,6.230010742194718Q99.76000354242325,5.418010742194718,98.36000354242324,4.4380107421947175L99.08800354242325,3.7380107421947177ZM101.37000354242325,8.148010742194717Q100.44600354242324,10.724010742194718,99.41000354242325,12.754010742194717L98.47200354242325,12.348010742194719Q99.62000354242325,10.164010742194717,100.50200354242325,7.812010742194718L101.37000354242325,8.148010742194717ZM117.34400354242325,2.5200107421947178L117.34400354242325,12.068010742194717L116.36400354242325,12.068010742194717L116.36400354242325,11.270010742194717L113.81600354242325,11.270010742194717L113.81600354242325,12.474010742194718L112.83600354242324,12.474010742194718L112.83600354242324,2.5200107421947178L114.13800354242325,2.5200107421947178Q114.54400354242325,1.3720107421947179,114.74000354242325,0.08401074219471776L115.74800354242325,0.22401074219471775Q115.48200354242324,1.5540107421947178,115.09000354242325,2.5200107421947178L117.34400354242325,2.5200107421947178ZM113.81600354242325,10.332010742194718L116.36400354242325,10.332010742194718L116.36400354242325,7.266010742194718L113.81600354242325,7.266010742194718L113.81600354242325,10.332010742194718ZM113.81600354242325,6.356010742194718L116.36400354242325,6.356010742194718L116.36400354242325,3.4720107421947177L113.81600354242325,3.4720107421947177L113.81600354242325,6.356010742194718ZM119.78000354242324,5.7680107421947175Q121.23600354242325,7.434010742194718,122.07600354242325,8.820010742194718L121.27800354242325,9.380010742194719Q120.42400354242325,7.9940107421947175,118.96800354242325,6.272010742194718L119.78000354242324,5.7680107421947175ZM124.58200354242325,2.5340107421947176Q124.58200354242325,9.520010742194717,124.37200354242324,11.158010742194717Q124.16200354242325,12.768010742194718,122.41200354242325,12.768010742194718L120.98400354242325,12.712010742194717L120.74600354242325,11.788010742194718Q121.62800354242324,11.830010742194718,122.27200354242325,11.830010742194718Q123.25200354242325,11.830010742194718,123.42000354242325,10.752010742194718Q123.54600354242325,9.576010742194718,123.58800354242325,3.5140107421947175L119.73800354242324,3.5140107421947175Q119.13600354242325,4.858010742194717,118.33800354242325,5.908010742194718L117.73600354242325,5.110010742194718Q119.19200354242325,3.080010742194718,119.73800354242324,0.07001074219471776L120.73200354242324,0.19601074219471776Q120.45200354242324,1.5540107421947178,120.11600354242324,2.5340107421947176L124.58200354242325,2.5340107421947176ZM128.27800354242325,0.6300107421947178L137.04200354242326,0.6300107421947178L137.04200354242326,7.098010742194718L128.27800354242325,7.098010742194718L128.27800354242325,0.6300107421947178ZM136.04800354242326,6.132010742194717L136.04800354242326,4.312010742194718L133.12200354242324,4.312010742194718L133.12200354242324,6.132010742194717L136.04800354242326,6.132010742194717ZM132.17000354242325,6.132010742194717L132.17000354242325,4.312010742194718L129.27200354242325,4.312010742194718L129.27200354242325,6.132010742194717L132.17000354242325,6.132010742194717ZM129.27200354242325,3.4160107421947177L132.17000354242325,3.4160107421947177L132.17000354242325,1.5820107421947178L129.27200354242325,1.5820107421947178L129.27200354242325,3.4160107421947177ZM133.12200354242324,1.5820107421947178L133.12200354242324,3.4160107421947177L136.04800354242326,3.4160107421947177L136.04800354242326,1.5820107421947178L133.12200354242324,1.5820107421947178ZM128.85200354242326,8.470010742194718Q128.25000354242326,10.794010742194718,127.13000354242325,12.530010742194717L126.26200354242324,11.984010742194718Q127.38200354242325,10.290010742194717,127.88600354242325,8.274010742194717L128.85200354242326,8.470010742194718ZM132.89800354242325,7.588010742194718Q133.69600354242326,8.694010742194719,134.32600354242325,10.038010742194718L133.40200354242324,10.444010742194719Q132.75800354242324,9.030010742194717,131.98800354242326,7.882010742194717L132.89800354242325,7.588010742194718ZM136.98600354242325,7.9380107421947175Q138.19000354242326,9.702010742194718,139.03000354242326,11.606010742194718L138.12000354242326,12.026010742194718Q137.18200354242325,9.912010742194719,136.03400354242325,8.246010742194718L136.98600354242325,7.9380107421947175ZM131.13400354242324,12.754010742194717Q129.70600354242325,12.754010742194717,129.70600354242325,11.270010742194717L129.70600354242325,8.246010742194718L130.70000354242325,8.246010742194718L130.70000354242325,11.046010742194717Q130.70000354242325,11.802010742194717,131.45600354242325,11.802010742194717L134.55000354242324,11.802010742194717Q135.01200354242326,11.802010742194717,135.19400354242325,11.550010742194718Q135.43200354242325,11.242010742194719,135.51600354242325,9.856010742194718L136.48200354242326,10.178010742194719Q136.35600354242325,12.012010742194718,135.90800354242324,12.418010742194717Q135.53000354242326,12.754010742194717,134.73200354242326,12.754010742194717L131.13400354242324,12.754010742194717ZM145.68000354242324,1.7360107421947177L147.92000354242325,1.7360107421947177L147.92000354242325,0.12601074219471775L148.90000354242324,0.12601074219471775L148.90000354242324,1.7360107421947177L150.95800354242326,1.7360107421947177L150.95800354242326,2.6180107421947176L148.90000354242324,2.6180107421947176L148.90000354242324,4.424010742194718L149.65600354242324,4.424010742194718Q151.12600354242323,2.8280107421947176,152.10600354242325,0.7980107421947178L152.96000354242324,1.2320107421947177Q152.10600354242325,2.9680107421947177,150.93000354242324,4.424010742194718L153.01600354242325,4.424010742194718L153.01600354242325,5.348010742194718L150.09000354242326,5.348010742194718Q149.27800354242325,6.132010742194717,148.55000354242324,6.692010742194718L152.09200354242324,6.692010742194718L152.09200354242324,12.908010742194717L151.12600354242323,12.908010742194717L151.12600354242323,12.250010742194718L147.38800354242323,12.250010742194718L147.38800354242323,12.908010742194717L146.43600354242324,12.908010742194717L146.43600354242324,7.966010742194718Q145.91800354242324,8.232010742194717,145.26000354242325,8.484010742194718L144.71400354242326,7.644010742194718Q146.95400354242324,6.832010742194718,148.69000354242326,5.348010742194718L145.10600354242325,5.348010742194718L145.10600354242325,4.424010742194718L147.92000354242325,4.424010742194718L147.92000354242325,2.6180107421947176L145.68000354242324,2.6180107421947176L145.68000354242324,1.7360107421947177ZM147.38800354242323,9.884010742194718L147.38800354242323,11.354010742194717L151.12600354242323,11.354010742194717L151.12600354242323,9.884010742194718L147.38800354242323,9.884010742194718ZM151.12600354242323,9.030010742194717L151.12600354242323,7.574010742194718L147.38800354242323,7.574010742194718L147.38800354242323,9.030010742194717L151.12600354242323,9.030010742194717ZM145.14800354242325,11.018010742194718Q143.11800354242325,11.900010742194718,140.52800354242325,12.446010742194717L140.40200354242324,11.438010742194718Q143.07600354242325,10.920010742194718,145.14800354242325,10.024010742194717L145.14800354242325,11.018010742194718ZM143.46800354242325,0.5040107421947178Q142.53000354242326,3.164010742194718,141.55000354242324,4.788010742194718Q142.55800354242325,4.648010742194717,143.35600354242325,4.480010742194718Q143.25800354242324,4.676010742194718,144.08400354242326,2.898010742194718L144.99400354242326,3.2340107421947177Q143.25800354242324,6.902010742194718,142.04000354242325,8.526010742194718Q143.30000354242324,8.232010742194717,144.50400354242325,7.7280107421947175L144.50400354242325,8.652010742194717Q142.57200354242326,9.422010742194718,140.82200354242326,9.688010742194718L140.55600354242324,8.778010742194718Q140.83600354242324,8.666010742194718,141.01800354242326,8.484010742194718Q141.77400354242326,7.574010742194718,142.90800354242324,5.376010742194718Q141.87200354242324,5.600010742194717,140.62600354242323,5.810010742194717L140.37400354242325,4.886010742194718Q140.59800354242324,4.7600107421947175,140.80800354242325,4.4940107421947175Q141.81600354242326,2.548010742194718,142.51600354242325,0.12601074219471775L143.46800354242325,0.5040107421947178ZM156.23600354242325,9.884010742194718Q157.24400354242326,9.884010742194718,157.24400354242326,11.242010742194719Q157.24400354242326,13.048010742194718,155.66200354242324,13.916010742194718L155.28400354242325,13.314010742194718Q156.37600354242323,12.600010742194717,156.46000354242324,11.508010742194717Q156.34800354242324,11.536010742194717,156.23600354242325,11.536010742194717Q155.88600354242325,11.536010742194717,155.62000354242326,11.312010742194717Q155.38200354242323,11.088010742194717,155.38200354242323,10.724010742194718Q155.38200354242323,10.304010742194718,155.62000354242326,10.108010742194718Q155.85800354242326,9.884010742194718,156.23600354242325,9.884010742194718ZM178.51000354242325,0.09801074219471775L179.51800354242326,0.09801074219471775L179.51800354242326,12.950010742194717L178.51000354242325,12.950010742194717L178.51000354242325,0.09801074219471775ZM170.27800354242325,4.7040107421947175L169.78800354242324,7.028010742194717L175.23400354242324,7.028010742194717Q175.23400354242324,10.500010742194718,174.94000354242326,11.592010742194718Q174.64600354242324,12.768010742194718,172.35000354242325,12.852010742194718Q171.93000354242324,12.852010742194718,171.03400354242325,12.796010742194717L170.78200354242324,11.858010742194718Q171.67800354242326,11.914010742194717,172.12600354242323,11.914010742194717Q173.73600354242325,11.914010742194717,173.98800354242326,11.172010742194718Q174.22600354242326,10.374010742194718,174.22600354242326,7.9380107421947175L168.71000354242324,7.9380107421947175L169.43800354242325,3.7660107421947178L174.10000354242325,3.7660107421947178L174.10000354242325,1.5820107421947178L169.00400354242325,1.5820107421947178L169.00400354242325,0.6580107421947178L175.09400354242325,0.6580107421947178L175.09400354242325,4.7040107421947175L170.27800354242325,4.7040107421947175ZM188.26800354242326,0.6860107421947178L194.90400354242325,0.6860107421947178L194.90400354242325,1.6380107421947177L192.11800354242325,1.6380107421947177Q192.00600354242326,2.478010742194718,191.85200354242326,3.1780107421947177L194.47000354242326,3.1780107421947177L194.47000354242326,9.786010742194717L193.49000354242324,9.786010742194717L193.49000354242324,4.102010742194718L189.86400354242326,4.102010742194718L189.86400354242326,9.898010742194717L188.87000354242326,9.898010742194717L188.87000354242326,3.1780107421947177L190.87200354242324,3.1780107421947177Q191.04000354242325,2.4080107421947177,191.12400354242325,1.6380107421947177L188.26800354242326,1.6380107421947177L188.26800354242326,0.6860107421947178ZM192.72000354242326,9.828010742194717Q194.09200354242324,10.990010742194718,195.12800354242324,12.278010742194718L194.41400354242325,12.992010742194719Q193.54600354242325,11.816010742194718,192.03400354242325,10.486010742194718L192.72000354242326,9.828010742194717ZM191.18000354242324,5.0260107421947176L192.13200354242323,5.0260107421947176L192.13200354242323,7.434010742194718Q192.09000354242326,9.674010742194717,191.26400354242324,11.032010742194718Q190.46600354242324,12.278010742194718,188.66000354242325,12.992010742194719L188.12800354242324,12.138010742194718Q189.83600354242324,11.480010742194718,190.50800354242324,10.388010742194718Q191.13800354242323,9.254010742194717,191.18000354242324,7.434010742194718L191.18000354242324,5.0260107421947176ZM185.77600354242324,0.22401074219471775Q187.20400354242324,1.8760107421947176,188.54800354242326,3.7520107421947175L187.87600354242323,4.466010742194718Q186.54600354242325,2.450010742194718,185.49600354242324,1.1900107421947177Q184.30600354242324,3.3320107421947176,182.72400354242325,5.096010742194718L182.15000354242324,4.284010742194718Q183.69000354242326,2.5900107421947176,185.02000354242324,0.22401074219471775L185.77600354242324,0.22401074219471775ZM182.94800354242324,6.342010742194717L187.96000354242324,6.342010742194717L187.96000354242324,7.182010742194718Q187.05000354242324,9.100010742194717,185.88800354242323,10.598010742194719Q186.74200354242325,11.410010742194718,187.38600354242325,12.152010742194717L186.65800354242324,12.866010742194717Q185.38400354242324,11.270010742194717,183.20000354242325,9.506010742194718L183.87200354242324,8.862010742194718Q184.50200354242324,9.366010742194717,185.23000354242325,9.996010742194718Q186.05600354242324,8.890010742194718,186.88200354242323,7.280010742194718L182.94800354242324,7.280010742194718L182.94800354242324,6.342010742194717ZM185.31400354242325,3.2620107421947178Q186.19600354242326,4.452010742194718,186.72800354242324,5.418010742194718L186.00000354242326,5.936010742194718Q185.49600354242324,4.956010742194718,184.58600354242324,3.7100107421947177L185.31400354242325,3.2620107421947178ZM11.924003542423248,20.65801074219472L11.924003542423248,28.34401074219472L10.95800354242325,28.34401074219472L10.95800354242325,21.596010742194718L7.038003542423248,21.596010742194718L7.038003542423248,28.34401074219472L6.072003542423248,28.34401074219472L6.072003542423248,20.65801074219472L11.924003542423248,20.65801074219472ZM10.328003542423248,32.684010742194715Q9.180003542423249,32.684010742194715,9.180003542423249,31.508010742194717L9.180003542423249,28.386010742194717L10.132003542423249,28.386010742194717L10.132003542423249,31.298010742194716Q10.132003542423249,31.788010742194718,10.608003542423248,31.788010742194718L11.518003542423248,31.788010742194718Q11.868003542423248,31.788010742194718,12.036003542423249,31.55001074219472Q12.218003542423249,31.270010742194717,12.302003542423249,29.884010742194718L13.184003542423248,30.17801074219472Q13.058003542423249,31.956010742194717,12.694003542423248,32.34801074219472Q12.358003542423248,32.684010742194715,11.686003542423249,32.684010742194715L10.328003542423248,32.684010742194715ZM8.508003542423248,22.618010742194716L9.460003542423248,22.618010742194716L9.460003542423248,25.348010742194717Q9.390003542423248,28.470010742194717,8.312003542423248,30.304010742194716Q7.2620035424232485,32.02601074219472,4.868003542423248,32.992010742194715L4.322003542423248,32.138010742194716Q6.660003542423248,31.17201074219472,7.598003542423248,29.604010742194717Q8.452003542423249,27.95201074219472,8.508003542423248,25.348010742194717L8.508003542423248,22.618010742194716ZM1.2000035424232482,23.346010742194718Q2.4740035424232483,24.886010742194717,3.398003542423248,26.20201074219472Q3.9160035424232484,24.354010742194717,4.070003542423248,22.18401074219472L0.6120035424232483,22.18401074219472L0.6120035424232483,21.20401074219472L5.008003542423248,21.20401074219472L5.008003542423248,21.974010742194718Q4.882003542423249,24.85801074219472,4.084003542423249,27.19601074219472Q4.896003542423248,28.41401074219472,5.694003542423248,29.828010742194717L4.9800035424232485,30.54201074219472Q4.476003542423248,29.56201074219472,3.664003542423248,28.302010742194717Q2.656003542423248,30.64001074219472,0.8920035424232483,32.39001074219472L0.2480035424232483,31.648010742194717Q2.0540035424232483,29.842010742194716,3.020003542423248,27.322010742194717Q1.9420035424232482,25.75401074219472,0.5140035424232483,24.00401074219472L1.2000035424232482,23.346010742194718ZM15.732003542423248,21.554010742194716L19.56800354242325,21.554010742194716L19.56800354242325,20.070010742194718L20.60400354242325,20.070010742194718L20.60400354242325,21.554010742194716L23.90800354242325,21.554010742194716L23.90800354242325,22.49201074219472L20.60400354242325,22.49201074219472L20.60400354242325,24.15801074219472L22.36800354242325,24.15801074219472Q24.34200354242325,22.744010742194718,25.840003542423247,20.980010742194718L26.610003542423247,21.540010742194717Q25.33600354242325,23.052010742194717,23.96400354242325,24.15801074219472L26.960003542423248,24.15801074219472L26.960003542423248,25.110010742194717L22.69000354242325,25.110010742194717L22.06000354242325,25.516010742194716Q21.192003542423247,26.048010742194716,19.86200354242325,26.66401074219472L25.154003542423247,26.66401074219472L25.154003542423247,32.964010742194716L24.146003542423248,32.964010742194716L24.146003542423248,32.33401074219472L18.084003542423247,32.33401074219472L18.084003542423247,32.964010742194716L17.06200354242325,32.964010742194716L17.06200354242325,27.81201074219472Q16.096003542423247,28.176010742194716,14.710003542423248,28.624010742194717L14.290003542423248,27.686010742194718Q17.832003542423248,26.860010742194717,20.85600354242325,25.110010742194717L14.486003542423248,25.110010742194717L14.486003542423248,24.15801074219472L19.56800354242325,24.15801074219472L19.56800354242325,22.49201074219472L15.732003542423248,22.49201074219472L15.732003542423248,21.554010742194716ZM18.084003542423247,29.912010742194717L18.084003542423247,31.438010742194717L24.146003542423248,31.438010742194717L24.146003542423248,29.912010742194717L18.084003542423247,29.912010742194717ZM24.146003542423248,29.016010742194716L24.146003542423248,27.546010742194717L18.084003542423247,27.546010742194717L18.084003542423247,29.016010742194716L24.146003542423248,29.016010742194716ZM29.480003542423248,20.322010742194717Q30.95000354242325,21.456010742194717,31.860003542423247,22.49201074219472L31.13200354242325,23.206010742194717Q30.306003542423248,22.198010742194718,28.794003542423248,20.980010742194718L29.480003542423248,20.322010742194717ZM37.61400354242325,32.684010742194715Q36.914003542423245,32.684010742194715,35.15000354242325,32.65601074219472Q33.82000354242325,32.64201074219472,32.98000354242325,32.40401074219472Q32.182003542423246,32.15201074219472,31.51000354242325,31.38201074219472Q31.244003542423247,31.032010742194718,30.97800354242325,31.032010742194718Q30.488003542423247,31.032010742194718,29.326003542423248,32.964010742194716L28.570003542423247,32.278010742194716Q29.69000354242325,30.514010742194717,30.544003542423248,30.136010742194717L30.544003542423248,25.880010742194717L28.54200354242325,25.880010742194717L28.54200354242325,24.956010742194717L31.48200354242325,24.956010742194717L31.48200354242325,30.192010742194718Q31.63600354242325,30.304010742194716,31.81800354242325,30.514010742194717Q32.33600354242325,31.130010742194717,32.89600354242325,31.39601074219472Q33.52600354242325,31.69001074219472,34.758003542423246,31.732010742194717Q36.21400354242325,31.76001074219472,37.47400354242325,31.76001074219472Q38.118003542423246,31.76001074219472,39.490003542423246,31.732010742194717Q40.63800354242325,31.70401074219472,41.05800354242325,31.676010742194716L40.82000354242325,32.684010742194715L37.61400354242325,32.684010742194715ZM32.82600354242325,22.310010742194716L34.478003542423245,22.310010742194716L34.478003542423245,20.084010742194717L35.444003542423246,20.084010742194717L35.444003542423246,22.310010742194716L37.65600354242325,22.310010742194716L37.65600354242325,20.098010742194717L38.636003542423246,20.098010742194717L38.636003542423246,22.310010742194716L40.414003542423245,22.310010742194716L40.414003542423245,23.24801074219472L38.636003542423246,23.24801074219472L38.636003542423246,26.034010742194717L40.862003542423246,26.034010742194717L40.862003542423246,26.98601074219472L38.636003542423246,26.98601074219472L38.636003542423246,31.00401074219472L37.65600354242325,31.00401074219472L37.65600354242325,26.98601074219472L35.164003542423245,26.98601074219472Q34.618003542423246,29.506010742194718,32.99400354242325,30.724010742194718L32.39200354242325,29.912010742194717Q33.722003542423245,28.96001074219472,34.18400354242325,26.98601074219472L32.33600354242325,26.98601074219472L32.33600354242325,26.034010742194717L34.36600354242325,26.034010742194717Q34.478003542423245,25.180010742194717,34.478003542423245,24.354010742194717L34.478003542423245,23.24801074219472L32.82600354242325,23.24801074219472L32.82600354242325,22.310010742194716ZM35.444003542423246,23.24801074219472L35.444003542423246,24.130010742194717Q35.444003542423246,25.096010742194718,35.33200354242325,26.034010742194717L37.65600354242325,26.034010742194717L37.65600354242325,23.24801074219472L35.444003542423246,23.24801074219472ZM48.072003542423246,23.346010742194718Q47.12000354242325,21.610010742194717,45.76200354242325,20.630010742194717L46.60200354242325,20.098010742194717Q48.45000354242325,21.386010742194717,49.76600354242325,24.816010742194717Q51.740003542423246,29.842010742194716,55.04400354242325,31.91401074219472L54.414003542423245,32.72601074219472Q51.02600354242325,30.682010742194716,48.856003542423245,25.110010742194717Q48.67400354242325,24.60601074219472,48.63200354242325,24.522010742194716Q47.246003542423246,29.884010742194718,42.83600354242325,32.74001074219472L42.234003542423245,31.886010742194717Q46.728003542423245,28.94601074219472,48.072003542423246,23.346010742194718ZM57.886003542423246,20.308010742194718Q59.27200354242325,21.386010742194717,60.22400354242325,22.436010742194718L59.53800354242325,23.136010742194717Q58.65600354242325,22.086010742194716,57.18600354242325,20.96601074219472L57.886003542423246,20.308010742194718ZM56.31800354242325,24.410010742194718L59.24400354242325,24.410010742194718L59.24400354242325,30.62601074219472Q60.112003542423246,29.898010742194717,60.868003542423246,29.18401074219472L61.14800354242325,30.24801074219472Q59.86000354242325,31.45201074219472,58.34800354242325,32.446010742194716L57.95600354242325,31.55001074219472Q58.26400354242325,31.24201074219472,58.26400354242325,30.92001074219472L58.26400354242325,25.37601074219472L56.31800354242325,25.37601074219472L56.31800354242325,24.410010742194718ZM61.28800354242325,26.048010742194716L67.95200354242324,26.048010742194716L67.95200354242324,26.97201074219472Q67.28000354242324,28.96001074219472,65.75400354242325,30.374010742194717Q67.15400354242325,31.340010742194718,69.24000354242325,32.11001074219472L68.69400354242325,32.97801074219472Q66.44000354242324,32.068010742194716,65.02600354242325,30.976010742194717Q63.38800354242325,32.208010742194716,60.88200354242325,32.97801074219472L60.322003542423246,32.12401074219472Q62.66000354242325,31.424010742194717,64.22800354242324,30.31801074219472Q62.64600354242325,28.862010742194716,62.05800354242325,27.028010742194716L61.28800354242325,27.028010742194716L61.28800354242325,26.048010742194716ZM63.01000354242325,27.028010742194716Q63.55600354242325,28.554010742194716,64.94200354242325,29.744010742194718Q66.30000354242325,28.554010742194716,66.95800354242324,27.028010742194716L63.01000354242325,27.028010742194716ZM62.36600354242325,20.644010742194716L67.07000354242325,20.644010742194716L67.07000354242325,23.668010742194717Q67.07000354242325,24.200010742194717,67.61600354242324,24.200010742194717L68.90400354242325,24.200010742194717L68.90400354242325,25.124010742194717L67.36400354242325,25.124010742194717Q66.07600354242325,25.124010742194717,66.07600354242325,23.878010742194718L66.07600354242325,21.596010742194718L63.36000354242325,21.596010742194718L63.36000354242325,22.086010742194716Q63.36000354242325,24.298010742194716,61.20400354242325,25.53001074219472L60.53200354242325,24.76001074219472Q62.36600354242325,23.85001074219472,62.36600354242325,22.198010742194718L62.36600354242325,20.644010742194716ZM74.70000354242325,24.298010742194716L78.49400354242324,24.298010742194716L78.49400354242324,20.084010742194717L79.53000354242324,20.084010742194717L79.53000354242324,24.298010742194716L83.12800354242324,24.298010742194716L83.12800354242324,25.30601074219472L79.53000354242324,25.30601074219472L79.53000354242324,32.964010742194716L78.49400354242324,32.964010742194716L78.49400354242324,25.30601074219472L74.70000354242325,25.30601074219472L74.70000354242325,24.298010742194716ZM71.95600354242325,20.238010742194717Q73.39800354242325,21.316010742194717,74.35000354242325,22.394010742194716L73.66400354242325,23.09401074219472Q72.79600354242325,22.072010742194717,71.25600354242324,20.924010742194717L71.95600354242325,20.238010742194717ZM70.31800354242324,24.38201074219472L73.34200354242324,24.38201074219472L73.34200354242324,30.612010742194716Q74.32200354242325,29.78601074219472,74.99400354242324,29.156010742194717L75.24600354242325,30.192010742194718Q73.98600354242325,31.410010742194718,72.44600354242324,32.43201074219472L72.05400354242325,31.522010742194716Q72.37600354242325,31.270010742194717,72.37600354242325,30.93401074219472L72.37600354242325,25.348010742194717L70.31800354242324,25.348010742194717L70.31800354242324,24.38201074219472ZM89.20400354242325,20.67201074219472L97.05800354242325,20.67201074219472L97.05800354242325,21.65201074219472L93.62800354242324,21.65201074219472L93.62800354242324,23.374010742194717L96.51200354242324,23.374010742194717L96.51200354242324,30.23401074219472Q96.51200354242324,31.39601074219472,95.44800354242325,31.39601074219472L94.49600354242325,31.39601074219472L94.23000354242325,30.416010742194718L95.12600354242325,30.47201074219472Q95.54600354242325,30.47201074219472,95.54600354242325,30.02401074219472L95.54600354242325,24.31201074219472L93.62800354242324,24.31201074219472L93.62800354242324,32.88001074219472L92.64800354242325,32.88001074219472L92.64800354242325,24.31201074219472L90.73000354242325,24.31201074219472L90.73000354242325,31.494010742194718L89.76400354242325,31.494010742194718L89.76400354242325,23.374010742194717L92.64800354242325,23.374010742194717L92.64800354242325,21.65201074219472L89.20400354242325,21.65201074219472L89.20400354242325,20.67201074219472ZM84.90600354242325,22.002010742194717L85.88600354242325,22.002010742194717L85.88600354242325,29.366010742194717L84.90600354242325,29.366010742194717L84.90600354242325,22.002010742194717ZM87.37000354242325,20.168010742194717L88.35000354242325,20.168010742194717L88.35000354242325,26.83201074219472Q88.29400354242325,31.00401074219472,85.49400354242324,32.93601074219472L84.73800354242324,32.278010742194716Q87.32800354242325,30.570010742194718,87.37000354242325,26.83201074219472L87.37000354242325,20.168010742194717ZM103.34400354242325,22.520010742194717L103.34400354242325,32.068010742194716L102.36400354242325,32.068010742194716L102.36400354242325,31.270010742194717L99.81600354242325,31.270010742194717L99.81600354242325,32.474010742194714L98.83600354242324,32.474010742194714L98.83600354242324,22.520010742194717L100.13800354242325,22.520010742194717Q100.54400354242325,21.372010742194718,100.74000354242325,20.084010742194717L101.74800354242325,20.224010742194718Q101.48200354242324,21.554010742194716,101.09000354242325,22.520010742194717L103.34400354242325,22.520010742194717ZM99.81600354242325,30.33201074219472L102.36400354242325,30.33201074219472L102.36400354242325,27.266010742194716L99.81600354242325,27.266010742194716L99.81600354242325,30.33201074219472ZM99.81600354242325,26.35601074219472L102.36400354242325,26.35601074219472L102.36400354242325,23.47201074219472L99.81600354242325,23.47201074219472L99.81600354242325,26.35601074219472ZM105.78000354242324,25.76801074219472Q107.23600354242325,27.43401074219472,108.07600354242325,28.820010742194718L107.27800354242325,29.380010742194717Q106.42400354242325,27.994010742194718,104.96800354242325,26.272010742194716L105.78000354242324,25.76801074219472ZM110.58200354242325,22.534010742194717Q110.58200354242325,29.520010742194717,110.37200354242324,31.15801074219472Q110.16200354242325,32.76801074219472,108.41200354242325,32.76801074219472L106.98400354242325,32.71201074219472L106.74600354242325,31.788010742194718Q107.62800354242324,31.830010742194716,108.27200354242325,31.830010742194716Q109.25200354242325,31.830010742194716,109.42000354242325,30.752010742194717Q109.54600354242325,29.57601074219472,109.58800354242325,23.514010742194717L105.73800354242324,23.514010742194717Q105.13600354242325,24.85801074219472,104.33800354242325,25.90801074219472L103.73600354242325,25.110010742194717Q105.19200354242325,23.080010742194716,105.73800354242324,20.070010742194718L106.73200354242324,20.19601074219472Q106.45200354242324,21.554010742194716,106.11600354242324,22.534010742194717L110.58200354242325,22.534010742194717ZM114.27800354242325,20.630010742194717L123.04200354242325,20.630010742194717L123.04200354242325,27.098010742194717L114.27800354242325,27.098010742194717L114.27800354242325,20.630010742194717ZM122.04800354242325,26.13201074219472L122.04800354242325,24.31201074219472L119.12200354242324,24.31201074219472L119.12200354242324,26.13201074219472L122.04800354242325,26.13201074219472ZM118.17000354242325,26.13201074219472L118.17000354242325,24.31201074219472L115.27200354242325,24.31201074219472L115.27200354242325,26.13201074219472L118.17000354242325,26.13201074219472ZM115.27200354242325,23.416010742194718L118.17000354242325,23.416010742194718L118.17000354242325,21.58201074219472L115.27200354242325,21.58201074219472L115.27200354242325,23.416010742194718ZM119.12200354242324,21.58201074219472L119.12200354242324,23.416010742194718L122.04800354242325,23.416010742194718L122.04800354242325,21.58201074219472L119.12200354242324,21.58201074219472ZM114.85200354242325,28.470010742194717Q114.25000354242324,30.79401074219472,113.13000354242325,32.53001074219472L112.26200354242324,31.98401074219472Q113.38200354242325,30.290010742194717,113.88600354242325,28.27401074219472L114.85200354242325,28.470010742194717ZM118.89800354242325,27.58801074219472Q119.69600354242324,28.694010742194717,120.32600354242325,30.038010742194718L119.40200354242324,30.444010742194717Q118.75800354242325,29.03001074219472,117.98800354242324,27.88201074219472L118.89800354242325,27.58801074219472ZM122.98600354242325,27.938010742194717Q124.19000354242324,29.70201074219472,125.03000354242324,31.60601074219472L124.12000354242325,32.02601074219472Q123.18200354242325,29.912010742194717,122.03400354242325,28.246010742194716L122.98600354242325,27.938010742194717ZM117.13400354242324,32.754010742194716Q115.70600354242325,32.754010742194716,115.70600354242325,31.270010742194717L115.70600354242325,28.246010742194716L116.70000354242325,28.246010742194716L116.70000354242325,31.046010742194717Q116.70000354242325,31.802010742194717,117.45600354242325,31.802010742194717L120.55000354242325,31.802010742194717Q121.01200354242324,31.802010742194717,121.19400354242325,31.55001074219472Q121.43200354242325,31.24201074219472,121.51600354242325,29.85601074219472L122.48200354242324,30.17801074219472Q122.35600354242325,32.01201074219472,121.90800354242324,32.41801074219472Q121.53000354242324,32.754010742194716,120.73200354242324,32.754010742194716L117.13400354242324,32.754010742194716ZM131.21800354242325,31.102010742194718Q129.14600354242324,31.900010742194716,126.48600354242325,32.40401074219472L126.36000354242324,31.39601074219472Q129.14600354242324,30.93401074219472,131.21800354242325,30.136010742194717L131.21800354242325,31.102010742194718ZM129.65000354242324,20.43401074219472Q128.67000354242325,23.10801074219472,127.64800354242325,24.746010742194716Q128.62800354242324,24.60601074219472,129.39800354242325,24.438010742194717Q129.60800354242326,24.00401074219472,130.16800354242324,22.78601074219472L131.05000354242324,23.122010742194718Q129.27200354242325,26.762010742194718,128.13800354242323,28.288010742194718Q129.52400354242326,27.95201074219472,130.89600354242324,27.35001074219472L130.89600354242324,28.27401074219472Q128.81000354242326,29.128010742194718,126.94800354242325,29.436010742194718L126.66800354242325,28.512010742194718Q126.93400354242326,28.41401074219472,127.13000354242325,28.232010742194717Q127.85800354242325,27.392010742194717,128.92200354242325,25.362010742194716Q127.56400354242325,25.628010742194718,126.69600354242324,25.76801074219472L126.44400354242325,24.84401074219472Q126.68200354242325,24.732010742194717,126.86400354242325,24.46601074219472Q127.90000354242325,22.56201074219472,128.68400354242326,20.05601074219472L129.65000354242324,20.43401074219472ZM133.17800354242326,26.28601074219472L133.17800354242326,28.19001074219472L135.65600354242324,28.19001074219472L135.65600354242324,26.28601074219472L133.17800354242326,26.28601074219472ZM133.17800354242326,29.11401074219472L133.17800354242326,31.24201074219472L135.65600354242324,31.24201074219472L135.65600354242324,29.11401074219472L133.17800354242326,29.11401074219472ZM133.17800354242326,32.18001074219472L133.17800354242326,32.90801074219472L132.19800354242324,32.90801074219472L132.19800354242324,24.634010742194718Q131.62400354242325,25.61401074219472,130.92400354242324,26.552010742194717L130.61600354242324,25.53001074219472Q132.28200354242324,23.038010742194718,132.96800354242325,20.12601074219472L133.93400354242326,20.322010742194717Q133.62600354242323,21.512010742194718,133.23400354242324,22.49201074219472L135.78200354242324,22.49201074219472Q135.44600354242326,21.35801074219472,134.98400354242324,20.322010742194717L135.96400354242326,20.05601074219472Q136.46800354242325,21.41401074219472,136.70600354242325,22.352010742194718L136.32800354242326,22.49201074219472L138.86200354242325,22.49201074219472L138.86200354242325,23.444010742194717L136.63600354242325,23.444010742194717L136.63600354242325,25.348010742194717L138.62400354242325,25.348010742194717L138.62400354242325,26.28601074219472L136.63600354242325,26.28601074219472L136.63600354242325,28.19001074219472L138.62400354242325,28.19001074219472L138.62400354242325,29.11401074219472L136.63600354242325,29.11401074219472L136.63600354242325,31.24201074219472L139.14200354242325,31.24201074219472L139.14200354242325,32.18001074219472L133.17800354242326,32.18001074219472ZM135.65600354242324,23.444010742194717L133.17800354242326,23.444010742194717L133.17800354242326,25.348010742194717L135.65600354242324,25.348010742194717L135.65600354242324,23.444010742194717ZM140.37400354242325,23.430010742194717L142.16600354242325,23.430010742194717L142.16600354242325,20.266010742194716L143.18800354242325,20.266010742194716L143.18800354242325,23.430010742194717L146.04400354242324,23.430010742194717L146.04400354242324,20.14001074219472L147.03800354242324,20.14001074219472L147.03800354242324,23.430010742194717L149.88000354242325,23.430010742194717L149.88000354242325,20.14001074219472L150.87400354242325,20.14001074219472L150.87400354242325,23.430010742194717L152.98800354242326,23.430010742194717L152.98800354242326,24.39601074219472L150.87400354242325,24.39601074219472L150.87400354242325,28.80601074219472L146.04400354242324,28.80601074219472L146.04400354242324,24.39601074219472L143.18800354242325,24.39601074219472L143.18800354242325,31.368010742194716L152.51200354242326,31.368010742194716L152.51200354242326,32.39001074219472L142.16600354242325,32.39001074219472L142.16600354242325,24.39601074219472L140.37400354242325,24.39601074219472L140.37400354242325,23.430010742194717ZM147.03800354242324,24.39601074219472L147.03800354242324,27.82601074219472L149.88000354242325,27.82601074219472L149.88000354242325,24.39601074219472L147.03800354242324,24.39601074219472ZM155.88600354242325,20.644010742194716L165.54600354242325,20.644010742194716L165.54600354242325,26.20201074219472L162.85800354242326,26.20201074219472Q164.24400354242326,27.81201074219472,167.17000354242325,28.764010742194717L166.73600354242325,29.64601074219472Q164.70600354242325,28.89001074219472,163.39000354242324,27.854010742194717L163.39000354242324,32.964010742194716L162.38200354242323,32.964010742194716L162.38200354242323,27.700010742194717L163.20800354242326,27.700010742194717Q162.35400354242324,27.000010742194718,161.80800354242325,26.20201074219472L159.55400354242326,26.20201074219472Q158.09800354242324,28.20401074219472,154.72400354242325,29.534010742194717L154.19200354242324,28.65201074219472Q157.13200354242323,27.686010742194718,158.50400354242325,26.20201074219472L155.88600354242325,26.20201074219472L155.88600354242325,20.644010742194716ZM164.58000354242324,25.30601074219472L164.58000354242324,23.822010742194717L161.17800354242326,23.822010742194717L161.17800354242326,25.30601074219472L164.58000354242324,25.30601074219472ZM160.19800354242324,25.30601074219472L160.19800354242324,23.822010742194717L156.85200354242326,23.822010742194717L156.85200354242326,25.30601074219472L160.19800354242324,25.30601074219472ZM156.85200354242326,22.982010742194717L160.19800354242324,22.982010742194717L160.19800354242324,21.540010742194717L156.85200354242326,21.540010742194717L156.85200354242326,22.982010742194717ZM161.17800354242326,21.540010742194717L161.17800354242326,22.982010742194717L164.58000354242324,22.982010742194717L164.58000354242324,21.540010742194717L161.17800354242326,21.540010742194717ZM159.21800354242325,27.686010742194718Q159.21800354242325,29.32401074219472,158.72800354242324,30.500010742194718Q158.09800354242324,31.99801074219472,155.85800354242326,32.97801074219472L155.18600354242324,32.166010742194715Q157.10400354242324,31.38201074219472,157.72000354242326,30.220010742194717Q158.19600354242326,29.198010742194718,158.21000354242324,27.686010742194718L159.21800354242325,27.686010742194718ZM171.18800354242325,29.548010742194716Q171.93000354242324,29.548010742194716,172.47600354242326,30.052010742194717Q173.00800354242324,30.55601074219472,173.00800354242324,31.31201074219472Q173.00800354242324,32.05401074219472,172.47600354242326,32.55801074219472Q171.93000354242324,33.062010742194715,171.18800354242325,33.062010742194715Q170.43200354242325,33.062010742194715,169.90000354242324,32.57201074219472Q169.36800354242325,32.08201074219472,169.36800354242325,31.31201074219472Q169.36800354242325,30.54201074219472,169.90000354242324,30.052010742194717Q170.43200354242325,29.548010742194716,171.18800354242325,29.548010742194716ZM171.18800354242325,30.276010742194718Q170.74000354242324,30.276010742194718,170.44600354242326,30.584010742194717Q170.12400354242325,30.86401074219472,170.12400354242325,31.31201074219472Q170.12400354242325,31.746010742194716,170.44600354242326,32.02601074219472Q170.75400354242325,32.33401074219472,171.18800354242325,32.33401074219472Q171.59400354242325,32.33401074219472,171.93000354242324,32.02601074219472Q172.25200354242324,31.732010742194717,172.25200354242324,31.31201074219472Q172.25200354242324,30.878010742194718,171.93000354242324,30.584010742194717Q171.62200354242324,30.276010742194718,171.18800354242325,30.276010742194718Z" fill="#FFFFFF" fill-opacity="1"/></g></g><g><g><path d="M1.944,58.53601181030273L3.312,58.53601181030273L5.04,52.36801181030273L5.112,52.36801181030273L6.804,58.53601181030273L8.172,58.53601181030273L10.152,50.208011810302736L9.06,50.208011810302736L7.512,57.276011810302734L7.44,57.276011810302734L5.748,51.18001181030274L4.452,51.18001181030274L2.76,57.276011810302734L2.688,57.276011810302734L1.128,50.208011810302736L0,50.208011810302736L1.944,58.53601181030273ZM16.464,54.648011810302734C16.464,53.388011810302736,16.08,51.93601181030274,13.872,51.93601181030274C12.024,51.93601181030274,10.932,52.71601181030273,10.932,55.29601181030274C10.932,57.876011810302735,12.024,58.656011810302736,13.932,58.656011810302736C14.856,58.656011810302736,15.744,58.464011810302736,16.116,58.272011810302736L16.116,57.324011810302736C15.624,57.56401181030273,14.796,57.74401181030274,14.088,57.74401181030274C12.516,57.74401181030274,12.024,57.096011810302734,12.012,55.68001181030274L16.404,55.404011810302734C16.44,55.10401181030274,16.464,54.82801181030273,16.464,54.648011810302734ZM12.012,54.91201181030274C12.048,53.592011810302736,12.384,52.788011810302734,13.872,52.788011810302734C15.276,52.788011810302734,15.444,53.66401181030273,15.444,54.660011810302734L12.012,54.91201181030274ZM19.692,58.608011810302735C19.98,58.608011810302735,20.184,58.584011810302734,20.376,58.53601181030273L20.376,57.684011810302735C20.208,57.73201181030274,20.028,57.74401181030274,19.884,57.74401181030274C19.464,57.74401181030274,19.284,57.61201181030273,19.284,56.964011810302736L19.284,49.416011810302734L18.252,49.416011810302734L18.252,57.22801181030273C18.252,58.20001181030273,18.732,58.608011810302735,19.692,58.608011810302735ZM24.3,58.656011810302736C24.912,58.656011810302736,25.656,58.54801181030273,26.016,58.416011810302734L26.016,57.468011810302734C25.548,57.660011810302734,24.936,57.74401181030274,24.324,57.74401181030274C22.884,57.74401181030274,22.404,57.19201181030273,22.404,55.30801181030274C22.404,53.400011810302736,22.884,52.836011810302736,24.312,52.836011810302736C24.972,52.836011810302736,25.512,52.94401181030273,25.992,53.12401181030273L25.992,52.17601181030273C25.632,52.056011810302735,25.02,51.93601181030274,24.3,51.93601181030274C22.392,51.93601181030274,21.3,52.71601181030273,21.3,55.29601181030274C21.3,57.876011810302735,22.392,58.656011810302736,24.3,58.656011810302736ZM30.264,58.656011810302736C32.184,58.656011810302736,33.252,57.876011810302735,33.252,55.29601181030274C33.252,52.71601181030273,32.184,51.93601181030274,30.264,51.93601181030274C28.356,51.93601181030274,27.264,52.71601181030273,27.264,55.29601181030274C27.264,57.876011810302735,28.356,58.656011810302736,30.264,58.656011810302736ZM30.264,57.78001181030274C28.86,57.78001181030274,28.368,57.19201181030273,28.368,55.29601181030274C28.368,53.400011810302736,28.812,52.800011810302735,30.264,52.800011810302735C31.68,52.800011810302735,32.16,53.400011810302736,32.16,55.29601181030274C32.16,57.19201181030273,31.728,57.78001181030274,30.264,57.78001181030274ZM41.868,51.93601181030274C41.076,51.93601181030274,40.236,52.15201181030273,39.852,52.992011810302735C39.576,52.34401181030273,38.988,51.93601181030274,37.968,51.93601181030274C37.188,51.93601181030274,36.492,52.14001181030274,36.096,52.90801181030273L36.096,52.056011810302735L35.064,52.056011810302735L35.064,58.53601181030273L36.096,58.53601181030273L36.096,54.03601181030273C36.42,53.04001181030274,37.008,52.86001181030274,37.812,52.86001181030274C38.76,52.86001181030274,39,53.43601181030273,39,54.43201181030273L39,58.53601181030273L40.032,58.53601181030273L40.032,54.04801181030273L40.032,54.00001181030274C40.308,53.07601181030273,40.956,52.86001181030274,41.712,52.86001181030274C42.684,52.86001181030274,42.96,53.43601181030273,42.96,54.43201181030273L42.96,58.53601181030273L43.992,58.53601181030273L43.992,54.06001181030273C43.992,52.812011810302735,43.38,51.93601181030274,41.868,51.93601181030274ZM51.264,54.648011810302734C51.264,53.388011810302736,50.88,51.93601181030274,48.672,51.93601181030274C46.824,51.93601181030274,45.732,52.71601181030273,45.732,55.29601181030274C45.732,57.876011810302735,46.824,58.656011810302736,48.732,58.656011810302736C49.656,58.656011810302736,50.544,58.464011810302736,50.916,58.272011810302736L50.916,57.324011810302736C50.424,57.56401181030273,49.596,57.74401181030274,48.888,57.74401181030274C47.316,57.74401181030274,46.824,57.096011810302734,46.812,55.68001181030274L51.204,55.404011810302734C51.24,55.10401181030274,51.264,54.82801181030273,51.264,54.648011810302734ZM46.812,54.91201181030274C46.848,53.592011810302736,47.184,52.788011810302734,48.672,52.788011810302734C50.076,52.788011810302734,50.244,53.66401181030273,50.244,54.660011810302734L46.812,54.91201181030274ZM58.152,57.74401181030274C57.36,57.74401181030274,57.216,57.504011810302735,57.216,56.49601181030273L57.216,52.92001181030273L58.824,52.92001181030273L58.824,52.056011810302735L57.216,52.056011810302735L57.216,50.520011810302734L56.184,50.520011810302734L56.184,52.056011810302735L55.224,52.056011810302735L55.224,52.92001181030273L56.184,52.92001181030273L56.184,56.556011810302735C56.184,58.260011810302736,56.7,58.608011810302735,58.128,58.608011810302735C58.404,58.608011810302735,58.608,58.584011810302734,58.86,58.54801181030273L58.86,57.672011810302735C58.632,57.720011810302736,58.44,57.74401181030274,58.152,57.74401181030274ZM62.796,58.656011810302736C64.716,58.656011810302736,65.784,57.876011810302735,65.784,55.29601181030274C65.784,52.71601181030273,64.716,51.93601181030274,62.796,51.93601181030274C60.888,51.93601181030274,59.796,52.71601181030273,59.796,55.29601181030274C59.796,57.876011810302735,60.888,58.656011810302736,62.796,58.656011810302736ZM62.796,57.78001181030274C61.392,57.78001181030274,60.9,57.19201181030273,60.9,55.29601181030274C60.9,53.400011810302736,61.344,52.800011810302735,62.796,52.800011810302735C64.212,52.800011810302735,64.692,53.400011810302736,64.692,55.29601181030274C64.692,57.19201181030273,64.26,57.78001181030274,62.796,57.78001181030274ZM73.296,58.656011810302736C75.216,58.656011810302736,76.284,57.876011810302735,76.284,55.29601181030274C76.284,52.71601181030273,75.216,51.93601181030274,73.296,51.93601181030274C71.388,51.93601181030274,70.296,52.71601181030273,70.296,55.29601181030274C70.296,57.876011810302735,71.388,58.656011810302736,73.296,58.656011810302736ZM73.296,57.78001181030274C71.892,57.78001181030274,71.4,57.19201181030273,71.4,55.29601181030274C71.4,53.400011810302736,71.844,52.800011810302735,73.296,52.800011810302735C74.712,52.800011810302735,75.192,53.400011810302736,75.192,55.29601181030274C75.192,57.19201181030273,74.76,57.78001181030274,73.296,57.78001181030274ZM82.236,52.056011810302735L82.236,56.46001181030273C81.864,57.57601181030273,81.144,57.74401181030274,80.328,57.74401181030274C79.296,57.74401181030274,79.08,57.144011810302736,79.08,56.160011810302734L79.08,52.056011810302735L78.048,52.056011810302735L78.048,56.544011810302734C78.048,57.79201181030273,78.528,58.656011810302736,80.22,58.656011810302736C81.012,58.656011810302736,81.864,58.452011810302736,82.26,57.60001181030273L82.392,58.53601181030273L83.268,58.53601181030273L83.268,52.056011810302735L82.236,52.056011810302735ZM88.548,51.93601181030274C87.768,51.93601181030274,86.892,52.15201181030273,86.484,53.23201181030274L86.484,52.056011810302735L85.452,52.056011810302735L85.452,58.53601181030273L86.484,58.53601181030273L86.484,54.300011810302735C86.844,53.148011810302734,87.66,52.87201181030274,88.488,52.87201181030274L88.632,52.87201181030274L88.668,51.93601181030274L88.548,51.93601181030274ZM99.888,51.93601181030274C99.096,51.93601181030274,98.256,52.15201181030273,97.872,52.992011810302735C97.596,52.34401181030273,97.008,51.93601181030274,95.988,51.93601181030274C95.208,51.93601181030274,94.512,52.14001181030274,94.116,52.90801181030273L94.116,52.056011810302735L93.084,52.056011810302735L93.084,58.53601181030273L94.116,58.53601181030273L94.116,54.03601181030273C94.44,53.04001181030274,95.028,52.86001181030274,95.832,52.86001181030274C96.78,52.86001181030274,97.02,53.43601181030273,97.02,54.43201181030273L97.02,58.53601181030273L98.052,58.53601181030273L98.052,54.04801181030273L98.052,54.00001181030274C98.328,53.07601181030273,98.976,52.86001181030274,99.732,52.86001181030274C100.704,52.86001181030274,100.98,53.43601181030273,100.98,54.43201181030273L100.98,58.53601181030273L102.012,58.53601181030273L102.012,54.06001181030273C102.012,52.812011810302735,101.4,51.93601181030274,99.888,51.93601181030274ZM104.664,50.86801181030273C105.096,50.86801181030273,105.276,50.78401181030274,105.276,50.25601181030274C105.276,49.716010810302734,105.096,49.64401281030273,104.664,49.64401281030273C104.208,49.64401281030273,104.04,49.716010810302734,104.04,50.25601181030274C104.04,50.78401181030274,104.208,50.86801181030273,104.664,50.86801181030273ZM104.136,58.53601181030273L105.168,58.53601181030273L105.168,52.056011810302735L104.136,52.056011810302735L104.136,58.53601181030273ZM110.46,51.93601181030274C109.668,51.93601181030274,108.78,52.15201181030273,108.384,52.980011810302734L108.384,52.056011810302735L107.352,52.056011810302735L107.352,58.53601181030273L108.384,58.53601181030273L108.384,54.156011810302736C108.744,53.016011810302736,109.536,52.86001181030274,110.352,52.86001181030274C111.384,52.86001181030274,111.588,53.43601181030273,111.588,54.43201181030273L111.588,58.53601181030273L112.632,58.53601181030273L112.632,54.04801181030273C112.632,52.812011810302735,112.152,51.93601181030274,110.46,51.93601181030274ZM119.184,49.416011810302734L119.184,53.184011810302735C118.92,52.428011810302735,118.344,51.93601181030274,117.072,51.93601181030274C114.924,51.93601181030274,114.396,53.520011810302734,114.396,55.29601181030274C114.396,57.276011810302734,114.924,58.656011810302736,117.072,58.656011810302736C118.248,58.656011810302736,118.932,58.15201181030274,119.184,57.468011810302734L119.34,58.53601181030273L120.216,58.53601181030273L120.216,49.416011810302734L119.184,49.416011810302734ZM117.228,57.78001181030274C115.704,57.78001181030274,115.5,56.65201181030273,115.5,55.29601181030274C115.5,54.03601181030273,115.668,52.800011810302735,117.228,52.800011810302735C118.788,52.800011810302735,119.22,53.80801181030274,119.22,55.29601181030274C119.22,56.84401181030273,118.788,57.78001181030274,117.228,57.78001181030274ZM128.604,51.93601181030274C127.368,51.93601181030274,126.768,52.452011810302736,126.504,53.220011810302736L126.504,52.056011810302735L125.472,52.056011810302735L125.472,60.93601181030273L126.504,60.93601181030273L126.504,57.40801181030273C126.768,58.16401181030273,127.344,58.656011810302736,128.604,58.656011810302736C130.776,58.656011810302736,131.28,57.084011810302734,131.28,55.29601181030274C131.28,53.31601181030273,130.776,51.93601181030274,128.604,51.93601181030274ZM128.472,57.78001181030274C126.912,57.78001181030274,126.456,56.78401181030274,126.456,55.29601181030274C126.456,53.748011810302735,126.912,52.800011810302735,128.472,52.800011810302735C129.972,52.800011810302735,130.2,53.928011810302735,130.2,55.29601181030274C130.2,56.556011810302735,130.008,57.78001181030274,128.472,57.78001181030274ZM135.66,51.93601181030274C135.192,51.93601181030274,134.664,51.97201181030273,134.184,52.032011810302734L134.184,52.94401181030273C134.652,52.84801181030274,135.18,52.800011810302735,135.612,52.800011810302735C136.932,52.800011810302735,137.208,53.340011810302734,137.208,54.120011810302735L137.208,54.660011810302734L135.228,54.660011810302734C133.68,54.660011810302734,132.66,55.18801181030273,132.66,56.724011810302734C132.66,57.94801181030273,133.344,58.656011810302736,134.892,58.656011810302736C135.864,58.656011810302736,136.836,58.260011810302736,137.208,57.55201181030273L137.364,58.53601181030273L138.24,58.53601181030273L138.24,53.940011810302735C138.24,52.776011810302734,137.7,51.93601181030274,135.66,51.93601181030274ZM134.988,57.79201181030273C134.076,57.79201181030273,133.728,57.42001181030273,133.728,56.712011810302734C133.728,55.70401181030273,134.232,55.48801181030274,135.3,55.48801181030274L137.208,55.48801181030274L137.208,56.556011810302735C136.872,57.324011810302736,136.068,57.79201181030273,134.988,57.79201181030273ZM141.876,58.608011810302735C142.164,58.608011810302735,142.368,58.584011810302734,142.56,58.53601181030273L142.56,57.684011810302735C142.392,57.73201181030274,142.212,57.74401181030274,142.068,57.74401181030274C141.648,57.74401181030274,141.468,57.61201181030273,141.468,56.964011810302736L141.468,49.416011810302734L140.436,49.416011810302734L140.436,57.22801181030273C140.436,58.20001181030273,140.916,58.608011810302735,141.876,58.608011810302735ZM146.436,51.93601181030274C145.968,51.93601181030274,145.44,51.97201181030273,144.96,52.032011810302734L144.96,52.94401181030273C145.428,52.84801181030274,145.956,52.800011810302735,146.388,52.800011810302735C147.708,52.800011810302735,147.984,53.340011810302734,147.984,54.120011810302735L147.984,54.660011810302734L146.004,54.660011810302734C144.456,54.660011810302734,143.436,55.18801181030273,143.436,56.724011810302734C143.436,57.94801181030273,144.12,58.656011810302736,145.668,58.656011810302736C146.64,58.656011810302736,147.612,58.260011810302736,147.984,57.55201181030273L148.14,58.53601181030273L149.016,58.53601181030273L149.016,53.940011810302735C149.016,52.776011810302734,148.476,51.93601181030274,146.436,51.93601181030274ZM145.764,57.79201181030273C144.852,57.79201181030273,144.504,57.42001181030273,144.504,56.712011810302734C144.504,55.70401181030273,145.008,55.48801181030274,146.076,55.48801181030274L147.984,55.48801181030274L147.984,56.556011810302735C147.648,57.324011810302736,146.844,57.79201181030273,145.764,57.79201181030273ZM153.828,58.656011810302736C154.44,58.656011810302736,155.184,58.54801181030273,155.544,58.416011810302734L155.544,57.468011810302734C155.076,57.660011810302734,154.464,57.74401181030274,153.852,57.74401181030274C152.412,57.74401181030274,151.932,57.19201181030273,151.932,55.30801181030274C151.932,53.400011810302736,152.412,52.836011810302736,153.84,52.836011810302736C154.5,52.836011810302736,155.04,52.94401181030273,155.52,53.12401181030273L155.52,52.17601181030273C155.16,52.056011810302735,154.548,51.93601181030274,153.828,51.93601181030274C151.92,51.93601181030274,150.828,52.71601181030273,150.828,55.29601181030274C150.828,57.876011810302735,151.92,58.656011810302736,153.828,58.656011810302736ZM162.324,54.648011810302734C162.324,53.388011810302736,161.94,51.93601181030274,159.732,51.93601181030274C157.884,51.93601181030274,156.792,52.71601181030273,156.792,55.29601181030274C156.792,57.876011810302735,157.884,58.656011810302736,159.792,58.656011810302736C160.716,58.656011810302736,161.604,58.464011810302736,161.976,58.272011810302736L161.976,57.324011810302736C161.484,57.56401181030273,160.656,57.74401181030274,159.948,57.74401181030274C158.376,57.74401181030274,157.884,57.096011810302734,157.872,55.68001181030274L162.264,55.404011810302734C162.3,55.10401181030274,162.324,54.82801181030273,162.324,54.648011810302734ZM157.872,54.91201181030274C157.908,53.592011810302736,158.244,52.788011810302734,159.732,52.788011810302734C161.136,52.788011810302734,161.304,53.66401181030273,161.304,54.660011810302734L157.872,54.91201181030274ZM164.592,58.608011810302735C165.144,58.608011810302735,165.36,58.51201181030274,165.36,57.840011810302734C165.36,57.19201181030273,165.144,57.096011810302734,164.592,57.096011810302734C164.028,57.096011810302734,163.824,57.19201181030273,163.824,57.840011810302734C163.824,58.51201181030274,164.028,58.608011810302735,164.592,58.608011810302735Z" fill="#FFFFFF" fill-opacity="1"/></g></g></g></svg>