<svg xmlns="http://www.w3.org/2000/svg" xmlns:xlink="http://www.w3.org/1999/xlink" fill="none" version="1.1" width="195.18994140625" height="98.9639892578125" viewBox="0 0 195.18994140625 98.9639892578125"><g><g><g><path d="M1.42999242913723,5.488L2.42399242913723,5.488L2.42399242913723,12.978L1.42999242913723,12.978L1.42999242913723,5.488ZM9.50799242913723,12.922L9.269992429137229,12.012L10.58599242913723,12.04Q11.11799242913723,12.04,11.11799242913723,11.424L11.11799242913723,4.9L5.68599242913723,4.9L5.68599242913723,3.976L12.11199242913723,3.976L12.11199242913723,11.704Q12.11199242913723,12.922,10.79599242913723,12.922L9.50799242913723,12.922ZM4.22999242913723,6.146L9.28399242913723,6.146L9.28399242913723,11.424L4.22999242913723,11.424L4.22999242913723,6.146ZM8.34599242913723,10.57L8.34599242913723,9.17L5.19599242913723,9.17L5.19599242913723,10.57L8.34599242913723,10.57ZM5.19599242913723,8.358L8.34599242913723,8.358L8.34599242913723,6.986L5.19599242913723,6.986L5.19599242913723,8.358ZM2.84399242913723,3.402Q3.99199242913723,4.41,4.55199242913723,5.096L3.80999242913723,5.614Q3.17999242913723,4.83,2.10199242913723,3.864L2.84399242913723,3.402ZM2.5219924291372298,2.016Q1.93399242913723,3.01,1.31799242913723,3.724L0.46399242913722993,3.178Q1.72399242913723,1.778,2.31199242913723,0.084L3.29199242913723,0.294L2.95599242913723,1.134L6.65199242913723,1.134L6.65199242913723,2.016L4.55199242913723,2.016Q5.09799242913723,2.772,5.37799242913723,3.402L4.48199242913723,3.738Q4.07599242913723,2.87,3.48799242913723,2.016L2.5219924291372298,2.016ZM8.471992429137229,2.016Q8.03799242913723,2.842,7.53399242913723,3.486L6.67999242913723,2.94Q7.72999242913723,1.624,8.19199242913723,0.098L9.15799242913723,0.308Q9.01799242913723,0.756,8.86399242913723,1.134L12.95199242913723,1.134L12.95199242913723,2.016L10.62799242913723,2.016Q11.07599242913723,2.646,11.42599242913723,3.29L10.52999242913723,3.626Q10.10999242913723,2.772,9.54999242913723,2.016L8.471992429137229,2.016ZM22.55599242913723,4.844L23.56399242913723,4.844L23.56399242913723,12.852L22.55599242913723,12.852L22.55599242913723,4.844ZM17.83799242913723,4.886L18.84599242913723,4.886L18.84599242913723,7.42Q18.78999242913723,11.228,16.33999242913723,12.992L15.59799242913723,12.334Q17.79599242913723,10.808,17.83799242913723,7.42L17.83799242913723,4.886ZM21.09999242913723,0.196Q23.68999242913723,3.262,27.07799242913723,5.026L26.58799242913723,5.922Q23.17199242913723,4.102,20.73599242913723,1.148Q18.52399242913723,3.962,14.91199242913723,6.048L14.42199242913723,5.152Q18.00599242913723,3.15,20.37199242913723,0.196L21.09999242913723,0.196ZM31.23599242913723,3.066Q31.61399242913723,3.066,31.85199242913723,3.304Q32.089992429137226,3.542,32.089992429137226,3.892Q32.089992429137226,4.256,31.85199242913723,4.494Q31.58599242913723,4.732,31.23599242913723,4.732Q30.89999242913723,4.732,30.63399242913723,4.494Q30.39599242913723,4.256,30.39599242913723,3.892Q30.39599242913723,3.528,30.63399242913723,3.304Q30.87199242913723,3.066,31.23599242913723,3.066ZM31.23599242913723,8.19Q31.61399242913723,8.19,31.85199242913723,8.428Q32.089992429137226,8.666,32.089992429137226,9.016Q32.089992429137226,9.38,31.85199242913723,9.618Q31.58599242913723,9.856,31.23599242913723,9.856Q30.89999242913723,9.856,30.63399242913723,9.618Q30.39599242913723,9.38,30.39599242913723,9.016Q30.39599242913723,8.652,30.63399242913723,8.428Q30.87199242913723,8.19,31.23599242913723,8.19ZM42.75799242913723,12.838L42.54799242913723,11.858Q43.49999242913723,11.914,43.89199242913723,11.914Q44.49399242913723,11.914,44.49399242913723,11.284L44.49399242913723,7.952Q43.52799242913723,8.26,42.56199242913723,8.54L42.30999242913723,7.574Q43.42999242913723,7.322,44.49399242913723,6.986L44.49399242913723,3.78L42.54799242913723,3.78L42.54799242913723,2.814L44.49399242913723,2.814L44.49399242913723,0.182L45.51599242913723,0.182L45.51599242913723,2.814L47.20999242913723,2.814L47.20999242913723,3.78L45.51599242913723,3.78L45.51599242913723,6.622Q46.25799242913723,6.328,47.19599242913723,5.88L47.19599242913723,6.888Q46.63599242913723,7.14,45.51599242913723,7.588L45.51599242913723,11.536Q45.51599242913723,12.838,44.24199242913723,12.838L42.75799242913723,12.838ZM47.02799242913723,0.924L54.93799242913723,0.924L54.93799242913723,1.904L50.68199242913723,1.904Q50.37399242913723,3.976,49.68799242913723,5.6L54.30799242913723,5.6L54.30799242913723,12.978L53.32799242913723,12.978L53.32799242913723,12.32L49.54799242913723,12.32L49.54799242913723,12.978L48.58199242913723,12.978L48.58199242913723,7.63Q47.79799242913723,8.792,46.70599242913723,9.73L46.229992429137226,8.806Q49.12799242913723,6.286,49.68799242913723,1.904L47.02799242913723,1.904L47.02799242913723,0.924ZM53.32799242913723,11.368L53.32799242913723,6.552L49.54799242913723,6.552L49.54799242913723,11.368L53.32799242913723,11.368ZM58.14399242913723,3.612L60.27199242913723,3.612L60.27199242913723,2.73L61.20999242913723,2.73L61.20999242913723,3.612L64.28999242913723,3.612L64.28999242913723,2.716L65.22799242913723,2.716L65.22799242913723,3.612L67.36999242913723,3.612L67.36999242913723,2.156L58.07399242913723,2.156L58.07399242913723,3.724L57.09399242913723,3.724L57.09399242913723,1.204L62.24599242913723,1.204Q61.90999242913723,0.658,61.53199242913723,0.196L62.65199242913723,0Q63.02999242913723,0.602,63.32399242913723,1.204L68.34999242913723,1.204L68.34999242913723,3.78L67.39799242913723,3.78L67.39799242913723,4.536L65.22799242913723,4.536L65.22799242913723,5.586L64.28999242913723,5.586L64.28999242913723,4.536L61.20999242913723,4.536L61.20999242913723,5.586L60.27199242913723,5.586L60.27199242913723,4.536L58.14399242913723,4.536L58.14399242913723,3.612ZM66.80999242913722,6.188L66.80999242913722,10.5L65.80199242913723,10.5L65.80199242913723,7.112L59.66999242913723,7.112L59.66999242913723,10.5L58.66199242913723,10.5L58.66199242913723,6.188L66.80999242913722,6.188ZM62.06399242913723,7.798L63.02999242913723,7.798L63.02999242913723,8.736Q62.94599242913723,10.458,61.51799242913723,11.466Q60.10399242913723,12.404,56.91199242913723,12.95L56.36599242913723,12.096Q59.54399242913723,11.634,60.80399242913723,10.836Q61.979992429137226,10.038,62.06399242913723,8.736L62.06399242913723,7.798ZM64.31799242913723,12.796Q63.15599242913723,12.796,63.15599242913723,11.662L63.15599242913723,9.198L64.12199242913724,9.198L64.12199242913724,11.452Q64.12199242913724,11.872,64.61199242913723,11.872L66.96399242913724,11.872Q67.38399242913724,11.872,67.60799242913723,11.676Q67.84599242913723,11.438,67.92999242913723,10.22L68.85399242913724,10.5Q68.71399242913724,12.124,68.29399242913723,12.502Q67.91599242913723,12.796,67.14599242913722,12.796L64.31799242913723,12.796ZM71.93399242913723,0.672L81.59399242913723,0.672L81.59399242913723,6.23L78.90599242913723,6.23Q80.29199242913722,7.84,83.21799242913723,8.792L82.78399242913723,9.674Q80.75399242913723,8.918,79.43799242913722,7.882L79.43799242913722,12.992L78.42999242913723,12.992L78.42999242913723,7.728L79.25599242913724,7.728Q78.40199242913722,7.028,77.85599242913723,6.23L75.60199242913723,6.23Q74.14599242913722,8.232,70.77199242913723,9.562L70.23999242913723,8.68Q73.17999242913723,7.714,74.55199242913723,6.23L71.93399242913723,6.23L71.93399242913723,0.672ZM80.62799242913724,5.334L80.62799242913724,3.85L77.22599242913724,3.85L77.22599242913724,5.334L80.62799242913724,5.334ZM76.24599242913723,5.334L76.24599242913723,3.85L72.89999242913723,3.85L72.89999242913723,5.334L76.24599242913723,5.334ZM72.89999242913723,3.01L76.24599242913723,3.01L76.24599242913723,1.568L72.89999242913723,1.568L72.89999242913723,3.01ZM77.22599242913724,1.568L77.22599242913724,3.01L80.62799242913724,3.01L80.62799242913724,1.568L77.22599242913724,1.568ZM75.26599242913723,7.714Q75.26599242913723,9.352,74.77599242913723,10.528Q74.14599242913722,12.026,71.90599242913723,13.006L71.23399242913723,12.194Q73.15199242913722,11.41,73.76799242913722,10.248Q74.24399242913724,9.226,74.25799242913723,7.714L75.26599242913723,7.714ZM84.91199242913723,0.686L89.20999242913723,0.686L89.20999242913723,1.498Q88.60799242913723,3.318,87.69799242913723,5.432Q89.05599242913723,7.294,89.13999242913722,8.792Q89.13999242913722,9.688,88.70599242913723,10.094Q88.11799242913723,10.57,86.60599242913723,10.598L86.26999242913723,9.576Q86.71799242913723,9.632,86.81599242913722,9.632Q87.59999242913723,9.59,87.86599242913724,9.422Q88.13199242913723,9.226,88.13199242913723,8.792Q88.13199242913723,7.35,86.66199242913723,5.586Q87.66999242913722,3.374,88.20199242913723,1.652L85.89199242913723,1.652L85.89199242913723,12.978L84.91199242913723,12.978L84.91199242913723,0.686ZM90.86199242913723,4.186L90.86199242913723,5.768L94.99199242913723,5.768L94.99199242913723,4.186L90.86199242913723,4.186ZM94.99199242913723,3.262L94.99199242913723,1.652L90.86199242913723,1.652L90.86199242913723,3.262L94.99199242913723,3.262ZM90.86199242913723,6.692L90.86199242913723,11.48Q92.09399242913723,11.116,93.36799242913723,10.528L93.59199242913724,11.466Q92.06599242913722,12.124,89.79799242913722,12.726L89.55999242913722,11.858Q89.86799242913723,11.746,89.86799242913723,11.536L89.86799242913723,0.7L95.97199242913723,0.7L95.97199242913723,6.692L93.38199242913723,6.692Q93.63399242913724,7.966,94.23599242913723,8.988Q95.27199242913723,8.414,96.19599242913723,7.294L96.85399242913724,7.952Q95.87399242913723,9.1,94.69799242913723,9.702Q95.67799242913723,11.046,97.24599242913723,11.97L96.68599242913723,12.852Q93.18599242913723,10.612,92.47199242913723,6.692L90.86199242913723,6.692ZM100.28399242913723,9.912Q101.29199242913722,9.912,101.29199242913722,11.27Q101.29199242913722,13.076,99.70999242913723,13.944L99.33199242913723,13.342Q100.42399242913723,12.628,100.50799242913723,11.536Q100.39599242913722,11.564,100.28399242913723,11.564Q99.93399242913723,11.564,99.66799242913723,11.34Q99.42999242913723,11.116,99.42999242913723,10.752Q99.42999242913723,10.332,99.66799242913723,10.136Q99.90599242913723,9.912,100.28399242913723,9.912ZM120.05199242913723,0.126L121.08799242913723,0.126L121.08799242913723,4.648L124.72799242913723,4.648L124.72799242913723,5.628L121.08799242913723,5.628L121.08799242913723,11.494L125.25999242913723,11.494L125.25999242913723,12.488L117.01399242913723,12.488L117.01399242913723,11.494L120.05199242913723,11.494L120.05199242913723,0.126ZM114.00399242913723,0.238Q115.43199242913722,1.33,116.39799242913723,2.422L115.71199242913723,3.122Q114.87199242913724,2.128,113.30399242913722,0.924L114.00399242913723,0.238ZM112.36599242913724,4.41L115.38999242913722,4.41L115.38999242913722,10.668Q116.10399242913724,10.094,116.99999242913724,9.24L117.26599242913723,10.304Q115.96399242913724,11.522,114.47999242913723,12.474L114.10199242913723,11.578Q114.42399242913723,11.326,114.42399242913723,11.018L114.42399242913723,5.376L112.36599242913724,5.376L112.36599242913724,4.41ZM127.93399242913723,0.336Q129.31999242913724,1.414,130.27199242913724,2.464L129.58599242913724,3.164Q128.70399242913723,2.114,127.23399242913723,0.994L127.93399242913723,0.336ZM126.36599242913724,4.438L129.29199242913722,4.438L129.29199242913722,10.654Q130.15999242913722,9.926,130.91599242913722,9.212L131.19599242913722,10.276Q129.90799242913724,11.48,128.39599242913724,12.474L128.0039924291372,11.578Q128.31199242913723,11.27,128.31199242913723,10.948L128.31199242913723,5.404L126.36599242913724,5.404L126.36599242913724,4.438ZM131.33599242913724,6.076L137.99999242913722,6.076L137.99999242913722,7Q137.32799242913723,8.988,135.80199242913724,10.402Q137.20199242913722,11.368,139.28799242913723,12.138L138.74199242913724,13.006Q136.48799242913722,12.096,135.07399242913723,11.004Q133.43599242913723,12.236,130.92999242913723,13.006L130.36999242913723,12.152Q132.70799242913722,11.452,134.27599242913723,10.346Q132.69399242913724,8.89,132.10599242913722,7.056L131.33599242913724,7.056L131.33599242913724,6.076ZM133.05799242913724,7.056Q133.60399242913724,8.582,134.98999242913723,9.772Q136.34799242913724,8.582,137.00599242913722,7.056L133.05799242913724,7.056ZM132.41399242913724,0.672L137.11799242913722,0.672L137.11799242913722,3.696Q137.11799242913722,4.228,137.66399242913724,4.228L138.95199242913722,4.228L138.95199242913722,5.152L137.41199242913723,5.152Q136.12399242913722,5.152,136.12399242913722,3.906L136.12399242913722,1.624L133.40799242913724,1.624L133.40799242913724,2.114Q133.40799242913724,4.326,131.25199242913723,5.558L130.57999242913723,4.788Q132.41399242913724,3.878,132.41399242913724,2.226L132.41399242913724,0.672ZM144.74799242913724,4.326L148.54199242913722,4.326L148.54199242913722,0.112L149.57799242913723,0.112L149.57799242913723,4.326L153.17599242913724,4.326L153.17599242913724,5.334L149.57799242913723,5.334L149.57799242913723,12.992L148.54199242913722,12.992L148.54199242913722,5.334L144.74799242913724,5.334L144.74799242913724,4.326ZM142.00399242913724,0.266Q143.44599242913722,1.344,144.39799242913722,2.422L143.71199242913724,3.122Q142.84399242913722,2.1,141.30399242913722,0.952L142.00399242913724,0.266ZM140.36599242913724,4.41L143.38999242913724,4.41L143.38999242913724,10.64Q144.36999242913723,9.814,145.04199242913722,9.184L145.29399242913723,10.22Q144.03399242913724,11.438,142.49399242913722,12.46L142.10199242913723,11.55Q142.42399242913723,11.298,142.42399242913723,10.962L142.42399242913723,5.376L140.36599242913724,5.376L140.36599242913724,4.41ZM159.39199242913722,2.548L159.39199242913722,12.096L158.41199242913723,12.096L158.41199242913723,11.298L155.86399242913723,11.298L155.86399242913723,12.502L154.88399242913724,12.502L154.88399242913724,2.548L156.18599242913723,2.548Q156.59199242913724,1.4,156.78799242913723,0.112L157.79599242913724,0.252Q157.52999242913722,1.582,157.13799242913723,2.548L159.39199242913722,2.548ZM155.86399242913723,10.36L158.41199242913723,10.36L158.41199242913723,7.294L155.86399242913723,7.294L155.86399242913723,10.36ZM155.86399242913723,6.384L158.41199242913723,6.384L158.41199242913723,3.5L155.86399242913723,3.5L155.86399242913723,6.384ZM161.82799242913723,5.796Q163.28399242913724,7.462,164.12399242913722,8.848L163.32599242913722,9.408Q162.47199242913723,8.022,161.01599242913724,6.3L161.82799242913723,5.796ZM166.62999242913722,2.562Q166.62999242913722,9.548,166.41999242913724,11.186Q166.20999242913723,12.796,164.45999242913723,12.796L163.03199242913723,12.74L162.79399242913723,11.816Q163.67599242913724,11.858,164.31999242913724,11.858Q165.29999242913723,11.858,165.46799242913724,10.78Q165.59399242913722,9.604,165.63599242913722,3.542L161.78599242913722,3.542Q161.18399242913722,4.886,160.38599242913722,5.936L159.78399242913724,5.138Q161.23999242913723,3.108,161.78599242913722,0.098L162.77999242913722,0.224Q162.49999242913722,1.582,162.16399242913724,2.562L166.62999242913722,2.562ZM173.09799242913724,0.686L179.64999242913723,0.686L179.64999242913723,6.062L173.09799242913724,6.062L173.09799242913724,0.686ZM178.68399242913722,5.166L178.68399242913722,3.836L174.07799242913723,3.836L174.07799242913723,5.166L178.68399242913722,5.166ZM174.07799242913723,2.954L178.68399242913722,2.954L178.68399242913722,1.596L174.07799242913723,1.596L174.07799242913723,2.954ZM180.32199242913723,7.224L180.32199242913723,11.676L181.10599242913722,11.676L181.10599242913722,12.628L171.58599242913724,12.628L171.58599242913724,11.676L172.50999242913724,11.676L172.50999242913724,7.224L180.32199242913723,7.224ZM173.48999242913723,11.676L174.84799242913724,11.676L174.84799242913724,8.162L173.48999242913723,8.162L173.48999242913723,11.676ZM175.75799242913723,11.676L177.05999242913722,11.676L177.05999242913722,8.162L175.75799242913723,8.162L175.75799242913723,11.676ZM177.96999242913722,11.676L179.35599242913722,11.676L179.35599242913722,8.162L177.96999242913722,8.162L177.96999242913722,11.676ZM169.68199242913724,0.294Q171.01199242913722,1.204,171.94999242913724,2.17L171.23599242913724,2.884Q170.38199242913723,1.96,168.96799242913724,0.98L169.68199242913724,0.294ZM169.21999242913722,3.654Q170.61999242913723,4.676,171.58599242913724,5.726L170.87199242913724,6.44Q170.00399242913724,5.432,168.50599242913722,4.34L169.21999242913722,3.654ZM171.55799242913724,7.896Q170.74599242913723,10.374,169.65399242913722,12.768L168.72999242913724,12.362Q169.84999242913722,10.024,170.67599242913724,7.546L171.55799242913724,7.896ZM183.86399242913723,6.3L183.86399242913723,9.618L185.45999242913723,9.618L185.45999242913723,6.3L183.86399242913723,6.3ZM185.45999242913723,5.376L185.45999242913723,2.002L183.86399242913723,2.002L183.86399242913723,5.376L185.45999242913723,5.376ZM186.42599242913724,1.092L186.42599242913724,10.542L183.86399242913723,10.542L183.86399242913723,11.578L182.88399242913724,11.578L182.88399242913724,1.092L186.42599242913724,1.092ZM187.41999242913724,4.172L192.51599242913724,4.172Q193.08999242913723,3.08,193.49599242913723,1.68L194.40599242913723,1.932Q193.99999242913722,3.192,193.45399242913723,4.172L194.64399242913723,4.172L194.64399242913723,5.054L190.07999242913723,5.054L189.91199242913723,6.23L195.07799242913723,6.23L195.07799242913723,7.126L189.74399242913722,7.126Q189.60399242913724,7.812,189.49199242913724,8.232L194.15399242913722,8.232L194.15399242913722,8.988Q193.63599242913722,10.22,192.47399242913724,11.144Q193.70599242913724,11.746,195.18999242913722,11.998L194.74199242913724,12.894Q192.90799242913724,12.516,191.61999242913723,11.718Q190.30399242913722,12.46,188.62399242913722,12.908L188.16199242913723,12.068Q189.67399242913723,11.746,190.82199242913723,11.158Q189.77199242913724,10.332,189.16999242913724,9.282L189.02999242913722,9.632Q188.25999242913724,11.396,186.71999242913722,12.824L186.11799242913722,12.04Q187.50399242913724,10.78,188.21799242913724,9.24Q188.58199242913722,8.358,188.86199242913722,7.126L187.08399242913723,7.126L187.08399242913723,6.23L189.02999242913722,6.23L189.19799242913723,5.054L187.41999242913724,5.054L187.41999242913724,4.172ZM191.64799242913722,10.668Q192.65599242913723,9.968,193.15999242913722,9.058L190.00999242913724,9.058Q190.66799242913723,10.01,191.64799242913722,10.668ZM194.83999242913723,0.966Q192.01199242913722,1.918,187.34999242913722,1.918L187.05599242913723,1.064Q191.45199242913722,1.064,194.37799242913724,0.154L194.83999242913723,0.966ZM188.51199242913722,2.198Q189.00199242913723,2.954,189.32399242913723,3.738L188.55399242913722,4.074Q188.17599242913724,3.192,187.71399242913722,2.52L188.51199242913722,2.198ZM190.97599242913722,2.044Q191.43799242913724,2.842,191.77399242913722,3.724L191.01799242913722,4.06Q190.62599242913723,3.052,190.17799242913722,2.366L190.97599242913722,2.044ZM7.16999242913723,22.576L9.40999242913723,22.576L9.40999242913723,20.182L10.37599242913723,20.182L10.37599242913723,22.576L12.64399242913723,22.576L12.64399242913723,28.204L10.37599242913723,28.204L10.37599242913723,31.27Q11.32799242913723,31.074,11.78999242913723,30.962Q11.50999242913723,30.038,11.20199242913723,29.254L12.02799242913723,28.988Q12.65799242913723,30.584,13.16199242913723,32.642L12.29399242913723,32.852L12.02799242913723,31.788Q9.63399242913723,32.376,7.09999242913723,32.74L6.86199242913723,31.802Q8.30399242913723,31.634,9.40999242913723,31.452L9.40999242913723,28.204L7.16999242913723,28.204L7.16999242913723,22.576ZM11.705992429137229,27.28L11.705992429137229,23.5L10.33399242913723,23.5L10.33399242913723,27.28L11.705992429137229,27.28ZM9.45199242913723,27.28L9.45199242913723,23.5L8.10799242913723,23.5L8.10799242913723,27.28L9.45199242913723,27.28ZM1.9059924291372299,26.93L1.9059924291372299,28.582L1.8919924291372299,28.75L3.2359924291372297,28.75L3.2359924291372297,26.93L1.9059924291372299,26.93ZM1.8499924291372298,29.604Q1.68199242913723,31.578,0.9399924291372299,32.964L0.19799242913722992,32.306Q1.00999242913723,30.78,1.02399242913723,28.484L1.02399242913723,24.158Q0.88399242913723,24.298,0.8279924291372299,24.368L0.22599242913722992,23.64Q1.5979924291372298,22.254,2.4659924291372297,20.07L3.37599242913723,20.28Q3.19399242913723,20.798,2.9979924291372297,21.176L5.57399242913723,21.176L5.57399242913723,21.876Q5.06999242913723,22.884,4.66399242913723,23.458L6.34399242913723,23.458L6.34399242913723,31.858Q6.34399242913723,32.88,5.36399242913723,32.88L4.66399242913723,32.88L4.43999242913723,32.068Q4.91599242913723,32.096,5.09799242913723,32.096Q5.48999242913723,32.096,5.48999242913723,31.564L5.48999242913723,29.604L4.07599242913723,29.604L4.07599242913723,32.712L3.2359924291372297,32.712L3.2359924291372297,29.604L1.8499924291372298,29.604ZM5.48999242913723,28.75L5.48999242913723,26.93L4.07599242913723,26.93L4.07599242913723,28.75L5.48999242913723,28.75ZM5.48999242913723,26.062L5.48999242913723,24.326L4.07599242913723,24.326L4.07599242913723,26.062L5.48999242913723,26.062ZM3.62799242913723,23.458Q4.04799242913723,22.856,4.50999242913723,22.002L2.57799242913723,22.002Q2.18599242913723,22.716,1.6259924291372299,23.458L3.62799242913723,23.458ZM3.2359924291372297,24.326L1.9059924291372299,24.326L1.9059924291372299,26.062L3.2359924291372297,26.062L3.2359924291372297,24.326ZM17.89399242913723,21.736L15.48599242913723,21.736L15.48599242913723,20.742L23.82999242913723,20.742L23.82999242913723,21.4Q23.45199242913723,23.122,23.04599242913723,24.55L25.87399242913723,24.55L25.87399242913723,25.138Q25.25799242913723,28.008,23.22799242913723,29.982Q24.86599242913723,31.186,26.96599242913723,32.096L26.30799242913723,32.992Q24.02599242913723,31.956,22.44399242913723,30.668Q20.63799242913723,32.11,17.87999242913723,33.048L17.29199242913723,32.11Q19.90999242913723,31.228,21.61799242913723,29.954Q19.65799242913723,28.092,18.71999242913723,25.81Q18.01999242913723,30.486,15.12199242913723,32.922L14.35199242913723,32.236Q17.83799242913723,29.366,17.89399242913723,23.024L17.89399242913723,21.736ZM22.38799242913723,29.31Q24.19399242913723,27.658,24.82399242913723,25.46L21.78599242913723,25.46Q22.24799242913723,24.074,22.72399242913723,21.736L18.92999242913723,21.736L18.92999242913723,23.346L18.91599242913723,23.682Q19.67199242913723,26.972,22.38799242913723,29.31ZM31.37599242913723,22.296Q30.35399242913723,23.934,29.09399242913723,25.082L28.44999242913723,24.298Q30.25599242913723,22.66,31.40399242913723,20.028L32.42599242913723,20.266Q32.089992429137226,20.994,31.92199242913723,21.33L40.54599242913723,21.33L40.54599242913723,22.296L31.37599242913723,22.296ZM33.62999242913723,27.91Q35.19799242913723,28.456,36.45799242913723,29.226L35.98199242913723,29.954Q34.59599242913723,29.072,33.16799242913723,28.568L33.62999242913723,27.91ZM30.05999242913723,30.962Q30.36799242913723,29.338,30.56399242913723,27.63L28.29599242913723,27.63L28.29599242913723,26.678L30.66199242913723,26.678Q30.80199242913723,25.194,30.84399242913723,23.458L39.53799242913723,23.458L39.43999242913723,26.678L41.20399242913723,26.678L41.20399242913723,27.63L39.39799242913723,27.63L39.28599242913723,30.024L40.82599242913723,30.024L40.82599242913723,30.962L39.21599242913723,30.962Q39.17399242913723,31.424,39.11799242913723,31.676Q38.93599242913723,32.32,38.38999242913723,32.656Q37.88599242913723,32.95,36.86399242913723,32.95L35.21199242913723,32.964L34.90399242913723,32.026Q36.24799242913723,32.082,36.70999242913723,32.082Q37.18599242913723,32.082,37.59199242913723,31.97Q37.96999242913723,31.816,38.16599242913723,31.354Q38.17999242913723,31.312,38.23599242913723,30.962L30.05999242913723,30.962ZM38.31999242913723,30.024L38.43199242913723,27.63L31.57199242913723,27.63Q31.41799242913723,29.016,31.22199242913723,30.024L38.31999242913723,30.024ZM36.02399242913723,26.678Q34.69399242913723,25.852,33.27999242913723,25.334L33.74199242913723,24.662Q35.32399242913723,25.222,36.54199242913723,25.978L36.07999242913723,26.678L38.45999242913723,26.678L38.52999242913723,24.396L31.79599242913723,24.396Q31.75399242913723,25.6,31.66999242913723,26.678L36.02399242913723,26.678ZM48.21799242913723,24.27L49.25399242913723,24.27L49.25399242913723,32.95L48.21799242913723,32.95L48.21799242913723,24.27ZM49.18399242913723,20.14Q50.94799242913723,23.024,55.23199242913723,25.236L54.62999242913723,26.146Q50.65399242913723,24.074,48.73599242913723,21.078Q46.39799242913723,24.396,42.84199242913723,26.202L42.23999242913723,25.292Q46.15999242913723,23.304,48.28799242913723,20.14L49.18399242913723,20.14ZM59.19399242913723,27.196L59.19399242913723,27.434Q59.16599242913723,28.26,59.09599242913723,28.862L62.48399242913723,28.862L62.48399242913723,27.196L59.19399242913723,27.196ZM58.94199242913723,29.758Q58.52199242913723,31.662,57.42999242913723,33.02L56.65999242913723,32.32Q58.15799242913723,30.444,58.19999242913723,27.504L58.19999242913723,24.172Q57.72399242913723,24.522,57.05199242913723,24.956L56.40799242913723,24.186Q59.09599242913723,22.59,60.77599242913723,20.028L61.78399242913723,20.252Q61.61599242913723,20.532,61.09799242913723,21.26L66.31999242913723,21.26L66.31999242913723,22.002Q65.33999242913723,22.94,64.41599242913723,23.598L68.04199242913722,23.598L68.04199242913722,31.648Q68.04199242913722,32.894,66.66999242913722,32.894L64.87799242913724,32.894L64.62599242913723,31.956Q65.88599242913723,32.012,66.37599242913723,32.012Q67.06199242913723,32.012,67.06199242913723,31.298L67.06199242913723,29.758L63.47799242913723,29.758L63.47799242913723,32.712L62.48399242913723,32.712L62.48399242913723,29.758L58.94199242913723,29.758ZM67.06199242913723,28.862L67.06199242913723,27.196L63.47799242913723,27.196L63.47799242913723,28.862L67.06199242913723,28.862ZM67.06199242913723,26.3L67.06199242913723,24.508L63.47799242913723,24.508L63.47799242913723,26.3L67.06199242913723,26.3ZM62.97399242913723,23.598Q64.05199242913723,22.912,64.93399242913723,22.142L60.38399242913723,22.142Q59.69799242913723,22.898,58.89999242913723,23.598L62.97399242913723,23.598ZM62.48399242913723,24.508L59.19399242913723,24.508L59.19399242913723,26.3L62.48399242913723,26.3L62.48399242913723,24.508ZM70.65999242913723,21.022L73.87999242913723,21.022L73.87999242913723,20.126L74.90199242913722,20.126L74.90199242913722,21.022L78.56999242913723,21.022L78.56999242913723,20.126L79.59199242913724,20.126L79.59199242913724,21.022L82.81199242913723,21.022L82.81199242913723,21.932L79.59199242913724,21.932L79.59199242913724,22.982L78.56999242913723,22.982L78.56999242913723,21.932L74.90199242913722,21.932L74.90199242913722,22.926L73.87999242913723,22.926L73.87999242913723,21.932L70.65999242913723,21.932L70.65999242913723,21.022ZM71.76599242913723,22.744Q73.15199242913722,23.556,74.11799242913723,24.382L73.41799242913723,25.068Q72.53599242913722,24.27,71.06599242913722,23.402L71.76599242913723,22.744ZM71.23399242913723,25.586Q72.73199242913724,26.412,73.66999242913722,27.168L72.96999242913724,27.868Q72.15799242913722,27.168,70.54799242913722,26.244L71.23399242913723,25.586ZM73.43199242913722,28.96Q72.53599242913722,31.032,71.48599242913723,32.782L70.49199242913723,32.362Q71.66799242913723,30.556,72.56399242913723,28.624L73.43199242913722,28.96ZM81.48199242913724,28.75L81.48199242913724,32.992L80.54399242913723,32.992L80.54399242913723,32.376L76.11999242913723,32.376L76.11999242913723,32.992L75.18199242913722,32.992L75.18199242913722,28.834Q74.84599242913723,28.946,74.20199242913723,29.142L73.61399242913723,28.358Q75.92399242913723,27.728,77.54799242913722,26.874Q76.66599242913723,26.216,76.03599242913722,25.446Q75.22399242913723,26.174,74.36999242913723,26.692L73.79599242913723,25.936Q76.10599242913723,24.592,76.93199242913722,22.632L77.86999242913723,22.8Q77.65999242913723,23.332,77.43599242913723,23.71L81.56599242913722,23.71L81.56599242913722,24.424Q80.73999242913723,25.796,79.24199242913723,26.86Q80.96399242913724,27.728,83.23199242913724,28.176L82.65799242913722,29.002Q80.15199242913722,28.456,78.37399242913723,27.42Q77.02999242913722,28.176,75.41999242913722,28.75L81.48199242913724,28.75ZM76.62399242913723,24.83Q77.33799242913723,25.684,78.40199242913722,26.37Q79.64799242913723,25.572,80.41799242913723,24.578L76.83399242913723,24.578Q76.70799242913724,24.704,76.62399242913723,24.83ZM76.11999242913723,31.494L80.54399242913723,31.494L80.54399242913723,29.632L76.11999242913723,29.632L76.11999242913723,31.494ZM87.23599242913723,29.576Q87.97799242913723,29.576,88.52399242913722,30.08Q89.05599242913723,30.584,89.05599242913723,31.34Q89.05599242913723,32.082,88.52399242913722,32.586Q87.97799242913723,33.09,87.23599242913723,33.09Q86.47999242913723,33.09,85.94799242913723,32.6Q85.41599242913723,32.11,85.41599242913723,31.34Q85.41599242913723,30.57,85.94799242913723,30.08Q86.47999242913723,29.576,87.23599242913723,29.576ZM87.23599242913723,30.304Q86.78799242913723,30.304,86.49399242913724,30.612Q86.17199242913723,30.892,86.17199242913723,31.34Q86.17199242913723,31.774,86.49399242913724,32.054Q86.80199242913723,32.362,87.23599242913723,32.362Q87.64199242913723,32.362,87.97799242913723,32.054Q88.29999242913723,31.76,88.29999242913723,31.34Q88.29999242913723,30.906,87.97799242913723,30.612Q87.66999242913722,30.304,87.23599242913723,30.304Z" fill="#FFFFFF" fill-opacity="1"/></g></g><g><g><path d="M1.92,57.59196591186523L1.92,54.687965911865234L5.232,54.687965911865234L5.232,53.775965911865235L1.92,53.775965911865235L1.92,51.19596591186524L5.472,51.19596591186524L5.472,50.235965911865236L0.84,50.235965911865236L0.84,58.56396591186523L5.772,58.56396591186523L5.772,57.59196591186523L1.92,57.59196591186523ZM6.576,58.56396591186523L7.728,58.56396591186523L9.48,55.88796591186524L9.552,55.88796591186524L11.256,58.56396591186523L12.432,58.56396591186523L10.224,55.239965911865234L12.312,52.083965911865235L11.172,52.083965911865235L9.564,54.63996591186523L9.492,54.63996591186523L7.86,52.083965911865235L6.708,52.083965911865235L8.808,55.263965911865235L6.576,58.56396591186523ZM16.824,51.96396591186524C15.588,51.96396591186524,14.988,52.479965911865236,14.724,53.247965911865236L14.724,52.083965911865235L13.692,52.083965911865235L13.692,60.96396591186523L14.724,60.96396591186523L14.724,57.43596591186523C14.988,58.19196591186523,15.564,58.683965911865236,16.824,58.683965911865236C18.996,58.683965911865236,19.5,57.111965911865234,19.5,55.32396591186524C19.5,53.34396591186523,18.996,51.96396591186524,16.824,51.96396591186524ZM16.692,57.80796591186524C15.132,57.80796591186524,14.676,56.81196591186524,14.676,55.32396591186524C14.676,53.775965911865235,15.132,52.827965911865235,16.692,52.827965911865235C18.192,52.827965911865235,18.42,53.955965911865235,18.42,55.32396591186524C18.42,56.583965911865235,18.228,57.80796591186524,16.692,57.80796591186524ZM23.88,51.96396591186524C23.412,51.96396591186524,22.884,51.99996591186523,22.404,52.059965911865234L22.404,52.97196591186523C22.872,52.87596591186524,23.4,52.827965911865235,23.832,52.827965911865235C25.152,52.827965911865235,25.428,53.367965911865234,25.428,54.147965911865235L25.428,54.687965911865234L23.448,54.687965911865234C21.9,54.687965911865234,20.88,55.21596591186523,20.88,56.751965911865234C20.88,57.97596591186523,21.564,58.683965911865236,23.112,58.683965911865236C24.084,58.683965911865236,25.056,58.287965911865236,25.428,57.57996591186523L25.584,58.56396591186523L26.46,58.56396591186523L26.46,53.967965911865235C26.46,52.803965911865234,25.92,51.96396591186524,23.88,51.96396591186524ZM23.208,57.81996591186523C22.296,57.81996591186523,21.948,57.44796591186523,21.948,56.739965911865234C21.948,55.73196591186523,22.452,55.51596591186524,23.52,55.51596591186524L25.428,55.51596591186524L25.428,56.583965911865235C25.092,57.351965911865236,24.288,57.81996591186523,23.208,57.81996591186523ZM31.764,51.96396591186524C30.972,51.96396591186524,30.084,52.17996591186523,29.688,53.007965911865234L29.688,52.083965911865235L28.656,52.083965911865235L28.656,58.56396591186523L29.688,58.56396591186523L29.688,54.183965911865236C30.048,53.043965911865236,30.84,52.88796591186524,31.656,52.88796591186524C32.688,52.88796591186524,32.892,53.46396591186523,32.892,54.45996591186523L32.892,58.56396591186523L33.936,58.56396591186523L33.936,54.07596591186523C33.936,52.839965911865235,33.456,51.96396591186524,31.764,51.96396591186524ZM40.488,49.443965911865234L40.488,53.211965911865235C40.224,52.455965911865235,39.648,51.96396591186524,38.376,51.96396591186524C36.228,51.96396591186524,35.7,53.547965911865234,35.7,55.32396591186524C35.7,57.303965911865234,36.228,58.683965911865236,38.376,58.683965911865236C39.552,58.683965911865236,40.236,58.17996591186524,40.488,57.495965911865234L40.644,58.56396591186523L41.52,58.56396591186523L41.52,49.443965911865234L40.488,49.443965911865234ZM38.532,57.80796591186524C37.008,57.80796591186524,36.804,56.67996591186523,36.804,55.32396591186524C36.804,54.06396591186523,36.972,52.827965911865235,38.532,52.827965911865235C40.092,52.827965911865235,40.524,53.83596591186524,40.524,55.32396591186524C40.524,56.87196591186523,40.092,57.80796591186524,38.532,57.80796591186524ZM44.22,50.89596591186523C44.652,50.89596591186523,44.832,50.81196591186524,44.832,50.28396591186524C44.832,49.743964911865234,44.652,49.67196691186523,44.22,49.67196691186523C43.764,49.67196691186523,43.596,49.743964911865234,43.596,50.28396591186524C43.596,50.81196591186524,43.764,50.89596591186523,44.22,50.89596591186523ZM43.692,58.56396591186523L44.724,58.56396591186523L44.724,52.083965911865235L43.692,52.083965911865235L43.692,58.56396591186523ZM50.016,51.96396591186524C49.224,51.96396591186524,48.336,52.17996591186523,47.94,53.007965911865234L47.94,52.083965911865235L46.908,52.083965911865235L46.908,58.56396591186523L47.94,58.56396591186523L47.94,54.183965911865236C48.3,53.043965911865236,49.092,52.88796591186524,49.908,52.88796591186524C50.94,52.88796591186524,51.144,53.46396591186523,51.144,54.45996591186523L51.144,58.56396591186523L52.188,58.56396591186523L52.188,54.07596591186523C52.188,52.839965911865235,51.708,51.96396591186524,50.016,51.96396591186524ZM58.74,52.083965911865235L58.74,53.29596591186523C58.488,52.52796591186524,57.948,51.96396591186524,56.64,51.96396591186524C54.48,51.96396591186524,53.952,53.47596591186523,53.952,55.263965911865235C53.952,57.24396591186523,54.48,58.56396591186523,56.64,58.56396591186523C57.888,58.56396591186523,58.476,58.107965911865236,58.74,57.351965911865236L58.74,57.99996591186523C58.74,59.48796591186523,58.056,60.07596591186523,56.616,60.07596591186523C56.064,60.07596591186523,55.524,60.02796591186524,55.032,59.931965911865234L55.032,60.80796591186524C55.44,60.891965911865235,56.052,60.96396591186523,56.604,60.96396591186523C58.8,60.96396591186523,59.772,59.89596591186523,59.772,58.107965911865236L59.772,52.083965911865235L58.74,52.083965911865235ZM56.784,57.699965911865235C55.26,57.699965911865235,55.056,56.619965911865236,55.056,55.263965911865235C55.056,54.00396591186524,55.224,52.827965911865235,56.784,52.827965911865235C58.344,52.827965911865235,58.776,53.775965911865235,58.776,55.263965911865235C58.776,56.81196591186524,58.344,57.699965911865235,56.784,57.699965911865235ZM68.172,51.96396591186524C66.936,51.96396591186524,66.336,52.479965911865236,66.072,53.247965911865236L66.072,49.443965911865234L65.04,49.443965911865234L65.04,58.56396591186523L65.94,58.56396591186523L66.072,57.43596591186523C66.336,58.19196591186523,66.912,58.683965911865236,68.172,58.683965911865236C70.344,58.683965911865236,70.848,57.111965911865234,70.848,55.32396591186524C70.848,53.34396591186523,70.344,51.96396591186524,68.172,51.96396591186524ZM68.04,57.80796591186524C66.48,57.80796591186524,66.024,56.81196591186524,66.024,55.32396591186524C66.024,53.775965911865235,66.48,52.827965911865235,68.04,52.827965911865235C69.54,52.827965911865235,69.768,53.967965911865235,69.768,55.32396591186524C69.768,56.583965911865235,69.576,57.80796591186524,68.04,57.80796591186524ZM75.276,58.683965911865236C77.196,58.683965911865236,78.264,57.903965911865235,78.264,55.32396591186524C78.264,52.74396591186523,77.196,51.96396591186524,75.276,51.96396591186524C73.368,51.96396591186524,72.276,52.74396591186523,72.276,55.32396591186524C72.276,57.903965911865235,73.368,58.683965911865236,75.276,58.683965911865236ZM75.276,57.80796591186524C73.872,57.80796591186524,73.38,57.21996591186523,73.38,55.32396591186524C73.38,53.427965911865236,73.824,52.827965911865235,75.276,52.827965911865235C76.692,52.827965911865235,77.172,53.427965911865236,77.172,55.32396591186524C77.172,57.21996591186523,76.74,57.80796591186524,75.276,57.80796591186524ZM84.216,52.083965911865235L84.216,56.48796591186523C83.844,57.60396591186523,83.124,57.77196591186524,82.308,57.77196591186524C81.276,57.77196591186524,81.06,57.171965911865236,81.06,56.187965911865234L81.06,52.083965911865235L80.028,52.083965911865235L80.028,56.571965911865234C80.028,57.81996591186523,80.508,58.683965911865236,82.2,58.683965911865236C82.992,58.683965911865236,83.844,58.479965911865236,84.24,57.62796591186523L84.372,58.56396591186523L85.248,58.56396591186523L85.248,52.083965911865235L84.216,52.083965911865235ZM90.54,51.96396591186524C89.748,51.96396591186524,88.86,52.17996591186523,88.464,53.007965911865234L88.464,52.083965911865235L87.432,52.083965911865235L87.432,58.56396591186523L88.464,58.56396591186523L88.464,54.183965911865236C88.824,53.043965911865236,89.616,52.88796591186524,90.432,52.88796591186524C91.464,52.88796591186524,91.668,53.46396591186523,91.668,54.45996591186523L91.668,58.56396591186523L92.712,58.56396591186523L92.712,54.07596591186523C92.712,52.839965911865235,92.232,51.96396591186524,90.54,51.96396591186524ZM99.264,49.443965911865234L99.264,53.211965911865235C99,52.455965911865235,98.424,51.96396591186524,97.152,51.96396591186524C95.004,51.96396591186524,94.476,53.547965911865234,94.476,55.32396591186524C94.476,57.303965911865234,95.004,58.683965911865236,97.152,58.683965911865236C98.328,58.683965911865236,99.012,58.17996591186524,99.264,57.495965911865234L99.42,58.56396591186523L100.296,58.56396591186523L100.296,49.443965911865234L99.264,49.443965911865234ZM97.308,57.80796591186524C95.784,57.80796591186524,95.58,56.67996591186523,95.58,55.32396591186524C95.58,54.06396591186523,95.748,52.827965911865235,97.308,52.827965911865235C98.868,52.827965911865235,99.3,53.83596591186524,99.3,55.32396591186524C99.3,56.87196591186523,98.868,57.80796591186524,97.308,57.80796591186524ZM105.036,51.96396591186524C104.568,51.96396591186524,104.04,51.99996591186523,103.56,52.059965911865234L103.56,52.97196591186523C104.028,52.87596591186524,104.556,52.827965911865235,104.988,52.827965911865235C106.308,52.827965911865235,106.584,53.367965911865234,106.584,54.147965911865235L106.584,54.687965911865234L104.604,54.687965911865234C103.056,54.687965911865234,102.036,55.21596591186523,102.036,56.751965911865234C102.036,57.97596591186523,102.72,58.683965911865236,104.268,58.683965911865236C105.24,58.683965911865236,106.212,58.287965911865236,106.584,57.57996591186523L106.74,58.56396591186523L107.616,58.56396591186523L107.616,53.967965911865235C107.616,52.803965911865234,107.076,51.96396591186524,105.036,51.96396591186524ZM104.364,57.81996591186523C103.452,57.81996591186523,103.104,57.44796591186523,103.104,56.739965911865234C103.104,55.73196591186523,103.608,55.51596591186524,104.676,55.51596591186524L106.584,55.51596591186524L106.584,56.583965911865235C106.248,57.351965911865236,105.444,57.81996591186523,104.364,57.81996591186523ZM112.908,51.96396591186524C112.128,51.96396591186524,111.252,52.17996591186523,110.844,53.25996591186524L110.844,52.083965911865235L109.812,52.083965911865235L109.812,58.56396591186523L110.844,58.56396591186523L110.844,54.327965911865235C111.204,53.175965911865234,112.02,52.89996591186524,112.848,52.89996591186524L112.992,52.89996591186524L113.028,51.96396591186524L112.908,51.96396591186524ZM114.888,50.89596591186523C115.32,50.89596591186523,115.5,50.81196591186524,115.5,50.28396591186524C115.5,49.743964911865234,115.32,49.67196691186523,114.888,49.67196691186523C114.432,49.67196691186523,114.264,49.743964911865234,114.264,50.28396591186524C114.264,50.81196591186524,114.432,50.89596591186523,114.888,50.89596591186523ZM114.36,58.56396591186523L115.392,58.56396591186523L115.392,52.083965911865235L114.36,52.083965911865235L114.36,58.56396591186523ZM122.724,54.675965911865234C122.724,53.415965911865236,122.34,51.96396591186524,120.132,51.96396591186524C118.284,51.96396591186524,117.192,52.74396591186523,117.192,55.32396591186524C117.192,57.903965911865235,118.284,58.683965911865236,120.192,58.683965911865236C121.116,58.683965911865236,122.004,58.491965911865236,122.376,58.299965911865236L122.376,57.351965911865236C121.884,57.59196591186523,121.056,57.77196591186524,120.348,57.77196591186524C118.776,57.77196591186524,118.284,57.123965911865234,118.272,55.70796591186524L122.664,55.431965911865234C122.7,55.13196591186524,122.724,54.85596591186523,122.724,54.675965911865234ZM118.272,54.93996591186524C118.308,53.619965911865236,118.644,52.815965911865234,120.132,52.815965911865234C121.536,52.815965911865234,121.704,53.69196591186523,121.704,54.687965911865234L118.272,54.93996591186524ZM126.012,58.635965911865235C127.596,58.635965911865235,128.472,58.047965911865234,128.472,56.763965911865235C128.472,55.51596591186524,127.932,55.107965911865236,126.444,54.77196591186524C125.436,54.543965911865236,125.208,54.39996591186524,125.208,53.739965911865234C125.208,53.007965911865234,125.664,52.803965911865234,126.576,52.803965911865234C127.176,52.803965911865234,127.752,52.91196591186524,128.124,53.055965911865236L128.196,52.17996591186523C127.884,52.059965911865234,127.188,51.96396591186524,126.564,51.96396591186524C125.028,51.96396591186524,124.236,52.671965911865236,124.236,53.71596591186523C124.236,54.80796591186523,124.62,55.263965911865235,126.048,55.58796591186523C127.284,55.87596591186524,127.5,56.031965911865235,127.5,56.799965911865236C127.5,57.555965911865236,126.984,57.79596591186524,126,57.79596591186524C125.412,57.79596591186524,124.584,57.675965911865234,124.128,57.543965911865236L124.128,58.431965911865234C124.488,58.53996591186524,125.388,58.635965911865235,126.012,58.635965911865235ZM135.912,51.96396591186524C135.444,51.96396591186524,134.916,51.99996591186523,134.436,52.059965911865234L134.436,52.97196591186523C134.904,52.87596591186524,135.432,52.827965911865235,135.864,52.827965911865235C137.184,52.827965911865235,137.46,53.367965911865234,137.46,54.147965911865235L137.46,54.687965911865234L135.48,54.687965911865234C133.932,54.687965911865234,132.912,55.21596591186523,132.912,56.751965911865234C132.912,57.97596591186523,133.596,58.683965911865236,135.144,58.683965911865236C136.116,58.683965911865236,137.088,58.287965911865236,137.46,57.57996591186523L137.616,58.56396591186523L138.492,58.56396591186523L138.492,53.967965911865235C138.492,52.803965911865234,137.952,51.96396591186524,135.912,51.96396591186524ZM135.24,57.81996591186523C134.328,57.81996591186523,133.98,57.44796591186523,133.98,56.739965911865234C133.98,55.73196591186523,134.484,55.51596591186524,135.552,55.51596591186524L137.46,55.51596591186524L137.46,56.583965911865235C137.124,57.351965911865236,136.32,57.81996591186523,135.24,57.81996591186523ZM143.796,51.96396591186524C143.004,51.96396591186524,142.116,52.17996591186523,141.72,53.007965911865234L141.72,52.083965911865235L140.688,52.083965911865235L140.688,58.56396591186523L141.72,58.56396591186523L141.72,54.183965911865236C142.08,53.043965911865236,142.872,52.88796591186524,143.688,52.88796591186524C144.72,52.88796591186524,144.924,53.46396591186523,144.924,54.45996591186523L144.924,58.56396591186523L145.968,58.56396591186523L145.968,54.07596591186523C145.968,52.839965911865235,145.488,51.96396591186524,143.796,51.96396591186524ZM152.52,49.443965911865234L152.52,53.211965911865235C152.256,52.455965911865235,151.68,51.96396591186524,150.408,51.96396591186524C148.26,51.96396591186524,147.732,53.547965911865234,147.732,55.32396591186524C147.732,57.303965911865234,148.26,58.683965911865236,150.408,58.683965911865236C151.584,58.683965911865236,152.268,58.17996591186524,152.52,57.495965911865234L152.676,58.56396591186523L153.552,58.56396591186523L153.552,49.443965911865234L152.52,49.443965911865234ZM150.564,57.80796591186524C149.04,57.80796591186524,148.836,56.67996591186523,148.836,55.32396591186524C148.836,54.06396591186523,149.004,52.827965911865235,150.564,52.827965911865235C152.124,52.827965911865235,152.556,53.83596591186524,152.556,55.32396591186524C152.556,56.87196591186523,152.124,57.80796591186524,150.564,57.80796591186524ZM1.752,77.56396591186524L3.036,77.56396591186524L4.656,72.24796591186524L4.728,72.24796591186524L6.336,77.56396591186524L7.62,77.56396591186524L9.42,71.08396591186523L8.4,71.08396591186523L7.032,76.51996591186523L6.96,76.51996591186523L5.304,71.08396591186523L4.08,71.08396591186523L2.472,76.51996591186523L2.4,76.51996591186523L1.032,71.08396591186523L0,71.08396591186523L1.752,77.56396591186524ZM11.292,69.89596591186523C11.724,69.89596591186523,11.904,69.81196591186523,11.904,69.28396591186524C11.904,68.74396591186523,11.724,68.67196591186524,11.292,68.67196591186524C10.836,68.67196591186524,10.668,68.74396591186523,10.668,69.28396591186524C10.668,69.81196591186523,10.836,69.89596591186523,11.292,69.89596591186523ZM10.764,77.56396591186524L11.796,77.56396591186524L11.796,71.08396591186523L10.764,71.08396591186523L10.764,77.56396591186524ZM18.396,68.44396591186523L18.396,72.21196591186524C18.132,71.45596591186523,17.556,70.96396591186523,16.284,70.96396591186523C14.136,70.96396591186523,13.608,72.54796591186523,13.608,74.32396591186523C13.608,76.30396591186523,14.136,77.68396591186523,16.284,77.68396591186523C17.46,77.68396591186523,18.144,77.17996591186524,18.396,76.49596591186523L18.552,77.56396591186524L19.428,77.56396591186524L19.428,68.44396591186523L18.396,68.44396591186523ZM16.44,76.80796591186524C14.916,76.80796591186524,14.712,75.67996591186524,14.712,74.32396591186523C14.712,73.06396591186524,14.88,71.82796591186523,16.44,71.82796591186523C18,71.82796591186523,18.432,72.83596591186523,18.432,74.32396591186523C18.432,75.87196591186523,18,76.80796591186524,16.44,76.80796591186524ZM26.748,73.67596591186523C26.748,72.41596591186524,26.364,70.96396591186523,24.156,70.96396591186523C22.308,70.96396591186523,21.216,71.74396591186523,21.216,74.32396591186523C21.216,76.90396591186524,22.308,77.68396591186523,24.216,77.68396591186523C25.14,77.68396591186523,26.028,77.49196591186524,26.4,77.29996591186523L26.4,76.35196591186524C25.908,76.59196591186523,25.08,76.77196591186524,24.372,76.77196591186524C22.8,76.77196591186524,22.308,76.12396591186524,22.296,74.70796591186523L26.688,74.43196591186523C26.724,74.13196591186524,26.748,73.85596591186524,26.748,73.67596591186523ZM22.296,73.93996591186523C22.332,72.61996591186524,22.668,71.81596591186523,24.156,71.81596591186523C25.56,71.81596591186523,25.728,72.69196591186524,25.728,73.68796591186523L22.296,73.93996591186523ZM28.308,74.31196591186523L31.848,74.31196591186523L31.848,73.44796591186524L28.308,73.44796591186524L28.308,74.31196591186523ZM35.316,77.63596591186524C36.9,77.63596591186524,37.776,77.04796591186523,37.776,75.76396591186523C37.776,74.51596591186524,37.236,74.10796591186524,35.748,73.77196591186524C34.74,73.54396591186523,34.512,73.39996591186524,34.512,72.73996591186523C34.512,72.00796591186523,34.968,71.80396591186523,35.88,71.80396591186523C36.48,71.80396591186523,37.056,71.91196591186524,37.428,72.05596591186523L37.5,71.17996591186524C37.188,71.05996591186523,36.492,70.96396591186523,35.868,70.96396591186523C34.332,70.96396591186523,33.54,71.67196591186524,33.54,72.71596591186523C33.54,73.80796591186524,33.924,74.26396591186523,35.352,74.58796591186524C36.588,74.87596591186524,36.804,75.03196591186523,36.804,75.79996591186523C36.804,76.55596591186523,36.288,76.79596591186524,35.304,76.79596591186524C34.716,76.79596591186524,33.888,76.67596591186523,33.432,76.54396591186523L33.432,77.43196591186523C33.792,77.53996591186524,34.692,77.63596591186524,35.316,77.63596591186524ZM42.696,70.96396591186523C41.46,70.96396591186523,40.86,71.47996591186524,40.596,72.24796591186524L40.596,71.08396591186523L39.564,71.08396591186523L39.564,79.96396591186523L40.596,79.96396591186523L40.596,76.43596591186524C40.86,77.19196591186524,41.436,77.68396591186523,42.696,77.68396591186523C44.868,77.68396591186523,45.372,76.11196591186524,45.372,74.32396591186523C45.372,72.34396591186524,44.868,70.96396591186523,42.696,70.96396591186523ZM42.564,76.80796591186524C41.004,76.80796591186524,40.548,75.81196591186523,40.548,74.32396591186523C40.548,72.77596591186523,41.004,71.82796591186523,42.564,71.82796591186523C44.064,71.82796591186523,44.292,72.95596591186523,44.292,74.32396591186523C44.292,75.58396591186523,44.1,76.80796591186524,42.564,76.80796591186524ZM50.28,70.96396591186523C49.5,70.96396591186523,48.624,71.17996591186524,48.216,72.25996591186524L48.216,71.08396591186523L47.184,71.08396591186523L47.184,77.56396591186524L48.216,77.56396591186524L48.216,73.32796591186523C48.576,72.17596591186523,49.392,71.89996591186524,50.22,71.89996591186524L50.364,71.89996591186524L50.4,70.96396591186523L50.28,70.96396591186523ZM56.652,73.67596591186523C56.652,72.41596591186524,56.268,70.96396591186523,54.06,70.96396591186523C52.212,70.96396591186523,51.12,71.74396591186523,51.12,74.32396591186523C51.12,76.90396591186524,52.212,77.68396591186523,54.12,77.68396591186523C55.044,77.68396591186523,55.932,77.49196591186524,56.304,77.29996591186523L56.304,76.35196591186524C55.812,76.59196591186523,54.984,76.77196591186524,54.276,76.77196591186524C52.704,76.77196591186524,52.212,76.12396591186524,52.2,74.70796591186523L56.592,74.43196591186523C56.628,74.13196591186524,56.652,73.85596591186524,56.652,73.67596591186523ZM52.2,73.93996591186523C52.236,72.61996591186524,52.572,71.81596591186523,54.06,71.81596591186523C55.464,71.81596591186523,55.632,72.69196591186524,55.632,73.68796591186523L52.2,73.93996591186523ZM61.008,70.96396591186523C60.54,70.96396591186523,60.012,70.99996591186523,59.532,71.05996591186523L59.532,71.97196591186523C60,71.87596591186524,60.528,71.82796591186523,60.96,71.82796591186523C62.28,71.82796591186523,62.556,72.36796591186524,62.556,73.14796591186524L62.556,73.68796591186523L60.576,73.68796591186523C59.028,73.68796591186523,58.008,74.21596591186523,58.008,75.75196591186523C58.008,76.97596591186523,58.692,77.68396591186523,60.24,77.68396591186523C61.212,77.68396591186523,62.184,77.28796591186523,62.556,76.57996591186523L62.712,77.56396591186524L63.588,77.56396591186524L63.588,72.96796591186524C63.588,71.80396591186523,63.048,70.96396591186523,61.008,70.96396591186523ZM60.336,76.81996591186524C59.424,76.81996591186524,59.076,76.44796591186524,59.076,75.73996591186523C59.076,74.73196591186523,59.58,74.51596591186524,60.648,74.51596591186524L62.556,74.51596591186524L62.556,75.58396591186523C62.22,76.35196591186524,61.416,76.81996591186524,60.336,76.81996591186524ZM70.2,68.44396591186523L70.2,72.21196591186524C69.936,71.45596591186523,69.36,70.96396591186523,68.088,70.96396591186523C65.94,70.96396591186523,65.412,72.54796591186523,65.412,74.32396591186523C65.412,76.30396591186523,65.94,77.68396591186523,68.088,77.68396591186523C69.264,77.68396591186523,69.948,77.17996591186524,70.2,76.49596591186523L70.356,77.56396591186524L71.232,77.56396591186524L71.232,68.44396591186523L70.2,68.44396591186523ZM68.244,76.80796591186524C66.72,76.80796591186524,66.516,75.67996591186524,66.516,74.32396591186523C66.516,73.06396591186524,66.684,71.82796591186523,68.244,71.82796591186523C69.804,71.82796591186523,70.236,72.83596591186523,70.236,74.32396591186523C70.236,75.87196591186523,69.804,76.80796591186524,68.244,76.80796591186524ZM73.932,69.89596591186523C74.364,69.89596591186523,74.544,69.81196591186523,74.544,69.28396591186524C74.544,68.74396591186523,74.364,68.67196591186524,73.932,68.67196591186524C73.476,68.67196591186524,73.308,68.74396591186523,73.308,69.28396591186524C73.308,69.81196591186523,73.476,69.89596591186523,73.932,69.89596591186523ZM73.404,77.56396591186524L74.436,77.56396591186524L74.436,71.08396591186523L73.404,71.08396591186523L73.404,77.56396591186524ZM79.728,70.96396591186523C78.936,70.96396591186523,78.048,71.17996591186524,77.652,72.00796591186523L77.652,71.08396591186523L76.62,71.08396591186523L76.62,77.56396591186524L77.652,77.56396591186524L77.652,73.18396591186523C78.012,72.04396591186523,78.804,71.88796591186524,79.62,71.88796591186524C80.652,71.88796591186524,80.856,72.46396591186523,80.856,73.45996591186523L80.856,77.56396591186524L81.9,77.56396591186524L81.9,73.07596591186524C81.9,71.83996591186524,81.42,70.96396591186523,79.728,70.96396591186523ZM88.452,71.08396591186523L88.452,72.29596591186524C88.2,71.52796591186524,87.66,70.96396591186523,86.352,70.96396591186523C84.192,70.96396591186523,83.664,72.47596591186523,83.664,74.26396591186523C83.664,76.24396591186523,84.192,77.56396591186524,86.352,77.56396591186524C87.6,77.56396591186524,88.188,77.10796591186524,88.452,76.35196591186524L88.452,76.99996591186523C88.452,78.48796591186523,87.768,79.07596591186524,86.328,79.07596591186524C85.776,79.07596591186524,85.236,79.02796591186524,84.744,78.93196591186523L84.744,79.80796591186524C85.152,79.89196591186524,85.764,79.96396591186523,86.316,79.96396591186523C88.512,79.96396591186523,89.484,78.89596591186523,89.484,77.10796591186524L89.484,71.08396591186523L88.452,71.08396591186523ZM86.496,76.69996591186523C84.972,76.69996591186523,84.768,75.61996591186524,84.768,74.26396591186523C84.768,73.00396591186524,84.936,71.82796591186523,86.496,71.82796591186523C88.056,71.82796591186523,88.488,72.77596591186523,88.488,74.26396591186523C88.488,75.81196591186523,88.056,76.69996591186523,86.496,76.69996591186523ZM96.768,76.77196591186524C95.976,76.77196591186524,95.832,76.53196591186523,95.832,75.52396591186523L95.832,71.94796591186524L97.44,71.94796591186524L97.44,71.08396591186523L95.832,71.08396591186523L95.832,69.54796591186523L94.8,69.54796591186523L94.8,71.08396591186523L93.84,71.08396591186523L93.84,71.94796591186524L94.8,71.94796591186524L94.8,75.58396591186523C94.8,77.28796591186523,95.316,77.63596591186524,96.744,77.63596591186524C97.02,77.63596591186524,97.224,77.61196591186524,97.476,77.57596591186524L97.476,76.69996591186523C97.248,76.74796591186524,97.056,76.77196591186524,96.768,76.77196591186524ZM101.904,70.96396591186523C101.112,70.96396591186523,100.224,71.17996591186524,99.828,72.00796591186523L99.828,68.44396591186523L98.796,68.44396591186523L98.796,77.56396591186524L99.828,77.56396591186524L99.828,73.18396591186523C100.188,72.04396591186523,100.98,71.88796591186524,101.796,71.88796591186524C102.828,71.88796591186524,103.044,72.46396591186523,103.044,73.45996591186523L103.044,77.56396591186524L104.076,77.56396591186524L104.076,73.07596591186524C104.076,71.83996591186524,103.596,70.96396591186523,101.904,70.96396591186523ZM111.36,73.67596591186523C111.36,72.41596591186524,110.976,70.96396591186523,108.768,70.96396591186523C106.92,70.96396591186523,105.828,71.74396591186523,105.828,74.32396591186523C105.828,76.90396591186524,106.92,77.68396591186523,108.828,77.68396591186523C109.752,77.68396591186523,110.64,77.49196591186524,111.012,77.29996591186523L111.012,76.35196591186524C110.52,76.59196591186523,109.692,76.77196591186524,108.984,76.77196591186524C107.412,76.77196591186524,106.92,76.12396591186524,106.908,74.70796591186523L111.3,74.43196591186523C111.336,74.13196591186524,111.36,73.85596591186524,111.36,73.67596591186523ZM106.908,73.93996591186523C106.944,72.61996591186524,107.28,71.81596591186523,108.768,71.81596591186523C110.172,71.81596591186523,110.34,72.69196591186524,110.34,73.68796591186523L106.908,73.93996591186523ZM117.156,77.56396591186524L118.44,77.56396591186524L120.06,72.24796591186524L120.132,72.24796591186524L121.74,77.56396591186524L123.024,77.56396591186524L124.824,71.08396591186523L123.804,71.08396591186523L122.436,76.51996591186523L122.364,76.51996591186523L120.708,71.08396591186523L119.484,71.08396591186523L117.876,76.51996591186523L117.804,76.51996591186523L116.436,71.08396591186523L115.404,71.08396591186523L117.156,77.56396591186524ZM128.376,70.96396591186523C127.908,70.96396591186523,127.38,70.99996591186523,126.9,71.05996591186523L126.9,71.97196591186523C127.368,71.87596591186524,127.896,71.82796591186523,128.328,71.82796591186523C129.648,71.82796591186523,129.924,72.36796591186524,129.924,73.14796591186524L129.924,73.68796591186523L127.944,73.68796591186523C126.396,73.68796591186523,125.376,74.21596591186523,125.376,75.75196591186523C125.376,76.97596591186523,126.06,77.68396591186523,127.608,77.68396591186523C128.58,77.68396591186523,129.552,77.28796591186523,129.924,76.57996591186523L130.08,77.56396591186524L130.956,77.56396591186524L130.956,72.96796591186524C130.956,71.80396591186523,130.416,70.96396591186523,128.376,70.96396591186523ZM127.704,76.81996591186524C126.792,76.81996591186524,126.444,76.44796591186524,126.444,75.73996591186523C126.444,74.73196591186523,126.948,74.51596591186524,128.016,74.51596591186524L129.924,74.51596591186524L129.924,75.58396591186523C129.588,76.35196591186524,128.784,76.81996591186524,127.704,76.81996591186524ZM136.248,70.96396591186523C135.468,70.96396591186523,134.592,71.17996591186524,134.184,72.25996591186524L134.184,71.08396591186523L133.152,71.08396591186523L133.152,77.56396591186524L134.184,77.56396591186524L134.184,73.32796591186523C134.544,72.17596591186523,135.36,71.89996591186524,136.188,71.89996591186524L136.332,71.89996591186524L136.368,70.96396591186523L136.248,70.96396591186523ZM144.504,70.96396591186523C143.712,70.96396591186523,142.872,71.17996591186524,142.488,72.01996591186523C142.212,71.37196591186523,141.624,70.96396591186523,140.604,70.96396591186523C139.824,70.96396591186523,139.128,71.16796591186524,138.732,71.93596591186524L138.732,71.08396591186523L137.7,71.08396591186523L137.7,77.56396591186524L138.732,77.56396591186524L138.732,73.06396591186524C139.056,72.06796591186523,139.644,71.88796591186524,140.448,71.88796591186524C141.396,71.88796591186524,141.636,72.46396591186523,141.636,73.45996591186523L141.636,77.56396591186524L142.668,77.56396591186524L142.668,73.07596591186524L142.668,73.02796591186524C142.944,72.10396591186523,143.592,71.88796591186524,144.348,71.88796591186524C145.32,71.88796591186524,145.596,72.46396591186523,145.596,73.45996591186523L145.596,77.56396591186524L146.628,77.56396591186524L146.628,73.08796591186524C146.628,71.83996591186524,146.016,70.96396591186523,144.504,70.96396591186523ZM150.768,76.77196591186524C149.976,76.77196591186524,149.832,76.53196591186523,149.832,75.52396591186523L149.832,71.94796591186524L151.44,71.94796591186524L151.44,71.08396591186523L149.832,71.08396591186523L149.832,69.54796591186523L148.8,69.54796591186523L148.8,71.08396591186523L147.84,71.08396591186523L147.84,71.94796591186524L148.8,71.94796591186524L148.8,75.58396591186523C148.8,77.28796591186523,149.316,77.63596591186524,150.744,77.63596591186524C151.02,77.63596591186524,151.224,77.61196591186524,151.476,77.57596591186524L151.476,76.69996591186523C151.248,76.74796591186524,151.056,76.77196591186524,150.768,76.77196591186524ZM155.904,70.96396591186523C155.112,70.96396591186523,154.224,71.17996591186524,153.828,72.00796591186523L153.828,68.44396591186523L152.796,68.44396591186523L152.796,77.56396591186524L153.828,77.56396591186524L153.828,73.18396591186523C154.188,72.04396591186523,154.98,71.88796591186524,155.796,71.88796591186524C156.828,71.88796591186524,157.044,72.46396591186523,157.044,73.45996591186523L157.044,77.56396591186524L158.076,77.56396591186524L158.076,73.07596591186524C158.076,71.83996591186524,157.596,70.96396591186523,155.904,70.96396591186523ZM165.912,77.68396591186523C167.832,77.68396591186523,168.9,76.90396591186524,168.9,74.32396591186523C168.9,71.74396591186523,167.832,70.96396591186523,165.912,70.96396591186523C164.004,70.96396591186523,162.912,71.74396591186523,162.912,74.32396591186523C162.912,76.90396591186524,164.004,77.68396591186523,165.912,77.68396591186523ZM165.912,76.80796591186524C164.508,76.80796591186524,164.016,76.21996591186523,164.016,74.32396591186523C164.016,72.42796591186524,164.46,71.82796591186523,165.912,71.82796591186523C167.328,71.82796591186523,167.808,72.42796591186524,167.808,74.32396591186523C167.808,76.21996591186523,167.376,76.80796591186524,165.912,76.80796591186524ZM173.1,69.22396591186524C173.376,69.22396591186524,173.64,69.24796591186524,173.82,69.28396591186524L173.82,68.45596591186523C173.592,68.41996591186523,173.34,68.39596591186523,173.1,68.39596591186523C171.78,68.39596591186523,170.916,68.77996591186523,170.916,71.02396591186523L170.916,71.08396591186523L169.836,71.08396591186523L169.836,71.93596591186524L170.916,71.93596591186524L170.916,77.56396591186524L171.948,77.56396591186524L171.948,71.93596591186524L173.472,71.93596591186524L173.472,71.08396591186523L171.948,71.08396591186523C171.96,69.60796591186524,172.212,69.22396591186524,173.1,69.22396591186524ZM5.244,87.44396591186523L5.244,91.21196591186524C4.98,90.45596591186523,4.404,89.96396591186524,3.132,89.96396591186524C0.984,89.96396591186524,0.456,91.54796591186523,0.456,93.32396591186523C0.456,95.30396591186523,0.984,96.68396591186524,3.132,96.68396591186524C4.308,96.68396591186524,4.992,96.17996591186522,5.244,95.49596591186523L5.4,96.56396591186524L6.276,96.56396591186524L6.276,87.44396591186523L5.244,87.44396591186523ZM3.288,95.80796591186524C1.764,95.80796591186524,1.56,94.67996591186522,1.56,93.32396591186523C1.56,92.06396591186524,1.728,90.82796591186523,3.288,90.82796591186523C4.848,90.82796591186523,5.28,91.83596591186523,5.28,93.32396591186523C5.28,94.87196591186523,4.848,95.80796591186524,3.288,95.80796591186524ZM13.596,92.67596591186523C13.596,91.41596591186524,13.212,89.96396591186524,11.004,89.96396591186524C9.156,89.96396591186524,8.064,90.74396591186523,8.064,93.32396591186523C8.064,95.90396591186524,9.156,96.68396591186524,11.064,96.68396591186524C11.988,96.68396591186524,12.876,96.49196591186524,13.248,96.29996591186523L13.248,95.35196591186524C12.756,95.59196591186523,11.928,95.77196591186524,11.22,95.77196591186524C9.648,95.77196591186524,9.156,95.12396591186524,9.144,93.70796591186524L13.536,93.43196591186523C13.572,93.13196591186524,13.596,92.85596591186524,13.596,92.67596591186523ZM9.144,92.93996591186524C9.18,91.61996591186524,9.516,90.81596591186523,11.004,90.81596591186523C12.408,90.81596591186523,12.576,91.69196591186522,12.576,92.68796591186523L9.144,92.93996591186524ZM16.884,96.63596591186524C18.468,96.63596591186524,19.344,96.04796591186523,19.344,94.76396591186523C19.344,93.51596591186524,18.804,93.10796591186524,17.316,92.77196591186524C16.308,92.54396591186523,16.08,92.39996591186524,16.08,91.73996591186523C16.08,91.00796591186523,16.536,90.80396591186523,17.448,90.80396591186523C18.048,90.80396591186523,18.624,90.91196591186524,18.996,91.05596591186523L19.068,90.17996591186522C18.756,90.05996591186523,18.06,89.96396591186524,17.436,89.96396591186524C15.9,89.96396591186524,15.108,90.67196591186524,15.108,91.71596591186523C15.108,92.80796591186524,15.492,93.26396591186523,16.92,93.58796591186524C18.156,93.87596591186524,18.372,94.03196591186523,18.372,94.79996591186523C18.372,95.55596591186523,17.856,95.79596591186524,16.872,95.79596591186524C16.284,95.79596591186524,15.456,95.67596591186523,15,95.54396591186523L15,96.43196591186523C15.36,96.53996591186524,16.26,96.63596591186524,16.884,96.63596591186524ZM21.66,88.89596591186523C22.092,88.89596591186523,22.272,88.81196591186523,22.272,88.28396591186524C22.272,87.74396591186523,22.092,87.67196591186524,21.66,87.67196591186524C21.204,87.67196591186524,21.036,87.74396591186523,21.036,88.28396591186524C21.036,88.81196591186523,21.204,88.89596591186523,21.66,88.89596591186523ZM21.132,96.56396591186524L22.164,96.56396591186524L22.164,90.08396591186523L21.132,90.08396591186523L21.132,96.56396591186524ZM28.764,90.08396591186523L28.764,91.29596591186524C28.512,90.52796591186524,27.972,89.96396591186524,26.664,89.96396591186524C24.504,89.96396591186524,23.976,91.47596591186523,23.976,93.26396591186523C23.976,95.24396591186523,24.504,96.56396591186524,26.664,96.56396591186524C27.912,96.56396591186524,28.5,96.10796591186524,28.764,95.35196591186524L28.764,95.99996591186523C28.764,97.48796591186523,28.08,98.07596591186524,26.64,98.07596591186524C26.088,98.07596591186524,25.548,98.02796591186524,25.056,97.93196591186523L25.056,98.80796591186524C25.464,98.89196591186524,26.076,98.96396591186524,26.628,98.96396591186524C28.824,98.96396591186524,29.796,97.89596591186523,29.796,96.10796591186524L29.796,90.08396591186523L28.764,90.08396591186523ZM26.808,95.69996591186523C25.284,95.69996591186523,25.08,94.61996591186524,25.08,93.26396591186523C25.08,92.00396591186524,25.248,90.82796591186523,26.808,90.82796591186523C28.368,90.82796591186523,28.8,91.77596591186523,28.8,93.26396591186523C28.8,94.81196591186523,28.368,95.69996591186523,26.808,95.69996591186523ZM35.088,89.96396591186524C34.296,89.96396591186524,33.408,90.17996591186522,33.012,91.00796591186523L33.012,90.08396591186523L31.98,90.08396591186523L31.98,96.56396591186524L33.012,96.56396591186524L33.012,92.18396591186524C33.372,91.04396591186523,34.164,90.88796591186524,34.98,90.88796591186524C36.012,90.88796591186524,36.216,91.46396591186524,36.216,92.45996591186523L36.216,96.56396591186524L37.26,96.56396591186524L37.26,92.07596591186524C37.26,90.83996591186524,36.78,89.96396591186524,35.088,89.96396591186524ZM40.116,96.63596591186524C40.668,96.63596591186524,40.884,96.53996591186524,40.884,95.86796591186524C40.884,95.21996591186524,40.668,95.12396591186524,40.116,95.12396591186524C39.552,95.12396591186524,39.348,95.21996591186524,39.348,95.86796591186524C39.348,96.53996591186524,39.552,96.63596591186524,40.116,96.63596591186524Z" fill="#FFFFFF" fill-opacity="1"/></g></g></g></svg>