<svg xmlns="http://www.w3.org/2000/svg" xmlns:xlink="http://www.w3.org/1999/xlink" fill="none" version="1.1" width="194.837890625" height="80.0059814453125" viewBox="0 0 194.837890625 80.0059814453125"><g><g><g><path d="M0.5019949919581413,58.60595809936523L1.5579949919581413,58.60595809936523L1.5579949919581413,51.369958099365235L1.6299949919581413,51.369958099365235L3.7899949919581415,56.72195809936523L4.965994991958142,56.72195809936523L7.101994991958142,51.369958099365235L7.173994991958141,51.369958099365235L7.173994991958141,58.60595809936523L8.253994991958141,58.60595809936523L8.253994991958141,50.277958099365236L6.549994991958141,50.277958099365236L4.425994991958142,55.64195809936523L4.3539949919581415,55.64195809936523L2.2299949919581414,50.277958099365236L0.5019949919581413,50.277958099365236L0.5019949919581413,58.60595809936523ZM15.597994991958142,54.717958099365234C15.597994991958142,53.457958099365236,15.213994991958142,52.00595809936524,13.005994991958142,52.00595809936524C11.157994991958141,52.00595809936524,10.065994991958142,52.78595809936523,10.065994991958142,55.36595809936524C10.065994991958142,57.945958099365235,11.157994991958141,58.725958099365236,13.065994991958142,58.725958099365236C13.989994991958142,58.725958099365236,14.877994991958142,58.533958099365236,15.249994991958141,58.341958099365236L15.249994991958141,57.393958099365236C14.75799499195814,57.63395809936523,13.929994991958141,57.81395809936524,13.221994991958141,57.81395809936524C11.649994991958142,57.81395809936524,11.157994991958141,57.165958099365234,11.14599499195814,55.74995809936524L15.537994991958142,55.473958099365234C15.573994991958141,55.17395809936524,15.597994991958142,54.89795809936523,15.597994991958142,54.717958099365234ZM11.14599499195814,54.98195809936524C11.181994991958142,53.661958099365236,11.517994991958142,52.857958099365234,13.005994991958142,52.857958099365234C14.409994991958142,52.857958099365234,14.57799499195814,53.73395809936523,14.57799499195814,54.729958099365234L11.14599499195814,54.98195809936524ZM20.481994991958143,52.00595809936524C19.70199499195814,52.00595809936524,18.82599499195814,52.22195809936523,18.417994991958142,53.30195809936524L18.417994991958142,52.125958099365235L17.385994991958142,52.125958099365235L17.385994991958142,58.60595809936523L18.417994991958142,58.60595809936523L18.417994991958142,54.369958099365235C18.777994991958142,53.217958099365234,19.59399499195814,52.94195809936524,20.42199499195814,52.94195809936524L20.565994991958142,52.94195809936524L20.60199499195814,52.00595809936524L20.481994991958143,52.00595809936524ZM26.34999499195814,52.125958099365235L26.34999499195814,53.33795809936523C26.097994991958142,52.56995809936524,25.557994991958143,52.00595809936524,24.24999499195814,52.00595809936524C22.089994991958143,52.00595809936524,21.56199499195814,53.51795809936523,21.56199499195814,55.305958099365235C21.56199499195814,57.28595809936523,22.089994991958143,58.60595809936523,24.24999499195814,58.60595809936523C25.49799499195814,58.60595809936523,26.08599499195814,58.149958099365236,26.34999499195814,57.393958099365236L26.34999499195814,58.04195809936523C26.34999499195814,59.52995809936523,25.66599499195814,60.11795809936523,24.225994991958142,60.11795809936523C23.673994991958143,60.11795809936523,23.13399499195814,60.06995809936524,22.641994991958143,59.973958099365234L22.641994991958143,60.84995809936524C23.04999499195814,60.933958099365235,23.661994991958142,61.00595809936523,24.213994991958142,61.00595809936523C26.40999499195814,61.00595809936523,27.38199499195814,59.93795809936523,27.38199499195814,58.149958099365236L27.38199499195814,52.125958099365235L26.34999499195814,52.125958099365235ZM24.39399499195814,57.741958099365235C22.86999499195814,57.741958099365235,22.66599499195814,56.661958099365236,22.66599499195814,55.305958099365235C22.66599499195814,54.04595809936524,22.833994991958143,52.869958099365235,24.39399499195814,52.869958099365235C25.95399499195814,52.869958099365235,26.385994991958142,53.817958099365235,26.385994991958142,55.305958099365235C26.385994991958142,56.85395809936524,25.95399499195814,57.741958099365235,24.39399499195814,57.741958099365235ZM30.09399499195814,50.93795809936523C30.525994991958143,50.93795809936523,30.705994991958143,50.85395809936524,30.705994991958143,50.32595809936524C30.705994991958143,49.785957099365234,30.525994991958143,49.71395909936523,30.09399499195814,49.71395909936523C29.63799499195814,49.71395909936523,29.469994991958142,49.785957099365234,29.469994991958142,50.32595809936524C29.469994991958142,50.85395809936524,29.63799499195814,50.93795809936523,30.09399499195814,50.93795809936523ZM29.565994991958142,58.60595809936523L30.597994991958142,58.60595809936523L30.597994991958142,52.125958099365235L29.565994991958142,52.125958099365235L29.565994991958142,58.60595809936523ZM35.88999499195814,52.00595809936524C35.09799499195814,52.00595809936524,34.20999499195814,52.22195809936523,33.81399499195814,53.049958099365234L33.81399499195814,52.125958099365235L32.78199499195814,52.125958099365235L32.78199499195814,58.60595809936523L33.81399499195814,58.60595809936523L33.81399499195814,54.225958099365236C34.17399499195814,53.085958099365236,34.96599499195814,52.92995809936524,35.78199499195814,52.92995809936524C36.81399499195814,52.92995809936524,37.01799499195814,53.50595809936523,37.01799499195814,54.50195809936523L37.01799499195814,58.60595809936523L38.061994991958144,58.60595809936523L38.061994991958144,54.11795809936523C38.061994991958144,52.881958099365235,37.58199499195814,52.00595809936524,35.88999499195814,52.00595809936524ZM44.613994991958144,52.125958099365235L44.613994991958144,53.33795809936523C44.36199499195814,52.56995809936524,43.82199499195814,52.00595809936524,42.51399499195814,52.00595809936524C40.35399499195814,52.00595809936524,39.82599499195814,53.51795809936523,39.82599499195814,55.305958099365235C39.82599499195814,57.28595809936523,40.35399499195814,58.60595809936523,42.51399499195814,58.60595809936523C43.76199499195814,58.60595809936523,44.34999499195814,58.149958099365236,44.613994991958144,57.393958099365236L44.613994991958144,58.04195809936523C44.613994991958144,59.52995809936523,43.92999499195814,60.11795809936523,42.48999499195814,60.11795809936523C41.93799499195814,60.11795809936523,41.39799499195814,60.06995809936524,40.90599499195814,59.973958099365234L40.90599499195814,60.84995809936524C41.31399499195814,60.933958099365235,41.92599499195814,61.00595809936523,42.47799499195814,61.00595809936523C44.67399499195814,61.00595809936523,45.64599499195814,59.93795809936523,45.64599499195814,58.149958099365236L45.64599499195814,52.125958099365235L44.613994991958144,52.125958099365235ZM42.65799499195814,57.741958099365235C41.13399499195814,57.741958099365235,40.92999499195814,56.661958099365236,40.92999499195814,55.305958099365235C40.92999499195814,54.04595809936524,41.09799499195814,52.869958099365235,42.65799499195814,52.869958099365235C44.21799499195814,52.869958099365235,44.64999499195814,53.817958099365235,44.64999499195814,55.305958099365235C44.64999499195814,56.85395809936524,44.21799499195814,57.741958099365235,42.65799499195814,57.741958099365235ZM56.061994991958144,54.717958099365234C56.061994991958144,53.457958099365236,55.677994991958144,52.00595809936524,53.46999499195814,52.00595809936524C51.62199499195814,52.00595809936524,50.52999499195814,52.78595809936523,50.52999499195814,55.36595809936524C50.52999499195814,57.945958099365235,51.62199499195814,58.725958099365236,53.52999499195814,58.725958099365236C54.45399499195814,58.725958099365236,55.34199499195814,58.533958099365236,55.71399499195814,58.341958099365236L55.71399499195814,57.393958099365236C55.22199499195814,57.63395809936523,54.39399499195814,57.81395809936524,53.68599499195814,57.81395809936524C52.113994991958144,57.81395809936524,51.62199499195814,57.165958099365234,51.60999499195814,55.74995809936524L56.00199499195814,55.473958099365234C56.03799499195814,55.17395809936524,56.061994991958144,54.89795809936523,56.061994991958144,54.717958099365234ZM51.60999499195814,54.98195809936524C51.64599499195814,53.661958099365236,51.98199499195814,52.857958099365234,53.46999499195814,52.857958099365234C54.87399499195814,52.857958099365234,55.04199499195814,53.73395809936523,55.04199499195814,54.729958099365234L51.60999499195814,54.98195809936524ZM56.92599499195814,58.60595809936523L58.07799499195814,58.60595809936523L59.82999499195814,55.92995809936524L59.90199499195814,55.92995809936524L61.60599499195814,58.60595809936523L62.78199499195814,58.60595809936523L60.573994991958145,55.281958099365234L62.66199499195814,52.125958099365235L61.52199499195814,52.125958099365235L59.91399499195814,54.68195809936523L59.84199499195814,54.68195809936523L58.20999499195814,52.125958099365235L57.05799499195814,52.125958099365235L59.15799499195814,55.305958099365235L56.92599499195814,58.60595809936523ZM68.06199499195814,52.125958099365235L68.06199499195814,56.52995809936523C67.68999499195814,57.64595809936523,66.96999499195815,57.81395809936524,66.15399499195814,57.81395809936524C65.12199499195815,57.81395809936524,64.90599499195814,57.213958099365236,64.90599499195814,56.229958099365234L64.90599499195814,52.125958099365235L63.87399499195814,52.125958099365235L63.87399499195814,56.613958099365234C63.87399499195814,57.86195809936523,64.35399499195815,58.725958099365236,66.04599499195814,58.725958099365236C66.83799499195814,58.725958099365236,67.68999499195814,58.521958099365236,68.08599499195815,57.66995809936523L68.21799499195814,58.60595809936523L69.09399499195814,58.60595809936523L69.09399499195814,52.125958099365235L68.06199499195814,52.125958099365235ZM74.40999499195814,52.00595809936524C73.17399499195814,52.00595809936524,72.57399499195814,52.521958099365236,72.30999499195813,53.289958099365236L72.30999499195813,49.485958099365234L71.27799499195814,49.485958099365234L71.27799499195814,58.60595809936523L72.17799499195814,58.60595809936523L72.30999499195813,57.47795809936523C72.57399499195814,58.23395809936523,73.14999499195814,58.725958099365236,74.40999499195814,58.725958099365236C76.58199499195814,58.725958099365236,77.08599499195815,57.153958099365234,77.08599499195815,55.36595809936524C77.08599499195815,53.38595809936523,76.58199499195814,52.00595809936524,74.40999499195814,52.00595809936524ZM74.27799499195814,57.84995809936524C72.71799499195814,57.84995809936524,72.26199499195815,56.85395809936524,72.26199499195815,55.36595809936524C72.26199499195815,53.817958099365235,72.71799499195814,52.869958099365235,74.27799499195814,52.869958099365235C75.77799499195814,52.869958099365235,76.00599499195815,54.009958099365235,76.00599499195815,55.36595809936524C76.00599499195815,56.625958099365235,75.81399499195814,57.84995809936524,74.27799499195814,57.84995809936524ZM84.04599499195814,54.717958099365234C84.04599499195814,53.457958099365236,83.66199499195814,52.00595809936524,81.45399499195814,52.00595809936524C79.60599499195814,52.00595809936524,78.51399499195814,52.78595809936523,78.51399499195814,55.36595809936524C78.51399499195814,57.945958099365235,79.60599499195814,58.725958099365236,81.51399499195814,58.725958099365236C82.43799499195813,58.725958099365236,83.32599499195814,58.533958099365236,83.69799499195814,58.341958099365236L83.69799499195814,57.393958099365236C83.20599499195814,57.63395809936523,82.37799499195815,57.81395809936524,81.66999499195813,57.81395809936524C80.09799499195815,57.81395809936524,79.60599499195814,57.165958099365234,79.59399499195814,55.74995809936524L83.98599499195814,55.473958099365234C84.02199499195814,55.17395809936524,84.04599499195814,54.89795809936523,84.04599499195814,54.717958099365234ZM79.59399499195814,54.98195809936524C79.62999499195814,53.661958099365236,79.96599499195814,52.857958099365234,81.45399499195814,52.857958099365234C82.85799499195814,52.857958099365234,83.02599499195814,53.73395809936523,83.02599499195814,54.729958099365234L79.59399499195814,54.98195809936524ZM88.92999499195814,52.00595809936524C88.14999499195814,52.00595809936524,87.27399499195815,52.22195809936523,86.86599499195815,53.30195809936524L86.86599499195815,52.125958099365235L85.83399499195814,52.125958099365235L85.83399499195814,58.60595809936523L86.86599499195815,58.60595809936523L86.86599499195815,54.369958099365235C87.22599499195815,53.217958099365234,88.04199499195815,52.94195809936524,88.86999499195814,52.94195809936524L89.01399499195814,52.94195809936524L89.04999499195814,52.00595809936524L88.92999499195814,52.00595809936524ZM92.36199499195814,52.00595809936524C91.89399499195814,52.00595809936524,91.36599499195815,52.04195809936523,90.88599499195814,52.101958099365234L90.88599499195814,53.01395809936523C91.35399499195815,52.91795809936524,91.88199499195814,52.869958099365235,92.31399499195814,52.869958099365235C93.63399499195815,52.869958099365235,93.90999499195814,53.409958099365234,93.90999499195814,54.189958099365235L93.90999499195814,54.729958099365234L91.92999499195814,54.729958099365234C90.38199499195814,54.729958099365234,89.36199499195814,55.25795809936523,89.36199499195814,56.793958099365234C89.36199499195814,58.01795809936523,90.04599499195814,58.725958099365236,91.59399499195814,58.725958099365236C92.56599499195814,58.725958099365236,93.53799499195814,58.329958099365236,93.90999499195814,57.62195809936523L94.06599499195814,58.60595809936523L94.94199499195814,58.60595809936523L94.94199499195814,54.009958099365235C94.94199499195814,52.845958099365234,94.40199499195815,52.00595809936524,92.36199499195814,52.00595809936524ZM91.68999499195814,57.86195809936523C90.77799499195814,57.86195809936523,90.42999499195814,57.48995809936523,90.42999499195814,56.781958099365234C90.42999499195814,55.77395809936523,90.93399499195814,55.55795809936524,92.00199499195814,55.55795809936524L93.90999499195814,55.55795809936524L93.90999499195814,56.625958099365235C93.57399499195814,57.393958099365236,92.76999499195814,57.86195809936523,91.68999499195814,57.86195809936523ZM100.24599499195814,52.00595809936524C99.45399499195814,52.00595809936524,98.56599499195814,52.22195809936523,98.16999499195813,53.049958099365234L98.16999499195813,52.125958099365235L97.13799499195814,52.125958099365235L97.13799499195814,58.60595809936523L98.16999499195813,58.60595809936523L98.16999499195813,54.225958099365236C98.52999499195815,53.085958099365236,99.32199499195814,52.92995809936524,100.13799499195814,52.92995809936524C101.16999499195813,52.92995809936524,101.37399499195814,53.50595809936523,101.37399499195814,54.50195809936523L101.37399499195814,58.60595809936523L102.41799499195814,58.60595809936523L102.41799499195814,54.11795809936523C102.41799499195814,52.881958099365235,101.93799499195813,52.00595809936524,100.24599499195814,52.00595809936524ZM106.56999499195814,57.81395809936524C105.77799499195814,57.81395809936524,105.63399499195815,57.573958099365235,105.63399499195815,56.56595809936523L105.63399499195815,52.98995809936523L107.24199499195814,52.98995809936523L107.24199499195814,52.125958099365235L105.63399499195815,52.125958099365235L105.63399499195815,50.589958099365234L104.60199499195814,50.589958099365234L104.60199499195814,52.125958099365235L103.64199499195814,52.125958099365235L103.64199499195814,52.98995809936523L104.60199499195814,52.98995809936523L104.60199499195814,56.625958099365235C104.60199499195814,58.329958099365236,105.11799499195814,58.677958099365235,106.54599499195814,58.677958099365235C106.82199499195814,58.677958099365235,107.02599499195814,58.653958099365234,107.27799499195814,58.61795809936523L107.27799499195814,57.741958099365235C107.04999499195814,57.789958099365236,106.85799499195814,57.81395809936524,106.56999499195814,57.81395809936524ZM116.82999499195815,54.717958099365234C116.82999499195815,53.457958099365236,116.44599499195814,52.00595809936524,114.23799499195815,52.00595809936524C112.38999499195815,52.00595809936524,111.29799499195813,52.78595809936523,111.29799499195813,55.36595809936524C111.29799499195813,57.945958099365235,112.38999499195815,58.725958099365236,114.29799499195813,58.725958099365236C115.22199499195814,58.725958099365236,116.10999499195815,58.533958099365236,116.48199499195815,58.341958099365236L116.48199499195815,57.393958099365236C115.98999499195814,57.63395809936523,115.16199499195814,57.81395809936524,114.45399499195814,57.81395809936524C112.88199499195814,57.81395809936524,112.38999499195815,57.165958099365234,112.37799499195815,55.74995809936524L116.76999499195814,55.473958099365234C116.80599499195814,55.17395809936524,116.82999499195815,54.89795809936523,116.82999499195815,54.717958099365234ZM112.37799499195815,54.98195809936524C112.41399499195815,53.661958099365236,112.74999499195815,52.857958099365234,114.23799499195815,52.857958099365234C115.64199499195814,52.857958099365234,115.80999499195813,53.73395809936523,115.80999499195813,54.729958099365234L112.37799499195815,54.98195809936524ZM125.42199499195814,52.00595809936524C124.62999499195814,52.00595809936524,123.78999499195814,52.22195809936523,123.40599499195814,53.061958099365235C123.12999499195814,52.41395809936523,122.54199499195815,52.00595809936524,121.52199499195814,52.00595809936524C120.74199499195814,52.00595809936524,120.04599499195814,52.20995809936524,119.64999499195814,52.97795809936523L119.64999499195814,52.125958099365235L118.61799499195814,52.125958099365235L118.61799499195814,58.60595809936523L119.64999499195814,58.60595809936523L119.64999499195814,54.10595809936523C119.97399499195814,53.10995809936524,120.56199499195814,52.92995809936524,121.36599499195815,52.92995809936524C122.31399499195814,52.92995809936524,122.55399499195813,53.50595809936523,122.55399499195813,54.50195809936523L122.55399499195813,58.60595809936523L123.58599499195815,58.60595809936523L123.58599499195815,54.11795809936523L123.58599499195815,54.06995809936524C123.86199499195814,53.14595809936523,124.50999499195814,52.92995809936524,125.26599499195814,52.92995809936524C126.23799499195815,52.92995809936524,126.51399499195814,53.50595809936523,126.51399499195814,54.50195809936523L126.51399499195814,58.60595809936523L127.54599499195814,58.60595809936523L127.54599499195814,54.12995809936523C127.54599499195814,52.881958099365235,126.93399499195814,52.00595809936524,125.42199499195814,52.00595809936524ZM132.28599499195815,58.725958099365236C134.20599499195814,58.725958099365236,135.27399499195815,57.945958099365235,135.27399499195815,55.36595809936524C135.27399499195815,52.78595809936523,134.20599499195814,52.00595809936524,132.28599499195815,52.00595809936524C130.37799499195813,52.00595809936524,129.28599499195815,52.78595809936523,129.28599499195815,55.36595809936524C129.28599499195815,57.945958099365235,130.37799499195813,58.725958099365236,132.28599499195815,58.725958099365236ZM132.28599499195815,57.84995809936524C130.88199499195815,57.84995809936524,130.38999499195813,57.26195809936523,130.38999499195813,55.36595809936524C130.38999499195813,53.469958099365236,130.83399499195815,52.869958099365235,132.28599499195815,52.869958099365235C133.70199499195814,52.869958099365235,134.18199499195813,53.469958099365236,134.18199499195813,55.36595809936524C134.18199499195813,57.26195809936523,133.74999499195815,57.84995809936524,132.28599499195815,57.84995809936524ZM139.10199499195815,57.81395809936524C138.30999499195815,57.81395809936524,138.16599499195814,57.573958099365235,138.16599499195814,56.56595809936523L138.16599499195814,52.98995809936523L139.77399499195815,52.98995809936523L139.77399499195815,52.125958099365235L138.16599499195814,52.125958099365235L138.16599499195814,50.589958099365234L137.13399499195813,50.589958099365234L137.13399499195813,52.125958099365235L136.17399499195815,52.125958099365235L136.17399499195815,52.98995809936523L137.13399499195813,52.98995809936523L137.13399499195813,56.625958099365235C137.13399499195813,58.329958099365236,137.64999499195815,58.677958099365235,139.07799499195815,58.677958099365235C139.35399499195813,58.677958099365235,139.55799499195814,58.653958099365234,139.80999499195815,58.61795809936523L139.80999499195815,57.741958099365235C139.58199499195814,57.789958099365236,139.38999499195813,57.81395809936524,139.10199499195815,57.81395809936524ZM141.65799499195813,50.93795809936523C142.08999499195815,50.93795809936523,142.26999499195813,50.85395809936524,142.26999499195813,50.32595809936524C142.26999499195813,49.785957099365234,142.08999499195815,49.71395909936523,141.65799499195813,49.71395909936523C141.20199499195814,49.71395909936523,141.03399499195814,49.785957099365234,141.03399499195814,50.32595809936524C141.03399499195814,50.85395809936524,141.20199499195814,50.93795809936523,141.65799499195813,50.93795809936523ZM141.12999499195814,58.60595809936523L142.16199499195815,58.60595809936523L142.16199499195815,52.125958099365235L141.12999499195814,52.125958099365235L141.12999499195814,58.60595809936523ZM146.96199499195814,58.725958099365236C148.88199499195815,58.725958099365236,149.94999499195814,57.945958099365235,149.94999499195814,55.36595809936524C149.94999499195814,52.78595809936523,148.88199499195815,52.00595809936524,146.96199499195814,52.00595809936524C145.05399499195815,52.00595809936524,143.96199499195814,52.78595809936523,143.96199499195814,55.36595809936524C143.96199499195814,57.945958099365235,145.05399499195815,58.725958099365236,146.96199499195814,58.725958099365236ZM146.96199499195814,57.84995809936524C145.55799499195814,57.84995809936524,145.06599499195815,57.26195809936523,145.06599499195815,55.36595809936524C145.06599499195815,53.469958099365236,145.50999499195814,52.869958099365235,146.96199499195814,52.869958099365235C148.37799499195813,52.869958099365235,148.85799499195815,53.469958099365236,148.85799499195815,55.36595809936524C148.85799499195815,57.26195809936523,148.42599499195813,57.84995809936524,146.96199499195814,57.84995809936524ZM154.86999499195815,52.00595809936524C154.07799499195815,52.00595809936524,153.18999499195814,52.22195809936523,152.79399499195813,53.049958099365234L152.79399499195813,52.125958099365235L151.76199499195815,52.125958099365235L151.76199499195815,58.60595809936523L152.79399499195813,58.60595809936523L152.79399499195813,54.225958099365236C153.15399499195814,53.085958099365236,153.94599499195814,52.92995809936524,154.76199499195815,52.92995809936524C155.79399499195813,52.92995809936524,155.99799499195814,53.50595809936523,155.99799499195814,54.50195809936523L155.99799499195814,58.60595809936523L157.04199499195815,58.60595809936523L157.04199499195815,54.11795809936523C157.04199499195815,52.881958099365235,156.56199499195813,52.00595809936524,154.86999499195815,52.00595809936524ZM162.78999499195814,50.93795809936523C163.22199499195816,50.93795809936523,163.40199499195813,50.85395809936524,163.40199499195813,50.32595809936524C163.40199499195813,49.785957099365234,163.22199499195816,49.71395909936523,162.78999499195814,49.71395909936523C162.33399499195815,49.71395909936523,162.16599499195814,49.785957099365234,162.16599499195814,50.32595809936524C162.16599499195814,50.85395809936524,162.33399499195815,50.93795809936523,162.78999499195814,50.93795809936523ZM162.26199499195815,58.60595809936523L163.29399499195813,58.60595809936523L163.29399499195813,52.125958099365235L162.26199499195815,52.125958099365235L162.26199499195815,58.60595809936523ZM168.58599499195813,52.00595809936524C167.79399499195813,52.00595809936524,166.90599499195815,52.22195809936523,166.50999499195814,53.049958099365234L166.50999499195814,52.125958099365235L165.47799499195816,52.125958099365235L165.47799499195816,58.60595809936523L166.50999499195814,58.60595809936523L166.50999499195814,54.225958099365236C166.86999499195815,53.085958099365236,167.66199499195815,52.92995809936524,168.47799499195816,52.92995809936524C169.50999499195814,52.92995809936524,169.71399499195815,53.50595809936523,169.71399499195815,54.50195809936523L169.71399499195815,58.60595809936523L170.75799499195813,58.60595809936523L170.75799499195813,54.11795809936523C170.75799499195813,52.881958099365235,170.27799499195814,52.00595809936524,168.58599499195813,52.00595809936524ZM174.90999499195814,57.81395809936524C174.11799499195814,57.81395809936524,173.97399499195814,57.573958099365235,173.97399499195814,56.56595809936523L173.97399499195814,52.98995809936523L175.58199499195814,52.98995809936523L175.58199499195814,52.125958099365235L173.97399499195814,52.125958099365235L173.97399499195814,50.589958099365234L172.94199499195815,50.589958099365234L172.94199499195815,52.125958099365235L171.98199499195815,52.125958099365235L171.98199499195815,52.98995809936523L172.94199499195815,52.98995809936523L172.94199499195815,56.625958099365235C172.94199499195815,58.329958099365236,173.45799499195815,58.677958099365235,174.88599499195814,58.677958099365235C175.16199499195815,58.677958099365235,175.36599499195813,58.653958099365234,175.61799499195814,58.61795809936523L175.61799499195814,57.741958099365235C175.38999499195813,57.789958099365236,175.19799499195815,57.81395809936524,174.90999499195814,57.81395809936524ZM179.55399499195815,58.725958099365236C181.47399499195814,58.725958099365236,182.54199499195815,57.945958099365235,182.54199499195815,55.36595809936524C182.54199499195815,52.78595809936523,181.47399499195814,52.00595809936524,179.55399499195815,52.00595809936524C177.64599499195813,52.00595809936524,176.55399499195815,52.78595809936523,176.55399499195815,55.36595809936524C176.55399499195815,57.945958099365235,177.64599499195813,58.725958099365236,179.55399499195815,58.725958099365236ZM179.55399499195815,57.84995809936524C178.14999499195815,57.84995809936524,177.65799499195813,57.26195809936523,177.65799499195813,55.36595809936524C177.65799499195813,53.469958099365236,178.10199499195815,52.869958099365235,179.55399499195815,52.869958099365235C180.96999499195815,52.869958099365235,181.44999499195814,53.469958099365236,181.44999499195814,55.36595809936524C181.44999499195814,57.26195809936523,181.01799499195815,57.84995809936524,179.55399499195815,57.84995809936524ZM5.637994991958141,73.71795809936523C5.637994991958141,72.45795809936524,5.253994991958141,71.00595809936523,3.0459949919581413,71.00595809936523C1.1979949919581414,71.00595809936523,0.10599499195814133,71.78595809936523,0.10599499195814133,74.36595809936523C0.10599499195814133,76.94595809936524,1.1979949919581414,77.72595809936523,3.1059949919581413,77.72595809936523C4.029994991958141,77.72595809936523,4.917994991958142,77.53395809936524,5.2899949919581415,77.34195809936523L5.2899949919581415,76.39395809936524C4.7979949919581415,76.63395809936523,3.969994991958141,76.81395809936524,3.2619949919581415,76.81395809936524C1.6899949919581414,76.81395809936524,1.1979949919581414,76.16595809936524,1.1859949919581414,74.74995809936523L5.577994991958142,74.47395809936523C5.613994991958141,74.17395809936524,5.637994991958141,73.89795809936524,5.637994991958141,73.71795809936523ZM1.1859949919581414,73.98195809936523C1.2219949919581414,72.66195809936524,1.5579949919581413,71.85795809936523,3.0459949919581413,71.85795809936523C4.449994991958142,71.85795809936523,4.617994991958141,72.73395809936524,4.617994991958141,73.72995809936523L1.1859949919581414,73.98195809936523ZM8.877994991958142,77.60595809936524L10.101994991958142,77.60595809936524L12.525994991958141,71.12595809936523L11.43399499195814,71.12595809936523L9.537994991958142,76.57395809936523L9.46599499195814,76.57395809936523L7.497994991958142,71.12595809936523L6.453994991958141,71.12595809936523L8.877994991958142,77.60595809936524ZM18.76599499195814,73.71795809936523C18.76599499195814,72.45795809936524,18.38199499195814,71.00595809936523,16.173994991958143,71.00595809936523C14.325994991958142,71.00595809936523,13.233994991958141,71.78595809936523,13.233994991958141,74.36595809936523C13.233994991958141,76.94595809936524,14.325994991958142,77.72595809936523,16.23399499195814,77.72595809936523C17.15799499195814,77.72595809936523,18.045994991958143,77.53395809936524,18.417994991958142,77.34195809936523L18.417994991958142,76.39395809936524C17.92599499195814,76.63395809936523,17.097994991958142,76.81395809936524,16.38999499195814,76.81395809936524C14.817994991958141,76.81395809936524,14.325994991958142,76.16595809936524,14.313994991958142,74.74995809936523L18.705994991958143,74.47395809936523C18.74199499195814,74.17395809936524,18.76599499195814,73.89795809936524,18.76599499195814,73.71795809936523ZM14.313994991958142,73.98195809936523C14.349994991958141,72.66195809936524,14.685994991958141,71.85795809936523,16.173994991958143,71.85795809936523C17.577994991958143,71.85795809936523,17.745994991958142,72.73395809936524,17.745994991958142,73.72995809936523L14.313994991958142,73.98195809936523ZM23.649994991958142,71.00595809936523C22.86999499195814,71.00595809936523,21.993994991958143,71.22195809936524,21.58599499195814,72.30195809936524L21.58599499195814,71.12595809936523L20.55399499195814,71.12595809936523L20.55399499195814,77.60595809936524L21.58599499195814,77.60595809936524L21.58599499195814,73.36995809936523C21.94599499195814,72.21795809936523,22.76199499195814,71.94195809936524,23.589994991958143,71.94195809936524L23.73399499195814,71.94195809936524L23.769994991958143,71.00595809936523L23.649994991958142,71.00595809936523ZM24.81399499195814,80.00595809936523C26.72199499195814,80.00595809936523,27.27399499195814,79.00995809936524,27.885994991958142,77.38995809936523L30.213994991958142,71.12595809936523L29.16999499195814,71.12595809936523L27.29799499195814,76.50195809936523L27.225994991958142,76.50195809936523L25.245994991958142,71.12595809936523L24.129994991958142,71.12595809936523L26.72199499195814,77.59395809936524C26.397994991958143,78.63795809936524,25.94199499195814,79.11795809936524,24.81399499195814,79.11795809936524L24.81399499195814,80.00595809936523ZM36.89799499195814,69.26595809936524C37.17399499195814,69.26595809936524,37.43799499195814,69.28995809936524,37.61799499195814,69.32595809936524L37.61799499195814,68.49795809936523C37.38999499195814,68.46195809936523,37.13799499195814,68.43795809936523,36.89799499195814,68.43795809936523C35.57799499195814,68.43795809936523,34.71399499195814,68.82195809936523,34.71399499195814,71.06595809936523L34.71399499195814,71.12595809936523L33.63399499195814,71.12595809936523L33.63399499195814,71.97795809936524L34.71399499195814,71.97795809936524L34.71399499195814,77.60595809936524L35.74599499195814,77.60595809936524L35.74599499195814,71.97795809936524L37.26999499195814,71.97795809936524L37.26999499195814,71.12595809936523L35.74599499195814,71.12595809936523C35.75799499195814,69.64995809936524,36.009994991958145,69.26595809936524,36.89799499195814,69.26595809936524ZM41.793994991958144,71.00595809936523C41.01399499195814,71.00595809936523,40.13799499195814,71.22195809936524,39.729994991958144,72.30195809936524L39.729994991958144,71.12595809936523L38.69799499195814,71.12595809936523L38.69799499195814,77.60595809936524L39.729994991958144,77.60595809936524L39.729994991958144,73.36995809936523C40.08999499195814,72.21795809936523,40.90599499195814,71.94195809936524,41.73399499195814,71.94195809936524L41.87799499195814,71.94195809936524L41.91399499195814,71.00595809936523L41.793994991958144,71.00595809936523ZM45.22599499195814,71.00595809936523C44.75799499195814,71.00595809936523,44.229994991958144,71.04195809936523,43.74999499195814,71.10195809936523L43.74999499195814,72.01395809936523C44.21799499195814,71.91795809936524,44.74599499195814,71.86995809936523,45.177994991958144,71.86995809936523C46.497994991958144,71.86995809936523,46.77399499195814,72.40995809936524,46.77399499195814,73.18995809936524L46.77399499195814,73.72995809936523L44.793994991958144,73.72995809936523C43.24599499195814,73.72995809936523,42.22599499195814,74.25795809936523,42.22599499195814,75.79395809936523C42.22599499195814,77.01795809936523,42.90999499195814,77.72595809936523,44.45799499195814,77.72595809936523C45.42999499195814,77.72595809936523,46.40199499195814,77.32995809936523,46.77399499195814,76.62195809936523L46.92999499195814,77.60595809936524L47.805994991958144,77.60595809936524L47.805994991958144,73.00995809936524C47.805994991958144,71.84595809936523,47.26599499195814,71.00595809936523,45.22599499195814,71.00595809936523ZM44.55399499195814,76.86195809936524C43.64199499195814,76.86195809936524,43.293994991958144,76.48995809936524,43.293994991958144,75.78195809936523C43.293994991958144,74.77395809936523,43.79799499195814,74.55795809936524,44.86599499195814,74.55795809936524L46.77399499195814,74.55795809936524L46.77399499195814,75.62595809936523C46.43799499195814,76.39395809936524,45.63399499195814,76.86195809936524,44.55399499195814,76.86195809936524ZM52.61799499195814,77.72595809936523C53.229994991958144,77.72595809936523,53.97399499195814,77.61795809936524,54.33399499195814,77.48595809936523L54.33399499195814,76.53795809936523C53.86599499195814,76.72995809936523,53.253994991958145,76.81395809936524,52.64199499195814,76.81395809936524C51.20199499195814,76.81395809936524,50.72199499195814,76.26195809936523,50.72199499195814,74.37795809936523C50.72199499195814,72.46995809936524,51.20199499195814,71.90595809936524,52.62999499195814,71.90595809936524C53.28999499195814,71.90595809936524,53.82999499195814,72.01395809936523,54.30999499195814,72.19395809936523L54.30999499195814,71.24595809936524C53.94999499195814,71.12595809936523,53.33799499195814,71.00595809936523,52.61799499195814,71.00595809936523C50.70999499195814,71.00595809936523,49.61799499195814,71.78595809936523,49.61799499195814,74.36595809936523C49.61799499195814,76.94595809936524,50.70999499195814,77.72595809936523,52.61799499195814,77.72595809936523ZM57.98199499195814,76.81395809936524C57.189994991958145,76.81395809936524,57.04599499195814,76.57395809936523,57.04599499195814,75.56595809936523L57.04599499195814,71.98995809936524L58.65399499195814,71.98995809936524L58.65399499195814,71.12595809936523L57.04599499195814,71.12595809936523L57.04599499195814,69.58995809936523L56.01399499195814,69.58995809936523L56.01399499195814,71.12595809936523L55.05399499195814,71.12595809936523L55.05399499195814,71.98995809936524L56.01399499195814,71.98995809936524L56.01399499195814,75.62595809936523C56.01399499195814,77.32995809936523,56.52999499195814,77.67795809936524,57.95799499195814,77.67795809936524C58.23399499195814,77.67795809936524,58.43799499195814,77.65395809936524,58.689994991958145,77.61795809936524L58.689994991958145,76.74195809936523C58.46199499195814,76.78995809936524,58.26999499195814,76.81395809936524,57.98199499195814,76.81395809936524ZM60.53799499195814,69.93795809936523C60.96999499195814,69.93795809936523,61.14999499195814,69.85395809936523,61.14999499195814,69.32595809936524C61.14999499195814,68.78595809936523,60.96999499195814,68.71395809936524,60.53799499195814,68.71395809936524C60.08199499195814,68.71395809936524,59.91399499195814,68.78595809936523,59.91399499195814,69.32595809936524C59.91399499195814,69.85395809936523,60.08199499195814,69.93795809936523,60.53799499195814,69.93795809936523ZM60.009994991958145,77.60595809936524L61.04199499195814,77.60595809936524L61.04199499195814,71.12595809936523L60.009994991958145,71.12595809936523L60.009994991958145,77.60595809936524ZM65.84199499195815,77.72595809936523C67.76199499195815,77.72595809936523,68.82999499195815,76.94595809936524,68.82999499195815,74.36595809936523C68.82999499195815,71.78595809936523,67.76199499195815,71.00595809936523,65.84199499195815,71.00595809936523C63.933994991958144,71.00595809936523,62.84199499195814,71.78595809936523,62.84199499195814,74.36595809936523C62.84199499195814,76.94595809936524,63.933994991958144,77.72595809936523,65.84199499195815,77.72595809936523ZM65.84199499195815,76.84995809936524C64.43799499195813,76.84995809936524,63.945994991958145,76.26195809936523,63.945994991958145,74.36595809936523C63.945994991958145,72.46995809936524,64.38999499195815,71.86995809936523,65.84199499195815,71.86995809936523C67.25799499195814,71.86995809936523,67.73799499195815,72.46995809936524,67.73799499195815,74.36595809936523C67.73799499195815,76.26195809936523,67.30599499195814,76.84995809936524,65.84199499195815,76.84995809936524ZM73.74999499195815,71.00595809936523C72.95799499195815,71.00595809936523,72.06999499195814,71.22195809936524,71.67399499195814,72.04995809936523L71.67399499195814,71.12595809936523L70.64199499195814,71.12595809936523L70.64199499195814,77.60595809936524L71.67399499195814,77.60595809936524L71.67399499195814,73.22595809936523C72.03399499195814,72.08595809936523,72.82599499195814,71.92995809936524,73.64199499195814,71.92995809936524C74.67399499195814,71.92995809936524,74.87799499195815,72.50595809936523,74.87799499195815,73.50195809936523L74.87799499195815,77.60595809936524L75.92199499195814,77.60595809936524L75.92199499195814,73.11795809936524C75.92199499195814,71.88195809936524,75.44199499195814,71.00595809936523,73.74999499195815,71.00595809936523ZM83.75799499195814,77.72595809936523C85.67799499195814,77.72595809936523,86.74599499195814,76.94595809936524,86.74599499195814,74.36595809936523C86.74599499195814,71.78595809936523,85.67799499195814,71.00595809936523,83.75799499195814,71.00595809936523C81.84999499195814,71.00595809936523,80.75799499195814,71.78595809936523,80.75799499195814,74.36595809936523C80.75799499195814,76.94595809936524,81.84999499195814,77.72595809936523,83.75799499195814,77.72595809936523ZM83.75799499195814,76.84995809936524C82.35399499195815,76.84995809936524,81.86199499195814,76.26195809936523,81.86199499195814,74.36595809936523C81.86199499195814,72.46995809936524,82.30599499195814,71.86995809936523,83.75799499195814,71.86995809936523C85.17399499195814,71.86995809936523,85.65399499195814,72.46995809936524,85.65399499195814,74.36595809936523C85.65399499195814,76.26195809936523,85.22199499195814,76.84995809936524,83.75799499195814,76.84995809936524ZM90.94599499195814,69.26595809936524C91.22199499195814,69.26595809936524,91.48599499195814,69.28995809936524,91.66599499195814,69.32595809936524L91.66599499195814,68.49795809936523C91.43799499195813,68.46195809936523,91.18599499195814,68.43795809936523,90.94599499195814,68.43795809936523C89.62599499195814,68.43795809936523,88.76199499195815,68.82195809936523,88.76199499195815,71.06595809936523L88.76199499195815,71.12595809936523L87.68199499195813,71.12595809936523L87.68199499195813,71.97795809936524L88.76199499195815,71.97795809936524L88.76199499195815,77.60595809936524L89.79399499195814,77.60595809936524L89.79399499195814,71.97795809936524L91.31799499195814,71.97795809936524L91.31799499195814,71.12595809936523L89.79399499195814,71.12595809936523C89.80599499195814,69.64995809936524,90.05799499195814,69.26595809936524,90.94599499195814,69.26595809936524ZM100.24599499195814,68.48595809936523L100.24599499195814,72.25395809936524C99.98199499195815,71.49795809936523,99.40599499195814,71.00595809936523,98.13399499195815,71.00595809936523C95.98599499195814,71.00595809936523,95.45799499195815,72.58995809936523,95.45799499195815,74.36595809936523C95.45799499195815,76.34595809936523,95.98599499195814,77.72595809936523,98.13399499195815,77.72595809936523C99.30999499195813,77.72595809936523,99.99399499195815,77.22195809936524,100.24599499195814,76.53795809936523L100.40199499195815,77.60595809936524L101.27799499195814,77.60595809936524L101.27799499195814,68.48595809936523L100.24599499195814,68.48595809936523ZM98.28999499195814,76.84995809936524C96.76599499195814,76.84995809936524,96.56199499195814,75.72195809936524,96.56199499195814,74.36595809936523C96.56199499195814,73.10595809936524,96.72999499195814,71.86995809936523,98.28999499195814,71.86995809936523C99.84999499195814,71.86995809936523,100.28199499195814,72.87795809936523,100.28199499195814,74.36595809936523C100.28199499195814,75.91395809936523,99.84999499195814,76.84995809936524,98.28999499195814,76.84995809936524ZM108.59799499195815,73.71795809936523C108.59799499195815,72.45795809936524,108.21399499195815,71.00595809936523,106.00599499195815,71.00595809936523C104.15799499195815,71.00595809936523,103.06599499195814,71.78595809936523,103.06599499195814,74.36595809936523C103.06599499195814,76.94595809936524,104.15799499195815,77.72595809936523,106.06599499195814,77.72595809936523C106.98999499195814,77.72595809936523,107.87799499195815,77.53395809936524,108.24999499195815,77.34195809936523L108.24999499195815,76.39395809936524C107.75799499195814,76.63395809936523,106.92999499195814,76.81395809936524,106.22199499195814,76.81395809936524C104.64999499195814,76.81395809936524,104.15799499195815,76.16595809936524,104.14599499195815,74.74995809936523L108.53799499195814,74.47395809936523C108.57399499195814,74.17395809936524,108.59799499195815,73.89795809936524,108.59799499195815,73.71795809936523ZM104.14599499195815,73.98195809936523C104.18199499195813,72.66195809936524,104.51799499195815,71.85795809936523,106.00599499195815,71.85795809936523C107.40999499195814,71.85795809936523,107.57799499195814,72.73395809936524,107.57799499195814,73.72995809936523L104.14599499195815,73.98195809936523ZM111.88599499195814,77.67795809936524C113.46999499195815,77.67795809936524,114.34599499195814,77.08995809936523,114.34599499195814,75.80595809936523C114.34599499195814,74.55795809936524,113.80599499195814,74.14995809936524,112.31799499195814,73.81395809936524C111.30999499195813,73.58595809936523,111.08199499195814,73.44195809936524,111.08199499195814,72.78195809936523C111.08199499195814,72.04995809936523,111.53799499195814,71.84595809936523,112.44999499195814,71.84595809936523C113.04999499195814,71.84595809936523,113.62599499195814,71.95395809936524,113.99799499195814,72.09795809936523L114.06999499195814,71.22195809936524C113.75799499195814,71.10195809936523,113.06199499195814,71.00595809936523,112.43799499195813,71.00595809936523C110.90199499195815,71.00595809936523,110.10999499195815,71.71395809936524,110.10999499195815,72.75795809936523C110.10999499195815,73.84995809936524,110.49399499195815,74.30595809936523,111.92199499195814,74.62995809936524C113.15799499195815,74.91795809936524,113.37399499195814,75.07395809936523,113.37399499195814,75.84195809936523C113.37399499195814,76.59795809936523,112.85799499195814,76.83795809936524,111.87399499195814,76.83795809936524C111.28599499195815,76.83795809936524,110.45799499195815,76.71795809936523,110.00199499195814,76.58595809936523L110.00199499195814,77.47395809936523C110.36199499195814,77.58195809936524,111.26199499195815,77.67795809936524,111.88599499195814,77.67795809936524ZM116.66199499195814,69.93795809936523C117.09399499195814,69.93795809936523,117.27399499195815,69.85395809936523,117.27399499195815,69.32595809936524C117.27399499195815,68.78595809936523,117.09399499195814,68.71395809936524,116.66199499195814,68.71395809936524C116.20599499195814,68.71395809936524,116.03799499195814,68.78595809936523,116.03799499195814,69.32595809936524C116.03799499195814,69.85395809936523,116.20599499195814,69.93795809936523,116.66199499195814,69.93795809936523ZM116.13399499195815,77.60595809936524L117.16599499195814,77.60595809936524L117.16599499195814,71.12595809936523L116.13399499195815,71.12595809936523L116.13399499195815,77.60595809936524ZM123.76599499195814,71.12595809936523L123.76599499195814,72.33795809936524C123.51399499195814,71.56995809936524,122.97399499195814,71.00595809936523,121.66599499195814,71.00595809936523C119.50599499195815,71.00595809936523,118.97799499195814,72.51795809936523,118.97799499195814,74.30595809936523C118.97799499195814,76.28595809936523,119.50599499195815,77.60595809936524,121.66599499195814,77.60595809936524C122.91399499195815,77.60595809936524,123.50199499195814,77.14995809936524,123.76599499195814,76.39395809936524L123.76599499195814,77.04195809936523C123.76599499195814,78.52995809936523,123.08199499195814,79.11795809936524,121.64199499195814,79.11795809936524C121.08999499195814,79.11795809936524,120.54999499195814,79.06995809936524,120.05799499195814,78.97395809936523L120.05799499195814,79.84995809936524C120.46599499195814,79.93395809936524,121.07799499195814,80.00595809936523,121.62999499195814,80.00595809936523C123.82599499195814,80.00595809936523,124.79799499195813,78.93795809936523,124.79799499195813,77.14995809936524L124.79799499195813,71.12595809936523L123.76599499195814,71.12595809936523ZM121.80999499195813,76.74195809936523C120.28599499195815,76.74195809936523,120.08199499195814,75.66195809936524,120.08199499195814,74.30595809936523C120.08199499195814,73.04595809936524,120.24999499195815,71.86995809936523,121.80999499195813,71.86995809936523C123.36999499195814,71.86995809936523,123.80199499195814,72.81795809936523,123.80199499195814,74.30595809936523C123.80199499195814,75.85395809936523,123.36999499195814,76.74195809936523,121.80999499195813,76.74195809936523ZM130.08999499195815,71.00595809936523C129.29799499195815,71.00595809936523,128.40999499195814,71.22195809936524,128.01399499195816,72.04995809936523L128.01399499195816,71.12595809936523L126.98199499195815,71.12595809936523L126.98199499195815,77.60595809936524L128.01399499195816,77.60595809936524L128.01399499195816,73.22595809936523C128.37399499195814,72.08595809936523,129.16599499195814,71.92995809936524,129.98199499195815,71.92995809936524C131.01399499195813,71.92995809936524,131.21799499195814,72.50595809936523,131.21799499195814,73.50195809936523L131.21799499195814,77.60595809936524L132.26199499195815,77.60595809936524L132.26199499195815,73.11795809936524C132.26199499195815,71.88195809936524,131.78199499195813,71.00595809936523,130.08999499195815,71.00595809936523ZM135.11799499195814,77.67795809936524C135.66999499195813,77.67795809936524,135.88599499195814,77.58195809936524,135.88599499195814,76.90995809936524C135.88599499195814,76.26195809936523,135.66999499195813,76.16595809936524,135.11799499195814,76.16595809936524C134.55399499195815,76.16595809936524,134.34999499195814,76.26195809936523,134.34999499195814,76.90995809936524C134.34999499195814,77.58195809936524,134.55399499195815,77.67795809936524,135.11799499195814,77.67795809936524Z" fill="#FFFFFF" fill-opacity="1"/></g></g><g><g><path d="M1.092,5.52996L2.08599,5.52996L2.08599,13.02L1.092,13.02L1.092,5.52996ZM9.17,12.964L8.932,12.054L10.248,12.082Q10.78,12.082,10.78,11.466L10.78,4.94196L5.34799,4.94196L5.34799,4.01796L11.774,4.01796L11.774,11.746Q11.774,12.964,10.458,12.964L9.17,12.964ZM3.89199,6.18796L8.946,6.18796L8.946,11.466L3.89199,11.466L3.89199,6.18796ZM8.00799,10.612L8.00799,9.21196L4.858,9.21196L4.858,10.612L8.00799,10.612ZM4.858,8.39996L8.00799,8.39996L8.00799,7.02796L4.858,7.02796L4.858,8.39996ZM2.506,3.44396Q3.654,4.45196,4.21399,5.13796L3.47199,5.65596Q2.842,4.87196,1.764,3.90596L2.506,3.44396ZM2.184,2.05796Q1.59599,3.05196,0.979995,3.76596L0.125995,3.21996Q1.386,1.81996,1.97399,0.125957L2.95399,0.335957L2.618,1.17596L6.31399,1.17596L6.31399,2.05796L4.21399,2.05796Q4.75999,2.81396,5.04,3.44396L4.14399,3.77996Q3.73799,2.91196,3.15,2.05796L2.184,2.05796ZM8.134,2.05796Q7.7,2.88396,7.19599,3.52796L6.34199,2.98196Q7.39199,1.66596,7.85399,0.139957L8.81999,0.349957Q8.67999,0.797957,8.526,1.17596L12.614,1.17596L12.614,2.05796L10.29,2.05796Q10.738,2.68796,11.088,3.33196L10.192,3.66796Q9.77199,2.81396,9.212,2.05796L8.134,2.05796ZM22.218,4.88596L23.226,4.88596L23.226,12.894L22.218,12.894L22.218,4.88596ZM17.5,4.92796L18.508,4.92796L18.508,7.46196Q18.452,11.27,16.002,13.034L15.26,12.376Q17.458,10.85,17.5,7.46196L17.5,4.92796ZM20.762,0.237957Q23.352,3.30396,26.74,5.06796L26.25,5.96396Q22.834,4.14396,20.398,1.18996Q18.186,4.00396,14.574,6.08996L14.084,5.19396Q17.668,3.19196,20.034,0.237957L20.762,0.237957ZM30.898,3.10796Q31.276,3.10796,31.514,3.34596Q31.752,3.58396,31.752,3.93396Q31.752,4.29796,31.514,4.53596Q31.248,4.77396,30.898,4.77396Q30.562,4.77396,30.296,4.53596Q30.058,4.29796,30.058,3.93396Q30.058,3.56996,30.296,3.34596Q30.534,3.10796,30.898,3.10796ZM30.898,8.23196Q31.276,8.23196,31.514,8.46996Q31.752,8.70796,31.752,9.05796Q31.752,9.42196,31.514,9.65996Q31.248,9.89796,30.898,9.89796Q30.562,9.89796,30.296,9.65996Q30.058,9.42196,30.058,9.05796Q30.058,8.69396,30.296,8.46996Q30.534,8.23196,30.898,8.23196ZM43.246,0.349957Q44.772,1.38596,45.864,2.47796L45.15,3.20596Q44.17,2.15596,42.546,1.04996L43.246,0.349957ZM42.91,3.63996Q44.422,4.74596,45.402,5.80996L44.688,6.52396Q43.764,5.50196,42.196,4.32596L42.91,3.63996ZM45.752,7.90996Q44.744,10.514,43.456,12.908L42.462,12.46Q43.848,10.024,44.842,7.54596L45.752,7.90996ZM47.11,0.657957L53.564,0.657957L53.564,4.14396L47.11,4.14396L47.11,0.657957ZM52.556,3.24796L52.556,1.53996L48.104,1.53996L48.104,3.24796L52.556,3.24796ZM47.698,8.21796L47.698,9.46396L52.99,9.46396L52.99,8.21796L47.698,8.21796ZM52.99,7.32196L52.99,6.01996L47.698,6.01996L47.698,7.32196L52.99,7.32196ZM47.698,10.36L47.698,12.992L46.676,12.992L46.676,5.06796L53.998,5.06796L53.998,11.634Q53.998,12.95,52.654,12.95L51.016,12.95L50.75,11.984L52.318,12.026Q52.99,12.026,52.99,11.41L52.99,10.36L47.698,10.36ZM57.246,0.349957Q58.772,1.38596,59.864,2.47796L59.15,3.20596Q58.17,2.15596,56.546,1.04996L57.246,0.349957ZM56.91,3.63996Q58.422,4.74596,59.402,5.80996L58.688,6.52396Q57.764,5.50196,56.196,4.32596L56.91,3.63996ZM59.752,7.90996Q58.744,10.514,57.456,12.908L56.462,12.46Q57.848,10.024,58.842,7.54596L59.752,7.90996ZM61.11,0.657957L67.564,0.657957L67.564,4.14396L61.11,4.14396L61.11,0.657957ZM66.556,3.24796L66.556,1.53996L62.104,1.53996L62.104,3.24796L66.556,3.24796ZM61.698,8.21796L61.698,9.46396L66.99,9.46396L66.99,8.21796L61.698,8.21796ZM66.99,7.32196L66.99,6.01996L61.698,6.01996L61.698,7.32196L66.99,7.32196ZM61.698,10.36L61.698,12.992L60.676,12.992L60.676,5.06796L67.998,5.06796L67.998,11.634Q67.998,12.95,66.654,12.95L65.016,12.95L64.75,11.984L66.318,12.026Q66.99,12.026,66.99,11.41L66.99,10.36L61.698,10.36ZM74.396,11.13Q72.576,11.914,70.182,12.404L70.056,11.438Q72.562,10.976,74.396,10.178L74.396,11.13ZM73.108,0.503957Q72.128,3.30396,71.162,4.89996Q72.016,4.77396,72.828,4.60596L73.556,2.99596L74.438,3.31796Q72.73,6.95796,71.638,8.42796Q73.052,8.14796,74.382,7.69996L74.382,8.59596Q72.408,9.22596,70.504,9.49196L70.252,8.60996Q70.504,8.49796,70.686,8.34396Q71.4,7.47596,72.394,5.48796Q71.33,5.69796,70.252,5.86596L70,4.99796Q70.238,4.88596,70.406,4.63396Q71.414,2.71596,72.184,0.139957L73.108,0.503957ZM78.19,2.22596L75.922,2.22596L75.922,6.13196L78.19,6.13196L78.19,2.22596ZM78.19,7.04196L75.922,7.04196L75.922,11.102L78.19,11.102L78.19,7.04196ZM79.114,11.102L81.368,11.102L81.368,7.04196L79.114,7.04196L79.114,11.102ZM79.114,6.13196L81.368,6.13196L81.368,2.22596L79.114,2.22596L79.114,6.13196ZM81.368,12.026L75.922,12.026L75.922,12.936L74.998,12.936L74.998,1.28796L82.32,1.28796L82.32,12.936L81.368,12.936L81.368,12.026ZM88.018,5.16596Q88.144,5.12396,88.228,5.08196Q89.012,4.59196,90.272,2.50596L87.822,2.50596L87.822,1.59596L91.728,1.59596Q91.434,0.811957,91.098,0.167957L92.12,-0.0000429687Q92.414,0.615957,92.736,1.59596L96.418,1.59596L96.418,2.50596L91.308,2.50596Q90.314,4.26996,89.572,5.06796Q91.98,4.94196,94.374,4.64796Q93.758,3.83596,93.422,3.41596L94.248,2.92596Q95.662,4.61996,96.418,5.93596L95.592,6.52396Q95.48,6.32796,94.948,5.45996Q91.994,5.79596,88.242,6.01996L88.018,5.16596ZM85.19,0.363957Q86.534,1.28796,87.416,2.18396L86.702,2.89796Q85.89,2.01596,84.476,1.04996L85.19,0.363957ZM84.868,3.68196Q86.268,4.77396,87.122,5.76796L86.408,6.48196Q85.624,5.52996,84.154,4.36796L84.868,3.68196ZM87.192,7.74196Q86.38,10.444,85.386,12.824L84.448,12.418Q85.526,10.01,86.296,7.40596L87.192,7.74196ZM91.098,6.66396L92.12,6.66396L92.12,12.726L91.098,12.726L91.098,6.66396ZM89.81,6.64996Q89.726,9.39396,89.264,10.682Q88.76,12.012,87.57,12.992L86.926,12.194Q87.934,11.368,88.354,10.248Q88.746,9.15596,88.83,6.64996L89.81,6.64996ZM94.794,12.866Q93.59,12.866,93.59,11.774L93.59,6.66396L94.556,6.66396L94.556,11.592Q94.556,11.9,94.822,11.942L95.438,11.942Q95.816,11.9,95.858,11.452Q95.942,10.948,95.942,9.82796L96.824,10.164Q96.824,12.012,96.572,12.432Q96.306,12.824,95.494,12.866L94.794,12.866ZM99.946,9.95396Q100.954,9.95396,100.954,11.312Q100.954,13.118,99.372,13.986L98.994,13.384Q100.086,12.67,100.17,11.578Q100.058,11.606,99.946,11.606Q99.596,11.606,99.33,11.382Q99.092,11.158,99.092,10.794Q99.092,10.374,99.33,10.178Q99.568,9.95396,99.946,9.95396ZM116.424,6.69196L119.63,6.69196L119.63,4.08796L120.652,4.08796L120.652,6.69196L123.998,6.69196L123.998,7.67196L120.652,7.67196L120.652,11.536L124.628,11.536L124.628,12.53L115.85,12.53L115.85,11.536L119.63,11.536L119.63,7.67196L116.424,7.67196L116.424,6.69196ZM114.17,7.30796Q113.33,8.17596,112.518,8.84796L111.888,8.02196Q114.506,5.86596,115.976,3.06596L112.378,3.06596L112.378,2.07196L116.452,2.07196Q116.914,1.02196,117.18,0.069957L118.23,0.195957Q117.894,1.31596,117.572,2.07196L124.614,2.07196L124.614,3.06596L117.124,3.06596Q116.312,4.71796,115.164,6.15996L115.164,13.048L114.17,13.048L114.17,7.30796ZM129.038,2.33796Q128.016,3.97596,126.756,5.12396L126.112,4.33996Q127.918,2.70196,129.066,0.069957L130.088,0.307957Q129.752,1.03596,129.584,1.37196L138.208,1.37196L138.208,2.33796L129.038,2.33796ZM131.292,7.95196Q132.86,8.49796,134.12,9.26796L133.644,9.99596Q132.258,9.11396,130.83,8.60996L131.292,7.95196ZM127.722,11.004Q128.03,9.37996,128.226,7.67196L125.958,7.67196L125.958,6.71996L128.324,6.71996Q128.464,5.23596,128.506,3.49996L137.2,3.49996L137.102,6.71996L138.866,6.71996L138.866,7.67196L137.06,7.67196L136.948,10.066L138.488,10.066L138.488,11.004L136.878,11.004Q136.836,11.466,136.78,11.718Q136.598,12.362,136.052,12.698Q135.548,12.992,134.526,12.992L132.874,13.006L132.566,12.068Q133.91,12.124,134.372,12.124Q134.848,12.124,135.254,12.012Q135.632,11.858,135.828,11.396Q135.842,11.354,135.898,11.004L127.722,11.004ZM135.982,10.066L136.094,7.67196L129.234,7.67196Q129.08,9.05796,128.884,10.066L135.982,10.066ZM133.686,6.71996Q132.356,5.89396,130.942,5.37596L131.404,4.70396Q132.986,5.26396,134.204,6.01996L133.742,6.71996L136.122,6.71996L136.192,4.43796L129.458,4.43796Q129.416,5.64196,129.332,6.71996L133.686,6.71996ZM140.098,5.96396L152.684,5.96396L152.684,6.97196L140.098,6.97196L140.098,5.96396ZM157.766,0.321957Q157.57,1.41396,157.332,2.32396L160.468,2.32396L160.468,3.21996Q159.894,6.91596,158.312,9.37996Q158.816,10.164,159.39,10.57Q161.014,11.718,164.584,11.76Q165.536,11.76,166.796,11.69L166.6,12.74L165.06,12.74Q160.748,12.74,158.802,11.298Q158.242,10.878,157.738,10.178Q156.422,11.83,154.686,12.866L154.14,11.914Q155.946,10.864,157.15,9.19796Q156.464,7.86796,155.932,5.96396Q155.414,6.90196,154.742,7.72796L154.056,6.87396Q156.058,4.39596,156.772,0.153957L157.766,0.321957ZM156.52,4.74596Q157.08,6.97196,157.724,8.31596Q158.97,6.17396,159.474,3.28996L157.052,3.28996Q156.814,4.01796,156.52,4.74596ZM162.344,0.237957L163.366,0.237957L163.366,3.79396Q165.06,5.01196,166.866,6.64996L166.264,7.54596Q164.5,5.75396,163.366,4.84396L163.366,10.668L162.344,10.668L162.344,0.237957ZM169.596,0.377957Q170.982,1.45596,171.934,2.50596L171.248,3.20596Q170.366,2.15596,168.896,1.03596L169.596,0.377957ZM168.028,4.47996L170.954,4.47996L170.954,10.696Q171.822,9.96796,172.578,9.25396L172.858,10.318Q171.57,11.522,170.058,12.516L169.666,11.62Q169.974,11.312,169.974,10.99L169.974,5.44596L168.028,5.44596L168.028,4.47996ZM172.998,6.11796L179.662,6.11796L179.662,7.04196Q178.99,9.02996,177.464,10.444Q178.864,11.41,180.95,12.18L180.404,13.048Q178.15,12.138,176.736,11.046Q175.098,12.278,172.592,13.048L172.032,12.194Q174.37,11.494,175.938,10.388Q174.356,8.93196,173.768,7.09796L172.998,7.09796L172.998,6.11796ZM174.72,7.09796Q175.266,8.62396,176.652,9.81396Q178.01,8.62396,178.668,7.09796L174.72,7.09796ZM174.076,0.713957L178.78,0.713957L178.78,3.73796Q178.78,4.26996,179.326,4.26996L180.614,4.26996L180.614,5.19396L179.074,5.19396Q177.786,5.19396,177.786,3.94796L177.786,1.66596L175.07,1.66596L175.07,2.15596Q175.07,4.36796,172.914,5.59996L172.242,4.82996Q174.076,3.91996,174.076,2.26796L174.076,0.713957ZM186.41,4.36796L190.204,4.36796L190.204,0.153957L191.24,0.153957L191.24,4.36796L194.838,4.36796L194.838,5.37596L191.24,5.37596L191.24,13.034L190.204,13.034L190.204,5.37596L186.41,5.37596L186.41,4.36796ZM183.666,0.307957Q185.108,1.38596,186.06,2.46396L185.374,3.16396Q184.506,2.14196,182.966,0.993957L183.666,0.307957ZM182.028,4.45196L185.052,4.45196L185.052,10.682Q186.032,9.85596,186.704,9.22596L186.956,10.262Q185.696,11.48,184.156,12.502L183.764,11.592Q184.086,11.34,184.086,11.004L184.086,5.41796L182.028,5.41796L182.028,4.45196ZM4.396,31.13Q2.57599,31.914,0.181995,32.404L0.055995,31.438Q2.562,30.976,4.396,30.178L4.396,31.13ZM3.108,20.504Q2.128,23.304,1.162,24.9Q2.016,24.774,2.828,24.606L3.55599,22.996L4.43799,23.318Q2.73,26.958,1.638,28.428Q3.052,28.148,4.382,27.7L4.382,28.596Q2.40799,29.226,0.503995,29.492L0.251995,28.61Q0.503995,28.498,0.685995,28.344Q1.39999,27.476,2.394,25.488Q1.33,25.698,0.251995,25.866L-0.00000500488,24.998Q0.237995,24.886,0.405995,24.634Q1.414,22.716,2.184,20.14L3.108,20.504ZM8.18999,22.226L5.922,22.226L5.922,26.132L8.18999,26.132L8.18999,22.226ZM8.18999,27.042L5.922,27.042L5.922,31.102L8.18999,31.102L8.18999,27.042ZM9.11399,31.102L11.368,31.102L11.368,27.042L9.11399,27.042L9.11399,31.102ZM9.11399,26.132L11.368,26.132L11.368,22.226L9.11399,22.226L9.11399,26.132ZM11.368,32.026L5.922,32.026L5.922,32.936L4.99799,32.936L4.99799,21.288L12.32,21.288L12.32,32.936L11.368,32.936L11.368,32.026ZM18.9,25.53L14.924,25.53L14.924,24.564L25.354,24.564Q25.242,28.078,25.186,28.75Q25.102,29.898,24.738,30.276Q24.36,30.696,23.394,30.696Q22.498,30.696,21.91,30.724L21.63,29.716L23.156,29.73Q23.702,29.73,23.954,29.45Q24.22,29.142,24.276,28.064Q24.318,27.042,24.346,25.53L19.922,25.53L19.922,32.964L18.9,32.964L18.9,25.53ZM14.308,21.54L17.542,21.54L17.542,20.182L18.564,20.182L18.564,21.54L22.232,21.54L22.232,20.182L23.254,20.182L23.254,21.54L26.488,21.54L26.488,22.52L23.254,22.52L23.254,23.85L22.232,23.85L22.232,22.52L18.564,22.52L18.564,23.836L17.542,23.836L17.542,22.52L14.308,22.52L14.308,21.54ZM33.88,20.112L34.916,20.112L34.916,22.632L39.942,22.632L39.942,29.212L38.934,29.212L38.934,28.33L34.916,28.33L34.916,33.104L33.88,33.104L33.88,28.33L29.876,28.33L29.876,29.212L28.868,29.212L28.868,22.632L33.88,22.632L33.88,20.112ZM29.876,27.35L33.88,27.35L33.88,23.612L29.876,23.612L29.876,27.35ZM34.916,27.35L38.934,27.35L38.934,23.612L34.916,23.612L34.916,27.35ZM49.224,22.632L51.212,22.632L51.212,20.224L52.15,20.224L52.15,22.632L54.18,22.632L54.18,28.232L52.15,28.232L52.15,31.354L53.494,31.06Q53.2,30.024,52.962,29.366L53.746,29.114Q54.348,30.696,54.796,32.67L53.928,32.88L53.718,31.9Q51.548,32.446,49.266,32.768L49.028,31.83Q49.882,31.732,51.212,31.522L51.212,28.232L49.224,28.232L49.224,22.632ZM53.312,27.336L53.312,23.528L52.108,23.528L52.108,27.336L53.312,27.336ZM51.268,27.336L51.268,23.528L50.092,23.528L50.092,27.336L51.268,27.336ZM42.182,20.728L48.832,20.728L48.832,21.638L42.182,21.638L42.182,20.728ZM42.98,22.534L48.006,22.534L48.006,25.544L42.98,25.544L42.98,22.534ZM47.11,24.746L47.11,23.318L43.876,23.318L43.876,24.746L47.11,24.746ZM43.778,29.534L45.626,29.534Q46.004,28.666,46.298,27.658L46.998,27.896Q46.704,28.82,46.368,29.534L47.208,29.534L47.208,30.318L45.864,30.318L45.864,32.838L45.052,32.838L45.052,30.318L43.778,30.318L43.778,29.534ZM44.59,27.77Q44.954,28.4,45.234,29.296L44.59,29.464Q44.352,28.736,43.932,27.98L44.59,27.77ZM46.55,32.908L46.298,32.012L47.278,32.054Q47.684,32.054,47.684,31.718L47.684,27.224L43.302,27.224L43.302,33.006L42.42,33.006L42.42,26.384L48.566,26.384L48.566,31.914Q48.566,32.908,47.586,32.908L46.55,32.908ZM61.782,23.416Q60.83,21.68,59.472,20.7L60.312,20.168Q62.16,21.456,63.476,24.886Q65.45,29.912,68.754,31.984L68.124,32.796Q64.736,30.752,62.566,25.18Q62.384,24.676,62.342,24.592Q60.956,29.954,56.546,32.81L55.944,31.956Q60.438,29.016,61.782,23.416ZM71.218,20.35Q72.814,21.414,73.878,22.506L73.164,23.234Q72.24,22.254,70.504,21.036L71.218,20.35ZM70.896,23.626Q72.408,24.732,73.402,25.81L72.688,26.524Q71.722,25.446,70.182,24.312L70.896,23.626ZM73.752,27.91Q72.73,30.556,71.442,32.866L70.434,32.432Q71.806,30.066,72.842,27.546L73.752,27.91ZM74.368,27.812L74.368,26.846L77.742,26.846L77.742,25.264L78.75,25.264L78.75,26.846L82.264,26.846L82.264,27.812L79.688,27.812Q80.64,29.73,82.824,31.242L82.166,32.054Q79.87,30.178,78.918,27.812L78.75,27.812L78.75,32.95L77.742,32.95L77.742,27.812L77.574,27.812Q76.496,30.472,74.046,32.194L73.514,31.326Q75.754,29.94,76.804,27.812L74.368,27.812ZM82.124,20.728L82.124,23.332L81.158,23.332L81.158,21.652L75.376,21.652L75.376,23.36L74.41,23.36L74.41,20.728L82.124,20.728ZM77.672,22.912Q76.706,24.844,75.18,25.852L74.438,25.222Q76.034,24.228,76.832,22.576L77.672,22.912ZM79.436,22.492Q80.99,24.046,81.83,25.222L81.018,25.796Q80.22,24.564,78.694,22.968L79.436,22.492ZM85.148,20.49Q86.562,21.596,87.43,22.562L86.716,23.276Q85.862,22.296,84.434,21.176L85.148,20.49ZM84.826,23.752Q86.17,24.788,87.136,25.88L86.408,26.58Q85.596,25.614,84.098,24.452L84.826,23.752ZM87.346,27.938Q86.506,30.542,85.456,32.852L84.476,32.418Q85.568,30.122,86.436,27.574L87.346,27.938ZM96.18,20.728L96.18,23.78L95.2,23.78L95.2,21.666L88.97,21.666L88.97,23.78L87.99,23.78L87.99,20.728L96.18,20.728ZM89.782,24.06L94.29,24.06L94.29,31.312Q94.29,31.788,94.682,31.816L95.284,31.816Q95.69,31.816,95.774,31.2Q95.816,30.444,95.816,28.946L96.726,29.212Q96.698,31.032,96.586,31.704Q96.376,32.684,95.298,32.684L94.542,32.684Q93.352,32.684,93.352,31.424L93.352,24.956L90.706,24.956L90.706,27.7Q90.622,31.214,88.2,33.02L87.388,32.292Q89.74,30.738,89.782,27.602L89.782,24.06ZM103.054,22.59L103.054,32.138L102.074,32.138L102.074,31.34L99.526,31.34L99.526,32.544L98.546,32.544L98.546,22.59L99.848,22.59Q100.254,21.442,100.45,20.154L101.458,20.294Q101.192,21.624,100.8,22.59L103.054,22.59ZM99.526,30.402L102.074,30.402L102.074,27.336L99.526,27.336L99.526,30.402ZM99.526,26.426L102.074,26.426L102.074,23.542L99.526,23.542L99.526,26.426ZM105.49,25.838Q106.946,27.504,107.786,28.89L106.988,29.45Q106.134,28.064,104.678,26.342L105.49,25.838ZM110.292,22.604Q110.292,29.59,110.082,31.228Q109.872,32.838,108.122,32.838L106.694,32.782L106.456,31.858Q107.338,31.9,107.982,31.9Q108.962,31.9,109.13,30.822Q109.256,29.646,109.298,23.584L105.448,23.584Q104.846,24.928,104.048,25.978L103.446,25.18Q104.902,23.15,105.448,20.14L106.442,20.266Q106.162,21.624,105.826,22.604L110.292,22.604ZM118.426,28.96L118.426,29.954L122.864,29.954L122.864,28.96L118.426,28.96ZM122.864,28.204L122.864,27.154L118.426,27.154L118.426,28.204L122.864,28.204ZM118.426,30.71L118.426,32.978L117.474,32.978L117.474,26.342L123.83,26.342L123.83,31.55Q123.83,32.922,122.612,32.922L121.576,32.922L121.338,32.04L122.318,32.082Q122.864,32.082,122.864,31.34L122.864,30.71L118.426,30.71ZM120.162,20.112L121.17,20.112L121.17,21.078L124.418,21.078L124.418,21.89L121.17,21.89L121.17,22.87L123.942,22.87L123.942,23.654L121.17,23.654L121.17,24.606L124.824,24.606L124.824,25.432L116.438,25.432L116.438,25.152L115.92,25.278Q115.486,23.934,114.898,22.8L115.612,22.562Q116.116,23.514,116.494,24.606L120.162,24.606L120.162,23.654L117.348,23.654L117.348,22.87L120.162,22.87L120.162,21.89L116.872,21.89L116.872,21.078L120.162,21.078L120.162,20.112ZM113.26,22.926Q113.204,24.97,112.602,26.86L111.832,26.65Q112.42,24.858,112.504,22.87L113.26,22.926ZM113.806,20.21L114.786,20.21L114.786,32.95L113.806,32.95L113.806,20.21ZM128.856,23.472L133.462,23.472L133.462,24.298L128.856,24.298L128.856,23.472ZM129.234,25.194L133.14,25.194L133.14,28.05L129.234,28.05L129.234,25.194ZM132.202,27.266L132.202,25.978L130.186,25.978L130.186,27.266L132.202,27.266ZM138.194,21.428L138.194,22.352L134.89,22.352Q134.974,23.836,135.226,24.774Q135.38,25.46,135.576,25.95Q136.374,24.676,136.85,23.108L137.634,23.514Q136.99,25.558,136.024,26.902L136.15,27.098Q136.696,27.84,137.158,27.84Q137.536,27.84,137.956,26.09L138.768,26.566Q138.138,28.778,137.256,28.778Q136.43,28.778,135.646,27.924Q135.478,27.728,135.422,27.644Q134.75,28.358,133.966,28.834L133.448,28.05Q134.274,27.56,134.946,26.804Q134.61,26.146,134.358,25.264Q134.036,24.116,133.924,22.352L128.212,22.352L128.212,24.074Q128.156,26.916,126.798,28.666L126.042,27.98Q127.162,26.58,127.232,24.074L127.232,21.428L133.882,21.428Q133.854,21.008,133.854,20.112L134.82,20.112Q134.82,21.008,134.848,21.428L136.374,21.428Q136.164,20.91,135.884,20.336L136.78,20.182Q137.032,20.714,137.242,21.428L138.194,21.428ZM128.534,29.072Q127.988,31.046,126.966,32.544L126.112,31.998Q127.162,30.556,127.61,28.876L128.534,29.072ZM130.998,32.782Q129.598,32.782,129.598,31.326L129.598,28.778L130.62,28.778L130.62,31.116Q130.62,31.83,131.306,31.83L133.924,31.83Q134.428,31.83,134.638,31.62Q134.904,31.354,135.002,30.164L135.954,30.486Q135.814,32.11,135.352,32.488Q134.96,32.782,134.12,32.782L130.998,32.782ZM136.85,29.17Q138.124,30.612,138.782,31.662L137.984,32.236Q137.298,31.144,136.038,29.674L136.85,29.17ZM132.426,28.624Q133.378,29.646,133.938,30.486L133.168,31.018Q132.594,30.094,131.67,29.086L132.426,28.624ZM142.898,29.618Q143.64,29.618,144.186,30.122Q144.718,30.626,144.718,31.382Q144.718,32.124,144.186,32.628Q143.64,33.132,142.898,33.132Q142.142,33.132,141.61,32.642Q141.078,32.152,141.078,31.382Q141.078,30.612,141.61,30.122Q142.142,29.618,142.898,29.618ZM142.898,30.346Q142.45,30.346,142.156,30.654Q141.834,30.934,141.834,31.382Q141.834,31.816,142.156,32.096Q142.464,32.404,142.898,32.404Q143.304,32.404,143.64,32.096Q143.962,31.802,143.962,31.382Q143.962,30.948,143.64,30.654Q143.332,30.346,142.898,30.346Z" fill="#FFFFFF" fill-opacity="1"/></g></g></g></svg>