<svg xmlns="http://www.w3.org/2000/svg" xmlns:xlink="http://www.w3.org/1999/xlink" fill="none" version="1.1" width="24" height="24" viewBox="0 0 24 24"><defs><clipPath id="master_svg0_1153_02267"><rect x="0" y="0" width="24" height="24" rx="0"/></clipPath></defs><g clip-path="url(#master_svg0_1153_02267)"><g><rect x="0" y="0" width="24" height="24" rx="0" fill="#FFFFFF" fill-opacity="0.009999999776482582"/></g><g><path d="M4.353613,3.646506L20.3536,19.6464Q20.4239,19.7168,20.4619,19.8087Q20.5,19.9005,20.5,20Q20.5,20.0492,20.4904,20.0975Q20.4808,20.1458,20.4619,20.1913Q20.4431,20.2368,20.4157,20.2778Q20.3884,20.3187,20.3536,20.3536Q20.3187,20.3884,20.2778,20.4157Q20.2368,20.4431,20.1913,20.4619Q20.1458,20.4808,20.0975,20.4904Q20.0492,20.5,20,20.5Q19.9005,20.5,19.8087,20.4619Q19.7168,20.4239,19.6464,20.3536L3.646506,4.353613L3.646447,4.353553Q3.57612,4.283227,3.5380599999999998,4.191342Q3.5,4.0994562,3.5,4Q3.5,3.9507543,3.509607,3.9024549Q3.519215,3.854155,3.5380599999999998,3.808658Q3.556906,3.763161,3.584265,3.722215Q3.611625,3.681269,3.646447,3.646447Q3.681269,3.611625,3.722215,3.584265Q3.763161,3.556906,3.808658,3.5380599999999998Q3.854155,3.519215,3.9024549,3.509607Q3.9507543,3.5,4,3.5Q4.0994562,3.5,4.191342,3.5380599999999998Q4.283227,3.57612,4.353553,3.646447L4.353613,3.646506Z" fill-rule="evenodd" fill="#333333" fill-opacity="1"/></g><g><path d="M20.3536,4.353553Q20.4239,4.283227,20.4619,4.191342Q20.5,4.0994561,20.5,4Q20.5,3.9507543,20.4904,3.9024549Q20.4808,3.854155,20.4619,3.808658Q20.4431,3.763161,20.4157,3.722215Q20.3884,3.681269,20.3536,3.646447Q20.3187,3.611625,20.2778,3.584265Q20.2368,3.556906,20.1913,3.5380599999999998Q20.1458,3.519215,20.0975,3.509607Q20.0492,3.5,20,3.5Q19.9005,3.5,19.8087,3.5380599999999998Q19.7168,3.576121,19.6464,3.646447L3.646447,19.6464Q3.57612,19.7168,3.5380599999999998,19.8087Q3.5,19.9005,3.5,20Q3.5,20.0492,3.509607,20.0975Q3.519215,20.1458,3.5380599999999998,20.1913Q3.556906,20.2368,3.584265,20.2778Q3.611625,20.3187,3.646447,20.3536Q3.681269,20.3884,3.722215,20.4157Q3.763161,20.4431,3.808658,20.4619Q3.854155,20.4808,3.9024549,20.4904Q3.9507543,20.5,4,20.5Q4.0994561,20.5,4.191342,20.4619Q4.283227,20.4239,4.353553,20.3536L20.3536,4.353553L20.3536,4.353553Z" fill-rule="evenodd" fill="#333333" fill-opacity="1"/></g></g></svg>