<svg xmlns="http://www.w3.org/2000/svg" xmlns:xlink="http://www.w3.org/1999/xlink" fill="none" version="1.1" width="15" height="15" viewBox="0 0 15 15"><defs><clipPath id="master_svg0_861_00946"><rect x="0" y="0" width="15" height="15" rx="0"/></clipPath></defs><g clip-path="url(#master_svg0_861_00946)"><g><rect x="0" y="0" width="15" height="15" rx="0" fill="#FFFFFF" fill-opacity="0.009999999776482582"/></g><g><path d="M2.853613,2.146506L12.8536,12.14645Q12.9239,12.21677,12.9619,12.30866Q13,12.40055,13,12.5Q13,12.5492,12.9904,12.5975Q12.9808,12.6458,12.9619,12.6913Q12.9431,12.7368,12.9157,12.7778Q12.8884,12.8187,12.8536,12.8536Q12.8187,12.8884,12.7778,12.9157Q12.7368,12.9431,12.6913,12.9619Q12.6458,12.9808,12.5975,12.9904Q12.5492,13,12.5,13Q12.40055,13,12.30866,12.9619Q12.21677,12.9239,12.14645,12.8536L2.146506,2.853613L2.146447,2.853553Q2.07612,2.783227,2.0380599999999998,2.691342Q2,2.5994562,2,2.5Q2,2.4507543,2.009607,2.4024549Q2.019215,2.354155,2.0380599999999998,2.308658Q2.056906,2.263161,2.084265,2.222215Q2.111625,2.181269,2.146447,2.146447Q2.181269,2.111625,2.222215,2.084265Q2.263161,2.056906,2.308658,2.0380599999999998Q2.354155,2.019215,2.4024549,2.009607Q2.4507543,2,2.5,2Q2.5994562,2,2.691342,2.0380599999999998Q2.783227,2.07612,2.853553,2.146447L2.853613,2.146506Z" fill-rule="evenodd" fill="#333333" fill-opacity="1"/></g><g><path d="M12.8536,2.853553Q12.9239,2.783227,12.9619,2.691342Q13,2.5994561,13,2.5Q13,2.4507543,12.9904,2.4024549Q12.9808,2.354155,12.9619,2.308658Q12.9431,2.263161,12.9157,2.222215Q12.8884,2.181269,12.8536,2.146447Q12.8187,2.111625,12.7778,2.084265Q12.7368,2.056906,12.6913,2.0380599999999998Q12.6458,2.019215,12.5975,2.009607Q12.5492,2,12.5,2Q12.40054,2,12.30866,2.0380599999999998Q12.21677,2.076121,12.14645,2.146447L2.146447,12.14645Q2.07612,12.21677,2.0380599999999998,12.30866Q2,12.40054,2,12.5Q2,12.5492,2.009607,12.5975Q2.019215,12.6458,2.0380599999999998,12.6913Q2.056906,12.7368,2.084265,12.7778Q2.111625,12.8187,2.146447,12.8536Q2.181269,12.8884,2.222215,12.9157Q2.263161,12.9431,2.308658,12.9619Q2.354155,12.9808,2.4024549,12.9904Q2.4507543,13,2.5,13Q2.5994561,13,2.691342,12.9619Q2.783227,12.9239,2.853553,12.8536L12.8536,2.853553L12.8536,2.853553Z" fill-rule="evenodd" fill="#333333" fill-opacity="1"/></g></g></svg>