<svg xmlns="http://www.w3.org/2000/svg" xmlns:xlink="http://www.w3.org/1999/xlink" fill="none" version="1.1" width="40.000000424618435" height="19.00000089393353" viewBox="0 0 40.000000424618435 19.00000089393353"><g transform="matrix(1,-2.2348338291067193e-8,2.2348338291067193e-8,1,-1.9977928974879205e-14,0)"><path d="M0.18,14.000000893933532L2.292,14.000000893933532L4.092,10.880000893933532L4.164,10.880000893933532L5.868,14.000000893933532L8.04,14.000000893933532L5.472,9.692000893933532L7.956,5.672000893933531L5.856,5.672000893933531L4.188,8.648000893933531L4.116,8.648000893933531L2.484,5.672000893933531L0.36,5.672000893933531L2.796,9.764000893933531L0.18,14.000000893933532Z" fill="#EF5B5B" fill-opacity="1"/><path d="M11.736,9.488000893933531L17.52,9.488000893933531L17.52,8.468000893933532L11.736,8.468000893933532L11.736,9.488000893933531ZM11.736,12.320000893933532L17.52,12.320000893933532L17.52,11.300000893933532L11.736,11.300000893933532L11.736,12.320000893933532ZM24.132,13.208000893933532C23.34,13.208000893933532,23.196,12.968000893933532,23.196,11.960000893933532L23.196,8.384000893933532L24.804,8.384000893933532L24.804,7.520000893933531L23.196,7.520000893933531L23.196,5.984000893933532L22.164,5.984000893933532L22.164,7.520000893933531L21.204,7.520000893933531L21.204,8.384000893933532L22.164,8.384000893933532L22.164,12.020000893933531C22.164,13.724000893933532,22.68,14.07200089393353,24.108,14.07200089393353C24.384,14.07200089393353,24.588,14.048000893933532,24.84,14.012000893933532L24.84,13.13600089393353C24.612,13.184000893933531,24.42,13.208000893933532,24.132,13.208000893933532ZM31.308,10.112000893933532C31.308,8.852000893933532,30.924,7.400000893933532,28.716,7.400000893933532C26.868,7.400000893933532,25.776,8.180000893933531,25.776,10.760000893933531C25.776,13.340000893933532,26.868,14.12000089393353,28.776,14.12000089393353C29.7,14.12000089393353,30.588,13.928000893933532,30.96,13.736000893933532L30.96,12.788000893933532C30.468,13.028000893933532,29.64,13.208000893933532,28.932,13.208000893933532C27.36,13.208000893933532,26.868,12.560000893933532,26.856,11.144000893933532L31.248,10.868000893933532C31.284,10.568000893933531,31.308,10.292000893933531,31.308,10.112000893933532ZM26.856,10.376000893933531C26.892,9.05600089393353,27.228,8.252000893933532,28.716,8.252000893933532C30.12,8.252000893933532,30.288,9.128000893933532,30.288,10.124000893933532L26.856,10.376000893933531ZM36.204,7.400000893933532C35.412,7.400000893933532,34.524,7.616000893933531,34.128,8.444000893933532L34.128,7.520000893933531L33.096,7.520000893933531L33.096,14.000000893933532L34.128,14.000000893933532L34.128,9.62000089393353C34.488,8.480000893933532,35.28,8.324000893933531,36.096,8.324000893933531C37.128,8.324000893933531,37.332,8.900000893933532,37.332,9.896000893933532L37.332,14.000000893933532L38.376,14.000000893933532L38.376,9.512000893933532C38.376,8.276000893933531,37.896,7.400000893933532,36.204,7.400000893933532Z" fill="#000000" fill-opacity="0.8500000238418579"/></g></svg>