<svg xmlns="http://www.w3.org/2000/svg" xmlns:xlink="http://www.w3.org/1999/xlink" fill="none" version="1.1" width="106.00000062575347" height="28.00000236892386" viewBox="0 0 106.00000062575347 28.00000236892386"><g transform="matrix(1,-2.2348338291067193e-8,2.2348338291067193e-8,1,-5.2941511783429893e-14,0)"><path d="M0.27,21.00000236892386L3.438,21.00000236892386L6.138,16.32000236892386L6.246,16.32000236892386L8.802,21.00000236892386L12.06,21.00000236892386L8.208,14.538002368923859L11.934,8.508002368923858L8.784,8.508002368923858L6.282,12.972002368923858L6.174,12.972002368923858L3.726,8.508002368923858L0.54,8.508002368923858L4.194,14.64600236892386L0.27,21.00000236892386ZM17.604,14.232002368923858L26.28,14.232002368923858L26.28,12.702002368923859L17.604,12.702002368923859L17.604,14.232002368923858ZM17.604,18.48000236892386L26.28,18.48000236892386L26.28,16.950002368923858L17.604,16.950002368923858L17.604,18.48000236892386ZM40.896,15.168002368923858C40.896,13.27800236892386,40.32,11.100002368923858,37.008,11.100002368923858C34.236,11.100002368923858,32.598,12.270002368923858,32.598,16.14000236892386C32.598,20.01000236892386,34.236,21.18000236892386,37.098,21.18000236892386C38.484,21.18000236892386,39.816,20.89200236892386,40.374,20.604002368923858L40.374,19.182002368923857C39.636,19.54200236892386,38.394,19.81200236892386,37.332,19.81200236892386C34.974,19.81200236892386,34.236,18.84000236892386,34.218,16.71600236892386L40.806,16.30200236892386C40.86,15.85200236892386,40.896,15.43800236892386,40.896,15.168002368923858ZM34.218,15.564002368923859C34.272,13.584002368923858,34.776,12.378002368923859,37.008,12.378002368923859C39.114,12.378002368923859,39.366,13.692002368923859,39.366,15.186002368923859L34.218,15.564002368923859ZM42.102,21.00000236892386L45.18,21.00000236892386L47.232,17.65200236892386L47.34,17.65200236892386L49.356,21.00000236892386L52.452,21.00000236892386L49.122,16.014002368923858L52.272,11.280002368923858L49.248,11.280002368923858L47.358,14.44800236892386L47.25,14.44800236892386L45.36,11.280002368923858L42.3,11.280002368923858L45.468,16.03200236892386L42.102,21.00000236892386ZM58.95,11.100002368923858C57.096,11.100002368923858,56.196,11.87400236892386,55.8,13.026002368923859L55.8,11.280002368923858L54.252,11.280002368923858L54.252,24.60000236892386L55.8,24.60000236892386L55.8,19.30800236892386C56.196,20.44200236892386,57.06,21.18000236892386,58.95,21.18000236892386C62.208,21.18000236892386,62.964,18.822002368923858,62.964,16.14000236892386C62.964,13.170002368923859,62.208,11.100002368923858,58.95,11.100002368923858ZM58.752,19.86600236892386C56.412,19.86600236892386,55.728,18.37200236892386,55.728,16.14000236892386C55.728,13.818002368923858,56.412,12.39600236892386,58.752,12.39600236892386C61.002,12.39600236892386,61.344,14.088002368923858,61.344,16.14000236892386C61.344,18.03000236892386,61.056,19.86600236892386,58.752,19.86600236892386ZM69.534,11.100002368923858C68.832,11.100002368923858,68.04,11.154002368923859,67.32,11.244002368923859L67.32,12.612002368923859C68.022,12.468002368923859,68.814,12.39600236892386,69.462,12.39600236892386C71.442,12.39600236892386,71.856,13.206002368923858,71.856,14.376002368923858L71.856,15.186002368923859L68.886,15.186002368923859C66.564,15.186002368923859,65.034,15.978002368923859,65.034,18.28200236892386C65.034,20.118002368923857,66.06,21.18000236892386,68.382,21.18000236892386C69.84,21.18000236892386,71.298,20.586002368923857,71.856,19.52400236892386L72.09,21.00000236892386L73.404,21.00000236892386L73.404,14.106002368923859C73.404,12.360002368923858,72.594,11.100002368923858,69.534,11.100002368923858ZM68.526,19.88400236892386C67.158,19.88400236892386,66.636,19.32600236892386,66.636,18.264002368923858C66.636,16.752002368923858,67.392,16.42800236892386,68.994,16.42800236892386L71.856,16.42800236892386L71.856,18.03000236892386C71.352,19.182002368923857,70.146,19.88400236892386,68.526,19.88400236892386ZM81.36,11.100002368923858C80.172,11.100002368923858,78.84,11.424002368923858,78.246,12.66600236892386L78.246,11.280002368923858L76.698,11.280002368923858L76.698,21.00000236892386L78.246,21.00000236892386L78.246,14.430002368923859C78.786,12.72000236892386,79.974,12.48600236892386,81.198,12.48600236892386C82.746,12.48600236892386,83.052,13.350002368923858,83.052,14.844002368923858L83.052,21.00000236892386L84.618,21.00000236892386L84.618,14.26800236892386C84.618,12.414002368923859,83.898,11.100002368923858,81.36,11.100002368923858ZM90.072,21.10800236892386C92.448,21.10800236892386,93.762,20.226002368923858,93.762,18.30000236892386C93.762,16.42800236892386,92.952,15.81600236892386,90.72,15.312002368923858C89.208,14.97000236892386,88.866,14.754002368923858,88.866,13.764002368923858C88.866,12.66600236892386,89.55,12.360002368923858,90.918,12.360002368923858C91.818,12.360002368923858,92.682,12.522002368923859,93.24,12.738002368923858L93.348,11.424002368923858C92.88,11.244002368923859,91.836,11.100002368923858,90.9,11.100002368923858C88.596,11.100002368923858,87.408,12.16200236892386,87.408,13.728002368923859C87.408,15.366002368923859,87.984,16.05000236892386,90.126,16.53600236892386C91.98,16.96800236892386,92.304,17.20200236892386,92.304,18.354002368923858C92.304,19.48800236892386,91.53,19.848002368923858,90.054,19.848002368923858C89.172,19.848002368923858,87.93,19.668002368923858,87.246,19.470002368923858L87.246,20.80200236892386C87.786,20.964002368923857,89.136,21.10800236892386,90.072,21.10800236892386ZM104.166,15.168002368923858C104.166,13.27800236892386,103.59,11.100002368923858,100.278,11.100002368923858C97.506,11.100002368923858,95.868,12.270002368923858,95.868,16.14000236892386C95.868,20.01000236892386,97.506,21.18000236892386,100.368,21.18000236892386C101.754,21.18000236892386,103.086,20.89200236892386,103.644,20.604002368923858L103.644,19.182002368923857C102.906,19.54200236892386,101.664,19.81200236892386,100.602,19.81200236892386C98.244,19.81200236892386,97.506,18.84000236892386,97.488,16.71600236892386L104.076,16.30200236892386C104.13,15.85200236892386,104.166,15.43800236892386,104.166,15.168002368923858ZM97.488,15.564002368923859C97.542,13.584002368923858,98.046,12.378002368923859,100.278,12.378002368923859C102.384,12.378002368923859,102.636,13.692002368923859,102.636,15.186002368923859L97.488,15.564002368923859Z" fill="#FFFFFF" fill-opacity="1"/></g></svg>