<svg xmlns="http://www.w3.org/2000/svg" xmlns:xlink="http://www.w3.org/1999/xlink" fill="none" version="1.1" width="60.00000062575347" height="28.000001340900297" viewBox="0 0 60.00000062575347 28.000001340900297"><g transform="matrix(1,-2.2348338291067193e-8,2.2348338291067193e-8,1,-2.996689346231881e-14,0)"><path d="M0.27,21.000001340900297L3.438,21.000001340900297L6.138,16.320001340900298L6.246,16.320001340900298L8.802,21.000001340900297L12.06,21.000001340900297L8.208,14.538001340900298L11.934,8.508001340900297L8.784,8.508001340900297L6.282,12.972001340900297L6.174,12.972001340900297L3.726,8.508001340900297L0.54,8.508001340900297L4.194,14.646001340900298L0.27,21.000001340900297ZM17.604,14.232001340900297L26.28,14.232001340900297L26.28,12.702001340900297L17.604,12.702001340900297L17.604,14.232001340900297ZM17.604,18.480001340900298L26.28,18.480001340900298L26.28,16.950001340900297L17.604,16.950001340900297L17.604,18.480001340900298ZM36.198,19.8120013409003C35.01,19.8120013409003,34.794,19.4520013409003,34.794,17.9400013409003L34.794,12.576001340900298L37.206,12.576001340900298L37.206,11.280001340900297L34.794,11.280001340900297L34.794,8.976001340900298L33.246,8.976001340900298L33.246,11.280001340900297L31.806,11.280001340900297L31.806,12.576001340900298L33.246,12.576001340900298L33.246,18.0300013409003C33.246,20.586001340900296,34.02,21.108001340900298,36.162,21.108001340900298C36.576,21.108001340900298,36.882,21.072001340900297,37.26,21.018001340900298L37.26,19.704001340900298C36.918,19.776001340900297,36.63,19.8120013409003,36.198,19.8120013409003ZM46.962,15.168001340900297C46.962,13.278001340900298,46.386,11.100001340900297,43.074,11.100001340900297C40.302,11.100001340900297,38.664,12.270001340900297,38.664,16.140001340900298C38.664,20.0100013409003,40.302,21.180001340900297,43.164,21.180001340900297C44.55,21.180001340900297,45.882,20.892001340900297,46.44,20.604001340900297L46.44,19.182001340900296C45.702,19.5420013409003,44.46,19.8120013409003,43.398,19.8120013409003C41.04,19.8120013409003,40.302,18.840001340900297,40.284,16.7160013409003L46.872,16.302001340900297C46.926,15.852001340900298,46.962,15.438001340900298,46.962,15.168001340900297ZM40.284,15.564001340900298C40.338,13.584001340900297,40.842,12.378001340900298,43.074,12.378001340900298C45.18,12.378001340900298,45.432,13.692001340900298,45.432,15.186001340900297L40.284,15.564001340900298ZM54.306,11.100001340900297C53.118,11.100001340900297,51.786,11.424001340900297,51.192,12.666001340900298L51.192,11.280001340900297L49.644,11.280001340900297L49.644,21.000001340900297L51.192,21.000001340900297L51.192,14.430001340900297C51.732,12.720001340900298,52.92,12.486001340900298,54.144,12.486001340900298C55.692,12.486001340900298,55.998,13.350001340900297,55.998,14.844001340900297L55.998,21.000001340900297L57.564,21.000001340900297L57.564,14.268001340900298C57.564,12.414001340900297,56.844,11.100001340900297,54.306,11.100001340900297Z" fill="#FFFFFF" fill-opacity="1"/></g></svg>