<svg xmlns="http://www.w3.org/2000/svg" xmlns:xlink="http://www.w3.org/1999/xlink" fill="none" version="1.1" width="65.00000042461843" height="19.00000145264199" viewBox="0 0 65.00000042461843 19.00000145264199"><g transform="matrix(1,-2.2348338291067193e-8,2.2348338291067193e-8,1,-3.246413458417871e-14,0)"><path d="M0.18,14.000001452641989L2.292,14.000001452641989L4.092,10.88000145264199L4.164,10.88000145264199L5.868,14.000001452641989L8.04,14.000001452641989L5.472,9.692001452641989L7.956,5.672001452641989L5.856,5.672001452641989L4.188,8.648001452641989L4.116,8.648001452641989L2.484,5.672001452641989L0.36,5.672001452641989L2.796,9.764001452641988L0.18,14.000001452641989ZM28.068,14.000001452641989L30.12,14.000001452641989L31.488,11.76800145264199L31.56,11.76800145264199L32.904,14.000001452641989L34.968,14.000001452641989L32.748,10.676001452641989L34.848,7.5200014526419885L32.832,7.5200014526419885L31.572,9.632001452641989L31.5,9.632001452641989L30.24,7.5200014526419885L28.2,7.5200014526419885L30.312,10.68800145264199L28.068,14.000001452641989Z" fill="#8F57A0" fill-opacity="1"/><path d="M11.736,9.488001452641988L17.52,9.488001452641988L17.52,8.468001452641989L11.736,8.468001452641989L11.736,9.488001452641988ZM11.736,12.32000145264199L17.52,12.32000145264199L17.52,11.30000145264199L11.736,11.30000145264199L11.736,12.32000145264199ZM27.264,10.112001452641989C27.264,8.85200145264199,26.88,7.400001452641989,24.672,7.400001452641989C22.824,7.400001452641989,21.732,8.180001452641989,21.732,10.760001452641989C21.732,13.340001452641989,22.824,14.120001452641988,24.732,14.120001452641988C25.656,14.120001452641988,26.544,13.92800145264199,26.916,13.73600145264199L26.916,12.78800145264199C26.424,13.02800145264199,25.596,13.208001452641989,24.888,13.208001452641989C23.316,13.208001452641989,22.824,12.56000145264199,22.812,11.144001452641989L27.204,10.86800145264199C27.24,10.568001452641989,27.264,10.292001452641989,27.264,10.112001452641989ZM22.812,10.376001452641988C22.848,9.056001452641988,23.184,8.25200145264199,24.672,8.25200145264199C26.076,8.25200145264199,26.244,9.128001452641989,26.244,10.12400145264199L22.812,10.376001452641988ZM39.3,7.400001452641989C38.064,7.400001452641989,37.464,7.916001452641989,37.2,8.684001452641988L37.2,7.5200014526419885L36.168,7.5200014526419885L36.168,16.400001452641987L37.2,16.400001452641987L37.2,12.872001452641989C37.464,13.628001452641989,38.04,14.120001452641988,39.3,14.120001452641988C41.472,14.120001452641988,41.976,12.548001452641989,41.976,10.760001452641989C41.976,8.780001452641988,41.472,7.400001452641989,39.3,7.400001452641989ZM39.168,13.244001452641989C37.608,13.244001452641989,37.152,12.248001452641988,37.152,10.760001452641989C37.152,9.212001452641989,37.608,8.264001452641988,39.168,8.264001452641988C40.668,8.264001452641988,40.896,9.392001452641988,40.896,10.760001452641989C40.896,12.020001452641988,40.704,13.244001452641989,39.168,13.244001452641989ZM45.228,14.072001452641988C45.516,14.072001452641988,45.72,14.048001452641989,45.912,14.000001452641989L45.912,13.148001452641989C45.744,13.196001452641989,45.564,13.208001452641989,45.42,13.208001452641989C45,13.208001452641989,44.82,13.07600145264199,44.82,12.42800145264199L44.82,4.880001452641989L43.788,4.880001452641989L43.788,12.692001452641989C43.788,13.664001452641989,44.268,14.072001452641988,45.228,14.072001452641988ZM49.836,14.120001452641988C51.756,14.120001452641988,52.824,13.340001452641989,52.824,10.760001452641989C52.824,8.180001452641989,51.756,7.400001452641989,49.836,7.400001452641989C47.928,7.400001452641989,46.836,8.180001452641989,46.836,10.760001452641989C46.836,13.340001452641989,47.928,14.120001452641988,49.836,14.120001452641988ZM49.836,13.244001452641989C48.432,13.244001452641989,47.94,12.65600145264199,47.94,10.760001452641989C47.94,8.86400145264199,48.384,8.264001452641988,49.836,8.264001452641988C51.252,8.264001452641988,51.732,8.86400145264199,51.732,10.760001452641989C51.732,12.65600145264199,51.3,13.244001452641989,49.836,13.244001452641989ZM57.732,7.400001452641989C56.952,7.400001452641989,56.076,7.616001452641989,55.668,8.696001452641989L55.668,7.5200014526419885L54.636,7.5200014526419885L54.636,14.000001452641989L55.668,14.000001452641989L55.668,9.764001452641988C56.028,8.612001452641989,56.844,8.33600145264199,57.672,8.33600145264199L57.816,8.33600145264199L57.852,7.400001452641989L57.732,7.400001452641989ZM64.104,10.112001452641989C64.104,8.85200145264199,63.72,7.400001452641989,61.512,7.400001452641989C59.664,7.400001452641989,58.572,8.180001452641989,58.572,10.760001452641989C58.572,13.340001452641989,59.664,14.120001452641988,61.572,14.120001452641988C62.496,14.120001452641988,63.384,13.92800145264199,63.756,13.73600145264199L63.756,12.78800145264199C63.264,13.02800145264199,62.436,13.208001452641989,61.728,13.208001452641989C60.156,13.208001452641989,59.664,12.56000145264199,59.652,11.144001452641989L64.044,10.86800145264199C64.08,10.568001452641989,64.104,10.292001452641989,64.104,10.112001452641989ZM59.652,10.376001452641988C59.688,9.056001452641988,60.024,8.25200145264199,61.512,8.25200145264199C62.916,8.25200145264199,63.084,9.128001452641989,63.084,10.12400145264199L59.652,10.376001452641988Z" fill="#000000" fill-opacity="0.8500000238418579"/></g></svg>