<svg xmlns="http://www.w3.org/2000/svg" xmlns:xlink="http://www.w3.org/1999/xlink" fill="none" version="1.1" width="73.00000062575347" height="28.000001631428695" viewBox="0 0 73.00000062575347 28.000001631428695"><g transform="matrix(1,-2.2348338291067193e-8,2.2348338291067193e-8,1,-3.645972037915455e-14,0)"><path d="M0.27,21.000001631428695L3.438,21.000001631428695L6.138,16.320001631428696L6.246,16.320001631428696L8.802,21.000001631428695L12.06,21.000001631428695L8.208,14.538001631428696L11.934,8.508001631428694L8.784,8.508001631428694L6.282,12.972001631428695L6.174,12.972001631428695L3.726,8.508001631428694L0.54,8.508001631428694L4.194,14.646001631428696L0.27,21.000001631428695ZM17.604,14.232001631428695L26.28,14.232001631428695L26.28,12.702001631428695L17.604,12.702001631428695L17.604,14.232001631428695ZM17.604,18.480001631428696L26.28,18.480001631428696L26.28,16.950001631428695L17.604,16.950001631428695L17.604,18.480001631428696ZM40.896,15.168001631428695C40.896,13.278001631428696,40.32,11.100001631428695,37.008,11.100001631428695C34.236,11.100001631428695,32.598,12.270001631428695,32.598,16.140001631428696C32.598,20.010001631428697,34.236,21.180001631428695,37.098,21.180001631428695C38.484,21.180001631428695,39.816,20.892001631428695,40.374,20.604001631428694L40.374,19.182001631428694C39.636,19.542001631428697,38.394,19.812001631428696,37.332,19.812001631428696C34.974,19.812001631428696,34.236,18.840001631428695,34.218,16.716001631428696L40.806,16.302001631428695C40.86,15.852001631428696,40.896,15.438001631428696,40.896,15.168001631428695ZM34.218,15.564001631428695C34.272,13.584001631428695,34.776,12.378001631428695,37.008,12.378001631428695C39.114,12.378001631428695,39.366,13.692001631428695,39.366,15.186001631428695L34.218,15.564001631428695ZM42.102,21.000001631428695L45.18,21.000001631428695L47.232,17.652001631428696L47.34,17.652001631428696L49.356,21.000001631428695L52.452,21.000001631428695L49.122,16.014001631428695L52.272,11.280001631428695L49.248,11.280001631428695L47.358,14.448001631428696L47.25,14.448001631428696L45.36,11.280001631428695L42.3,11.280001631428695L45.468,16.032001631428695L42.102,21.000001631428695ZM55.044,9.498001631428695C55.692,9.498001631428695,55.962,9.372001631428695,55.962,8.580001631428695C55.962,7.770001631428695,55.692,7.662001631428695,55.044,7.662001631428695C54.36,7.662001631428695,54.108,7.770001631428695,54.108,8.580001631428695C54.108,9.372001631428695,54.36,9.498001631428695,55.044,9.498001631428695ZM54.252,21.000001631428695L55.8,21.000001631428695L55.8,11.280001631428695L54.252,11.280001631428695L54.252,21.000001631428695ZM61.326,21.108001631428696C63.702,21.108001631428696,65.016,20.226001631428694,65.016,18.300001631428696C65.016,16.428001631428696,64.206,15.816001631428696,61.974,15.312001631428695C60.462,14.970001631428696,60.12,14.754001631428695,60.12,13.764001631428695C60.12,12.666001631428696,60.804,12.360001631428695,62.172,12.360001631428695C63.072,12.360001631428695,63.936,12.522001631428695,64.494,12.738001631428695L64.602,11.424001631428695C64.134,11.244001631428695,63.09,11.100001631428695,62.154,11.100001631428695C59.85,11.100001631428695,58.662,12.162001631428696,58.662,13.728001631428695C58.662,15.366001631428695,59.238,16.050001631428696,61.38,16.536001631428697C63.234,16.968001631428695,63.558,17.202001631428697,63.558,18.354001631428694C63.558,19.488001631428695,62.784,19.848001631428694,61.308,19.848001631428694C60.426,19.848001631428694,59.184,19.668001631428695,58.5,19.470001631428694L58.5,20.802001631428695C59.04,20.964001631428694,60.39,21.108001631428696,61.326,21.108001631428696ZM70.722,19.812001631428696C69.534,19.812001631428696,69.318,19.452001631428697,69.318,17.940001631428697L69.318,12.576001631428696L71.73,12.576001631428696L71.73,11.280001631428695L69.318,11.280001631428695L69.318,8.976001631428696L67.77,8.976001631428696L67.77,11.280001631428695L66.33,11.280001631428695L66.33,12.576001631428696L67.77,12.576001631428696L67.77,18.030001631428696C67.77,20.586001631428694,68.544,21.108001631428696,70.686,21.108001631428696C71.1,21.108001631428696,71.406,21.072001631428694,71.784,21.018001631428696L71.784,19.704001631428696C71.442,19.776001631428695,71.154,19.812001631428696,70.722,19.812001631428696Z" fill="#FFFFFF" fill-opacity="1"/></g></svg>