<svg xmlns="http://www.w3.org/2000/svg" xmlns:xlink="http://www.w3.org/1999/xlink" fill="none" version="1.1" width="119.00000055870845" height="25.000002659452257" viewBox="0 0 119.00000055870845 25.000002659452257"><g transform="matrix(1,-2.2348338291067193e-8,2.2348338291067193e-8,1,-5.943433870026564e-14,0)"><path d="M0.24,19.000002659452257L3.056,19.000002659452257L5.456,14.840002659452256L5.552,14.840002659452256L7.824,19.000002659452257L10.72,19.000002659452257L7.296,13.256002659452257L10.608,7.8960026594522565L7.808,7.8960026594522565L5.584,11.864002659452257L5.488,11.864002659452257L3.312,7.8960026594522565L0.48,7.8960026594522565L3.728,13.352002659452257L0.24,19.000002659452257ZM37.424,19.000002659452257L40.16,19.000002659452257L41.984,16.024002659452258L42.08,16.024002659452258L43.872,19.000002659452257L46.624,19.000002659452257L43.664,14.568002659452256L46.464,10.360002659452256L43.776,10.360002659452256L42.096,13.176002659452257L42,13.176002659452257L40.32,10.360002659452256L37.6,10.360002659452256L40.416,14.584002659452256L37.424,19.000002659452257Z" fill="#F05883" fill-opacity="1"/><path d="M15.648,12.984002659452257L23.36,12.984002659452257L23.36,11.624002659452257L15.648,11.624002659452257L15.648,12.984002659452257ZM15.648,16.760002659452258L23.36,16.760002659452258L23.36,15.400002659452257L15.648,15.400002659452257L15.648,16.760002659452258ZM36.352,13.816002659452257C36.352,12.136002659452256,35.84,10.200002659452256,32.896,10.200002659452256C30.432,10.200002659452256,28.976,11.240002659452257,28.976,14.680002659452256C28.976,18.120002659452258,30.432,19.160002659452257,32.976,19.160002659452257C34.208,19.160002659452257,35.392,18.904002659452257,35.888,18.648002659452256L35.888,17.384002659452257C35.232,17.704002659452257,34.128,17.944002659452256,33.184,17.944002659452256C31.088,17.944002659452256,30.432,17.080002659452255,30.416,15.192002659452257L36.272,14.824002659452256C36.32,14.424002659452256,36.352,14.056002659452256,36.352,13.816002659452257ZM30.416,14.168002659452256C30.464,12.408002659452256,30.912,11.336002659452257,32.896,11.336002659452257C34.768,11.336002659452257,34.992,12.504002659452256,34.992,13.832002659452257L30.416,14.168002659452256ZM53.744,10.360002659452256L53.744,16.232002659452256C53.248,17.720002659452256,52.288,17.944002659452256,51.2,17.944002659452256C49.824,17.944002659452256,49.536,17.144002659452255,49.536,15.832002659452257L49.536,10.360002659452256L48.16,10.360002659452256L48.16,16.344002659452258C48.16,18.008002659452256,48.8,19.160002659452257,51.056,19.160002659452257C52.112,19.160002659452257,53.248,18.88800265945226,53.776,17.752002659452256L53.952,19.000002659452257L55.12,19.000002659452257L55.12,10.360002659452256L53.744,10.360002659452256ZM62.208,10.200002659452256C60.56,10.200002659452256,59.76,10.888002659452257,59.408,11.912002659452257L59.408,6.8400026594522565L58.032,6.8400026594522565L58.032,19.000002659452257L59.232,19.000002659452257L59.408,17.496002659452255C59.76,18.504002659452258,60.528,19.160002659452257,62.208,19.160002659452257C65.104,19.160002659452257,65.776,17.064002659452257,65.776,14.680002659452256C65.776,12.040002659452256,65.104,10.200002659452256,62.208,10.200002659452256ZM62.032,17.992002659452258C59.952,17.992002659452258,59.344,16.664002659452258,59.344,14.680002659452256C59.344,12.616002659452256,59.952,11.352002659452257,62.032,11.352002659452257C64.032,11.352002659452257,64.336,12.872002659452257,64.336,14.680002659452256C64.336,16.360002659452256,64.08,17.992002659452258,62.032,17.992002659452258ZM75.056,13.816002659452257C75.056,12.136002659452256,74.544,10.200002659452256,71.6,10.200002659452256C69.136,10.200002659452256,67.68,11.240002659452257,67.68,14.680002659452256C67.68,18.120002659452258,69.136,19.160002659452257,71.68,19.160002659452257C72.912,19.160002659452257,74.096,18.904002659452257,74.592,18.648002659452256L74.592,17.384002659452257C73.936,17.704002659452257,72.832,17.944002659452256,71.888,17.944002659452256C69.792,17.944002659452256,69.136,17.080002659452255,69.12,15.192002659452257L74.976,14.824002659452256C75.024,14.424002659452256,75.056,14.056002659452256,75.056,13.816002659452257ZM69.12,14.168002659452256C69.168,12.408002659452256,69.616,11.336002659452257,71.6,11.336002659452257C73.472,11.336002659452257,73.696,12.504002659452256,73.696,13.832002659452257L69.12,14.168002659452256ZM81.568,10.200002659452256C80.528,10.200002659452256,79.36,10.488002659452256,78.816,11.928002659452257L78.816,10.360002659452256L77.44,10.360002659452256L77.44,19.000002659452257L78.816,19.000002659452257L78.816,13.352002659452257C79.296,11.816002659452257,80.384,11.448002659452257,81.488,11.448002659452257L81.68,11.448002659452257L81.728,10.200002659452256L81.568,10.200002659452256ZM86.144,10.200002659452256C85.52,10.200002659452256,84.816,10.248002659452256,84.176,10.328002659452256L84.176,11.544002659452257C84.8,11.416002659452257,85.504,11.352002659452257,86.08,11.352002659452257C87.84,11.352002659452257,88.208,12.072002659452256,88.208,13.112002659452257L88.208,13.832002659452257L85.568,13.832002659452257C83.504,13.832002659452257,82.144,14.536002659452256,82.144,16.584002659452256C82.144,18.216002659452258,83.056,19.160002659452257,85.12,19.160002659452257C86.416,19.160002659452257,87.712,18.632002659452258,88.208,17.688002659452255L88.416,19.000002659452257L89.584,19.000002659452257L89.584,12.872002659452257C89.584,11.320002659452257,88.864,10.200002659452256,86.144,10.200002659452256ZM85.248,18.008002659452256C84.032,18.008002659452256,83.568,17.512002659452257,83.568,16.568002659452258C83.568,15.224002659452257,84.24,14.936002659452257,85.664,14.936002659452257L88.208,14.936002659452257L88.208,16.360002659452256C87.76,17.384002659452257,86.688,18.008002659452256,85.248,18.008002659452256ZM96.656,10.200002659452256C95.6,10.200002659452256,94.416,10.488002659452256,93.888,11.592002659452257L93.888,10.360002659452256L92.512,10.360002659452256L92.512,19.000002659452257L93.888,19.000002659452257L93.888,13.160002659452257C94.368,11.640002659452257,95.424,11.432002659452257,96.512,11.432002659452257C97.888,11.432002659452257,98.16,12.200002659452256,98.16,13.528002659452257L98.16,19.000002659452257L99.552,19.000002659452257L99.552,13.016002659452257C99.552,11.368002659452257,98.912,10.200002659452256,96.656,10.200002659452256ZM105.888,19.160002659452257C106.704,19.160002659452257,107.696,19.016002659452255,108.176,18.840002659452256L108.176,17.576002659452257C107.552,17.832002659452257,106.736,17.944002659452256,105.92,17.944002659452256C104,17.944002659452256,103.36,17.208002659452255,103.36,14.696002659452256C103.36,12.152002659452256,104,11.400002659452257,105.904,11.400002659452257C106.784,11.400002659452257,107.504,11.544002659452257,108.144,11.784002659452257L108.144,10.520002659452256C107.664,10.360002659452256,106.848,10.200002659452256,105.888,10.200002659452256C103.344,10.200002659452256,101.888,11.240002659452257,101.888,14.680002659452256C101.888,18.120002659452258,103.344,19.160002659452257,105.888,19.160002659452257ZM117.216,13.816002659452257C117.216,12.136002659452256,116.704,10.200002659452256,113.76,10.200002659452256C111.296,10.200002659452256,109.84,11.240002659452257,109.84,14.680002659452256C109.84,18.120002659452258,111.296,19.160002659452257,113.84,19.160002659452257C115.072,19.160002659452257,116.256,18.904002659452257,116.752,18.648002659452256L116.752,17.384002659452257C116.096,17.704002659452257,114.992,17.944002659452256,114.048,17.944002659452256C111.952,17.944002659452256,111.296,17.080002659452255,111.28,15.192002659452257L117.136,14.824002659452256C117.184,14.424002659452256,117.216,14.056002659452256,117.216,13.816002659452257ZM111.28,14.168002659452256C111.328,12.408002659452256,111.776,11.336002659452257,113.76,11.336002659452257C115.632,11.336002659452257,115.856,12.504002659452256,115.856,13.832002659452257L111.28,14.168002659452256Z" fill="#000000" fill-opacity="0.8500000238418579"/></g></svg>