<svg xmlns="http://www.w3.org/2000/svg" xmlns:xlink="http://www.w3.org/1999/xlink" fill="none" version="1.1" width="91.00000062575347" height="28.000002033698784" viewBox="0 0 91.00000062575347 28.000002033698784"><g transform="matrix(1,-2.2348338291067193e-8,2.2348338291067193e-8,1,-4.544978841785019e-14,0)"><path d="M0.27,21.000002033698784L3.438,21.000002033698784L6.138,16.320002033698785L6.246,16.320002033698785L8.802,21.000002033698784L12.06,21.000002033698784L8.208,14.538002033698785L11.934,8.508002033698784L8.784,8.508002033698784L6.282,12.972002033698784L6.174,12.972002033698784L3.726,8.508002033698784L0.54,8.508002033698784L4.194,14.646002033698785L0.27,21.000002033698784ZM17.604,14.232002033698784L26.28,14.232002033698784L26.28,12.702002033698784L17.604,12.702002033698784L17.604,14.232002033698784ZM17.604,18.480002033698785L26.28,18.480002033698785L26.28,16.950002033698784L17.604,16.950002033698784L17.604,18.480002033698785ZM40.896,15.168002033698784C40.896,13.278002033698785,40.32,11.100002033698784,37.008,11.100002033698784C34.236,11.100002033698784,32.598,12.270002033698784,32.598,16.140002033698785C32.598,20.010002033698786,34.236,21.180002033698784,37.098,21.180002033698784C38.484,21.180002033698784,39.816,20.892002033698784,40.374,20.604002033698784L40.374,19.182002033698783C39.636,19.542002033698786,38.394,19.812002033698786,37.332,19.812002033698786C34.974,19.812002033698786,34.236,18.840002033698784,34.218,16.716002033698786L40.806,16.302002033698784C40.86,15.852002033698785,40.896,15.438002033698785,40.896,15.168002033698784ZM34.218,15.564002033698785C34.272,13.584002033698784,34.776,12.378002033698785,37.008,12.378002033698785C39.114,12.378002033698785,39.366,13.692002033698785,39.366,15.186002033698784L34.218,15.564002033698785ZM42.102,21.000002033698784L45.18,21.000002033698784L47.232,17.652002033698786L47.34,17.652002033698786L49.356,21.000002033698784L52.452,21.000002033698784L49.122,16.014002033698784L52.272,11.280002033698784L49.248,11.280002033698784L47.358,14.448002033698785L47.25,14.448002033698785L45.36,11.280002033698784L42.3,11.280002033698784L45.468,16.032002033698785L42.102,21.000002033698784ZM58.914,11.100002033698784C57.726,11.100002033698784,56.394,11.424002033698784,55.8,12.666002033698785L55.8,7.320002033698785L54.252,7.320002033698785L54.252,21.000002033698784L55.8,21.000002033698784L55.8,14.430002033698784C56.34,12.720002033698785,57.528,12.486002033698785,58.752,12.486002033698785C60.3,12.486002033698785,60.624,13.350002033698784,60.624,14.844002033698784L60.624,21.000002033698784L62.172,21.000002033698784L62.172,14.268002033698785C62.172,12.414002033698784,61.452,11.100002033698784,58.914,11.100002033698784ZM69.228,11.100002033698784C68.526,11.100002033698784,67.734,11.154002033698784,67.014,11.244002033698784L67.014,12.612002033698785C67.716,12.468002033698784,68.508,12.396002033698785,69.156,12.396002033698785C71.136,12.396002033698785,71.55,13.206002033698784,71.55,14.376002033698784L71.55,15.186002033698784L68.58,15.186002033698784C66.258,15.186002033698784,64.728,15.978002033698784,64.728,18.282002033698785C64.728,20.118002033698783,65.754,21.180002033698784,68.076,21.180002033698784C69.534,21.180002033698784,70.992,20.586002033698783,71.55,19.524002033698785L71.784,21.000002033698784L73.098,21.000002033698784L73.098,14.106002033698784C73.098,12.360002033698784,72.288,11.100002033698784,69.228,11.100002033698784ZM68.22,19.884002033698785C66.852,19.884002033698785,66.33,19.326002033698785,66.33,18.264002033698784C66.33,16.752002033698783,67.086,16.428002033698785,68.688,16.428002033698785L71.55,16.428002033698785L71.55,18.030002033698786C71.046,19.182002033698783,69.84,19.884002033698785,68.22,19.884002033698785ZM78.552,21.108002033698785C78.984,21.108002033698785,79.29,21.072002033698784,79.578,21.000002033698784L79.578,19.722002033698786C79.326,19.794002033698785,79.056,19.812002033698786,78.84,19.812002033698786C78.21,19.812002033698786,77.94,19.614002033698785,77.94,18.642002033698784L77.94,7.320002033698785L76.392,7.320002033698785L76.392,19.038002033698785C76.392,20.496002033698783,77.112,21.108002033698785,78.552,21.108002033698785ZM89.262,15.168002033698784C89.262,13.278002033698785,88.686,11.100002033698784,85.374,11.100002033698784C82.602,11.100002033698784,80.964,12.270002033698784,80.964,16.140002033698785C80.964,20.010002033698786,82.602,21.180002033698784,85.464,21.180002033698784C86.85,21.180002033698784,88.182,20.892002033698784,88.74,20.604002033698784L88.74,19.182002033698783C88.002,19.542002033698786,86.76,19.812002033698786,85.698,19.812002033698786C83.34,19.812002033698786,82.602,18.840002033698784,82.584,16.716002033698786L89.172,16.302002033698784C89.226,15.852002033698785,89.262,15.438002033698785,89.262,15.168002033698784ZM82.584,15.564002033698785C82.638,13.584002033698784,83.142,12.378002033698785,85.374,12.378002033698785C87.48,12.378002033698785,87.732,13.692002033698785,87.732,15.186002033698784L82.584,15.564002033698785Z" fill="#FFFFFF" fill-opacity="1"/></g></svg>