<svg xmlns="http://www.w3.org/2000/svg" xmlns:xlink="http://www.w3.org/1999/xlink" fill="none" version="1.1" width="134.00000062575347" height="28.000002994677345" viewBox="0 0 134.00000062575347 28.000002994677345"><g transform="matrix(1,-2.2348338291067193e-8,2.2348338291067193e-8,1,-6.692606238343433e-14,0)"><path d="M0.27,21.000002994677345L3.438,21.000002994677345L6.138,16.320002994677345L6.246,16.320002994677345L8.802,21.000002994677345L12.06,21.000002994677345L8.208,14.538002994677345L11.934,8.508002994677344L8.784,8.508002994677344L6.282,12.972002994677345L6.174,12.972002994677345L3.726,8.508002994677344L0.54,8.508002994677344L4.194,14.646002994677346L0.27,21.000002994677345ZM17.604,14.232002994677345L26.28,14.232002994677345L26.28,12.702002994677345L17.604,12.702002994677345L17.604,14.232002994677345ZM17.604,18.480002994677346L26.28,18.480002994677346L26.28,16.950002994677345L17.604,16.950002994677345L17.604,18.480002994677346ZM40.896,15.168002994677344C40.896,13.278002994677346,40.32,11.100002994677345,37.008,11.100002994677345C34.236,11.100002994677345,32.598,12.270002994677345,32.598,16.140002994677346C32.598,20.010002994677347,34.236,21.180002994677345,37.098,21.180002994677345C38.484,21.180002994677345,39.816,20.892002994677345,40.374,20.604002994677344L40.374,19.182002994677344C39.636,19.542002994677347,38.394,19.812002994677346,37.332,19.812002994677346C34.974,19.812002994677346,34.236,18.840002994677345,34.218,16.716002994677346L40.806,16.302002994677345C40.86,15.852002994677346,40.896,15.438002994677346,40.896,15.168002994677344ZM34.218,15.564002994677345C34.272,13.584002994677345,34.776,12.378002994677345,37.008,12.378002994677345C39.114,12.378002994677345,39.366,13.692002994677345,39.366,15.186002994677345L34.218,15.564002994677345ZM42.102,21.000002994677345L45.18,21.000002994677345L47.232,17.652002994677346L47.34,17.652002994677346L49.356,21.000002994677345L52.452,21.000002994677345L49.122,16.014002994677345L52.272,11.280002994677345L49.248,11.280002994677345L47.358,14.448002994677346L47.25,14.448002994677346L45.36,11.280002994677345L42.3,11.280002994677345L45.468,16.032002994677345L42.102,21.000002994677345ZM58.95,11.100002994677345C57.096,11.100002994677345,56.196,11.874002994677346,55.8,13.026002994677345L55.8,11.280002994677345L54.252,11.280002994677345L54.252,24.600002994677347L55.8,24.600002994677347L55.8,19.308002994677345C56.196,20.442002994677345,57.06,21.180002994677345,58.95,21.180002994677345C62.208,21.180002994677345,62.964,18.822002994677344,62.964,16.140002994677346C62.964,13.170002994677345,62.208,11.100002994677345,58.95,11.100002994677345ZM58.752,19.866002994677345C56.412,19.866002994677345,55.728,18.372002994677345,55.728,16.140002994677346C55.728,13.818002994677345,56.412,12.396002994677346,58.752,12.396002994677346C61.002,12.396002994677346,61.344,14.088002994677344,61.344,16.140002994677346C61.344,18.030002994677346,61.056,19.866002994677345,58.752,19.866002994677345ZM73.404,15.168002994677344C73.404,13.278002994677346,72.828,11.100002994677345,69.516,11.100002994677345C66.744,11.100002994677345,65.106,12.270002994677345,65.106,16.140002994677346C65.106,20.010002994677347,66.744,21.180002994677345,69.606,21.180002994677345C70.992,21.180002994677345,72.324,20.892002994677345,72.882,20.604002994677344L72.882,19.182002994677344C72.144,19.542002994677347,70.902,19.812002994677346,69.84,19.812002994677346C67.482,19.812002994677346,66.744,18.840002994677345,66.726,16.716002994677346L73.314,16.302002994677345C73.368,15.852002994677346,73.404,15.438002994677346,73.404,15.168002994677344ZM66.726,15.564002994677345C66.78,13.584002994677345,67.284,12.378002994677345,69.516,12.378002994677345C71.622,12.378002994677345,71.874,13.692002994677345,71.874,15.186002994677345L66.726,15.564002994677345ZM80.01,21.180002994677345C80.928,21.180002994677345,82.044,21.018002994677346,82.584,20.820002994677345L82.584,19.398002994677345C81.882,19.686002994677345,80.964,19.812002994677346,80.046,19.812002994677346C77.886,19.812002994677346,77.166,18.984002994677347,77.166,16.158002994677346C77.166,13.296002994677345,77.886,12.450002994677345,80.028,12.450002994677345C81.018,12.450002994677345,81.828,12.612002994677345,82.548,12.882002994677345L82.548,11.460002994677346C82.008,11.280002994677345,81.09,11.100002994677345,80.01,11.100002994677345C77.148,11.100002994677345,75.51,12.270002994677345,75.51,16.140002994677346C75.51,20.010002994677347,77.148,21.180002994677345,80.01,21.180002994677345ZM88.056,19.812002994677346C86.868,19.812002994677346,86.652,19.452002994677347,86.652,17.940002994677346L86.652,12.576002994677346L89.064,12.576002994677346L89.064,11.280002994677345L86.652,11.280002994677345L86.652,8.976002994677346L85.104,8.976002994677346L85.104,11.280002994677345L83.664,11.280002994677345L83.664,12.576002994677346L85.104,12.576002994677346L85.104,18.030002994677346C85.104,20.586002994677344,85.878,21.108002994677346,88.02,21.108002994677346C88.434,21.108002994677346,88.74,21.072002994677344,89.118,21.018002994677346L89.118,19.704002994677346C88.776,19.776002994677345,88.488,19.812002994677346,88.056,19.812002994677346ZM94.95,11.100002994677345C94.248,11.100002994677345,93.456,11.154002994677345,92.736,11.244002994677345L92.736,12.612002994677345C93.438,12.468002994677345,94.23,12.396002994677346,94.878,12.396002994677346C96.858,12.396002994677346,97.272,13.206002994677345,97.272,14.376002994677345L97.272,15.186002994677345L94.302,15.186002994677345C91.98,15.186002994677345,90.45,15.978002994677345,90.45,18.282002994677345C90.45,20.118002994677344,91.476,21.180002994677345,93.798,21.180002994677345C95.256,21.180002994677345,96.714,20.586002994677344,97.272,19.524002994677346L97.506,21.000002994677345L98.82,21.000002994677345L98.82,14.106002994677345C98.82,12.360002994677345,98.01,11.100002994677345,94.95,11.100002994677345ZM93.942,19.884002994677346C92.574,19.884002994677346,92.052,19.326002994677346,92.052,18.264002994677345C92.052,16.752002994677344,92.808,16.428002994677346,94.41,16.428002994677346L97.272,16.428002994677346L97.272,18.030002994677346C96.768,19.182002994677344,95.562,19.884002994677346,93.942,19.884002994677346ZM105.138,19.812002994677346C103.95,19.812002994677346,103.734,19.452002994677347,103.734,17.940002994677346L103.734,12.576002994677346L106.146,12.576002994677346L106.146,11.280002994677345L103.734,11.280002994677345L103.734,8.976002994677346L102.186,8.976002994677346L102.186,11.280002994677345L100.746,11.280002994677345L100.746,12.576002994677346L102.186,12.576002994677346L102.186,18.030002994677346C102.186,20.586002994677344,102.96,21.108002994677346,105.102,21.108002994677346C105.516,21.108002994677346,105.822,21.072002994677344,106.2,21.018002994677346L106.2,19.704002994677346C105.858,19.776002994677345,105.57,19.812002994677346,105.138,19.812002994677346ZM108.972,9.498002994677345C109.62,9.498002994677345,109.89,9.372002994677345,109.89,8.580002994677345C109.89,7.770002994677345,109.62,7.662002994677345,108.972,7.662002994677345C108.288,7.662002994677345,108.036,7.770002994677345,108.036,8.580002994677345C108.036,9.372002994677345,108.288,9.498002994677345,108.972,9.498002994677345ZM108.18,21.000002994677345L109.728,21.000002994677345L109.728,11.280002994677345L108.18,11.280002994677345L108.18,21.000002994677345ZM116.928,21.180002994677345C119.808,21.180002994677345,121.41,20.010002994677347,121.41,16.140002994677346C121.41,12.270002994677345,119.808,11.100002994677345,116.928,11.100002994677345C114.066,11.100002994677345,112.428,12.270002994677345,112.428,16.140002994677346C112.428,20.010002994677347,114.066,21.180002994677345,116.928,21.180002994677345ZM116.928,19.866002994677345C114.822,19.866002994677345,114.084,18.984002994677347,114.084,16.140002994677346C114.084,13.296002994677345,114.75,12.396002994677346,116.928,12.396002994677346C119.052,12.396002994677346,119.772,13.296002994677345,119.772,16.140002994677346C119.772,18.984002994677347,119.124,19.866002994677345,116.928,19.866002994677345ZM128.79,11.100002994677345C127.602,11.100002994677345,126.27,11.424002994677345,125.676,12.666002994677346L125.676,11.280002994677345L124.128,11.280002994677345L124.128,21.000002994677345L125.676,21.000002994677345L125.676,14.430002994677345C126.216,12.720002994677346,127.404,12.486002994677346,128.628,12.486002994677346C130.176,12.486002994677346,130.482,13.350002994677345,130.482,14.844002994677345L130.482,21.000002994677345L132.048,21.000002994677345L132.048,14.268002994677346C132.048,12.414002994677345,131.328,11.100002994677345,128.79,11.100002994677345Z" fill="#FFFFFF" fill-opacity="1"/></g></svg>