<svg xmlns="http://www.w3.org/2000/svg" xmlns:xlink="http://www.w3.org/1999/xlink" fill="none" version="1.1" width="90.00000042461843" height="19.000002011350446" viewBox="0 0 90.00000042461843 19.000002011350446"><g transform="matrix(1,-2.2348338291067193e-8,2.2348338291067193e-8,1,-4.495034019347821e-14,0)"><path d="M0.18,14.000002011350446L2.292,14.000002011350446L4.092,10.880002011350447L4.164,10.880002011350447L5.868,14.000002011350446L8.04,14.000002011350446L5.472,9.692002011350446L7.956,5.672002011350446L5.856,5.672002011350446L4.188,8.648002011350446L4.116,8.648002011350446L2.484,5.672002011350446L0.36,5.672002011350446L2.796,9.764002011350446L0.18,14.000002011350446ZM28.068,14.000002011350446L30.12,14.000002011350446L31.488,11.768002011350447L31.56,11.768002011350447L32.904,14.000002011350446L34.968,14.000002011350446L32.748,10.676002011350446L34.848,7.520002011350446L32.832,7.520002011350446L31.572,9.632002011350446L31.5,9.632002011350446L30.24,7.520002011350446L28.2,7.520002011350446L30.312,10.688002011350447L28.068,14.000002011350446Z" fill="#FCC143" fill-opacity="1"/><path d="M11.736,9.488002011350446L17.52,9.488002011350446L17.52,8.468002011350446L11.736,8.468002011350446L11.736,9.488002011350446ZM11.736,12.320002011350446L17.52,12.320002011350446L17.52,11.300002011350447L11.736,11.300002011350447L11.736,12.320002011350446ZM27.264,10.112002011350446C27.264,8.852002011350447,26.88,7.4000020113504466,24.672,7.4000020113504466C22.824,7.4000020113504466,21.732,8.180002011350446,21.732,10.760002011350446C21.732,13.340002011350446,22.824,14.120002011350445,24.732,14.120002011350445C25.656,14.120002011350445,26.544,13.928002011350447,26.916,13.736002011350447L26.916,12.788002011350446C26.424,13.028002011350447,25.596,13.208002011350446,24.888,13.208002011350446C23.316,13.208002011350446,22.824,12.560002011350447,22.812,11.144002011350446L27.204,10.868002011350447C27.24,10.568002011350446,27.264,10.292002011350446,27.264,10.112002011350446ZM22.812,10.376002011350446C22.848,9.056002011350445,23.184,8.252002011350447,24.672,8.252002011350447C26.076,8.252002011350447,26.244,9.128002011350446,26.244,10.124002011350447L22.812,10.376002011350446ZM39.3,7.4000020113504466C38.064,7.4000020113504466,37.464,7.916002011350447,37.2,8.684002011350445L37.2,7.520002011350446L36.168,7.520002011350446L36.168,16.400002011350445L37.2,16.400002011350445L37.2,12.872002011350446C37.464,13.628002011350446,38.04,14.120002011350445,39.3,14.120002011350445C41.472,14.120002011350445,41.976,12.548002011350446,41.976,10.760002011350446C41.976,8.780002011350446,41.472,7.4000020113504466,39.3,7.4000020113504466ZM39.168,13.244002011350446C37.608,13.244002011350446,37.152,12.248002011350446,37.152,10.760002011350446C37.152,9.212002011350446,37.608,8.264002011350446,39.168,8.264002011350446C40.668,8.264002011350446,40.896,9.392002011350446,40.896,10.760002011350446C40.896,12.020002011350446,40.704,13.244002011350446,39.168,13.244002011350446ZM48.936,10.112002011350446C48.936,8.852002011350447,48.552,7.4000020113504466,46.344,7.4000020113504466C44.496,7.4000020113504466,43.404,8.180002011350446,43.404,10.760002011350446C43.404,13.340002011350446,44.496,14.120002011350445,46.404,14.120002011350445C47.328,14.120002011350445,48.216,13.928002011350447,48.588,13.736002011350447L48.588,12.788002011350446C48.096,13.028002011350447,47.268,13.208002011350446,46.56,13.208002011350446C44.988,13.208002011350446,44.496,12.560002011350447,44.484,11.144002011350446L48.876,10.868002011350447C48.912,10.568002011350446,48.936,10.292002011350446,48.936,10.112002011350446ZM44.484,10.376002011350446C44.52,9.056002011350445,44.856,8.252002011350447,46.344,8.252002011350447C47.748,8.252002011350447,47.916,9.128002011350446,47.916,10.124002011350447L44.484,10.376002011350446ZM53.34,14.120002011350445C53.952,14.120002011350445,54.696,14.012002011350447,55.056,13.880002011350447L55.056,12.932002011350447C54.588,13.124002011350447,53.976,13.208002011350446,53.364,13.208002011350446C51.924,13.208002011350446,51.444,12.656002011350447,51.444,10.772002011350446C51.444,8.864002011350447,51.924,8.300002011350447,53.352,8.300002011350447C54.012,8.300002011350447,54.552,8.408002011350446,55.032,8.588002011350445L55.032,7.640002011350446C54.672,7.520002011350446,54.06,7.4000020113504466,53.34,7.4000020113504466C51.432,7.4000020113504466,50.34,8.180002011350446,50.34,10.760002011350446C50.34,13.340002011350446,51.432,14.120002011350445,53.34,14.120002011350445ZM58.704,13.208002011350446C57.912,13.208002011350446,57.768,12.968002011350446,57.768,11.960002011350447L57.768,8.384002011350447L59.376,8.384002011350447L59.376,7.520002011350446L57.768,7.520002011350446L57.768,5.984002011350446L56.736,5.984002011350446L56.736,7.520002011350446L55.776,7.520002011350446L55.776,8.384002011350447L56.736,8.384002011350447L56.736,12.020002011350446C56.736,13.724002011350446,57.252,14.072002011350445,58.68,14.072002011350445C58.956,14.072002011350445,59.16,14.048002011350446,59.412,14.012002011350447L59.412,13.136002011350445C59.184,13.184002011350445,58.992,13.208002011350446,58.704,13.208002011350446ZM63.3,7.4000020113504466C62.832,7.4000020113504466,62.304,7.436002011350446,61.824,7.496002011350447L61.824,8.408002011350446C62.292,8.312002011350446,62.82,8.264002011350446,63.252,8.264002011350446C64.572,8.264002011350446,64.848,8.804002011350446,64.848,9.584002011350446L64.848,10.124002011350447L62.868,10.124002011350447C61.32,10.124002011350447,60.3,10.652002011350445,60.3,12.188002011350447C60.3,13.412002011350447,60.984,14.120002011350445,62.532,14.120002011350445C63.504,14.120002011350445,64.476,13.724002011350446,64.848,13.016002011350446L65.004,14.000002011350446L65.88,14.000002011350446L65.88,9.404002011350446C65.88,8.240002011350446,65.34,7.4000020113504466,63.3,7.4000020113504466ZM62.628,13.256002011350446C61.716,13.256002011350446,61.368,12.884002011350447,61.368,12.176002011350446C61.368,11.168002011350445,61.872,10.952002011350446,62.94,10.952002011350446L64.848,10.952002011350446L64.848,12.020002011350446C64.512,12.788002011350446,63.708,13.256002011350446,62.628,13.256002011350446ZM70.092,13.208002011350446C69.3,13.208002011350446,69.156,12.968002011350446,69.156,11.960002011350447L69.156,8.384002011350447L70.764,8.384002011350447L70.764,7.520002011350446L69.156,7.520002011350446L69.156,5.984002011350446L68.124,5.984002011350446L68.124,7.520002011350446L67.164,7.520002011350446L67.164,8.384002011350447L68.124,8.384002011350447L68.124,12.020002011350446C68.124,13.724002011350446,68.64,14.072002011350445,70.068,14.072002011350445C70.344,14.072002011350445,70.548,14.048002011350446,70.8,14.012002011350447L70.8,13.136002011350445C70.572,13.184002011350445,70.38,13.208002011350446,70.092,13.208002011350446ZM72.648,6.332002011350446C73.08,6.332002011350446,73.26,6.248002011350446,73.26,5.720002011350446C73.26,5.180002011350446,73.08,5.108002011350446,72.648,5.108002011350446C72.192,5.108002011350446,72.024,5.180002011350446,72.024,5.720002011350446C72.024,6.248002011350446,72.192,6.332002011350446,72.648,6.332002011350446ZM72.12,14.000002011350446L73.152,14.000002011350446L73.152,7.520002011350446L72.12,7.520002011350446L72.12,14.000002011350446ZM77.952,14.120002011350445C79.872,14.120002011350445,80.94,13.340002011350446,80.94,10.760002011350446C80.94,8.180002011350446,79.872,7.4000020113504466,77.952,7.4000020113504466C76.044,7.4000020113504466,74.952,8.180002011350446,74.952,10.760002011350446C74.952,13.340002011350446,76.044,14.120002011350445,77.952,14.120002011350445ZM77.952,13.244002011350446C76.548,13.244002011350446,76.056,12.656002011350447,76.056,10.760002011350446C76.056,8.864002011350447,76.5,8.264002011350446,77.952,8.264002011350446C79.368,8.264002011350446,79.848,8.864002011350447,79.848,10.760002011350446C79.848,12.656002011350447,79.416,13.244002011350446,77.952,13.244002011350446ZM85.86,7.4000020113504466C85.068,7.4000020113504466,84.18,7.616002011350446,83.784,8.444002011350447L83.784,7.520002011350446L82.752,7.520002011350446L82.752,14.000002011350446L83.784,14.000002011350446L83.784,9.620002011350445C84.144,8.480002011350447,84.936,8.324002011350446,85.752,8.324002011350446C86.784,8.324002011350446,86.988,8.900002011350447,86.988,9.896002011350447L86.988,14.000002011350446L88.032,14.000002011350446L88.032,9.512002011350447C88.032,8.276002011350446,87.552,7.4000020113504466,85.86,7.4000020113504466Z" fill="#000000" fill-opacity="0.8500000238418579"/></g></svg>