<svg xmlns="http://www.w3.org/2000/svg" xmlns:xlink="http://www.w3.org/1999/xlink" fill="none" version="1.1" width="49.000000424618435" height="19.000001095068576" viewBox="0 0 49.000000424618435 19.000001095068576"><g transform="matrix(1,-2.2348338291067193e-8,2.2348338291067193e-8,1,-2.4472962994227026e-14,0)"><path d="M0.18,14.000001095068576L2.292,14.000001095068576L4.092,10.880001095068577L4.164,10.880001095068577L5.868,14.000001095068576L8.04,14.000001095068576L5.472,9.692001095068576L7.956,5.672001095068576L5.856,5.672001095068576L4.188,8.648001095068576L4.116,8.648001095068576L2.484,5.672001095068576L0.36,5.672001095068576L2.796,9.764001095068576L0.18,14.000001095068576ZM28.068,14.000001095068576L30.12,14.000001095068576L31.488,11.768001095068577L31.56,11.768001095068577L32.904,14.000001095068576L34.968,14.000001095068576L32.748,10.676001095068576L34.848,7.520001095068576L32.832,7.520001095068576L31.572,9.632001095068576L31.5,9.632001095068576L30.24,7.520001095068576L28.2,7.520001095068576L30.312,10.688001095068577L28.068,14.000001095068576Z" fill="#4F90CA" fill-opacity="1"/><path d="M11.736,9.488001095068576L17.52,9.488001095068576L17.52,8.468001095068576L11.736,8.468001095068576L11.736,9.488001095068576ZM11.736,12.320001095068577L17.52,12.320001095068577L17.52,11.300001095068577L11.736,11.300001095068577L11.736,12.320001095068577ZM27.264,10.112001095068576C27.264,8.852001095068577,26.88,7.400001095068577,24.672,7.400001095068577C22.824,7.400001095068577,21.732,8.180001095068576,21.732,10.760001095068576C21.732,13.340001095068576,22.824,14.120001095068575,24.732,14.120001095068575C25.656,14.120001095068575,26.544,13.928001095068577,26.916,13.736001095068577L26.916,12.788001095068577C26.424,13.028001095068577,25.596,13.208001095068576,24.888,13.208001095068576C23.316,13.208001095068576,22.824,12.560001095068577,22.812,11.144001095068576L27.204,10.868001095068577C27.24,10.568001095068576,27.264,10.292001095068576,27.264,10.112001095068576ZM22.812,10.376001095068576C22.848,9.056001095068575,23.184,8.252001095068577,24.672,8.252001095068577C26.076,8.252001095068577,26.244,9.128001095068576,26.244,10.124001095068577L22.812,10.376001095068576ZM36.696,6.332001095068576C37.128,6.332001095068576,37.308,6.2480010950685765,37.308,5.720001095068576C37.308,5.180001095068576,37.128,5.108001095068576,36.696,5.108001095068576C36.24,5.108001095068576,36.072,5.180001095068576,36.072,5.720001095068576C36.072,6.2480010950685765,36.24,6.332001095068576,36.696,6.332001095068576ZM36.168,14.000001095068576L37.2,14.000001095068576L37.2,7.520001095068576L36.168,7.520001095068576L36.168,14.000001095068576ZM40.884,14.072001095068575C42.468,14.072001095068575,43.344,13.484001095068576,43.344,12.200001095068576C43.344,10.952001095068576,42.804,10.544001095068577,41.316,10.208001095068576C40.308,9.980001095068577,40.08,9.836001095068577,40.08,9.176001095068576C40.08,8.444001095068577,40.536,8.240001095068576,41.448,8.240001095068576C42.048,8.240001095068576,42.624,8.348001095068577,42.996,8.492001095068577L43.068,7.616001095068576C42.756,7.496001095068577,42.06,7.400001095068577,41.436,7.400001095068577C39.9,7.400001095068577,39.108,8.108001095068577,39.108,9.152001095068576C39.108,10.244001095068576,39.492,10.700001095068576,40.92,11.024001095068575C42.156,11.312001095068576,42.372,11.468001095068576,42.372,12.236001095068577C42.372,12.992001095068577,41.856,13.232001095068576,40.872,13.232001095068576C40.284,13.232001095068576,39.456,13.112001095068576,39,12.980001095068577L39,13.868001095068577C39.36,13.976001095068577,40.26,14.072001095068575,40.884,14.072001095068575ZM47.148,13.208001095068576C46.356,13.208001095068576,46.212,12.968001095068576,46.212,11.960001095068577L46.212,8.384001095068577L47.82,8.384001095068577L47.82,7.520001095068576L46.212,7.520001095068576L46.212,5.984001095068576L45.18,5.984001095068576L45.18,7.520001095068576L44.22,7.520001095068576L44.22,8.384001095068577L45.18,8.384001095068577L45.18,12.020001095068576C45.18,13.724001095068576,45.696,14.072001095068575,47.124,14.072001095068575C47.4,14.072001095068575,47.604,14.048001095068576,47.856,14.012001095068577L47.856,13.136001095068575C47.628,13.184001095068576,47.436,13.208001095068576,47.148,13.208001095068576Z" fill="#000000" fill-opacity="0.8500000238418579"/></g></svg>