<svg xmlns="http://www.w3.org/2000/svg" xmlns:xlink="http://www.w3.org/1999/xlink" fill="none" version="1.1" width="94.00000055870845" height="25.0000021007438" viewBox="0 0 94.00000055870845 25.0000021007438"><g transform="matrix(1,-2.2348338291067193e-8,2.2348338291067193e-8,1,-4.694813309096613e-14,0)"><path d="M0.24,19.0000021007438L3.056,19.0000021007438L5.456,14.8400021007438L5.552,14.8400021007438L7.824,19.0000021007438L10.72,19.0000021007438L7.296,13.2560021007438L10.608,7.896002100743799L7.808,7.896002100743799L5.584,11.8640021007438L5.488,11.8640021007438L3.312,7.896002100743799L0.48,7.896002100743799L3.728,13.3520021007438L0.24,19.0000021007438ZM37.424,19.0000021007438L40.16,19.0000021007438L41.984,16.0240021007438L42.08,16.0240021007438L43.872,19.0000021007438L46.624,19.0000021007438L43.664,14.568002100743799L46.464,10.360002100743799L43.776,10.360002100743799L42.096,13.1760021007438L42,13.1760021007438L40.32,10.360002100743799L37.6,10.360002100743799L40.416,14.584002100743799L37.424,19.0000021007438Z" fill="#93C984" fill-opacity="1"/><path d="M15.648,12.9840021007438L23.36,12.9840021007438L23.36,11.6240021007438L15.648,11.6240021007438L15.648,12.9840021007438ZM15.648,16.7600021007438L23.36,16.7600021007438L23.36,15.4000021007438L15.648,15.4000021007438L15.648,16.7600021007438ZM36.352,13.8160021007438C36.352,12.136002100743799,35.84,10.200002100743799,32.896,10.200002100743799C30.432,10.200002100743799,28.976,11.2400021007438,28.976,14.680002100743799C28.976,18.1200021007438,30.432,19.1600021007438,32.976,19.1600021007438C34.208,19.1600021007438,35.392,18.9040021007438,35.888,18.6480021007438L35.888,17.3840021007438C35.232,17.7040021007438,34.128,17.9440021007438,33.184,17.9440021007438C31.088,17.9440021007438,30.432,17.080002100743798,30.416,15.1920021007438L36.272,14.8240021007438C36.32,14.424002100743799,36.352,14.056002100743799,36.352,13.8160021007438ZM30.416,14.168002100743799C30.464,12.408002100743799,30.912,11.3360021007438,32.896,11.3360021007438C34.768,11.3360021007438,34.992,12.504002100743799,34.992,13.8320021007438L30.416,14.168002100743799ZM52.4,10.200002100743799C50.752,10.200002100743799,49.952,10.8880021007438,49.6,11.9120021007438L49.6,10.360002100743799L48.224,10.360002100743799L48.224,22.2000021007438L49.6,22.2000021007438L49.6,17.496002100743798C49.952,18.5040021007438,50.72,19.1600021007438,52.4,19.1600021007438C55.296,19.1600021007438,55.968,17.0640021007438,55.968,14.680002100743799C55.968,12.040002100743799,55.296,10.200002100743799,52.4,10.200002100743799ZM52.224,17.9920021007438C50.144,17.9920021007438,49.536,16.6640021007438,49.536,14.680002100743799C49.536,12.616002100743799,50.144,11.3520021007438,52.224,11.3520021007438C54.224,11.3520021007438,54.528,12.8560021007438,54.528,14.680002100743799C54.528,16.3600021007438,54.272,17.9920021007438,52.224,17.9920021007438ZM61.808,10.200002100743799C61.184,10.200002100743799,60.48,10.248002100743799,59.84,10.328002100743799L59.84,11.5440021007438C60.464,11.4160021007438,61.168,11.3520021007438,61.744,11.3520021007438C63.504,11.3520021007438,63.872,12.072002100743799,63.872,13.1120021007438L63.872,13.8320021007438L61.232,13.8320021007438C59.168,13.8320021007438,57.808,14.536002100743799,57.808,16.5840021007438C57.808,18.2160021007438,58.72,19.1600021007438,60.784,19.1600021007438C62.08,19.1600021007438,63.376,18.6320021007438,63.872,17.688002100743798L64.08,19.0000021007438L65.248,19.0000021007438L65.248,12.8720021007438C65.248,11.3200021007438,64.528,10.200002100743799,61.808,10.200002100743799ZM60.912,18.0080021007438C59.696,18.0080021007438,59.232,17.5120021007438,59.232,16.5680021007438C59.232,15.2240021007438,59.904,14.9360021007438,61.328,14.9360021007438L63.872,14.9360021007438L63.872,16.3600021007438C63.424,17.3840021007438,62.352,18.0080021007438,60.912,18.0080021007438ZM72.32,10.200002100743799C71.264,10.200002100743799,70.08,10.488002100743799,69.552,11.5920021007438L69.552,10.360002100743799L68.176,10.360002100743799L68.176,19.0000021007438L69.552,19.0000021007438L69.552,13.1600021007438C70.032,11.6400021007438,71.088,11.4320021007438,72.176,11.4320021007438C73.552,11.4320021007438,73.824,12.200002100743799,73.824,13.5280021007438L73.824,19.0000021007438L75.216,19.0000021007438L75.216,13.0160021007438C75.216,11.3680021007438,74.576,10.200002100743799,72.32,10.200002100743799ZM80.064,19.0960021007438C82.176,19.0960021007438,83.344,18.3120021007438,83.344,16.6000021007438C83.344,14.9360021007438,82.624,14.392002100743799,80.64,13.9440021007438C79.296,13.6400021007438,78.992,13.4480021007438,78.992,12.568002100743799C78.992,11.5920021007438,79.6,11.3200021007438,80.816,11.3200021007438C81.616,11.3200021007438,82.384,11.4640021007438,82.88,11.6560021007438L82.976,10.488002100743799C82.56,10.328002100743799,81.632,10.200002100743799,80.8,10.200002100743799C78.752,10.200002100743799,77.696,11.1440021007438,77.696,12.536002100743799C77.696,13.9920021007438,78.208,14.600002100743799,80.112,15.0320021007438C81.76,15.4160021007438,82.048,15.6240021007438,82.048,16.6480021007438C82.048,17.656002100743798,81.36,17.9760021007438,80.048,17.9760021007438C79.264,17.9760021007438,78.16,17.8160021007438,77.552,17.6400021007438L77.552,18.8240021007438C78.032,18.9680021007438,79.232,19.0960021007438,80.064,19.0960021007438ZM92.592,13.8160021007438C92.592,12.136002100743799,92.08,10.200002100743799,89.136,10.200002100743799C86.672,10.200002100743799,85.216,11.2400021007438,85.216,14.680002100743799C85.216,18.1200021007438,86.672,19.1600021007438,89.216,19.1600021007438C90.448,19.1600021007438,91.632,18.9040021007438,92.128,18.6480021007438L92.128,17.3840021007438C91.472,17.7040021007438,90.368,17.9440021007438,89.424,17.9440021007438C87.328,17.9440021007438,86.672,17.080002100743798,86.656,15.1920021007438L92.512,14.8240021007438C92.56,14.424002100743799,92.592,14.056002100743799,92.592,13.8160021007438ZM86.656,14.168002100743799C86.704,12.408002100743799,87.152,11.3360021007438,89.136,11.3360021007438C91.008,11.3360021007438,91.232,12.504002100743799,91.232,13.8320021007438L86.656,14.168002100743799Z" fill="#000000" fill-opacity="0.8500000238418579"/></g></svg>