<svg xmlns="http://www.w3.org/2000/svg" xmlns:xlink="http://www.w3.org/1999/xlink" fill="none" version="1.1" width="133.00000062575347" height="28.000002972328993" viewBox="0 0 133.00000062575347 28.000002972328993"><g transform="matrix(1,-2.2348338291067193e-8,2.2348338291067193e-8,1,-6.642661384147336e-14,0)"><path d="M0.27,21.000002972328993L3.438,21.000002972328993L6.138,16.320002972328993L6.246,16.320002972328993L8.802,21.000002972328993L12.06,21.000002972328993L8.208,14.538002972328993L11.934,8.508002972328992L8.784,8.508002972328992L6.282,12.972002972328992L6.174,12.972002972328992L3.726,8.508002972328992L0.54,8.508002972328992L4.194,14.646002972328994L0.27,21.000002972328993ZM17.604,14.232002972328992L26.28,14.232002972328992L26.28,12.702002972328993L17.604,12.702002972328993L17.604,14.232002972328992ZM17.604,18.480002972328993L26.28,18.480002972328993L26.28,16.950002972328992L17.604,16.950002972328992L17.604,18.480002972328993ZM40.896,15.168002972328992C40.896,13.278002972328993,40.32,11.100002972328992,37.008,11.100002972328992C34.236,11.100002972328992,32.598,12.270002972328992,32.598,16.140002972328993C32.598,20.010002972328994,34.236,21.180002972328992,37.098,21.180002972328992C38.484,21.180002972328992,39.816,20.892002972328992,40.374,20.604002972328992L40.374,19.18200297232899C39.636,19.542002972328994,38.394,19.812002972328994,37.332,19.812002972328994C34.974,19.812002972328994,34.236,18.840002972328993,34.218,16.716002972328994L40.806,16.302002972328992C40.86,15.852002972328993,40.896,15.438002972328993,40.896,15.168002972328992ZM34.218,15.564002972328993C34.272,13.584002972328992,34.776,12.378002972328993,37.008,12.378002972328993C39.114,12.378002972328993,39.366,13.692002972328993,39.366,15.186002972328993L34.218,15.564002972328993ZM42.102,21.000002972328993L45.18,21.000002972328993L47.232,17.652002972328994L47.34,17.652002972328994L49.356,21.000002972328993L52.452,21.000002972328993L49.122,16.014002972328992L52.272,11.280002972328992L49.248,11.280002972328992L47.358,14.448002972328993L47.25,14.448002972328993L45.36,11.280002972328992L42.3,11.280002972328992L45.468,16.032002972328993L42.102,21.000002972328993ZM60.462,11.280002972328992L60.462,17.886002972328992C59.904,19.56000297232899,58.824,19.812002972328994,57.6,19.812002972328994C56.052,19.812002972328994,55.728,18.91200297232899,55.728,17.436002972328993L55.728,11.280002972328992L54.18,11.280002972328992L54.18,18.012002972328993C54.18,19.884002972328993,54.9,21.180002972328992,57.438,21.180002972328992C58.626,21.180002972328992,59.904,20.87400297232899,60.498,19.596002972328993L60.696,21.000002972328993L62.01,21.000002972328993L62.01,11.280002972328992L60.462,11.280002972328992ZM69.984,11.100002972328992C68.13,11.100002972328992,67.23,11.874002972328993,66.834,13.026002972328993L66.834,7.320002972328993L65.286,7.320002972328993L65.286,21.000002972328993L66.636,21.000002972328993L66.834,19.308002972328993C67.23,20.442002972328993,68.094,21.180002972328992,69.984,21.180002972328992C73.242,21.180002972328992,73.998,18.822002972328992,73.998,16.140002972328993C73.998,13.170002972328993,73.242,11.100002972328992,69.984,11.100002972328992ZM69.786,19.866002972328992C67.446,19.866002972328992,66.762,18.372002972328993,66.762,16.140002972328993C66.762,13.818002972328992,67.446,12.396002972328994,69.786,12.396002972328994C72.036,12.396002972328994,72.378,14.106002972328993,72.378,16.140002972328993C72.378,18.030002972328994,72.09,19.866002972328992,69.786,19.866002972328992ZM84.438,15.168002972328992C84.438,13.278002972328993,83.862,11.100002972328992,80.55,11.100002972328992C77.778,11.100002972328992,76.14,12.270002972328992,76.14,16.140002972328993C76.14,20.010002972328994,77.778,21.180002972328992,80.64,21.180002972328992C82.026,21.180002972328992,83.358,20.892002972328992,83.916,20.604002972328992L83.916,19.18200297232899C83.178,19.542002972328994,81.936,19.812002972328994,80.874,19.812002972328994C78.516,19.812002972328994,77.778,18.840002972328993,77.76,16.716002972328994L84.348,16.302002972328992C84.402,15.852002972328993,84.438,15.438002972328993,84.438,15.168002972328992ZM77.76,15.564002972328993C77.814,13.584002972328992,78.318,12.378002972328993,80.55,12.378002972328993C82.656,12.378002972328993,82.908,13.692002972328993,82.908,15.186002972328993L77.76,15.564002972328993ZM91.764,11.100002972328992C90.594,11.100002972328992,89.28,11.424002972328992,88.668,13.044002972328993L88.668,11.280002972328992L87.12,11.280002972328992L87.12,21.000002972328993L88.668,21.000002972328993L88.668,14.646002972328994C89.208,12.918002972328992,90.432,12.504002972328992,91.674,12.504002972328992L91.89,12.504002972328992L91.944,11.100002972328992L91.764,11.100002972328992ZM96.912,11.100002972328992C96.21,11.100002972328992,95.418,11.154002972328993,94.698,11.244002972328992L94.698,12.612002972328993C95.4,12.468002972328993,96.192,12.396002972328994,96.84,12.396002972328994C98.82,12.396002972328994,99.234,13.206002972328992,99.234,14.376002972328992L99.234,15.186002972328993L96.264,15.186002972328993C93.942,15.186002972328993,92.412,15.978002972328992,92.412,18.282002972328993C92.412,20.11800297232899,93.438,21.180002972328992,95.76,21.180002972328992C97.218,21.180002972328992,98.676,20.58600297232899,99.234,19.524002972328994L99.468,21.000002972328993L100.782,21.000002972328993L100.782,14.106002972328993C100.782,12.360002972328992,99.972,11.100002972328992,96.912,11.100002972328992ZM95.904,19.884002972328993C94.536,19.884002972328993,94.014,19.326002972328993,94.014,18.264002972328992C94.014,16.75200297232899,94.77,16.428002972328994,96.372,16.428002972328994L99.234,16.428002972328994L99.234,18.030002972328994C98.73,19.18200297232899,97.524,19.884002972328993,95.904,19.884002972328993ZM108.738,11.100002972328992C107.55,11.100002972328992,106.218,11.424002972328992,105.624,12.666002972328993L105.624,11.280002972328992L104.076,11.280002972328992L104.076,21.000002972328993L105.624,21.000002972328993L105.624,14.430002972328992C106.164,12.720002972328993,107.352,12.486002972328993,108.576,12.486002972328993C110.124,12.486002972328993,110.43,13.350002972328992,110.43,14.844002972328992L110.43,21.000002972328993L111.996,21.000002972328993L111.996,14.268002972328993C111.996,12.414002972328992,111.276,11.100002972328992,108.738,11.100002972328992ZM119.124,21.180002972328992C120.042,21.180002972328992,121.158,21.018002972328993,121.698,20.820002972328993L121.698,19.398002972328992C120.996,19.686002972328993,120.078,19.812002972328994,119.16,19.812002972328994C117,19.812002972328994,116.28,18.984002972328994,116.28,16.158002972328994C116.28,13.296002972328992,117,12.450002972328992,119.142,12.450002972328992C120.132,12.450002972328992,120.942,12.612002972328993,121.662,12.882002972328992L121.662,11.460002972328994C121.122,11.280002972328992,120.204,11.100002972328992,119.124,11.100002972328992C116.262,11.100002972328992,114.624,12.270002972328992,114.624,16.140002972328993C114.624,20.010002972328994,116.262,21.180002972328992,119.124,21.180002972328992ZM131.868,15.168002972328992C131.868,13.278002972328993,131.292,11.100002972328992,127.98,11.100002972328992C125.208,11.100002972328992,123.57,12.270002972328992,123.57,16.140002972328993C123.57,20.010002972328994,125.208,21.180002972328992,128.07,21.180002972328992C129.456,21.180002972328992,130.788,20.892002972328992,131.346,20.604002972328992L131.346,19.18200297232899C130.608,19.542002972328994,129.366,19.812002972328994,128.304,19.812002972328994C125.946,19.812002972328994,125.208,18.840002972328993,125.19,16.716002972328994L131.778,16.302002972328992C131.832,15.852002972328993,131.868,15.438002972328993,131.868,15.168002972328992ZM125.19,15.564002972328993C125.244,13.584002972328992,125.748,12.378002972328993,127.98,12.378002972328993C130.086,12.378002972328993,130.338,13.692002972328993,130.338,15.186002972328993L125.19,15.564002972328993Z" fill="#FFFFFF" fill-opacity="1"/></g></svg>