<svg xmlns="http://www.w3.org/2000/svg" xmlns:xlink="http://www.w3.org/1999/xlink" fill="none" version="1.1" width="98.00000062575347" height="28.000002190137153" viewBox="0 0 98.00000062575347 28.000002190137153"><g transform="matrix(1,-2.2348338291067193e-8,2.2348338291067193e-8,1,-4.894592598845405e-14,0)"><path d="M0.27,21.000002190137153L3.438,21.000002190137153L6.138,16.320002190137153L6.246,16.320002190137153L8.802,21.000002190137153L12.06,21.000002190137153L8.208,14.538002190137153L11.934,8.508002190137152L8.784,8.508002190137152L6.282,12.972002190137152L6.174,12.972002190137152L3.726,8.508002190137152L0.54,8.508002190137152L4.194,14.646002190137153L0.27,21.000002190137153ZM17.604,14.232002190137152L26.28,14.232002190137152L26.28,12.702002190137152L17.604,12.702002190137152L17.604,14.232002190137152ZM17.604,18.480002190137153L26.28,18.480002190137153L26.28,16.950002190137152L17.604,16.950002190137152L17.604,18.480002190137153ZM40.896,15.168002190137152C40.896,13.278002190137153,40.32,11.100002190137152,37.008,11.100002190137152C34.236,11.100002190137152,32.598,12.270002190137152,32.598,16.140002190137153C32.598,20.010002190137154,34.236,21.180002190137152,37.098,21.180002190137152C38.484,21.180002190137152,39.816,20.892002190137152,40.374,20.60400219013715L40.374,19.18200219013715C39.636,19.542002190137154,38.394,19.812002190137154,37.332,19.812002190137154C34.974,19.812002190137154,34.236,18.840002190137152,34.218,16.716002190137154L40.806,16.302002190137152C40.86,15.852002190137153,40.896,15.438002190137153,40.896,15.168002190137152ZM34.218,15.564002190137153C34.272,13.584002190137152,34.776,12.378002190137153,37.008,12.378002190137153C39.114,12.378002190137153,39.366,13.692002190137153,39.366,15.186002190137152L34.218,15.564002190137153ZM42.102,21.000002190137153L45.18,21.000002190137153L47.232,17.652002190137154L47.34,17.652002190137154L49.356,21.000002190137153L52.452,21.000002190137153L49.122,16.014002190137152L52.272,11.280002190137152L49.248,11.280002190137152L47.358,14.448002190137153L47.25,14.448002190137153L45.36,11.280002190137152L42.3,11.280002190137152L45.468,16.032002190137153L42.102,21.000002190137153ZM58.95,11.100002190137152C57.096,11.100002190137152,56.196,11.874002190137153,55.8,13.026002190137152L55.8,11.280002190137152L54.252,11.280002190137152L54.252,24.600002190137154L55.8,24.600002190137154L55.8,19.308002190137152C56.196,20.442002190137153,57.06,21.180002190137152,58.95,21.180002190137152C62.208,21.180002190137152,62.964,18.82200219013715,62.964,16.140002190137153C62.964,13.170002190137152,62.208,11.100002190137152,58.95,11.100002190137152ZM58.752,19.866002190137152C56.412,19.866002190137152,55.728,18.372002190137152,55.728,16.140002190137153C55.728,13.818002190137152,56.412,12.396002190137153,58.752,12.396002190137153C61.002,12.396002190137153,61.344,14.088002190137152,61.344,16.140002190137153C61.344,18.030002190137154,61.056,19.866002190137152,58.752,19.866002190137152ZM67.842,21.108002190137153C68.274,21.108002190137153,68.58,21.07200219013715,68.868,21.000002190137153L68.868,19.722002190137154C68.616,19.794002190137153,68.346,19.812002190137154,68.13,19.812002190137154C67.5,19.812002190137154,67.23,19.614002190137153,67.23,18.642002190137152L67.23,7.320002190137153L65.682,7.320002190137153L65.682,19.038002190137153C65.682,20.49600219013715,66.402,21.108002190137153,67.842,21.108002190137153ZM74.754,21.180002190137152C77.634,21.180002190137152,79.236,20.010002190137154,79.236,16.140002190137153C79.236,12.270002190137152,77.634,11.100002190137152,74.754,11.100002190137152C71.892,11.100002190137152,70.254,12.270002190137152,70.254,16.140002190137153C70.254,20.010002190137154,71.892,21.180002190137152,74.754,21.180002190137152ZM74.754,19.866002190137152C72.648,19.866002190137152,71.91,18.984002190137154,71.91,16.140002190137153C71.91,13.296002190137152,72.576,12.396002190137153,74.754,12.396002190137153C76.878,12.396002190137153,77.598,13.296002190137152,77.598,16.140002190137153C77.598,18.984002190137154,76.95,19.866002190137152,74.754,19.866002190137152ZM86.598,11.100002190137152C85.428,11.100002190137152,84.114,11.424002190137152,83.502,13.044002190137153L83.502,11.280002190137152L81.954,11.280002190137152L81.954,21.000002190137153L83.502,21.000002190137153L83.502,14.646002190137153C84.042,12.918002190137152,85.266,12.504002190137152,86.508,12.504002190137152L86.724,12.504002190137152L86.778,11.100002190137152L86.598,11.100002190137152ZM96.156,15.168002190137152C96.156,13.278002190137153,95.58,11.100002190137152,92.268,11.100002190137152C89.496,11.100002190137152,87.858,12.270002190137152,87.858,16.140002190137153C87.858,20.010002190137154,89.496,21.180002190137152,92.358,21.180002190137152C93.744,21.180002190137152,95.076,20.892002190137152,95.634,20.60400219013715L95.634,19.18200219013715C94.896,19.542002190137154,93.654,19.812002190137154,92.592,19.812002190137154C90.234,19.812002190137154,89.496,18.840002190137152,89.478,16.716002190137154L96.066,16.302002190137152C96.12,15.852002190137153,96.156,15.438002190137153,96.156,15.168002190137152ZM89.478,15.564002190137153C89.532,13.584002190137152,90.036,12.378002190137153,92.268,12.378002190137153C94.374,12.378002190137153,94.626,13.692002190137153,94.626,15.186002190137152L89.478,15.564002190137153Z" fill="#FFFFFF" fill-opacity="1"/></g></svg>