<svg xmlns="http://www.w3.org/2000/svg" xmlns:xlink="http://www.w3.org/1999/xlink" fill="none" version="1.1" width="81.00000055870845" height="25.0000018102154" viewBox="0 0 81.00000055870845 25.0000018102154"><g transform="matrix(1,-2.2348338291067193e-8,2.2348338291067193e-8,1,-4.045530617413039e-14,0)"><path d="M0.24,19.0000018102154L3.056,19.0000018102154L5.456,14.840001810215401L5.552,14.840001810215401L7.824,19.0000018102154L10.72,19.0000018102154L7.296,13.256001810215402L10.608,7.8960018102154015L7.808,7.8960018102154015L5.584,11.864001810215402L5.488,11.864001810215402L3.312,7.8960018102154015L0.48,7.8960018102154015L3.728,13.352001810215402L0.24,19.0000018102154ZM37.424,19.0000018102154L40.16,19.0000018102154L41.984,16.024001810215402L42.08,16.024001810215402L43.872,19.0000018102154L46.624,19.0000018102154L43.664,14.568001810215401L46.464,10.360001810215401L43.776,10.360001810215401L42.096,13.176001810215402L42,13.176001810215402L40.32,10.360001810215401L37.6,10.360001810215401L40.416,14.584001810215401L37.424,19.0000018102154Z" fill="#F7874A" fill-opacity="1"/><path d="M15.648,12.984001810215402L23.36,12.984001810215402L23.36,11.624001810215402L15.648,11.624001810215402L15.648,12.984001810215402ZM15.648,16.760001810215403L23.36,16.760001810215403L23.36,15.400001810215402L15.648,15.400001810215402L15.648,16.760001810215403ZM36.352,13.816001810215402C36.352,12.1360018102154,35.84,10.2000018102154,32.896,10.2000018102154C30.432,10.2000018102154,28.976,11.240001810215402,28.976,14.680001810215401C28.976,18.120001810215403,30.432,19.1600018102154,32.976,19.1600018102154C34.208,19.1600018102154,35.392,18.9040018102154,35.888,18.6480018102154L35.888,17.384001810215402C35.232,17.704001810215402,34.128,17.9440018102154,33.184,17.9440018102154C31.088,17.9440018102154,30.432,17.0800018102154,30.416,15.192001810215402L36.272,14.824001810215401C36.32,14.424001810215401,36.352,14.0560018102154,36.352,13.816001810215402ZM30.416,14.1680018102154C30.464,12.408001810215401,30.912,11.336001810215402,32.896,11.336001810215402C34.768,11.336001810215402,34.992,12.504001810215401,34.992,13.832001810215402L30.416,14.1680018102154ZM52.368,10.2000018102154C51.312,10.2000018102154,50.128,10.488001810215401,49.6,11.592001810215402L49.6,6.840001810215401L48.224,6.840001810215401L48.224,19.0000018102154L49.6,19.0000018102154L49.6,13.160001810215402C50.08,11.640001810215402,51.136,11.432001810215402,52.224,11.432001810215402C53.6,11.432001810215402,53.888,12.2000018102154,53.888,13.528001810215402L53.888,19.0000018102154L55.264,19.0000018102154L55.264,13.016001810215402C55.264,11.368001810215402,54.624,10.2000018102154,52.368,10.2000018102154ZM61.536,10.2000018102154C60.912,10.2000018102154,60.208,10.248001810215401,59.568,10.328001810215401L59.568,11.544001810215402C60.192,11.416001810215402,60.896,11.352001810215402,61.472,11.352001810215402C63.232,11.352001810215402,63.6,12.0720018102154,63.6,13.112001810215402L63.6,13.832001810215402L60.96,13.832001810215402C58.896,13.832001810215402,57.536,14.536001810215401,57.536,16.5840018102154C57.536,18.216001810215403,58.448,19.1600018102154,60.512,19.1600018102154C61.808,19.1600018102154,63.104,18.632001810215403,63.6,17.6880018102154L63.808,19.0000018102154L64.976,19.0000018102154L64.976,12.872001810215401C64.976,11.320001810215402,64.256,10.2000018102154,61.536,10.2000018102154ZM60.64,18.0080018102154C59.424,18.0080018102154,58.96,17.512001810215402,58.96,16.568001810215403C58.96,15.224001810215402,59.632,14.936001810215402,61.056,14.936001810215402L63.6,14.936001810215402L63.6,16.3600018102154C63.152,17.384001810215402,62.08,18.0080018102154,60.64,18.0080018102154ZM69.824,19.0960018102154C70.208,19.0960018102154,70.48,19.0640018102154,70.736,19.0000018102154L70.736,17.864001810215402C70.512,17.928001810215402,70.272,17.9440018102154,70.08,17.9440018102154C69.52,17.9440018102154,69.28,17.768001810215402,69.28,16.9040018102154L69.28,6.840001810215401L67.904,6.840001810215401L67.904,17.256001810215402C67.904,18.5520018102154,68.544,19.0960018102154,69.824,19.0960018102154ZM79.344,13.816001810215402C79.344,12.1360018102154,78.832,10.2000018102154,75.888,10.2000018102154C73.424,10.2000018102154,71.968,11.240001810215402,71.968,14.680001810215401C71.968,18.120001810215403,73.424,19.1600018102154,75.968,19.1600018102154C77.2,19.1600018102154,78.384,18.9040018102154,78.88,18.6480018102154L78.88,17.384001810215402C78.224,17.704001810215402,77.12,17.9440018102154,76.176,17.9440018102154C74.08,17.9440018102154,73.424,17.0800018102154,73.408,15.192001810215402L79.264,14.824001810215401C79.312,14.424001810215401,79.344,14.0560018102154,79.344,13.816001810215402ZM73.408,14.1680018102154C73.456,12.408001810215401,73.904,11.336001810215402,75.888,11.336001810215402C77.76,11.336001810215402,77.984,12.504001810215401,77.984,13.832001810215402L73.408,14.1680018102154Z" fill="#000000" fill-opacity="0.8500000238418579"/></g></svg>