<svg xmlns="http://www.w3.org/2000/svg" xmlns:xlink="http://www.w3.org/1999/xlink" fill="none" version="1.1" width="24" height="24" viewBox="0 0 24 24"><defs><clipPath id="master_svg0_445_00329"><rect x="0" y="0" width="24" height="24" rx="0"/></clipPath></defs><g clip-path="url(#master_svg0_445_00329)"><g><rect x="0" y="0" width="24" height="24" rx="0" fill="#FFFFFF" fill-opacity="0.009999999776482582"/></g><g><path d="M2.325347,7.91277Q1.5,9.86411,1.5,12Q1.5,14.1359,2.325347,16.0872Q3.1223799999999997,17.971600000000002,4.57538,19.4246Q6.02837,20.8776,7.91277,21.6747Q9.86411,22.5,12,22.5Q14.1359,22.5,16.0872,21.6747Q17.971600000000002,20.8776,19.4246,19.4246Q20.8776,17.971600000000002,21.6747,16.0872Q22.5,14.1359,22.5,12Q22.5,9.86411,21.6747,7.91277Q20.8776,6.02837,19.4246,4.57538Q17.971600000000002,3.1223799999999997,16.0872,2.325347Q14.1359,1.5,12,1.5Q9.86411,1.5,7.91277,2.325347Q6.02838,3.1223799999999997,4.57538,4.57538Q3.1223799999999997,6.02838,2.325347,7.91277ZM3.24635,15.6977Q2.5,13.9331,2.5,12Q2.5,10.0669,3.24635,8.30232Q3.9674,6.59757,5.28248,5.28248Q6.59756,3.9674,8.30232,3.24635Q10.0669,2.5,12,2.5Q13.9331,2.5,15.6977,3.24635Q17.4024,3.9674,18.7175,5.28248Q20.0326,6.59756,20.7536,8.30232Q21.5,10.06689,21.5,12Q21.5,13.9331,20.7536,15.6977Q20.0326,17.4024,18.7175,18.7175Q17.4024,20.0326,15.6977,20.7536Q13.9331,21.5,12,21.5Q10.0669,21.5,8.30232,20.7536Q6.59756,20.0326,5.28248,18.7175Q3.9674,17.4024,3.24635,15.6977Z" fill-rule="evenodd" fill="#000000" fill-opacity="0.6000000238418579"/></g><g><path d="M10.853613,7.1465060000000005L15.35355,11.64645Q15.38837,11.68127,15.41573,11.72221Q15.44309,11.76316,15.46194,11.80866Q15.48078,11.85415,15.49039,11.90245Q15.5,11.95075,15.5,12Q15.5,12.049240000000001,15.49039,12.09754Q15.48078,12.14584,15.46194,12.19134Q15.44309,12.23684,15.41573,12.27778Q15.38837,12.31873,15.35355,12.35355L10.853553,16.85355Q10.783227,16.92388,10.691342,16.96194Q10.5994561,17,10.5,17Q10.4507543,17,10.4024549,16.990389999999998Q10.354155,16.98078,10.308658,16.96194Q10.263161,16.943089999999998,10.222215,16.91573Q10.181269,16.888370000000002,10.146447,16.85355Q10.111625,16.818730000000002,10.084265,16.77778Q10.056906,16.73684,10.03806,16.69134Q10.019214999999999,16.64584,10.009607,16.597540000000002Q10,16.549239999999998,10,16.5Q10,16.40054,10.03806,16.30866Q10.076121,16.21677,10.146447,16.14645L14.29289,12L10.146447,7.853553Q10.07612,7.783227,10.03806,7.691342Q10,7.5994562,10,7.5Q10,7.4507543,10.009607,7.4024549Q10.019214999999999,7.354155,10.03806,7.308658Q10.056906,7.263161,10.084265,7.222215Q10.111625,7.181269,10.146447,7.146447Q10.181269,7.111625,10.222215,7.084265Q10.263161,7.056906,10.308658,7.03806Q10.354155,7.019215,10.4024549,7.009607Q10.4507543,7,10.5,7Q10.5994562,7,10.691342,7.03806Q10.783227,7.07612,10.853553,7.146447L10.853613,7.1465060000000005Z" fill-rule="evenodd" fill="#000000" fill-opacity="0.6000000238418579"/></g></g></svg>