<svg xmlns="http://www.w3.org/2000/svg" xmlns:xlink="http://www.w3.org/1999/xlink" fill="none" version="1.1" width="151.22412109375" height="48.739990234375" viewBox="0 0 151.22412109375 48.739990234375"><g><g><g><path d="M6.22837,2.08799724609375Q8.72925,2.08799724609375,10.3406,3.52799724609375Q11.928,4.96799724609375,11.928,7.24799724609375Q11.928,9.43199724609375,10.248,11.30402724609375Q9.312,12.31202724609375,6.696,14.06402724609375Q4.08,15.79202724609375,3.504,17.08802724609375L11.952,17.08802724609375L11.952,19.56002724609375L9.76563e-7,19.56002724609375Q9.76563e-7,16.92002724609375,1.704,15.00002724609375Q2.64,13.92002724609375,5.64,11.85602724609375Q7.2,10.77602724609375,7.992,9.93599724609375Q9.12,8.66399724609375,9.12,7.22399724609375Q9.12,5.83199724609375,8.37037,5.13599724609375Q7.62037,4.46399724609375,6.12075,4.46399724609375Q4.52437,4.46399724609375,3.72638,5.54399724609375Q2.928,6.55199724609375,2.928,8.59199724609375L0.120001,8.59199724609375Q0.120001,5.71199724609375,1.75538,3.95999724609375Q3.46275,2.08799724609375,6.22837,2.08799724609375ZM20.376,2.08799724609375Q23.376,2.08799724609375,25.056,4.58399724609375Q26.64,6.95999724609375,26.64,10.99202724609375Q26.64,15.02402724609375,25.056,17.40002724609375Q23.352,19.89602724609375,20.376,19.89602724609375Q17.352,19.89602724609375,15.696,17.40002724609375Q14.112,15.02402724609375,14.112,10.99202724609375Q14.112,6.95999724609375,15.696,4.58399724609375Q17.328,2.08799724609375,20.376,2.08799724609375ZM20.376,4.46399724609375Q18.312,4.46399724609375,17.496,6.74399724609375Q16.92,8.27999724609375,16.92,10.99202724609375Q16.92,13.65602724609375,17.496,15.24002724609375Q18.336,17.52002724609375,20.376,17.52002724609375Q22.392,17.52002724609375,23.256,15.24002724609375Q23.832,13.65602724609375,23.832,10.99202724609375Q23.832,8.27999724609375,23.256,6.74399724609375Q22.392,4.46399724609375,20.376,4.46399724609375ZM35.0284,2.08799724609375Q37.5293,2.08799724609375,39.1406,3.52799724609375Q40.728,4.96799724609375,40.728,7.24799724609375Q40.728,9.43199724609375,39.048,11.30402724609375Q38.112,12.31202724609375,35.496,14.06402724609375Q32.88,15.79202724609375,32.304,17.08802724609375L40.752,17.08802724609375L40.752,19.56002724609375L28.8,19.56002724609375Q28.8,16.92002724609375,30.504,15.00002724609375Q31.44,13.92002724609375,34.44,11.85602724609375Q36,10.77602724609375,36.792,9.93599724609375Q37.92,8.66399724609375,37.92,7.22399724609375Q37.92,5.83199724609375,37.1704,5.13599724609375Q36.4204,4.46399724609375,34.9208,4.46399724609375Q33.3244,4.46399724609375,32.5264,5.54399724609375Q31.728,6.55199724609375,31.728,8.59199724609375L28.92,8.59199724609375Q28.92,5.71199724609375,30.5554,3.95999724609375Q32.2628,2.08799724609375,35.0284,2.08799724609375ZM49.176,2.08799724609375Q52.176,2.08799724609375,53.856,4.58399724609375Q55.44,6.95999724609375,55.44,10.99202724609375Q55.44,15.02402724609375,53.856,17.40002724609375Q52.152,19.89602724609375,49.176,19.89602724609375Q46.152,19.89602724609375,44.496,17.40002724609375Q42.912,15.02402724609375,42.912,10.99202724609375Q42.912,6.95999724609375,44.496,4.58399724609375Q46.128,2.08799724609375,49.176,2.08799724609375ZM49.176,4.46399724609375Q47.112,4.46399724609375,46.296,6.74399724609375Q45.72,8.27999724609375,45.72,10.99202724609375Q45.72,13.65602724609375,46.296,15.24002724609375Q47.136,17.52002724609375,49.176,17.52002724609375Q51.192,17.52002724609375,52.056,15.24002724609375Q52.632,13.65602724609375,52.632,10.99202724609375Q52.632,8.27999724609375,52.056,6.74399724609375Q51.192,4.46399724609375,49.176,4.46399724609375ZM78.096,9.88799724609375L78.096,22.00802724609375L75.72,22.00802724609375L75.72,21.04802724609375L65.592,21.04802724609375L65.592,21.96002724609375L63.192,21.96002724609375L63.192,9.88799724609375L69.528,9.88799724609375L69.528,8.06399724609375L71.952,8.06399724609375L71.952,9.88799724609375L78.096,9.88799724609375ZM65.592,18.81602724609375L69.528,18.81602724609375L69.528,16.53602724609375L65.592,16.53602724609375L65.592,18.81602724609375ZM71.952,18.81602724609375L75.72,18.81602724609375L75.72,16.53602724609375L71.952,16.53602724609375L71.952,18.81602724609375ZM65.592,14.37602724609375L69.528,14.37602724609375L69.528,12.19202724609375L65.592,12.19202724609375L65.592,14.37602724609375ZM71.952,12.19202724609375L71.952,14.37602724609375L75.72,14.37602724609375L75.72,12.19202724609375L71.952,12.19202724609375ZM75.264,2.97599724609375L62.16,2.97599724609375L62.16,5.20799724609375L75.264,5.20799724609375L75.264,2.97599724609375ZM62.16,7.48799724609375L62.16,8.85599724609375Q62.136,16.48802724609375,59.352,21.96002724609375L57.336,20.16002724609375Q59.616,15.76802724609375,59.64,8.85599724609375L59.64,0.59999724609375L77.808,0.59999724609375L77.808,7.48799724609375L62.16,7.48799724609375ZM85.608,5.13599724609375L85.608,8.83199724609375Q88.128,8.32799724609375,91.464,7.43999724609375L92.064,9.57599724609375Q87.888,10.75202724609375,83.208,11.66402724609375L82.416,9.43199724609375Q83.16,9.04799724609375,83.16,8.42399724609375L83.16,0.02399754609375L85.608,0.02399754609375L85.608,2.78399724609375L91.584,2.78399724609375L91.584,5.13599724609375L85.608,5.13599724609375ZM95.376,11.06402724609375Q92.928,11.06402724609375,92.928,8.42399724609375L92.928,0.02399754609375L95.376,0.02399754609375L95.376,3.50399724609375Q98.52,2.51999724609375,101.184,1.00799724609375L102.6,2.95199724609375Q98.88,4.77599724609375,95.376,5.78399724609375L95.376,7.99199724609375Q95.376,8.71199724609375,96.024,8.71199724609375L99.384,8.71199724609375Q99.816,8.71199724609375,100.272,8.44799724609375Q100.68,8.18399724609375,100.848,6.04799724609375L103.008,6.71999724609375Q102.648,9.91199724609375,101.976,10.44002724609375Q101.232,11.04002724609375,99.984,11.06402724609375L95.376,11.06402724609375ZM81.36,13.84802724609375L91.08,13.84802724609375L91.08,10.92002724609375L93.576,10.92002724609375L93.576,13.84802724609375L103.152,13.84802724609375L103.152,16.24802724609375L93.576,16.24802724609375L93.576,22.00802724609375L91.08,22.00802724609375L91.08,16.24802724609375L81.36,16.24802724609375L81.36,13.84802724609375ZM112.512,-0.0000024409062499999943L115.032,-0.0000024409062499999943L115.032,18.79202724609375L117.672,18.79202724609375L117.672,-0.0000024409062499999943L120.192,-0.0000024409062499999943L120.192,18.79202724609375L127.104,18.79202724609375L127.104,21.24002724609375L105.648,21.24002724609375L105.648,18.79202724609375L112.512,18.79202724609375L112.512,-0.0000024409062499999943ZM126.648,5.15999724609375Q125.28,11.32802724609375,123.192,15.93602724609375L120.936,15.14402724609375Q122.904,11.08802724609375,124.44,4.53599724609375L126.648,5.15999724609375ZM108.216,4.46399724609375Q110.04,9.31199724609375,111.432,15.45602724609375L109.152,16.00802724609375Q107.904,10.24802724609375,106.08,5.18399724609375L108.216,4.46399724609375ZM134.448,6.40799724609375Q133.032,9.62399724609375,130.848,11.76002724609375L129.192,9.67199724609375Q132.408,6.31199724609375,133.536,0.57599724609375L136.104,1.05599724609375Q135.744,2.75999724609375,135.36,3.98399724609375L139.536,3.98399724609375L139.536,0.04799754609375L142.056,0.04799754609375L142.056,3.98399724609375L149.664,3.98399724609375L149.664,6.40799724609375L142.056,6.40799724609375L142.056,11.11202724609375L149.208,11.11202724609375L149.208,13.53602724609375L142.056,13.53602724609375L142.056,18.76802724609375L151.224,18.76802724609375L151.224,21.26402724609375L129.864,21.26402724609375L129.864,18.76802724609375L139.536,18.76802724609375L139.536,13.53602724609375L132.768,13.53602724609375L132.768,11.11202724609375L139.536,11.11202724609375L139.536,6.40799724609375L134.448,6.40799724609375Z" fill="#FFFFFF" fill-opacity="1"/></g></g><g><g><path d="M5.760000972926616,48.739998657226565C7.020000972926617,48.739998657226565,8.082000972926616,48.50599865722656,8.784000972926616,48.19999865722656L8.784000972926616,46.79599865722656C7.830000972926617,47.11999865722656,6.984000972926617,47.281998657226566,5.814000972926617,47.281998657226566C3.042000972926617,47.281998657226566,1.7640009729266166,46.25599865722656,1.7640009729266166,42.27799865722656C1.7640009729266166,38.55199865722656,3.1320009729266167,37.309998657226565,5.976000972926617,37.309998657226565C7.0740009729266164,37.309998657226565,7.9200009729266165,37.471998657226564,8.640000972926616,37.74199865722656L8.640000972926616,36.24799865722656C7.902000972926617,36.013998657226566,7.092000972926616,35.88799865722656,5.940000972926617,35.88799865722656C2.3400009729266165,35.88799865722656,0.07200097292661667,37.489998657226565,0.07200097292661667,42.31399865722656C0.07200097292661667,47.53399865722656,2.3220009729266167,48.739998657226565,5.760000972926616,48.739998657226565ZM13.356000972926617,48.66799865722656C13.788000972926616,48.66799865722656,14.094000972926617,48.63199865722656,14.382000972926617,48.559998657226565L14.382000972926617,47.281998657226566C14.130000972926616,47.35399865722656,13.860000972926617,47.37199865722656,13.644000972926616,47.37199865722656C13.014000972926617,47.37199865722656,12.744000972926617,47.17399865722656,12.744000972926617,46.20199865722656L12.744000972926617,34.87999725722656L11.196000972926617,34.87999725722656L11.196000972926617,46.59799865722656C11.196000972926617,48.05599865722656,11.916000972926616,48.66799865722656,13.356000972926617,48.66799865722656ZM20.196000972926615,38.65999865722656C19.494000972926617,38.65999865722656,18.702000972926616,38.71399865722656,17.982000972926617,38.803998657226565L17.982000972926617,40.17199865722656C18.684000972926615,40.02799865722656,19.476000972926617,39.95599865722656,20.124000972926616,39.95599865722656C22.104000972926617,39.95599865722656,22.518000972926618,40.76599865722656,22.518000972926618,41.93599865722656L22.518000972926618,42.745998657226565L19.548000972926616,42.745998657226565C17.226000972926617,42.745998657226565,15.696000972926617,43.53799865722657,15.696000972926617,45.84199865722656C15.696000972926617,47.67799865722656,16.722000972926615,48.739998657226565,19.044000972926618,48.739998657226565C20.502000972926616,48.739998657226565,21.96000097292662,48.14599865722656,22.518000972926618,47.08399865722656L22.752000972926616,48.559998657226565L24.066000972926616,48.559998657226565L24.066000972926616,41.66599865722656C24.066000972926616,39.919998657226564,23.256000972926618,38.65999865722656,20.196000972926615,38.65999865722656ZM19.188000972926616,47.44399865722656C17.820000972926618,47.44399865722656,17.298000972926616,46.885998657226565,17.298000972926616,45.82399865722656C17.298000972926616,44.31199865722656,18.054000972926616,43.98799865722656,19.656000972926616,43.98799865722656L22.518000972926618,43.98799865722656L22.518000972926618,45.58999865722656C22.014000972926617,46.74199865722656,20.808000972926617,47.44399865722656,19.188000972926616,47.44399865722656ZM29.610000972926617,48.66799865722656C31.986000972926618,48.66799865722656,33.30000097292662,47.785998657226564,33.30000097292662,45.85999865722656C33.30000097292662,43.98799865722656,32.490000972926616,43.37599865722656,30.258000972926617,42.87199865722656C28.746000972926616,42.529998657226564,28.404000972926617,42.31399865722656,28.404000972926617,41.32399865722656C28.404000972926617,40.22599865722656,29.088000972926615,39.919998657226564,30.456000972926617,39.919998657226564C31.356000972926616,39.919998657226564,32.22000097292662,40.08199865722656,32.77800097292662,40.297998657226564L32.88600097292662,38.983998657226564C32.41800097292661,38.803998657226565,31.374000972926616,38.65999865722656,30.438000972926616,38.65999865722656C28.134000972926618,38.65999865722656,26.946000972926615,39.721998657226564,26.946000972926615,41.28799865722657C26.946000972926615,42.925998657226565,27.522000972926616,43.60999865722656,29.664000972926615,44.09599865722656C31.518000972926618,44.52799865722656,31.842000972926616,44.76199865722656,31.842000972926616,45.913998657226564C31.842000972926616,47.047998657226564,31.068000972926615,47.407998657226564,29.592000972926616,47.407998657226564C28.71000097292662,47.407998657226564,27.468000972926617,47.227998657226564,26.784000972926616,47.029998657226564L26.784000972926616,48.361998657226565C27.324000972926616,48.523998657226564,28.674000972926617,48.66799865722656,29.610000972926617,48.66799865722656ZM38.23200097292661,48.66799865722656C40.60800097292662,48.66799865722656,41.92200097292662,47.785998657226564,41.92200097292662,45.85999865722656C41.92200097292662,43.98799865722656,41.112000972926616,43.37599865722656,38.88000097292662,42.87199865722656C37.368000972926616,42.529998657226564,37.02600097292662,42.31399865722656,37.02600097292662,41.32399865722656C37.02600097292662,40.22599865722656,37.710000972926615,39.919998657226564,39.07800097292662,39.919998657226564C39.978000972926615,39.919998657226564,40.84200097292662,40.08199865722656,41.40000097292662,40.297998657226564L41.50800097292662,38.983998657226564C41.04000097292662,38.803998657226565,39.996000972926616,38.65999865722656,39.060000972926616,38.65999865722656C36.756000972926614,38.65999865722656,35.56800097292662,39.721998657226564,35.56800097292662,41.28799865722657C35.56800097292662,42.925998657226565,36.14400097292662,43.60999865722656,38.286000972926615,44.09599865722656C40.140000972926615,44.52799865722656,40.46400097292662,44.76199865722656,40.46400097292662,45.913998657226564C40.46400097292662,47.047998657226564,39.69000097292662,47.407998657226564,38.21400097292662,47.407998657226564C37.332000972926615,47.407998657226564,36.09000097292662,47.227998657226564,35.40600097292662,47.029998657226564L35.40600097292662,48.361998657226565C35.94600097292662,48.523998657226564,37.29600097292661,48.66799865722656,38.23200097292661,48.66799865722656ZM53.15400097292662,48.739998657226565C56.03400097292662,48.739998657226565,57.63600097292662,47.56999865722656,57.63600097292662,43.69999865722656C57.63600097292662,39.82999865722656,56.03400097292662,38.65999865722656,53.15400097292662,38.65999865722656C50.292000972926616,38.65999865722656,48.65400097292662,39.82999865722656,48.65400097292662,43.69999865722656C48.65400097292662,47.56999865722656,50.292000972926616,48.739998657226565,53.15400097292662,48.739998657226565ZM53.15400097292662,47.425998657226565C51.048000972926616,47.425998657226565,50.310000972926616,46.54399865722657,50.310000972926616,43.69999865722656C50.310000972926616,40.855998657226564,50.97600097292662,39.95599865722656,53.15400097292662,39.95599865722656C55.27800097292662,39.95599865722656,55.99800097292662,40.855998657226564,55.99800097292662,43.69999865722656C55.99800097292662,46.54399865722657,55.350000972926615,47.425998657226565,53.15400097292662,47.425998657226565ZM63.936000972926614,36.04999865722656C64.35000097292662,36.04999865722656,64.74600097292662,36.08599865722656,65.01600097292662,36.13999865722656L65.01600097292662,34.89799885722656C64.67400097292662,34.84399795722656,64.29600097292662,34.80799865722656,63.936000972926614,34.80799865722656C61.95600097292662,34.80799865722656,60.66000097292662,35.38399865722656,60.66000097292662,38.74999865722656L60.66000097292662,38.83999865722656L59.04000097292662,38.83999865722656L59.04000097292662,40.117998657226565L60.66000097292662,40.117998657226565L60.66000097292662,48.559998657226565L62.20800097292662,48.559998657226565L62.20800097292662,40.117998657226565L64.49400097292661,40.117998657226565L64.49400097292661,38.83999865722656L62.20800097292662,38.83999865722656C62.22600097292662,36.62599865722656,62.60400097292661,36.04999865722656,63.936000972926614,36.04999865722656ZM70.65000097292662,48.559998657226565L78.87600097292662,48.559998657226565L78.87600097292662,47.19199865722656L72.43200097292662,47.19199865722656L72.43200097292662,47.029998657226564L73.15200097292661,46.471998657226564C77.18400097292661,43.24999865722656,78.37200097292661,41.73799865722656,78.37200097292661,39.46999865722656C78.37200097292661,36.913998657226564,76.80600097292661,35.88799865722656,74.35800097292662,35.88799865722656C73.31400097292662,35.88799865722656,72.36000097292661,35.977998657226564,71.51400097292661,36.175998657226565L71.51400097292661,37.56199865722656C72.48600097292662,37.309998657226565,73.38600097292661,37.23799865722656,74.17800097292661,37.23799865722656C75.40200097292661,37.23799865722656,76.82400097292661,37.651998657226564,76.82400097292661,39.45199865722656C76.82400097292661,41.233998657226564,75.96000097292662,42.69199865722656,70.65000097292662,46.849998657226564L70.65000097292662,48.559998657226565ZM85.14000097292661,48.739998657226565C87.66000097292661,48.739998657226565,89.37000097292662,47.46199865722656,89.37000097292662,42.31399865722656C89.37000097292662,37.18399865722656,87.66000097292661,35.88799865722656,85.14000097292661,35.88799865722656C82.65600097292662,35.88799865722656,80.92800097292661,37.18399865722656,80.92800097292661,42.31399865722656C80.92800097292661,47.46199865722656,82.65600097292662,48.739998657226565,85.14000097292661,48.739998657226565ZM85.14000097292661,47.38999865722656C83.39400097292662,47.38999865722656,82.58400097292662,46.32799865722656,82.58400097292662,42.31399865722656C82.58400097292662,38.31799865722656,83.39400097292662,37.25599865722656,85.14000097292661,37.25599865722656C86.90400097292661,37.25599865722656,87.73200097292661,38.31799865722656,87.73200097292661,42.31399865722656C87.73200097292661,46.32799865722656,86.90400097292661,47.38999865722656,85.14000097292661,47.38999865722656ZM91.35000097292662,48.559998657226565L99.57600097292662,48.559998657226565L99.57600097292662,47.19199865722656L93.13200097292662,47.19199865722656L93.13200097292662,47.029998657226564L93.85200097292662,46.471998657226564C97.88400097292661,43.24999865722656,99.07200097292662,41.73799865722656,99.07200097292662,39.46999865722656C99.07200097292662,36.913998657226564,97.50600097292661,35.88799865722656,95.05800097292662,35.88799865722656C94.01400097292661,35.88799865722656,93.06000097292662,35.977998657226564,92.21400097292661,36.175998657226565L92.21400097292661,37.56199865722656C93.18600097292662,37.309998657226565,94.08600097292661,37.23799865722656,94.87800097292661,37.23799865722656C96.10200097292662,37.23799865722656,97.52400097292661,37.651998657226564,97.52400097292661,39.45199865722656C97.52400097292661,41.233998657226564,96.66000097292661,42.69199865722656,91.35000097292662,46.849998657226564L91.35000097292662,48.559998657226565ZM105.84000097292662,48.739998657226565C108.36000097292661,48.739998657226565,110.07000097292662,47.46199865722656,110.07000097292662,42.31399865722656C110.07000097292662,37.18399865722656,108.36000097292661,35.88799865722656,105.84000097292662,35.88799865722656C103.35600097292662,35.88799865722656,101.62800097292661,37.18399865722656,101.62800097292661,42.31399865722656C101.62800097292661,47.46199865722656,103.35600097292662,48.739998657226565,105.84000097292662,48.739998657226565ZM105.84000097292662,47.38999865722656C104.09400097292662,47.38999865722656,103.28400097292662,46.32799865722656,103.28400097292662,42.31399865722656C103.28400097292662,38.31799865722656,104.09400097292662,37.25599865722656,105.84000097292662,37.25599865722656C107.60400097292661,37.25599865722656,108.43200097292662,38.31799865722656,108.43200097292662,42.31399865722656C108.43200097292662,46.32799865722656,107.60400097292661,47.38999865722656,105.84000097292662,47.38999865722656Z" fill="#FFFFFF" fill-opacity="1"/></g></g></g></svg>