<svg xmlns="http://www.w3.org/2000/svg" xmlns:xlink="http://www.w3.org/1999/xlink" fill="none" version="1.1" width="56"
    height="56" viewBox="0 0 56 56">
    <defs>
        <clipPath id="master_svg0_407_15772">
            <rect x="0" y="0" width="56" height="56" rx="0" />
        </clipPath>
    </defs>
    <g clip-path="url(#master_svg0_407_15772)">
        <g>
            <g>
                <rect x="38.40242958068848" y="20.719516277313232" width="4.59757137298584" height="15.56097412109375"
                    rx="0" fill="#fff" fill-opacity="1" />
            </g>
            <g transform="matrix(0,-1,1,0,-3.536606788635254,44.97559070587158)">
                <rect x="20.719491958618164" y="24.256098747253418" width="3.5365848541259766"
                    height="15.561010360717773" rx="0" fill="#fff" fill-opacity="1" />
            </g>
            <g transform="matrix(0,-1,1,0,2.121934413909912,39.317055225372314)">
                <rect x="20.719494819641113" y="18.5975604057312" width="4.597560405731201" height="15.561010360717773"
                    rx="0" fill="#fff" fill-opacity="1" />
            </g>
            <g transform="matrix(-1,0,0,-1,48.51217079162598,72.56096649169922)">
                <rect x="24.25608539581299" y="36.28048324584961" width="3.536593198776245" height="15.56097412109375"
                    rx="0" fill="#fff" fill-opacity="1" />
            </g>
            <g transform="matrix(-1,0,0,-1,37.19514274597168,72.56096649169922)">
                <rect x="18.59757137298584" y="36.28048324584961" width="4.59757137298584" height="15.56097412109375"
                    rx="0" fill="#fff" fill-opacity="1" />
            </g>
            <g transform="matrix(0,1,-1,0,69.02439308166504,-3.536592483520508)">
                <rect x="36.28049278259277" y="32.743900299072266" width="3.5365848541259766"
                    height="15.561010360717773" rx="0" fill="#fff" fill-opacity="1" />
            </g>
            <g transform="matrix(0,1,-1,0,74.68294334411621,2.1219348907470703)">
                <rect x="36.28050422668457" y="38.40243911743164" width="4.597560405731201" height="15.561010360717773"
                    rx="0" fill="#fff" fill-opacity="1" />
            </g>
            <g>
                <rect x="32.74389839172363" y="20.71951389312744" width="3.536593198776245" height="15.56097412109375"
                    rx="0" fill="#fff" fill-opacity="1" />
            </g>
            <g></g>
        </g>
    </g>
</svg>