<svg xmlns="http://www.w3.org/2000/svg" xmlns:xlink="http://www.w3.org/1999/xlink" fill="none" version="1.1" width="56"
    height="56" viewBox="0 0 56 56">
    <defs>
        <clipPath id="master_svg0_407_15821">
            <rect x="0" y="0" width="56" height="56" rx="0" />
        </clipPath>
        <clipPath id="master_svg1_407_18119">
            <rect x="11" y="11" width="34" height="34" rx="0" />
        </clipPath>
    </defs>
    <g clip-path="url(#master_svg0_407_15821)">
        <g
            transform="matrix(-0.8660253286361694,0.5000000596046448,0.5000001192092896,0.8660253882408142,146.31310780965578,-39.204487450460874)">
            <line x1="93.439453125" y1="56.04454345628619" x2="181.05794525146484" y2="56.04454345628619"
                fill-opacity="0" stroke-opacity="1" stroke="#D8D8D8" fill="none" stroke-width="0.10000000149011612" />
        </g>
        <g clip-path="url(#master_svg1_407_18119)">
            <g>
                <path d="M14,31L32,20.06061L32,12L14,22.9394L14,31Z" fill="#fff" fill-opacity="1" />
            </g>
            <g
                transform="matrix(-0.5000001192092896,0.8660253286361694,-0.8660253286361694,-0.5000001192092896,95.57941912570095,-7.65667131387454)">
                <path
                    d="M50,42.240961523437505L68.4779,31.602171523437498L68.4779,23.7630615234375L50,34.4018615234375L50,42.240961523437505Z"
                    fill="#fff" fill-opacity="1" />
            </g>
            <g
                transform="matrix(-0.4843801259994507,-0.8748576641082764,0.8748576641082764,-0.4843801259994507,-10.914502597850515,93.00500218609523)">
                <path
                    d="M21.9501953125,68.1967720703125L40.428095312500005,57.5579820703125L40.428095312500005,49.7188720703125L21.9501953125,60.3576720703125L21.9501953125,68.1967720703125Z"
                    fill="#fff" fill-opacity="1" />
            </g>
        </g>
    </g>
</svg>