<svg xmlns="http://www.w3.org/2000/svg" xmlns:xlink="http://www.w3.org/1999/xlink" fill="none" version="1.1" width="24" height="24" viewBox="0 0 24 24"><defs><clipPath id="master_svg0_462_66047"><rect x="0" y="0" width="24" height="24" rx="0"/></clipPath></defs><g clip-path="url(#master_svg0_462_66047)"><g><rect x="0" y="0" width="24" height="24" rx="0" fill="#FFFFFF" fill-opacity="0.009999999776482582"/></g><g><path d="M3.974884033203125,5.47491455078125L19.974884033203125,5.47491455078125Q20.024184033203124,5.47491455078125,20.072484033203125,5.48452155078125Q20.120784033203126,5.49412955078125,20.166284033203127,5.51297455078125Q20.211784033203124,5.53182055078125,20.252684033203124,5.55917955078125Q20.293584033203125,5.58653955078125,20.328484033203125,5.62136155078125Q20.363284033203126,5.65618355078125,20.390584033203126,5.69712955078125Q20.417984033203126,5.73807555078125,20.436884033203125,5.78357255078125Q20.455684033203124,5.82906955078125,20.465284033203126,5.87736945078125Q20.474884033203125,5.92566885078125,20.474884033203125,5.97491455078125Q20.474884033203125,6.02416025078125,20.465284033203126,6.07245965078125Q20.455684033203124,6.12075955078125,20.436884033203125,6.16625655078125Q20.417984033203126,6.21175355078125,20.390584033203126,6.25269955078125Q20.363284033203126,6.29364555078125,20.328484033203125,6.32846755078125Q20.293584033203125,6.36328955078125,20.252684033203124,6.39064955078125Q20.211784033203124,6.41800855078125,20.166284033203127,6.43685455078125Q20.120784033203126,6.45569955078125,20.072484033203125,6.46530755078125Q20.024184033203124,6.47491455078125,19.974884033203125,6.47491455078125L3.974884033203125,6.47491455078125Q3.925638333203125,6.47491455078125,3.877338933203125,6.46530755078125Q3.829039033203125,6.45569955078125,3.783542033203125,6.43685455078125Q3.738045033203125,6.41800855078125,3.697099033203125,6.39064955078125Q3.656153033203125,6.36328955078125,3.621331033203125,6.32846755078125Q3.586509033203125,6.29364555078125,3.559149033203125,6.25269955078125Q3.531790033203125,6.21175355078125,3.5129440332031248,6.16625655078125Q3.494099033203125,6.12075955078125,3.484491033203125,6.07245965078125Q3.474884033203125,6.02416025078125,3.474884033203125,5.97491455078125Q3.474884033203125,5.92566885078125,3.484491033203125,5.87736945078125Q3.494099033203125,5.82906955078125,3.5129440332031248,5.78357255078125Q3.531790033203125,5.73807555078125,3.559149033203125,5.69712955078125Q3.586509033203125,5.65618355078125,3.621331033203125,5.62136155078125Q3.656153033203125,5.58653955078125,3.697099033203125,5.55917955078125Q3.738045033203125,5.53182055078125,3.783542033203125,5.51297455078125Q3.829039033203125,5.49412955078125,3.877338933203125,5.48452155078125Q3.925638333203125,5.47491455078125,3.974884033203125,5.47491455078125Z" fill-rule="evenodd" fill="#333333" fill-opacity="1"/></g><g><path d="M3.974884033203125,11.47491455078125L19.974884033203125,11.47491455078125Q20.024184033203124,11.47491455078125,20.072484033203125,11.48452155078125Q20.120784033203126,11.494129550781249,20.166284033203127,11.51297455078125Q20.211784033203124,11.53182055078125,20.252684033203124,11.55917955078125Q20.293584033203125,11.58653955078125,20.328484033203125,11.62136155078125Q20.363284033203126,11.65618355078125,20.390584033203126,11.69712955078125Q20.417984033203126,11.73807555078125,20.436884033203125,11.78357255078125Q20.455684033203124,11.82906955078125,20.465284033203126,11.87736945078125Q20.474884033203125,11.92566885078125,20.474884033203125,11.97491455078125Q20.474884033203125,12.02416025078125,20.465284033203126,12.07245965078125Q20.455684033203124,12.12075955078125,20.436884033203125,12.16625655078125Q20.417984033203126,12.21175355078125,20.390584033203126,12.25269955078125Q20.363284033203126,12.29364555078125,20.328484033203125,12.32846755078125Q20.293584033203125,12.36328955078125,20.252684033203124,12.39064955078125Q20.211784033203124,12.41800855078125,20.166284033203127,12.43685455078125Q20.120784033203126,12.455699550781251,20.072484033203125,12.46530755078125Q20.024184033203124,12.47491455078125,19.974884033203125,12.47491455078125L3.974884033203125,12.47491455078125Q3.925638333203125,12.47491455078125,3.877338933203125,12.46530755078125Q3.829039033203125,12.455699550781251,3.783542033203125,12.43685455078125Q3.738045033203125,12.41800855078125,3.697099033203125,12.39064955078125Q3.656153033203125,12.36328955078125,3.621331033203125,12.32846755078125Q3.586509033203125,12.29364555078125,3.559149033203125,12.25269955078125Q3.531790033203125,12.21175355078125,3.5129440332031248,12.16625655078125Q3.494099033203125,12.12075955078125,3.484491033203125,12.07245965078125Q3.474884033203125,12.02416025078125,3.474884033203125,11.97491455078125Q3.474884033203125,11.92566885078125,3.484491033203125,11.87736945078125Q3.494099033203125,11.82906955078125,3.5129440332031248,11.78357255078125Q3.531790033203125,11.73807555078125,3.559149033203125,11.69712955078125Q3.586509033203125,11.65618355078125,3.621331033203125,11.62136155078125Q3.656153033203125,11.58653955078125,3.697099033203125,11.55917955078125Q3.738045033203125,11.53182055078125,3.783542033203125,11.51297455078125Q3.829039033203125,11.494129550781249,3.877338933203125,11.48452155078125Q3.925638333203125,11.47491455078125,3.974884033203125,11.47491455078125Z" fill-rule="evenodd" fill="#333333" fill-opacity="1"/></g><g><path d="M3.974884033203125,17.47491455078125L19.974884033203125,17.47491455078125Q20.024184033203124,17.47491455078125,20.072484033203125,17.48452155078125Q20.120784033203126,17.49412955078125,20.166284033203127,17.51297455078125Q20.211784033203124,17.53182055078125,20.252684033203124,17.55917955078125Q20.293584033203125,17.58653955078125,20.328484033203125,17.62136155078125Q20.363284033203126,17.65618355078125,20.390584033203126,17.69712955078125Q20.417984033203126,17.73807555078125,20.436884033203125,17.78357255078125Q20.455684033203124,17.82906955078125,20.465284033203126,17.87736945078125Q20.474884033203125,17.92566885078125,20.474884033203125,17.97491455078125Q20.474884033203125,18.02416025078125,20.465284033203126,18.07245965078125Q20.455684033203124,18.12075955078125,20.436884033203125,18.16625655078125Q20.417984033203126,18.21175355078125,20.390584033203126,18.25269955078125Q20.363284033203126,18.29364555078125,20.328484033203125,18.32846755078125Q20.293584033203125,18.36328955078125,20.252684033203124,18.39064955078125Q20.211784033203124,18.41800855078125,20.166284033203127,18.43685455078125Q20.120784033203126,18.45569955078125,20.072484033203125,18.46530755078125Q20.024184033203124,18.47491455078125,19.974884033203125,18.47491455078125L3.974884033203125,18.47491455078125Q3.925638333203125,18.47491455078125,3.877338933203125,18.46530755078125Q3.829039033203125,18.45569955078125,3.783542033203125,18.43685455078125Q3.738045033203125,18.41800855078125,3.697099033203125,18.39064955078125Q3.656153033203125,18.36328955078125,3.621331033203125,18.32846755078125Q3.586509033203125,18.29364555078125,3.559149033203125,18.25269955078125Q3.531790033203125,18.21175355078125,3.5129440332031248,18.16625655078125Q3.494099033203125,18.12075955078125,3.484491033203125,18.07245965078125Q3.474884033203125,18.02416025078125,3.474884033203125,17.97491455078125Q3.474884033203125,17.92566885078125,3.484491033203125,17.87736945078125Q3.494099033203125,17.82906955078125,3.5129440332031248,17.78357255078125Q3.531790033203125,17.73807555078125,3.559149033203125,17.69712955078125Q3.586509033203125,17.65618355078125,3.621331033203125,17.62136155078125Q3.656153033203125,17.58653955078125,3.697099033203125,17.55917955078125Q3.738045033203125,17.53182055078125,3.783542033203125,17.51297455078125Q3.829039033203125,17.49412955078125,3.877338933203125,17.48452155078125Q3.925638333203125,17.47491455078125,3.974884033203125,17.47491455078125Z" fill-rule="evenodd" fill="#333333" fill-opacity="1"/></g></g></svg>