<svg xmlns="http://www.w3.org/2000/svg" xmlns:xlink="http://www.w3.org/1999/xlink" fill="none" version="1.1" width="24" height="24" viewBox="0 0 24 24"><defs><clipPath id="master_svg0_616_01031"><rect x="0" y="0" width="24" height="24" rx="0"/></clipPath></defs><g clip-path="url(#master_svg0_616_01031)"><g><rect x="0" y="0" width="24" height="24" rx="0" fill="#FFFFFF" fill-opacity="0.009999999776482582"/></g><g><path d="M2.207473,6.99665Q1.5,8.66929,1.5,10.5Q1.5,12.3307,2.207473,14.0034Q2.89065,15.6186,4.13605,16.864Q5.38144,18.1094,6.99665,18.7925Q8.66929,19.5,10.5,19.5Q12.3307,19.5,14.0034,18.7925Q15.6186,18.1093,16.864,16.864Q18.1094,15.6186,18.7925,14.0034Q19.5,12.3307,19.5,10.5Q19.5,8.66929,18.7925,6.99665Q18.1094,5.38144,16.864,4.13605Q15.6186,2.89065,14.0034,2.207473Q12.3307,1.5,10.5,1.5Q8.6693,1.5,6.99665,2.207473Q5.38145,2.890649,4.13605,4.13605Q2.89065,5.38144,2.207473,6.99665ZM4.84315,16.1568Q2.5,13.8137,2.5,10.5Q2.500001,7.18631,4.84315,4.84315Q7.18631,2.5,10.5,2.5Q13.8137,2.5,16.1568,4.84315Q18.5,7.18631,18.5,10.5Q18.5,13.8137,16.1568,16.1568Q13.8137,18.5,10.5,18.5Q7.1863,18.5,4.84315,16.1568Z" fill-rule="evenodd" fill="#333333" fill-opacity="1"/></g><g><path d="M16.96451387890625,16.25740687890625L21.20710087890625,20.50000087890625Q21.27743087890625,20.57032087890625,21.31549087890625,20.66221087890625Q21.35355087890625,20.75409087890625,21.35355087890625,20.85355087890625Q21.35355087890625,20.902790878906252,21.34394087890625,20.95109087890625Q21.33433087890625,20.99939087890625,21.31549087890625,21.04489087890625Q21.29664087890625,21.09039087890625,21.26928087890625,21.13133087890625Q21.24192087890625,21.17228087890625,21.20710087890625,21.20710087890625Q21.17228087890625,21.24192087890625,21.13133087890625,21.26928087890625Q21.09039087890625,21.29664087890625,21.04489087890625,21.31549087890625Q20.99939087890625,21.33433087890625,20.95109087890625,21.34394087890625Q20.902790878906252,21.35355087890625,20.85355087890625,21.35355087890625Q20.75409087890625,21.35355087890625,20.66221087890625,21.31549087890625Q20.57032087890625,21.27743087890625,20.50000087890625,21.20710087890625L16.25734787890625,16.96445387890625Q16.18702087890625,16.89412787890625,16.14896087890625,16.80224287890625Q16.11090087890625,16.71035707890625,16.11090087890625,16.61090087890625Q16.11090087890625,16.56165517890625,16.12050787890625,16.51335577890625Q16.13011587890625,16.46505587890625,16.14896087890625,16.41955887890625Q16.16780687890625,16.37406187890625,16.19516587890625,16.33311587890625Q16.22252587890625,16.29216987890625,16.25734787890625,16.25734787890625Q16.29216987890625,16.22252587890625,16.33311587890625,16.19516587890625Q16.37406187890625,16.16780687890625,16.41955887890625,16.14896087890625Q16.46505587890625,16.13011587890625,16.51335577890625,16.12050787890625Q16.56165517890625,16.11090087890625,16.61090087890625,16.11090087890625Q16.71035707890625,16.11090087890625,16.80224287890625,16.14896087890625Q16.89412787890625,16.18702087890625,16.96445387890625,16.25734787890625L16.96451387890625,16.25740687890625Z" fill-rule="evenodd" fill="#333333" fill-opacity="1"/></g></g></svg>