<svg xmlns="http://www.w3.org/2000/svg" xmlns:xlink="http://www.w3.org/1999/xlink" fill="none" version="1.1" width="228" height="42" viewBox="0 0 228 42"><defs><clipPath id="master_svg0_7_343"><rect x="0" y="0" width="228" height="42" rx="0"/></clipPath></defs><g clip-path="url(#master_svg0_7_343)"><g><g><path d="M7.1540000069141385,6.284000133514405L0.2240000069141388,6.284000133514405L0.2240000069141388,7.404000133514405L3.066000006914139,7.404000133514405L3.066000006914139,16.000000133514405L4.326000006914139,16.000000133514405L4.326000006914139,7.404000133514405L7.1540000069141385,7.404000133514405L7.1540000069141385,6.284000133514405ZM12.292000006914138,8.300000133514404C11.368000006914139,8.300000133514404,10.33200000691414,8.552000133514404,9.87000000691414,9.518000133514406L9.87000000691414,5.360000133514404L8.666000006914139,5.360000133514404L8.666000006914139,16.000000133514405L9.87000000691414,16.000000133514405L9.87000000691414,10.890000133514405C10.29000000691414,9.560000133514404,11.214000006914139,9.378000133514405,12.166000006914139,9.378000133514405C13.37000000691414,9.378000133514405,13.622000006914138,10.050000133514406,13.622000006914138,11.212000133514405L13.622000006914138,16.000000133514405L14.826000006914139,16.000000133514405L14.826000006914139,10.764000133514404C14.826000006914139,9.322000133514404,14.266000006914139,8.300000133514404,12.292000006914138,8.300000133514404ZM23.32400000691414,11.464000133514404C23.32400000691414,9.994000133514405,22.87600000691414,8.300000133514404,20.30000000691414,8.300000133514404C18.14400000691414,8.300000133514404,16.87000000691414,9.210000133514404,16.87000000691414,12.220000133514404C16.87000000691414,15.230000133514404,18.14400000691414,16.140000133514405,20.37000000691414,16.140000133514405C21.44800000691414,16.140000133514405,22.48400000691414,15.916000133514403,22.918000006914138,15.692000133514405L22.918000006914138,14.586000133514405C22.34400000691414,14.866000133514405,21.37800000691414,15.076000133514404,20.552000006914138,15.076000133514404C18.71800000691414,15.076000133514404,18.14400000691414,14.320000133514405,18.130000006914138,12.668000133514404L23.25400000691414,12.346000133514405C23.296000006914138,11.996000133514404,23.32400000691414,11.674000133514404,23.32400000691414,11.464000133514404ZM18.130000006914138,11.772000133514403C18.17200000691414,10.232000133514404,18.56400000691414,9.294000133514405,20.30000000691414,9.294000133514405C21.938000006914137,9.294000133514405,22.13400000691414,10.316000133514404,22.13400000691414,11.478000133514405L18.130000006914138,11.772000133514403ZM31.55600000691414,16.000000133514405L32.81600000691414,16.000000133514405L32.81600000691414,6.284000133514405L31.990000006914137,6.284000133514405L29.14800000691414,6.872000133514405L29.14800000691414,7.894000133514404L31.55600000691414,7.432000133514404L31.55600000691414,16.000000133514405ZM39.80200000691414,16.140000133514405C41.762000006914135,16.140000133514405,43.09200000691414,15.146000133514404,43.09200000691414,11.142000133514404C43.09200000691414,7.152000133514404,41.762000006914135,6.144000133514404,39.80200000691414,6.144000133514404C37.87000000691414,6.144000133514404,36.52600000691414,7.152000133514404,36.52600000691414,11.142000133514404C36.52600000691414,15.146000133514404,37.87000000691414,16.140000133514405,39.80200000691414,16.140000133514405ZM39.80200000691414,15.090000133514405C38.44400000691414,15.090000133514405,37.81400000691414,14.264000133514404,37.81400000691414,11.142000133514404C37.81400000691414,8.034000133514404,38.44400000691414,7.208000133514404,39.80200000691414,7.208000133514404C41.17400000691414,7.208000133514404,41.81800000691414,8.034000133514404,41.81800000691414,11.142000133514404C41.81800000691414,14.264000133514404,41.17400000691414,15.090000133514405,39.80200000691414,15.090000133514405ZM47.460000006914136,15.076000133514404C46.536000006914136,15.076000133514404,46.36800000691414,14.796000133514404,46.36800000691414,13.620000133514404L46.36800000691414,9.448000133514405L48.24400000691414,9.448000133514405L48.24400000691414,8.440000133514404L46.36800000691414,8.440000133514404L46.36800000691414,6.6480001335144046L45.16400000691414,6.6480001335144046L45.16400000691414,8.440000133514404L44.04400000691414,8.440000133514404L44.04400000691414,9.448000133514405L45.16400000691414,9.448000133514405L45.16400000691414,13.690000133514404C45.16400000691414,15.678000133514404,45.76600000691414,16.084000133514404,47.43200000691414,16.084000133514404C47.75400000691414,16.084000133514404,47.99200000691414,16.056000133514402,48.286000006914136,16.014000133514404L48.286000006914136,14.992000133514404C48.02000000691414,15.048000133514405,47.79600000691414,15.076000133514404,47.460000006914136,15.076000133514404ZM53.45200000691414,8.300000133514404C52.52800000691414,8.300000133514404,51.49200000691414,8.552000133514404,51.030000006914136,9.518000133514406L51.030000006914136,5.360000133514404L49.826000006914136,5.360000133514404L49.826000006914136,16.000000133514405L51.030000006914136,16.000000133514405L51.030000006914136,10.890000133514405C51.45000000691414,9.560000133514404,52.37400000691414,9.378000133514405,53.326000006914136,9.378000133514405C54.530000006914136,9.378000133514405,54.78200000691414,10.050000133514406,54.78200000691414,11.212000133514405L54.78200000691414,16.000000133514405L55.98600000691414,16.000000133514405L55.98600000691414,10.764000133514404C55.98600000691414,9.322000133514404,55.42600000691414,8.300000133514404,53.45200000691414,8.300000133514404ZM68.65600000691414,16.000000133514405L69.98600000691414,16.000000133514405L66.31800000691413,6.284000133514405L64.63800000691414,6.284000133514405L60.95600000691414,16.000000133514405L62.24400000691414,16.000000133514405L63.30800000691414,13.102000133514405L67.60600000691414,13.102000133514405L68.65600000691414,16.000000133514405ZM63.72800000691414,11.982000133514404L65.39400000691414,7.460000133514404L65.56200000691413,7.460000133514404L67.20000000691414,11.982000133514404L63.72800000691414,11.982000133514404ZM75.04000000691414,8.300000133514404C74.11600000691413,8.300000133514404,73.08000000691413,8.552000133514404,72.61800000691414,9.518000133514406L72.61800000691414,8.440000133514404L71.41400000691414,8.440000133514404L71.41400000691414,16.000000133514405L72.61800000691414,16.000000133514405L72.61800000691414,10.890000133514405C73.03800000691413,9.560000133514404,73.96200000691414,9.378000133514405,74.91400000691414,9.378000133514405C76.11800000691414,9.378000133514405,76.35600000691414,10.050000133514406,76.35600000691414,11.212000133514405L76.35600000691414,16.000000133514405L77.57400000691413,16.000000133514405L77.57400000691413,10.764000133514404C77.57400000691413,9.322000133514404,77.01400000691415,8.300000133514404,75.04000000691414,8.300000133514404ZM83.69200000691414,8.300000133514404C82.76800000691414,8.300000133514404,81.73200000691413,8.552000133514404,81.27000000691415,9.518000133514406L81.27000000691415,8.440000133514404L80.06600000691414,8.440000133514404L80.06600000691414,16.000000133514405L81.27000000691415,16.000000133514405L81.27000000691415,10.890000133514405C81.69000000691413,9.560000133514404,82.61400000691414,9.378000133514405,83.56600000691414,9.378000133514405C84.77000000691415,9.378000133514405,85.00800000691414,10.050000133514406,85.00800000691414,11.212000133514405L85.00800000691414,16.000000133514405L86.22600000691413,16.000000133514405L86.22600000691413,10.764000133514404C86.22600000691413,9.322000133514404,85.66600000691413,8.300000133514404,83.69200000691414,8.300000133514404ZM93.54800000691414,8.440000133514404L93.54800000691414,13.578000133514404C93.11400000691414,14.880000133514404,92.27400000691414,15.076000133514404,91.32200000691414,15.076000133514404C90.11800000691414,15.076000133514404,89.86600000691413,14.376000133514404,89.86600000691413,13.228000133514405L89.86600000691413,8.440000133514404L88.66200000691414,8.440000133514404L88.66200000691414,13.676000133514405C88.66200000691414,15.132000133514405,89.22200000691414,16.140000133514405,91.19600000691413,16.140000133514405C92.12000000691414,16.140000133514405,93.11400000691414,15.902000133514404,93.57600000691414,14.908000133514404L93.73000000691414,16.000000133514405L94.75200000691414,16.000000133514405L94.75200000691414,8.440000133514404L93.54800000691414,8.440000133514404ZM100.29600000691414,8.300000133514404C99.75000000691414,8.300000133514404,99.13400000691414,8.342000133514404,98.57400000691413,8.412000133514404L98.57400000691413,9.476000133514404C99.12000000691414,9.364000133514404,99.73600000691414,9.308000133514405,100.24000000691414,9.308000133514405C101.78000000691414,9.308000133514405,102.10200000691414,9.938000133514404,102.10200000691414,10.848000133514404L102.10200000691414,11.478000133514405L99.79200000691414,11.478000133514405C97.98600000691414,11.478000133514405,96.79600000691414,12.094000133514404,96.79600000691414,13.886000133514404C96.79600000691414,15.314000133514405,97.59400000691414,16.140000133514405,99.40000000691414,16.140000133514405C100.53400000691414,16.140000133514405,101.66800000691414,15.678000133514404,102.10200000691414,14.852000133514405L102.28400000691414,16.000000133514405L103.30600000691413,16.000000133514405L103.30600000691413,10.638000133514403C103.30600000691413,9.280000133514404,102.67600000691414,8.300000133514404,100.29600000691414,8.300000133514404ZM99.51200000691414,15.132000133514405C98.44800000691414,15.132000133514405,98.04200000691414,14.698000133514403,98.04200000691414,13.872000133514405C98.04200000691414,12.696000133514405,98.63000000691414,12.444000133514404,99.87600000691414,12.444000133514404L102.10200000691414,12.444000133514404L102.10200000691414,13.690000133514404C101.71000000691414,14.586000133514405,100.77200000691414,15.132000133514405,99.51200000691414,15.132000133514405ZM107.54800000691414,16.084000133514404C107.88400000691414,16.084000133514404,108.12200000691413,16.056000133514402,108.34600000691414,16.000000133514405L108.34600000691414,15.006000133514405C108.15000000691414,15.062000133514404,107.94000000691413,15.076000133514404,107.77200000691414,15.076000133514404C107.28200000691415,15.076000133514404,107.07200000691414,14.922000133514404,107.07200000691414,14.166000133514403L107.07200000691414,5.360000133514404L105.86800000691414,5.360000133514404L105.86800000691414,14.474000133514405C105.86800000691414,15.608000133514404,106.42800000691413,16.084000133514404,107.54800000691414,16.084000133514404ZM116.28400000691414,6.284000133514405L113.48400000691414,6.284000133514405L113.48400000691414,16.000000133514405L116.28400000691414,16.000000133514405C119.07000000691414,16.000000133514405,120.97400000691414,14.894000133514405,120.97400000691414,11.142000133514404C120.97400000691414,7.096000133514404,119.07000000691414,6.284000133514405,116.28400000691414,6.284000133514405ZM116.25600000691414,14.894000133514405L114.74400000691413,14.894000133514405L114.74400000691413,7.376000133514404L116.25600000691414,7.376000133514404C118.23000000691414,7.376000133514404,119.67200000691413,8.034000133514404,119.67200000691413,11.142000133514404C119.67200000691413,14.068000133514404,118.28600000691414,14.894000133514405,116.25600000691414,14.894000133514405ZM129.26200000691415,11.464000133514404C129.26200000691415,9.994000133514405,128.81400000691414,8.300000133514404,126.23800000691413,8.300000133514404C124.08200000691414,8.300000133514404,122.80800000691414,9.210000133514404,122.80800000691414,12.220000133514404C122.80800000691414,15.230000133514404,124.08200000691414,16.140000133514405,126.30800000691414,16.140000133514405C127.38600000691414,16.140000133514405,128.42200000691415,15.916000133514403,128.85600000691414,15.692000133514405L128.85600000691414,14.586000133514405C128.28200000691413,14.866000133514405,127.31600000691414,15.076000133514404,126.49000000691414,15.076000133514404C124.65600000691414,15.076000133514404,124.08200000691414,14.320000133514405,124.06800000691413,12.668000133514404L129.19200000691413,12.346000133514405C129.23400000691413,11.996000133514404,129.26200000691415,11.674000133514404,129.26200000691415,11.464000133514404ZM124.06800000691413,11.772000133514403C124.11000000691413,10.232000133514404,124.50200000691414,9.294000133514405,126.23800000691413,9.294000133514405C127.87600000691414,9.294000133514405,128.07200000691415,10.316000133514404,128.07200000691415,11.478000133514405L124.06800000691413,11.772000133514403ZM133.09800000691413,16.084000133514404C134.94600000691415,16.084000133514404,135.96800000691414,15.398000133514405,135.96800000691414,13.900000133514403C135.96800000691414,12.444000133514404,135.33800000691414,11.968000133514405,133.60200000691412,11.576000133514405C132.42600000691414,11.310000133514404,132.16000000691415,11.142000133514404,132.16000000691415,10.372000133514405C132.16000000691415,9.518000133514406,132.69200000691413,9.280000133514404,133.75600000691415,9.280000133514404C134.45600000691414,9.280000133514404,135.12800000691414,9.406000133514404,135.56200000691413,9.574000133514405L135.64600000691414,8.552000133514404C135.28200000691413,8.412000133514404,134.47000000691415,8.300000133514404,133.74200000691414,8.300000133514404C131.95000000691414,8.300000133514404,131.02600000691413,9.126000133514404,131.02600000691413,10.344000133514404C131.02600000691413,11.618000133514403,131.47400000691414,12.150000133514403,133.14000000691414,12.528000133514404C134.58200000691414,12.864000133514404,134.83400000691415,13.046000133514404,134.83400000691415,13.942000133514405C134.83400000691415,14.824000133514405,134.23200000691415,15.104000133514404,133.08400000691415,15.104000133514404C132.39800000691415,15.104000133514404,131.43200000691414,14.964000133514404,130.90000000691413,14.810000133514404L130.90000000691413,15.846000133514405C131.32000000691414,15.972000133514404,132.37000000691413,16.084000133514404,133.09800000691413,16.084000133514404ZM138.67000000691414,7.054000133514404C139.17400000691413,7.054000133514404,139.38400000691414,6.956000133514404,139.38400000691414,6.340000133514405C139.38400000691414,5.710000133514404,139.17400000691413,5.626000133514404,138.67000000691414,5.626000133514404C138.13800000691413,5.626000133514404,137.94200000691413,5.710000133514404,137.94200000691413,6.340000133514405C137.94200000691413,6.956000133514404,138.13800000691413,7.054000133514404,138.67000000691414,7.054000133514404ZM138.05400000691415,16.000000133514405L139.25800000691413,16.000000133514405L139.25800000691413,8.440000133514404L138.05400000691415,8.440000133514404L138.05400000691415,16.000000133514405ZM146.95800000691415,8.440000133514404L146.95800000691415,9.854000133514404C146.66400000691414,8.958000133514403,146.03400000691414,8.300000133514404,144.50800000691413,8.300000133514404C141.98800000691415,8.300000133514404,141.37200000691413,10.064000133514405,141.37200000691413,12.150000133514403C141.37200000691413,14.460000133514404,141.98800000691415,16.000000133514405,144.50800000691413,16.000000133514405C145.96400000691415,16.000000133514405,146.65000000691413,15.468000133514405,146.95800000691415,14.586000133514405L146.95800000691415,15.342000133514404C146.95800000691415,17.078000133514404,146.16000000691415,17.764000133514404,144.48000000691414,17.764000133514404C143.83600000691413,17.764000133514404,143.20600000691414,17.708000133514403,142.63200000691413,17.596000133514405L142.63200000691413,18.618000133514403C143.10800000691412,18.716000133514406,143.82200000691415,18.800000133514402,144.46600000691413,18.800000133514402C147.02800000691414,18.800000133514402,148.16200000691413,17.554000133514407,148.16200000691413,15.468000133514405L148.16200000691413,8.440000133514404L146.95800000691415,8.440000133514404ZM144.67600000691414,14.992000133514404C142.89800000691415,14.992000133514404,142.66000000691415,13.732000133514404,142.66000000691415,12.150000133514403C142.66000000691415,10.680000133514405,142.85600000691414,9.308000133514405,144.67600000691414,9.308000133514405C146.49600000691413,9.308000133514405,147.00000000691415,10.414000133514405,147.00000000691415,12.150000133514403C147.00000000691415,13.956000133514404,146.49600000691413,14.992000133514404,144.67600000691414,14.992000133514404ZM154.33600000691413,8.300000133514404C153.41200000691413,8.300000133514404,152.37600000691413,8.552000133514404,151.91400000691414,9.518000133514406L151.91400000691414,8.440000133514404L150.71000000691413,8.440000133514404L150.71000000691413,16.000000133514405L151.91400000691414,16.000000133514405L151.91400000691414,10.890000133514405C152.33400000691415,9.560000133514404,153.25800000691413,9.378000133514405,154.21000000691413,9.378000133514405C155.41400000691414,9.378000133514405,155.65200000691414,10.050000133514406,155.65200000691414,11.212000133514405L155.65200000691414,16.000000133514405L156.87000000691413,16.000000133514405L156.87000000691413,10.764000133514404C156.87000000691413,9.322000133514404,156.31000000691415,8.300000133514404,154.33600000691413,8.300000133514404ZM164.23400000691413,14.866000133514405L164.23400000691413,11.478000133514405L168.09800000691413,11.478000133514405L168.09800000691413,10.414000133514405L164.23400000691413,10.414000133514405L164.23400000691413,7.404000133514405L168.37800000691414,7.404000133514405L168.37800000691414,6.284000133514405L162.97400000691414,6.284000133514405L162.97400000691414,16.000000133514405L168.72800000691413,16.000000133514405L168.72800000691413,14.866000133514405L164.23400000691413,14.866000133514405ZM169.66600000691415,16.000000133514405L171.01000000691414,16.000000133514405L173.05400000691415,12.878000133514405L173.13800000691413,12.878000133514405L175.12600000691413,16.000000133514405L176.49800000691414,16.000000133514405L173.92200000691415,12.122000133514405L176.35800000691412,8.440000133514404L175.02800000691414,8.440000133514404L173.15200000691414,11.422000133514405L173.06800000691413,11.422000133514405L171.16400000691414,8.440000133514404L169.82000000691414,8.440000133514404L172.27000000691413,12.150000133514403L169.66600000691415,16.000000133514405ZM181.59400000691414,8.300000133514404C180.67000000691414,8.300000133514404,179.63400000691414,8.552000133514404,179.17200000691415,9.518000133514406L179.17200000691415,5.360000133514404L177.96800000691414,5.360000133514404L177.96800000691414,16.000000133514405L179.17200000691415,16.000000133514405L179.17200000691415,10.890000133514405C179.59200000691413,9.560000133514404,180.51600000691414,9.378000133514405,181.46800000691414,9.378000133514405C182.67200000691415,9.378000133514405,182.92400000691413,10.050000133514406,182.92400000691413,11.212000133514405L182.92400000691413,16.000000133514405L184.12800000691414,16.000000133514405L184.12800000691414,10.764000133514404C184.12800000691414,9.322000133514404,183.56800000691413,8.300000133514404,181.59400000691414,8.300000133514404ZM187.23600000691414,7.054000133514404C187.74000000691413,7.054000133514404,187.95000000691414,6.956000133514404,187.95000000691414,6.340000133514405C187.95000000691414,5.710000133514404,187.74000000691413,5.626000133514404,187.23600000691414,5.626000133514404C186.70400000691413,5.626000133514404,186.50800000691413,5.710000133514404,186.50800000691413,6.340000133514405C186.50800000691413,6.956000133514404,186.70400000691413,7.054000133514404,187.23600000691414,7.054000133514404ZM186.62000000691413,16.000000133514405L187.82400000691413,16.000000133514405L187.82400000691413,8.440000133514404L186.62000000691413,8.440000133514404L186.62000000691413,16.000000133514405ZM194.02600000691413,8.300000133514404C192.58400000691415,8.300000133514404,191.88400000691414,8.902000133514404,191.57600000691414,9.798000133514403L191.57600000691414,5.360000133514404L190.37200000691413,5.360000133514404L190.37200000691413,16.000000133514405L191.42200000691415,16.000000133514405L191.57600000691414,14.684000133514404C191.88400000691414,15.566000133514404,192.55600000691413,16.140000133514405,194.02600000691413,16.140000133514405C196.56000000691415,16.140000133514405,197.14800000691415,14.306000133514404,197.14800000691415,12.220000133514404C197.14800000691415,9.910000133514405,196.56000000691415,8.300000133514404,194.02600000691413,8.300000133514404ZM193.87200000691413,15.118000133514403C192.05200000691414,15.118000133514403,191.52000000691413,13.956000133514404,191.52000000691413,12.220000133514404C191.52000000691413,10.414000133514405,192.05200000691414,9.308000133514405,193.87200000691413,9.308000133514405C195.62200000691413,9.308000133514405,195.88800000691413,10.638000133514403,195.88800000691413,12.220000133514404C195.88800000691413,13.690000133514404,195.66400000691414,15.118000133514403,193.87200000691413,15.118000133514403ZM199.87800000691414,7.054000133514404C200.38200000691413,7.054000133514404,200.59200000691413,6.956000133514404,200.59200000691413,6.340000133514405C200.59200000691413,5.710000133514404,200.38200000691413,5.626000133514404,199.87800000691414,5.626000133514404C199.34600000691415,5.626000133514404,199.15000000691413,5.710000133514404,199.15000000691413,6.340000133514405C199.15000000691413,6.956000133514404,199.34600000691415,7.054000133514404,199.87800000691414,7.054000133514404ZM199.26200000691415,16.000000133514405L200.46600000691413,16.000000133514405L200.46600000691413,8.440000133514404L199.26200000691415,8.440000133514404L199.26200000691415,16.000000133514405ZM205.36600000691413,15.076000133514404C204.44200000691413,15.076000133514404,204.27400000691415,14.796000133514404,204.27400000691415,13.620000133514404L204.27400000691415,9.448000133514405L206.15000000691413,9.448000133514405L206.15000000691413,8.440000133514404L204.27400000691415,8.440000133514404L204.27400000691415,6.6480001335144046L203.07000000691414,6.6480001335144046L203.07000000691414,8.440000133514404L201.95000000691414,8.440000133514404L201.95000000691414,9.448000133514405L203.07000000691414,9.448000133514405L203.07000000691414,13.690000133514404C203.07000000691414,15.678000133514404,203.67200000691415,16.084000133514404,205.33800000691414,16.084000133514404C205.66000000691415,16.084000133514404,205.89800000691415,16.056000133514402,206.19200000691413,16.014000133514404L206.19200000691413,14.992000133514404C205.92600000691414,15.048000133514405,205.70200000691415,15.076000133514404,205.36600000691413,15.076000133514404ZM208.34800000691413,7.054000133514404C208.85200000691412,7.054000133514404,209.06200000691413,6.956000133514404,209.06200000691413,6.340000133514405C209.06200000691413,5.710000133514404,208.85200000691412,5.626000133514404,208.34800000691413,5.626000133514404C207.81600000691415,5.626000133514404,207.62000000691413,5.710000133514404,207.62000000691413,6.340000133514405C207.62000000691413,6.956000133514404,207.81600000691415,7.054000133514404,208.34800000691413,7.054000133514404ZM207.73200000691415,16.000000133514405L208.93600000691413,16.000000133514405L208.93600000691413,8.440000133514404L207.73200000691415,8.440000133514404L207.73200000691415,16.000000133514405ZM214.53600000691415,16.140000133514405C216.77600000691413,16.140000133514405,218.02200000691414,15.230000133514404,218.02200000691414,12.220000133514404C218.02200000691414,9.210000133514404,216.77600000691413,8.300000133514404,214.53600000691415,8.300000133514404C212.31000000691415,8.300000133514404,211.03600000691415,9.210000133514404,211.03600000691415,12.220000133514404C211.03600000691415,15.230000133514404,212.31000000691415,16.140000133514405,214.53600000691415,16.140000133514405ZM214.53600000691415,15.118000133514403C212.89800000691415,15.118000133514403,212.32400000691413,14.432000133514403,212.32400000691413,12.220000133514404C212.32400000691413,10.008000133514404,212.84200000691413,9.308000133514405,214.53600000691415,9.308000133514405C216.18800000691414,9.308000133514405,216.74800000691414,10.008000133514404,216.74800000691414,12.220000133514404C216.74800000691414,14.432000133514403,216.24400000691415,15.118000133514403,214.53600000691415,15.118000133514403ZM223.76200000691415,8.300000133514404C222.83800000691414,8.300000133514404,221.80200000691414,8.552000133514404,221.34000000691415,9.518000133514406L221.34000000691415,8.440000133514404L220.13600000691414,8.440000133514404L220.13600000691414,16.000000133514405L221.34000000691415,16.000000133514405L221.34000000691415,10.890000133514405C221.76000000691414,9.560000133514404,222.68400000691415,9.378000133514405,223.63600000691414,9.378000133514405C224.84000000691415,9.378000133514405,225.07800000691415,10.050000133514406,225.07800000691415,11.212000133514405L225.07800000691415,16.000000133514405L226.29600000691414,16.000000133514405L226.29600000691414,10.764000133514404C226.29600000691414,9.322000133514404,225.73600000691414,8.300000133514404,223.76200000691415,8.300000133514404ZM4.326000006914139,37.140000133514405C6.566000006914138,37.140000133514405,7.812000006914139,36.23000013351441,7.812000006914139,33.220000133514404C7.812000006914139,30.210000133514406,6.566000006914138,29.300000133514406,4.326000006914139,29.300000133514406C2.1000000069141387,29.300000133514406,0.8260000069141388,30.210000133514406,0.8260000069141388,33.220000133514404C0.8260000069141388,36.23000013351441,2.1000000069141387,37.140000133514405,4.326000006914139,37.140000133514405ZM4.326000006914139,36.1180001335144C2.6880000069141388,36.1180001335144,2.1140000069141385,35.43200013351441,2.1140000069141385,33.220000133514404C2.1140000069141385,31.008000133514404,2.6320000069141387,30.308000133514405,4.326000006914139,30.308000133514405C5.978000006914138,30.308000133514405,6.538000006914139,31.008000133514404,6.538000006914139,33.220000133514404C6.538000006914139,35.43200013351441,6.034000006914138,36.1180001335144,4.326000006914139,36.1180001335144ZM12.712000006914138,27.270000133514404C13.03400000691414,27.270000133514404,13.34200000691414,27.298000133514403,13.552000006914138,27.340000133514405L13.552000006914138,26.374000133514404C13.286000006914138,26.332000133514406,12.99200000691414,26.304000133514403,12.712000006914138,26.304000133514403C11.17200000691414,26.304000133514403,10.164000006914138,26.752000133514404,10.164000006914138,29.370000133514406L10.164000006914138,29.440000133514403L8.904000006914139,29.440000133514403L8.904000006914139,30.434000133514406L10.164000006914138,30.434000133514406L10.164000006914138,37.000000133514405L11.368000006914139,37.000000133514405L11.368000006914139,30.434000133514406L13.14600000691414,30.434000133514406L13.14600000691414,29.440000133514403L11.368000006914139,29.440000133514403C11.382000006914138,27.718000133514405,11.676000006914139,27.270000133514404,12.712000006914138,27.270000133514404ZM24.290000006914138,27.284000133514404L17.360000006914138,27.284000133514404L17.360000006914138,28.404000133514405L20.20200000691414,28.404000133514405L20.20200000691414,37.000000133514405L21.46200000691414,37.000000133514405L21.46200000691414,28.404000133514405L24.290000006914138,28.404000133514405L24.290000006914138,27.284000133514404ZM26.13800000691414,28.054000133514403C26.642000006914138,28.054000133514403,26.85200000691414,27.956000133514404,26.85200000691414,27.340000133514405C26.85200000691414,26.710000133514406,26.642000006914138,26.626000133514403,26.13800000691414,26.626000133514403C25.60600000691414,26.626000133514403,25.41000000691414,26.710000133514406,25.41000000691414,27.340000133514405C25.41000000691414,27.956000133514404,25.60600000691414,28.054000133514403,26.13800000691414,28.054000133514403ZM25.522000006914137,37.000000133514405L26.726000006914138,37.000000133514405L26.726000006914138,29.440000133514403L25.522000006914137,29.440000133514403L25.522000006914137,37.000000133514405ZM32.27000000691414,29.300000133514406C31.72400000691414,29.300000133514406,31.10800000691414,29.342000133514404,30.54800000691414,29.412000133514404L30.54800000691414,30.476000133514404C31.09400000691414,30.364000133514406,31.71000000691414,30.308000133514405,32.214000006914134,30.308000133514405C33.75400000691414,30.308000133514405,34.076000006914136,30.938000133514404,34.076000006914136,31.848000133514404L34.076000006914136,32.4780001335144L31.76600000691414,32.4780001335144C29.96000000691414,32.4780001335144,28.770000006914138,33.094000133514406,28.770000006914138,34.8860001335144C28.770000006914138,36.314000133514405,29.56800000691414,37.140000133514405,31.374000006914137,37.140000133514405C32.50800000691414,37.140000133514405,33.64200000691414,36.6780001335144,34.076000006914136,35.85200013351441L34.25800000691414,37.000000133514405L35.280000006914136,37.000000133514405L35.280000006914136,31.638000133514403C35.280000006914136,30.280000133514406,34.65000000691414,29.300000133514406,32.27000000691414,29.300000133514406ZM31.48600000691414,36.1320001335144C30.42200000691414,36.1320001335144,30.01600000691414,35.698000133514405,30.01600000691414,34.872000133514405C30.01600000691414,33.6960001335144,30.604000006914138,33.44400013351441,31.85000000691414,33.44400013351441L34.076000006914136,33.44400013351441L34.076000006914136,34.6900001335144C33.68400000691414,35.5860001335144,32.74600000691414,36.1320001335144,31.48600000691414,36.1320001335144ZM41.46800000691414,29.300000133514406C40.54400000691414,29.300000133514406,39.50800000691414,29.552000133514404,39.04600000691414,30.518000133514406L39.04600000691414,29.440000133514403L37.84200000691414,29.440000133514403L37.84200000691414,37.000000133514405L39.04600000691414,37.000000133514405L39.04600000691414,31.890000133514405C39.466000006914136,30.560000133514404,40.390000006914136,30.378000133514405,41.34200000691414,30.378000133514405C42.54600000691414,30.378000133514405,42.78400000691414,31.050000133514406,42.78400000691414,32.21200013351441L42.78400000691414,37.000000133514405L44.00200000691414,37.000000133514405L44.00200000691414,31.764000133514404C44.00200000691414,30.322000133514404,43.44200000691414,29.300000133514406,41.46800000691414,29.300000133514406ZM47.11000000691414,28.054000133514403C47.61400000691414,28.054000133514403,47.82400000691414,27.956000133514404,47.82400000691414,27.340000133514405C47.82400000691414,26.710000133514406,47.61400000691414,26.626000133514403,47.11000000691414,26.626000133514403C46.57800000691414,26.626000133514403,46.38200000691414,26.710000133514406,46.38200000691414,27.340000133514405C46.38200000691414,27.956000133514404,46.57800000691414,28.054000133514403,47.11000000691414,28.054000133514403ZM45.12200000691414,39.8000001335144C46.844000006914136,39.8000001335144,47.698000006914135,39.338000133514406,47.698000006914135,36.902000133514406L47.698000006914135,29.440000133514403L46.49400000691414,29.440000133514403L46.49400000691414,36.7760001335144C46.49400000691414,38.31600013351441,46.28400000691414,38.8060001335144,45.20600000691414,38.8060001335144C44.85600000691414,38.8060001335144,44.49200000691414,38.76400013351441,44.24000000691414,38.7360001335144L44.24000000691414,39.7300001335144C44.53400000691414,39.7720001335144,44.82800000691414,39.8000001335144,45.12200000691414,39.8000001335144ZM50.86200000691414,28.054000133514403C51.36600000691414,28.054000133514403,51.576000006914136,27.956000133514404,51.576000006914136,27.340000133514405C51.576000006914136,26.710000133514406,51.36600000691414,26.626000133514403,50.86200000691414,26.626000133514403C50.33000000691414,26.626000133514403,50.134000006914135,26.710000133514406,50.134000006914135,27.340000133514405C50.134000006914135,27.956000133514404,50.33000000691414,28.054000133514403,50.86200000691414,28.054000133514403ZM50.24600000691414,37.000000133514405L51.45000000691414,37.000000133514405L51.45000000691414,29.440000133514403L50.24600000691414,29.440000133514403L50.24600000691414,37.000000133514405ZM57.62400000691414,29.300000133514406C56.70000000691414,29.300000133514406,55.66400000691414,29.552000133514404,55.20200000691414,30.518000133514406L55.20200000691414,29.440000133514403L53.99800000691414,29.440000133514403L53.99800000691414,37.000000133514405L55.20200000691414,37.000000133514405L55.20200000691414,31.890000133514405C55.62200000691414,30.560000133514404,56.54600000691414,30.378000133514405,57.49800000691414,30.378000133514405C58.70200000691414,30.378000133514405,58.94000000691414,31.050000133514406,58.94000000691414,32.21200013351441L58.94000000691414,37.000000133514405L60.158000006914136,37.000000133514405L60.158000006914136,31.764000133514404C60.158000006914136,30.322000133514404,59.59800000691414,29.300000133514406,57.62400000691414,29.300000133514406ZM69.87400000691414,37.140000133514405C72.32400000691413,37.140000133514405,73.55600000691413,36.1600001335144,73.55600000691413,33.86400013351441L73.55600000691413,27.284000133514404L72.31000000691414,27.284000133514404L72.31000000691414,33.58400013351441C72.31000000691414,35.43200013351441,71.76400000691415,36.034000133514404,69.88800000691414,36.034000133514404C68.09600000691414,36.034000133514404,67.46600000691414,35.43200013351441,67.46600000691414,33.58400013351441L67.46600000691414,27.284000133514404L66.22000000691413,27.284000133514404L66.22000000691413,33.86400013351441C66.22000000691413,36.23000013351441,67.43800000691414,37.140000133514405,69.87400000691414,37.140000133514405ZM79.68800000691414,29.300000133514406C78.76400000691415,29.300000133514406,77.72800000691414,29.552000133514404,77.26600000691414,30.518000133514406L77.26600000691414,29.440000133514403L76.06200000691413,29.440000133514403L76.06200000691413,37.000000133514405L77.26600000691414,37.000000133514405L77.26600000691414,31.890000133514405C77.68600000691414,30.560000133514404,78.61000000691413,30.378000133514405,79.56200000691413,30.378000133514405C80.76600000691414,30.378000133514405,81.00400000691414,31.050000133514406,81.00400000691414,32.21200013351441L81.00400000691414,37.000000133514405L82.22200000691414,37.000000133514405L82.22200000691414,31.764000133514404C82.22200000691414,30.322000133514404,81.66200000691414,29.300000133514406,79.68800000691414,29.300000133514406ZM85.33000000691413,28.054000133514403C85.83400000691414,28.054000133514403,86.04400000691413,27.956000133514404,86.04400000691413,27.340000133514405C86.04400000691413,26.710000133514406,85.83400000691414,26.626000133514403,85.33000000691413,26.626000133514403C84.79800000691414,26.626000133514403,84.60200000691414,26.710000133514406,84.60200000691414,27.340000133514405C84.60200000691414,27.956000133514404,84.79800000691414,28.054000133514403,85.33000000691413,28.054000133514403ZM84.71400000691413,37.000000133514405L85.91800000691414,37.000000133514405L85.91800000691414,29.440000133514403L84.71400000691413,29.440000133514403L84.71400000691413,37.000000133514405ZM90.16000000691415,37.000000133514405L91.58800000691414,37.000000133514405L94.41600000691413,29.440000133514403L93.14200000691415,29.440000133514403L90.93000000691414,35.796000133514404L90.84600000691414,35.796000133514404L88.55000000691413,29.440000133514403L87.33200000691414,29.440000133514403L90.16000000691415,37.000000133514405ZM101.69600000691413,32.4640001335144C101.69600000691413,30.994000133514405,101.24800000691414,29.300000133514406,98.67200000691413,29.300000133514406C96.51600000691414,29.300000133514406,95.24200000691414,30.210000133514406,95.24200000691414,33.220000133514404C95.24200000691414,36.23000013351441,96.51600000691414,37.140000133514405,98.74200000691414,37.140000133514405C99.82000000691414,37.140000133514405,100.85600000691414,36.9160001335144,101.29000000691414,36.692000133514405L101.29000000691414,35.5860001335144C100.71600000691414,35.866000133514405,99.75000000691414,36.076000133514405,98.92400000691414,36.076000133514405C97.09000000691414,36.076000133514405,96.51600000691414,35.320000133514405,96.50200000691414,33.668000133514404L101.62600000691414,33.34600013351441C101.66800000691414,32.9960001335144,101.69600000691413,32.674000133514404,101.69600000691413,32.4640001335144ZM96.50200000691414,32.7720001335144C96.54400000691413,31.232000133514404,96.93600000691414,30.294000133514405,98.67200000691413,30.294000133514405C100.31000000691414,30.294000133514405,100.50600000691414,31.316000133514404,100.50600000691414,32.4780001335144L96.50200000691414,32.7720001335144ZM107.39400000691414,29.300000133514406C106.48400000691414,29.300000133514406,105.46200000691414,29.552000133514404,104.98600000691414,30.812000133514406L104.98600000691414,29.440000133514403L103.78200000691415,29.440000133514403L103.78200000691415,37.000000133514405L104.98600000691414,37.000000133514405L104.98600000691414,32.058000133514405C105.40600000691414,30.714000133514404,106.35800000691414,30.392000133514404,107.32400000691413,30.392000133514404L107.49200000691414,30.392000133514404L107.53400000691414,29.300000133514406L107.39400000691414,29.300000133514406ZM110.83800000691414,37.08400013351441C112.68600000691414,37.08400013351441,113.70800000691413,36.3980001335144,113.70800000691413,34.9000001335144C113.70800000691413,33.44400013351441,113.07800000691414,32.96800013351441,111.34200000691413,32.576000133514405C110.16600000691413,32.31000013351441,109.90000000691414,32.1420001335144,109.90000000691414,31.372000133514405C109.90000000691414,30.518000133514406,110.43200000691414,30.280000133514406,111.49600000691414,30.280000133514406C112.19600000691413,30.280000133514406,112.86800000691414,30.406000133514404,113.30200000691414,30.574000133514403L113.38600000691414,29.552000133514404C113.02200000691414,29.412000133514404,112.21000000691414,29.300000133514406,111.48200000691413,29.300000133514406C109.69000000691413,29.300000133514406,108.76600000691414,30.126000133514403,108.76600000691414,31.344000133514406C108.76600000691414,32.6180001335144,109.21400000691413,33.1500001335144,110.88000000691414,33.528000133514404C112.32200000691414,33.86400013351441,112.57400000691413,34.046000133514404,112.57400000691413,34.942000133514405C112.57400000691413,35.8240001335144,111.97200000691414,36.104000133514404,110.82400000691413,36.104000133514404C110.13800000691414,36.104000133514404,109.17200000691413,35.9640001335144,108.64000000691414,35.81000013351441L108.64000000691414,36.84600013351441C109.06000000691414,36.9720001335144,110.11000000691413,37.08400013351441,110.83800000691414,37.08400013351441ZM116.41000000691415,28.054000133514403C116.91400000691414,28.054000133514403,117.12400000691414,27.956000133514404,117.12400000691414,27.340000133514405C117.12400000691414,26.710000133514406,116.91400000691414,26.626000133514403,116.41000000691415,26.626000133514403C115.87800000691414,26.626000133514403,115.68200000691414,26.710000133514406,115.68200000691414,27.340000133514405C115.68200000691414,27.956000133514404,115.87800000691414,28.054000133514403,116.41000000691415,28.054000133514403ZM115.79400000691413,37.000000133514405L116.99800000691414,37.000000133514405L116.99800000691414,29.440000133514403L115.79400000691413,29.440000133514403L115.79400000691413,37.000000133514405ZM121.89800000691415,36.076000133514405C120.97400000691414,36.076000133514405,120.80600000691413,35.796000133514404,120.80600000691413,34.62000013351441L120.80600000691413,30.448000133514405L122.68200000691414,30.448000133514405L122.68200000691414,29.440000133514403L120.80600000691413,29.440000133514403L120.80600000691413,27.648000133514405L119.60200000691414,27.648000133514405L119.60200000691414,29.440000133514403L118.48200000691413,29.440000133514403L118.48200000691413,30.448000133514405L119.60200000691414,30.448000133514405L119.60200000691414,34.6900001335144C119.60200000691414,36.6780001335144,120.20400000691414,37.08400013351441,121.87000000691414,37.08400013351441C122.19200000691414,37.08400013351441,122.43000000691414,37.0560001335144,122.72400000691414,37.0140001335144L122.72400000691414,35.99200013351441C122.45800000691413,36.04800013351441,122.23400000691414,36.076000133514405,121.89800000691415,36.076000133514405ZM123.92800000691413,39.8000001335144C126.15400000691415,39.8000001335144,126.79800000691414,38.6380001335144,127.51200000691414,36.74800013351441L130.22800000691413,29.440000133514403L129.01000000691414,29.440000133514403L126.82600000691414,35.71200013351441L126.74200000691414,35.71200013351441L124.43200000691414,29.440000133514403L123.13000000691414,29.440000133514403L126.15400000691415,36.98600013351441C125.77600000691415,38.204000133514405,125.24400000691413,38.76400013351441,123.92800000691413,38.76400013351441L123.92800000691413,39.8000001335144Z" fill="#000000" fill-opacity="0.8500000238418579"/></g></g></g></svg>